ISO-10303-21;
HEADER;
/* Generated by software containing ST-Developer
 * from STEP Tools, Inc. (www.steptools.com) 
 */

FILE_DESCRIPTION(
/* description */ ('FreeCAD Model'),
/* implementation_level */ '2;1');

FILE_NAME(
/* name */ 'z-rod-mount-aligner.step',
/* time_stamp */ '2026-04-24T19:30:51+02:00',
/* author */ (''),
/* organization */ (''),
/* preprocessor_version */ 'ST-DEVELOPER v20.1',
/* originating_system */ 'Autodesk Translation Framework v15.8.0.0',
/* authorisation */ '');

FILE_SCHEMA (('AUTOMOTIVE_DESIGN { 1 0 10303 214 3 1 1 }'));
ENDSEC;

DATA;
#10=MECHANICAL_DESIGN_GEOMETRIC_PRESENTATION_REPRESENTATION('',(#13),#1531);
#11=SHAPE_REPRESENTATION_RELATIONSHIP('SRR','None',#1538,#12);
#12=ADVANCED_BREP_SHAPE_REPRESENTATION('',(#14),#1530);
#13=STYLED_ITEM('',(#1548),#14);
#14=MANIFOLD_SOLID_BREP('z-rod-mount-aligner-mini',#895);
#15=CONICAL_SURFACE('',#961,1.,0.785398163397);
#16=CONICAL_SURFACE('',#963,1.,0.785398163397);
#17=CONICAL_SURFACE('',#965,1.,0.785398163397);
#18=CONICAL_SURFACE('',#968,1.,0.785398163397);
#19=CONICAL_SURFACE('',#973,1.,0.785398163397);
#20=CONICAL_SURFACE('',#988,1.,0.785398163397);
#21=CONICAL_SURFACE('',#991,1.,0.785398163397);
#22=CONICAL_SURFACE('',#994,1.,0.785398163397);
#23=CYLINDRICAL_SURFACE('',#944,1.);
#24=CYLINDRICAL_SURFACE('',#947,1.);
#25=CYLINDRICAL_SURFACE('',#951,1.);
#26=CYLINDRICAL_SURFACE('',#953,1.);
#27=CYLINDRICAL_SURFACE('',#954,1.);
#28=CYLINDRICAL_SURFACE('',#958,1.);
#29=CYLINDRICAL_SURFACE('',#967,1.);
#30=CYLINDRICAL_SURFACE('',#970,1.);
#31=CYLINDRICAL_SURFACE('',#971,1.);
#32=CYLINDRICAL_SURFACE('',#975,1.);
#33=CYLINDRICAL_SURFACE('',#977,1.);
#34=CYLINDRICAL_SURFACE('',#980,1.);
#35=CYLINDRICAL_SURFACE('',#983,1.);
#36=CYLINDRICAL_SURFACE('',#995,1.);
#37=CYLINDRICAL_SURFACE('',#996,1.);
#38=CYLINDRICAL_SURFACE('',#997,1.);
#39=FACE_OUTER_BOUND('',#89,.T.);
#40=FACE_OUTER_BOUND('',#90,.T.);
#41=FACE_OUTER_BOUND('',#91,.T.);
#42=FACE_OUTER_BOUND('',#92,.T.);
#43=FACE_OUTER_BOUND('',#93,.T.);
#44=FACE_OUTER_BOUND('',#94,.T.);
#45=FACE_OUTER_BOUND('',#95,.T.);
#46=FACE_OUTER_BOUND('',#96,.T.);
#47=FACE_OUTER_BOUND('',#97,.T.);
#48=FACE_OUTER_BOUND('',#98,.T.);
#49=FACE_OUTER_BOUND('',#99,.T.);
#50=FACE_OUTER_BOUND('',#100,.T.);
#51=FACE_OUTER_BOUND('',#101,.T.);
#52=FACE_OUTER_BOUND('',#102,.T.);
#53=FACE_OUTER_BOUND('',#103,.T.);
#54=FACE_OUTER_BOUND('',#104,.T.);
#55=FACE_OUTER_BOUND('',#105,.T.);
#56=FACE_OUTER_BOUND('',#106,.T.);
#57=FACE_OUTER_BOUND('',#107,.T.);
#58=FACE_OUTER_BOUND('',#108,.T.);
#59=FACE_OUTER_BOUND('',#109,.T.);
#60=FACE_OUTER_BOUND('',#110,.T.);
#61=FACE_OUTER_BOUND('',#111,.T.);
#62=FACE_OUTER_BOUND('',#112,.T.);
#63=FACE_OUTER_BOUND('',#113,.T.);
#64=FACE_OUTER_BOUND('',#114,.T.);
#65=FACE_OUTER_BOUND('',#115,.T.);
#66=FACE_OUTER_BOUND('',#116,.T.);
#67=FACE_OUTER_BOUND('',#117,.T.);
#68=FACE_OUTER_BOUND('',#118,.T.);
#69=FACE_OUTER_BOUND('',#119,.T.);
#70=FACE_OUTER_BOUND('',#120,.T.);
#71=FACE_OUTER_BOUND('',#121,.T.);
#72=FACE_OUTER_BOUND('',#122,.T.);
#73=FACE_OUTER_BOUND('',#123,.T.);
#74=FACE_OUTER_BOUND('',#124,.T.);
#75=FACE_OUTER_BOUND('',#125,.T.);
#76=FACE_OUTER_BOUND('',#126,.T.);
#77=FACE_OUTER_BOUND('',#127,.T.);
#78=FACE_OUTER_BOUND('',#128,.T.);
#79=FACE_OUTER_BOUND('',#129,.T.);
#80=FACE_OUTER_BOUND('',#130,.T.);
#81=FACE_OUTER_BOUND('',#131,.T.);
#82=FACE_OUTER_BOUND('',#132,.T.);
#83=FACE_OUTER_BOUND('',#133,.T.);
#84=FACE_OUTER_BOUND('',#134,.T.);
#85=FACE_OUTER_BOUND('',#135,.T.);
#86=FACE_OUTER_BOUND('',#136,.T.);
#87=FACE_OUTER_BOUND('',#137,.T.);
#88=FACE_OUTER_BOUND('',#138,.T.);
#89=EDGE_LOOP('',(#563,#564,#565,#566,#567,#568,#569,#570));
#90=EDGE_LOOP('',(#571,#572,#573,#574));
#91=EDGE_LOOP('',(#575,#576,#577,#578,#579,#580,#581,#582,#583,#584,#585,
#586));
#92=EDGE_LOOP('',(#587,#588,#589,#590));
#93=EDGE_LOOP('',(#591,#592,#593,#594));
#94=EDGE_LOOP('',(#595,#596,#597,#598,#599,#600,#601,#602,#603,#604,#605,
#606));
#95=EDGE_LOOP('',(#607,#608,#609,#610));
#96=EDGE_LOOP('',(#611,#612,#613,#614));
#97=EDGE_LOOP('',(#615,#616,#617,#618,#619,#620,#621,#622,#623,#624,#625,
#626,#627,#628,#629,#630));
#98=EDGE_LOOP('',(#631,#632,#633,#634));
#99=EDGE_LOOP('',(#635,#636,#637,#638));
#100=EDGE_LOOP('',(#639,#640,#641,#642));
#101=EDGE_LOOP('',(#643,#644,#645,#646));
#102=EDGE_LOOP('',(#647,#648,#649,#650));
#103=EDGE_LOOP('',(#651,#652,#653,#654,#655,#656));
#104=EDGE_LOOP('',(#657,#658,#659,#660));
#105=EDGE_LOOP('',(#661,#662,#663,#664));
#106=EDGE_LOOP('',(#665,#666,#667,#668));
#107=EDGE_LOOP('',(#669,#670,#671,#672,#673,#674,#675,#676));
#108=EDGE_LOOP('',(#677,#678,#679,#680));
#109=EDGE_LOOP('',(#681,#682,#683,#684));
#110=EDGE_LOOP('',(#685,#686,#687,#688));
#111=EDGE_LOOP('',(#689,#690,#691,#692));
#112=EDGE_LOOP('',(#693,#694,#695,#696));
#113=EDGE_LOOP('',(#697,#698,#699,#700));
#114=EDGE_LOOP('',(#701,#702,#703,#704));
#115=EDGE_LOOP('',(#705,#706,#707,#708,#709,#710,#711,#712,#713,#714));
#116=EDGE_LOOP('',(#715,#716,#717,#718));
#117=EDGE_LOOP('',(#719,#720,#721,#722));
#118=EDGE_LOOP('',(#723,#724,#725,#726));
#119=EDGE_LOOP('',(#727,#728,#729,#730));
#120=EDGE_LOOP('',(#731,#732,#733,#734));
#121=EDGE_LOOP('',(#735,#736,#737,#738,#739,#740));
#122=EDGE_LOOP('',(#741,#742,#743,#744));
#123=EDGE_LOOP('',(#745,#746,#747,#748,#749,#750,#751,#752,#753,#754));
#124=EDGE_LOOP('',(#755,#756,#757,#758));
#125=EDGE_LOOP('',(#759,#760,#761,#762));
#126=EDGE_LOOP('',(#763,#764,#765,#766));
#127=EDGE_LOOP('',(#767,#768,#769,#770));
#128=EDGE_LOOP('',(#771,#772,#773,#774));
#129=EDGE_LOOP('',(#775,#776,#777,#778,#779,#780,#781,#782));
#130=EDGE_LOOP('',(#783,#784,#785,#786));
#131=EDGE_LOOP('',(#787,#788,#789,#790));
#132=EDGE_LOOP('',(#791,#792,#793,#794));
#133=EDGE_LOOP('',(#795,#796,#797,#798));
#134=EDGE_LOOP('',(#799,#800,#801,#802));
#135=EDGE_LOOP('',(#803,#804,#805,#806));
#136=EDGE_LOOP('',(#807,#808,#809,#810));
#137=EDGE_LOOP('',(#811,#812,#813,#814));
#138=EDGE_LOOP('',(#815,#816,#817,#818));
#139=CIRCLE('',#910,1.);
#140=CIRCLE('',#911,1.);
#141=CIRCLE('',#912,1.);
#142=CIRCLE('',#913,1.);
#143=CIRCLE('',#916,1.);
#144=CIRCLE('',#917,1.);
#145=CIRCLE('',#918,1.);
#146=CIRCLE('',#919,1.);
#147=CIRCLE('',#920,1.);
#148=CIRCLE('',#921,1.);
#149=CIRCLE('',#925,1.);
#150=CIRCLE('',#926,1.);
#151=CIRCLE('',#927,1.);
#152=CIRCLE('',#928,1.);
#153=CIRCLE('',#929,1.);
#154=CIRCLE('',#930,1.);
#155=CIRCLE('',#934,1.4);
#156=CIRCLE('',#935,0.6);
#157=CIRCLE('',#936,0.6);
#158=CIRCLE('',#937,0.6);
#159=CIRCLE('',#938,1.4);
#160=CIRCLE('',#939,0.6);
#161=CIRCLE('',#940,0.6);
#162=CIRCLE('',#941,0.6);
#163=CIRCLE('',#945,1.);
#164=CIRCLE('',#948,1.);
#165=CIRCLE('',#949,1.);
#166=CIRCLE('',#952,1.);
#167=CIRCLE('',#955,1.);
#168=CIRCLE('',#957,1.);
#169=CIRCLE('',#959,1.);
#170=CIRCLE('',#969,1.);
#171=CIRCLE('',#972,1.);
#172=CIRCLE('',#978,1.);
#173=CIRCLE('',#981,1.);
#174=CIRCLE('',#984,1.);
#175=CIRCLE('',#985,1.);
#176=CIRCLE('',#987,1.);
#177=CIRCLE('',#989,1.);
#178=CIRCLE('',#992,1.);
#179=LINE('',#1273,#267);
#180=LINE('',#1277,#268);
#181=LINE('',#1281,#269);
#182=LINE('',#1285,#270);
#183=LINE('',#1290,#271);
#184=LINE('',#1291,#272);
#185=LINE('',#1292,#273);
#186=LINE('',#1296,#274);
#187=LINE('',#1300,#275);
#188=LINE('',#1305,#276);
#189=LINE('',#1309,#277);
#190=LINE('',#1313,#278);
#191=LINE('',#1318,#279);
#192=LINE('',#1319,#280);
#193=LINE('',#1320,#281);
#194=LINE('',#1324,#282);
#195=LINE('',#1325,#283);
#196=LINE('',#1326,#284);
#197=LINE('',#1330,#285);
#198=LINE('',#1334,#286);
#199=LINE('',#1339,#287);
#200=LINE('',#1343,#288);
#201=LINE('',#1347,#289);
#202=LINE('',#1352,#290);
#203=LINE('',#1353,#291);
#204=LINE('',#1354,#292);
#205=LINE('',#1358,#293);
#206=LINE('',#1359,#294);
#207=LINE('',#1360,#295);
#208=LINE('',#1364,#296);
#209=LINE('',#1368,#297);
#210=LINE('',#1372,#298);
#211=LINE('',#1376,#299);
#212=LINE('',#1381,#300);
#213=LINE('',#1385,#301);
#214=LINE('',#1389,#302);
#215=LINE('',#1392,#303);
#216=LINE('',#1393,#304);
#217=LINE('',#1396,#305);
#218=LINE('',#1398,#306);
#219=LINE('',#1399,#307);
#220=LINE('',#1403,#308);
#221=LINE('',#1407,#309);
#222=LINE('',#1409,#310);
#223=LINE('',#1411,#311);
#224=LINE('',#1412,#312);
#225=LINE('',#1416,#313);
#226=LINE('',#1421,#314);
#227=LINE('',#1422,#315);
#228=LINE('',#1423,#316);
#229=LINE('',#1427,#317);
#230=LINE('',#1430,#318);
#231=LINE('',#1434,#319);
#232=LINE('',#1438,#320);
#233=LINE('',#1442,#321);
#234=LINE('',#1443,#322);
#235=LINE('',#1444,#323);
#236=LINE('',#1446,#324);
#237=LINE('',#1448,#325);
#238=LINE('',#1450,#326);
#239=LINE('',#1452,#327);
#240=LINE('',#1455,#328);
#241=LINE('',#1456,#329);
#242=LINE('',#1463,#330);
#243=LINE('',#1466,#331);
#244=LINE('',#1469,#332);
#245=LINE('',#1471,#333);
#246=LINE('',#1473,#334);
#247=LINE('',#1474,#335);
#248=LINE('',#1476,#336);
#249=LINE('',#1479,#337);
#250=LINE('',#1481,#338);
#251=LINE('',#1483,#339);
#252=LINE('',#1485,#340);
#253=LINE('',#1486,#341);
#254=LINE('',#1487,#342);
#255=LINE('',#1491,#343);
#256=LINE('',#1494,#344);
#257=LINE('',#1495,#345);
#258=LINE('',#1499,#346);
#259=LINE('',#1504,#347);
#260=LINE('',#1508,#348);
#261=LINE('',#1511,#349);
#262=LINE('',#1514,#350);
#263=LINE('',#1517,#351);
#264=LINE('',#1520,#352);
#265=LINE('',#1521,#353);
#266=LINE('',#1525,#354);
#267=VECTOR('',#1003,1.);
#268=VECTOR('',#1006,1.);
#269=VECTOR('',#1009,1.);
#270=VECTOR('',#1012,1.);
#271=VECTOR('',#1017,1.);
#272=VECTOR('',#1018,1.);
#273=VECTOR('',#1019,1.);
#274=VECTOR('',#1022,1.);
#275=VECTOR('',#1025,1.);
#276=VECTOR('',#1030,1.);
#277=VECTOR('',#1033,1.);
#278=VECTOR('',#1036,1.);
#279=VECTOR('',#1041,1.);
#280=VECTOR('',#1042,1.);
#281=VECTOR('',#1043,1.);
#282=VECTOR('',#1046,1.);
#283=VECTOR('',#1047,1.);
#284=VECTOR('',#1048,1.);
#285=VECTOR('',#1051,1.);
#286=VECTOR('',#1054,1.);
#287=VECTOR('',#1059,1.);
#288=VECTOR('',#1062,1.);
#289=VECTOR('',#1065,1.);
#290=VECTOR('',#1070,1.);
#291=VECTOR('',#1071,1.00000000000064);
#292=VECTOR('',#1072,1.00000000000064);
#293=VECTOR('',#1075,1.);
#294=VECTOR('',#1076,1.);
#295=VECTOR('',#1077,1.);
#296=VECTOR('',#1080,1.);
#297=VECTOR('',#1083,1.);
#298=VECTOR('',#1086,1.);
#299=VECTOR('',#1089,1.);
#300=VECTOR('',#1094,1.);
#301=VECTOR('',#1097,1.);
#302=VECTOR('',#1100,1.);
#303=VECTOR('',#1105,1.00000000000064);
#304=VECTOR('',#1106,1.00000000000064);
#305=VECTOR('',#1109,1.);
#306=VECTOR('',#1110,1.);
#307=VECTOR('',#1111,1.);
#308=VECTOR('',#1116,1.);
#309=VECTOR('',#1119,1.);
#310=VECTOR('',#1120,1.);
#311=VECTOR('',#1121,1.);
#312=VECTOR('',#1122,1.);
#313=VECTOR('',#1125,1.);
#314=VECTOR('',#1132,1.);
#315=VECTOR('',#1133,1.);
#316=VECTOR('',#1134,1.);
#317=VECTOR('',#1141,1.);
#318=VECTOR('',#1144,1.);
#319=VECTOR('',#1149,1.);
#320=VECTOR('',#1154,1.);
#321=VECTOR('',#1159,1.00000000000064);
#322=VECTOR('',#1160,1.00000000000064);
#323=VECTOR('',#1161,1.);
#324=VECTOR('',#1164,1.00000000000064);
#325=VECTOR('',#1167,1.00000000000064);
#326=VECTOR('',#1170,1.00000000000064);
#327=VECTOR('',#1173,1.00000000000064);
#328=VECTOR('',#1178,1.);
#329=VECTOR('',#1179,1.);
#330=VECTOR('',#1190,1.);
#331=VECTOR('',#1195,1.00000000000064);
#332=VECTOR('',#1198,1.);
#333=VECTOR('',#1199,1.);
#334=VECTOR('',#1200,1.);
#335=VECTOR('',#1201,1.);
#336=VECTOR('',#1204,1.);
#337=VECTOR('',#1207,1.);
#338=VECTOR('',#1208,1.);
#339=VECTOR('',#1209,1.);
#340=VECTOR('',#1210,1.);
#341=VECTOR('',#1211,1.);
#342=VECTOR('',#1212,1.);
#343=VECTOR('',#1217,1.);
#344=VECTOR('',#1220,1.);
#345=VECTOR('',#1221,1.);
#346=VECTOR('',#1228,1.00000000000064);
#347=VECTOR('',#1233,1.);
#348=VECTOR('',#1238,1.);
#349=VECTOR('',#1243,1.00000000000064);
#350=VECTOR('',#1248,1.00000000000064);
#351=VECTOR('',#1251,1.00000000000064);
#352=VECTOR('',#1256,1.00000000000064);
#353=VECTOR('',#1257,1.);
#354=VECTOR('',#1264,1.);
#355=VERTEX_POINT('',#1271);
#356=VERTEX_POINT('',#1272);
#357=VERTEX_POINT('',#1274);
#358=VERTEX_POINT('',#1276);
#359=VERTEX_POINT('',#1278);
#360=VERTEX_POINT('',#1280);
#361=VERTEX_POINT('',#1282);
#362=VERTEX_POINT('',#1284);
#363=VERTEX_POINT('',#1288);
#364=VERTEX_POINT('',#1289);
#365=VERTEX_POINT('',#1294);
#366=VERTEX_POINT('',#1295);
#367=VERTEX_POINT('',#1297);
#368=VERTEX_POINT('',#1299);
#369=VERTEX_POINT('',#1302);
#370=VERTEX_POINT('',#1304);
#371=VERTEX_POINT('',#1306);
#372=VERTEX_POINT('',#1308);
#373=VERTEX_POINT('',#1310);
#374=VERTEX_POINT('',#1312);
#375=VERTEX_POINT('',#1316);
#376=VERTEX_POINT('',#1317);
#377=VERTEX_POINT('',#1322);
#378=VERTEX_POINT('',#1323);
#379=VERTEX_POINT('',#1328);
#380=VERTEX_POINT('',#1329);
#381=VERTEX_POINT('',#1331);
#382=VERTEX_POINT('',#1333);
#383=VERTEX_POINT('',#1336);
#384=VERTEX_POINT('',#1338);
#385=VERTEX_POINT('',#1340);
#386=VERTEX_POINT('',#1342);
#387=VERTEX_POINT('',#1344);
#388=VERTEX_POINT('',#1346);
#389=VERTEX_POINT('',#1350);
#390=VERTEX_POINT('',#1351);
#391=VERTEX_POINT('',#1356);
#392=VERTEX_POINT('',#1357);
#393=VERTEX_POINT('',#1362);
#394=VERTEX_POINT('',#1363);
#395=VERTEX_POINT('',#1365);
#396=VERTEX_POINT('',#1367);
#397=VERTEX_POINT('',#1369);
#398=VERTEX_POINT('',#1371);
#399=VERTEX_POINT('',#1373);
#400=VERTEX_POINT('',#1375);
#401=VERTEX_POINT('',#1378);
#402=VERTEX_POINT('',#1380);
#403=VERTEX_POINT('',#1382);
#404=VERTEX_POINT('',#1384);
#405=VERTEX_POINT('',#1386);
#406=VERTEX_POINT('',#1388);
#407=VERTEX_POINT('',#1395);
#408=VERTEX_POINT('',#1397);
#409=VERTEX_POINT('',#1401);
#410=VERTEX_POINT('',#1405);
#411=VERTEX_POINT('',#1406);
#412=VERTEX_POINT('',#1408);
#413=VERTEX_POINT('',#1410);
#414=VERTEX_POINT('',#1414);
#415=VERTEX_POINT('',#1415);
#416=VERTEX_POINT('',#1420);
#417=VERTEX_POINT('',#1429);
#418=VERTEX_POINT('',#1433);
#419=VERTEX_POINT('',#1437);
#420=VERTEX_POINT('',#1441);
#421=VERTEX_POINT('',#1462);
#422=VERTEX_POINT('',#1468);
#423=VERTEX_POINT('',#1470);
#424=VERTEX_POINT('',#1472);
#425=VERTEX_POINT('',#1478);
#426=VERTEX_POINT('',#1480);
#427=VERTEX_POINT('',#1482);
#428=VERTEX_POINT('',#1484);
#429=VERTEX_POINT('',#1489);
#430=VERTEX_POINT('',#1493);
#431=VERTEX_POINT('',#1501);
#432=VERTEX_POINT('',#1503);
#433=VERTEX_POINT('',#1507);
#434=VERTEX_POINT('',#1516);
#435=EDGE_CURVE('',#355,#356,#179,.T.);
#436=EDGE_CURVE('',#357,#356,#139,.T.);
#437=EDGE_CURVE('',#357,#358,#180,.T.);
#438=EDGE_CURVE('',#358,#359,#140,.T.);
#439=EDGE_CURVE('',#359,#360,#181,.T.);
#440=EDGE_CURVE('',#360,#361,#141,.T.);
#441=EDGE_CURVE('',#361,#362,#182,.T.);
#442=EDGE_CURVE('',#355,#362,#142,.T.);
#443=EDGE_CURVE('',#363,#364,#183,.T.);
#444=EDGE_CURVE('',#364,#360,#184,.T.);
#445=EDGE_CURVE('',#363,#359,#185,.T.);
#446=EDGE_CURVE('',#365,#366,#186,.T.);
#447=EDGE_CURVE('',#366,#367,#143,.T.);
#448=EDGE_CURVE('',#367,#368,#187,.T.);
#449=EDGE_CURVE('',#364,#368,#144,.T.);
#450=EDGE_CURVE('',#369,#363,#145,.T.);
#451=EDGE_CURVE('',#369,#370,#188,.T.);
#452=EDGE_CURVE('',#370,#371,#146,.T.);
#453=EDGE_CURVE('',#371,#372,#189,.T.);
#454=EDGE_CURVE('',#373,#372,#147,.T.);
#455=EDGE_CURVE('',#374,#373,#190,.T.);
#456=EDGE_CURVE('',#365,#374,#148,.T.);
#457=EDGE_CURVE('',#375,#376,#191,.T.);
#458=EDGE_CURVE('',#376,#356,#192,.T.);
#459=EDGE_CURVE('',#375,#355,#193,.T.);
#460=EDGE_CURVE('',#377,#378,#194,.T.);
#461=EDGE_CURVE('',#378,#366,#195,.T.);
#462=EDGE_CURVE('',#365,#377,#196,.T.);
#463=EDGE_CURVE('',#379,#380,#197,.T.);
#464=EDGE_CURVE('',#380,#381,#149,.T.);
#465=EDGE_CURVE('',#381,#382,#198,.T.);
#466=EDGE_CURVE('',#382,#376,#150,.T.);
#467=EDGE_CURVE('',#375,#383,#151,.T.);
#468=EDGE_CURVE('',#384,#383,#199,.T.);
#469=EDGE_CURVE('',#384,#385,#152,.T.);
#470=EDGE_CURVE('',#385,#386,#200,.T.);
#471=EDGE_CURVE('',#386,#387,#153,.T.);
#472=EDGE_CURVE('',#388,#387,#201,.T.);
#473=EDGE_CURVE('',#379,#388,#154,.T.);
#474=EDGE_CURVE('',#389,#390,#202,.T.);
#475=EDGE_CURVE('',#390,#378,#203,.T.);
#476=EDGE_CURVE('',#389,#377,#204,.T.);
#477=EDGE_CURVE('',#391,#392,#205,.T.);
#478=EDGE_CURVE('',#392,#380,#206,.T.);
#479=EDGE_CURVE('',#379,#391,#207,.T.);
#480=EDGE_CURVE('',#393,#394,#208,.T.);
#481=EDGE_CURVE('',#395,#393,#155,.T.);
#482=EDGE_CURVE('',#396,#395,#209,.T.);
#483=EDGE_CURVE('',#397,#396,#156,.T.);
#484=EDGE_CURVE('',#398,#397,#210,.T.);
#485=EDGE_CURVE('',#399,#398,#157,.T.);
#486=EDGE_CURVE('',#400,#399,#211,.T.);
#487=EDGE_CURVE('',#390,#400,#158,.T.);
#488=EDGE_CURVE('',#401,#389,#159,.T.);
#489=EDGE_CURVE('',#402,#401,#212,.T.);
#490=EDGE_CURVE('',#403,#402,#160,.T.);
#491=EDGE_CURVE('',#404,#403,#213,.T.);
#492=EDGE_CURVE('',#405,#404,#161,.T.);
#493=EDGE_CURVE('',#406,#405,#214,.T.);
#494=EDGE_CURVE('',#394,#406,#162,.T.);
#495=EDGE_CURVE('',#394,#392,#215,.T.);
#496=EDGE_CURVE('',#393,#391,#216,.T.);
#497=EDGE_CURVE('',#371,#407,#217,.T.);
#498=EDGE_CURVE('',#407,#408,#218,.T.);
#499=EDGE_CURVE('',#372,#408,#219,.T.);
#500=EDGE_CURVE('',#409,#408,#163,.T.);
#501=EDGE_CURVE('',#373,#409,#220,.T.);
#502=EDGE_CURVE('',#410,#411,#221,.T.);
#503=EDGE_CURVE('',#410,#412,#222,.T.);
#504=EDGE_CURVE('',#413,#412,#223,.T.);
#505=EDGE_CURVE('',#413,#411,#224,.T.);
#506=EDGE_CURVE('',#414,#415,#225,.T.);
#507=EDGE_CURVE('',#414,#410,#164,.T.);
#508=EDGE_CURVE('',#411,#415,#165,.T.);
#509=EDGE_CURVE('',#415,#416,#226,.T.);
#510=EDGE_CURVE('',#374,#416,#227,.T.);
#511=EDGE_CURVE('',#409,#414,#228,.T.);
#512=EDGE_CURVE('',#416,#377,#166,.T.);
#513=EDGE_CURVE('',#369,#358,#229,.T.);
#514=EDGE_CURVE('',#370,#417,#230,.T.);
#515=EDGE_CURVE('',#417,#407,#167,.T.);
#516=EDGE_CURVE('',#418,#417,#231,.T.);
#517=EDGE_CURVE('',#418,#412,#168,.T.);
#518=EDGE_CURVE('',#419,#418,#232,.T.);
#519=EDGE_CURVE('',#419,#413,#169,.T.);
#520=EDGE_CURVE('',#406,#420,#233,.T.);
#521=EDGE_CURVE('',#405,#419,#234,.T.);
#522=EDGE_CURVE('',#420,#419,#235,.T.);
#523=EDGE_CURVE('',#404,#413,#236,.T.);
#524=EDGE_CURVE('',#403,#411,#237,.T.);
#525=EDGE_CURVE('',#402,#415,#238,.T.);
#526=EDGE_CURVE('',#401,#416,#239,.T.);
#527=EDGE_CURVE('',#420,#381,#240,.T.);
#528=EDGE_CURVE('',#382,#357,#241,.T.);
#529=EDGE_CURVE('',#392,#420,#170,.T.);
#530=EDGE_CURVE('',#388,#421,#242,.T.);
#531=EDGE_CURVE('',#421,#391,#171,.T.);
#532=EDGE_CURVE('',#395,#421,#243,.T.);
#533=EDGE_CURVE('',#387,#422,#244,.T.);
#534=EDGE_CURVE('',#422,#423,#245,.T.);
#535=EDGE_CURVE('',#423,#424,#246,.T.);
#536=EDGE_CURVE('',#424,#421,#247,.T.);
#537=EDGE_CURVE('',#383,#362,#248,.T.);
#538=EDGE_CURVE('',#425,#367,#249,.T.);
#539=EDGE_CURVE('',#425,#426,#250,.T.);
#540=EDGE_CURVE('',#426,#427,#251,.T.);
#541=EDGE_CURVE('',#427,#428,#252,.T.);
#542=EDGE_CURVE('',#384,#428,#253,.T.);
#543=EDGE_CURVE('',#368,#361,#254,.T.);
#544=EDGE_CURVE('',#428,#429,#172,.T.);
#545=EDGE_CURVE('',#385,#429,#255,.T.);
#546=EDGE_CURVE('',#429,#430,#256,.T.);
#547=EDGE_CURVE('',#386,#430,#257,.T.);
#548=EDGE_CURVE('',#430,#422,#173,.T.);
#549=EDGE_CURVE('',#396,#424,#258,.T.);
#550=EDGE_CURVE('',#423,#431,#174,.T.);
#551=EDGE_CURVE('',#431,#432,#259,.T.);
#552=EDGE_CURVE('',#432,#424,#175,.T.);
#553=EDGE_CURVE('',#431,#433,#260,.T.);
#554=EDGE_CURVE('',#427,#433,#176,.T.);
#555=EDGE_CURVE('',#400,#425,#261,.T.);
#556=EDGE_CURVE('',#378,#425,#177,.T.);
#557=EDGE_CURVE('',#399,#426,#262,.T.);
#558=EDGE_CURVE('',#398,#434,#263,.T.);
#559=EDGE_CURVE('',#426,#434,#178,.T.);
#560=EDGE_CURVE('',#397,#432,#264,.T.);
#561=EDGE_CURVE('',#434,#432,#265,.T.);
#562=EDGE_CURVE('',#434,#433,#266,.T.);
#563=ORIENTED_EDGE('',*,*,#435,.T.);
#564=ORIENTED_EDGE('',*,*,#436,.F.);
#565=ORIENTED_EDGE('',*,*,#437,.T.);
#566=ORIENTED_EDGE('',*,*,#438,.T.);
#567=ORIENTED_EDGE('',*,*,#439,.T.);
#568=ORIENTED_EDGE('',*,*,#440,.T.);
#569=ORIENTED_EDGE('',*,*,#441,.T.);
#570=ORIENTED_EDGE('',*,*,#442,.F.);
#571=ORIENTED_EDGE('',*,*,#443,.T.);
#572=ORIENTED_EDGE('',*,*,#444,.T.);
#573=ORIENTED_EDGE('',*,*,#439,.F.);
#574=ORIENTED_EDGE('',*,*,#445,.F.);
#575=ORIENTED_EDGE('',*,*,#446,.T.);
#576=ORIENTED_EDGE('',*,*,#447,.T.);
#577=ORIENTED_EDGE('',*,*,#448,.T.);
#578=ORIENTED_EDGE('',*,*,#449,.F.);
#579=ORIENTED_EDGE('',*,*,#443,.F.);
#580=ORIENTED_EDGE('',*,*,#450,.F.);
#581=ORIENTED_EDGE('',*,*,#451,.T.);
#582=ORIENTED_EDGE('',*,*,#452,.T.);
#583=ORIENTED_EDGE('',*,*,#453,.T.);
#584=ORIENTED_EDGE('',*,*,#454,.F.);
#585=ORIENTED_EDGE('',*,*,#455,.F.);
#586=ORIENTED_EDGE('',*,*,#456,.F.);
#587=ORIENTED_EDGE('',*,*,#457,.T.);
#588=ORIENTED_EDGE('',*,*,#458,.T.);
#589=ORIENTED_EDGE('',*,*,#435,.F.);
#590=ORIENTED_EDGE('',*,*,#459,.F.);
#591=ORIENTED_EDGE('',*,*,#460,.T.);
#592=ORIENTED_EDGE('',*,*,#461,.T.);
#593=ORIENTED_EDGE('',*,*,#446,.F.);
#594=ORIENTED_EDGE('',*,*,#462,.T.);
#595=ORIENTED_EDGE('',*,*,#463,.T.);
#596=ORIENTED_EDGE('',*,*,#464,.T.);
#597=ORIENTED_EDGE('',*,*,#465,.T.);
#598=ORIENTED_EDGE('',*,*,#466,.T.);
#599=ORIENTED_EDGE('',*,*,#457,.F.);
#600=ORIENTED_EDGE('',*,*,#467,.T.);
#601=ORIENTED_EDGE('',*,*,#468,.F.);
#602=ORIENTED_EDGE('',*,*,#469,.T.);
#603=ORIENTED_EDGE('',*,*,#470,.T.);
#604=ORIENTED_EDGE('',*,*,#471,.T.);
#605=ORIENTED_EDGE('',*,*,#472,.F.);
#606=ORIENTED_EDGE('',*,*,#473,.F.);
#607=ORIENTED_EDGE('',*,*,#474,.T.);
#608=ORIENTED_EDGE('',*,*,#475,.T.);
#609=ORIENTED_EDGE('',*,*,#460,.F.);
#610=ORIENTED_EDGE('',*,*,#476,.F.);
#611=ORIENTED_EDGE('',*,*,#477,.T.);
#612=ORIENTED_EDGE('',*,*,#478,.T.);
#613=ORIENTED_EDGE('',*,*,#463,.F.);
#614=ORIENTED_EDGE('',*,*,#479,.T.);
#615=ORIENTED_EDGE('',*,*,#480,.F.);
#616=ORIENTED_EDGE('',*,*,#481,.F.);
#617=ORIENTED_EDGE('',*,*,#482,.F.);
#618=ORIENTED_EDGE('',*,*,#483,.F.);
#619=ORIENTED_EDGE('',*,*,#484,.F.);
#620=ORIENTED_EDGE('',*,*,#485,.F.);
#621=ORIENTED_EDGE('',*,*,#486,.F.);
#622=ORIENTED_EDGE('',*,*,#487,.F.);
#623=ORIENTED_EDGE('',*,*,#474,.F.);
#624=ORIENTED_EDGE('',*,*,#488,.F.);
#625=ORIENTED_EDGE('',*,*,#489,.F.);
#626=ORIENTED_EDGE('',*,*,#490,.F.);
#627=ORIENTED_EDGE('',*,*,#491,.F.);
#628=ORIENTED_EDGE('',*,*,#492,.F.);
#629=ORIENTED_EDGE('',*,*,#493,.F.);
#630=ORIENTED_EDGE('',*,*,#494,.F.);
#631=ORIENTED_EDGE('',*,*,#480,.T.);
#632=ORIENTED_EDGE('',*,*,#495,.T.);
#633=ORIENTED_EDGE('',*,*,#477,.F.);
#634=ORIENTED_EDGE('',*,*,#496,.F.);
#635=ORIENTED_EDGE('',*,*,#453,.F.);
#636=ORIENTED_EDGE('',*,*,#497,.T.);
#637=ORIENTED_EDGE('',*,*,#498,.T.);
#638=ORIENTED_EDGE('',*,*,#499,.F.);
#639=ORIENTED_EDGE('',*,*,#454,.T.);
#640=ORIENTED_EDGE('',*,*,#499,.T.);
#641=ORIENTED_EDGE('',*,*,#500,.F.);
#642=ORIENTED_EDGE('',*,*,#501,.F.);
#643=ORIENTED_EDGE('',*,*,#502,.F.);
#644=ORIENTED_EDGE('',*,*,#503,.T.);
#645=ORIENTED_EDGE('',*,*,#504,.F.);
#646=ORIENTED_EDGE('',*,*,#505,.T.);
#647=ORIENTED_EDGE('',*,*,#506,.F.);
#648=ORIENTED_EDGE('',*,*,#507,.T.);
#649=ORIENTED_EDGE('',*,*,#502,.T.);
#650=ORIENTED_EDGE('',*,*,#508,.T.);
#651=ORIENTED_EDGE('',*,*,#506,.T.);
#652=ORIENTED_EDGE('',*,*,#509,.T.);
#653=ORIENTED_EDGE('',*,*,#510,.F.);
#654=ORIENTED_EDGE('',*,*,#455,.T.);
#655=ORIENTED_EDGE('',*,*,#501,.T.);
#656=ORIENTED_EDGE('',*,*,#511,.T.);
#657=ORIENTED_EDGE('',*,*,#462,.F.);
#658=ORIENTED_EDGE('',*,*,#456,.T.);
#659=ORIENTED_EDGE('',*,*,#510,.T.);
#660=ORIENTED_EDGE('',*,*,#512,.T.);
#661=ORIENTED_EDGE('',*,*,#450,.T.);
#662=ORIENTED_EDGE('',*,*,#445,.T.);
#663=ORIENTED_EDGE('',*,*,#438,.F.);
#664=ORIENTED_EDGE('',*,*,#513,.F.);
#665=ORIENTED_EDGE('',*,*,#452,.F.);
#666=ORIENTED_EDGE('',*,*,#514,.T.);
#667=ORIENTED_EDGE('',*,*,#515,.T.);
#668=ORIENTED_EDGE('',*,*,#497,.F.);
#669=ORIENTED_EDGE('',*,*,#503,.F.);
#670=ORIENTED_EDGE('',*,*,#507,.F.);
#671=ORIENTED_EDGE('',*,*,#511,.F.);
#672=ORIENTED_EDGE('',*,*,#500,.T.);
#673=ORIENTED_EDGE('',*,*,#498,.F.);
#674=ORIENTED_EDGE('',*,*,#515,.F.);
#675=ORIENTED_EDGE('',*,*,#516,.F.);
#676=ORIENTED_EDGE('',*,*,#517,.T.);
#677=ORIENTED_EDGE('',*,*,#518,.F.);
#678=ORIENTED_EDGE('',*,*,#519,.T.);
#679=ORIENTED_EDGE('',*,*,#504,.T.);
#680=ORIENTED_EDGE('',*,*,#517,.F.);
#681=ORIENTED_EDGE('',*,*,#520,.F.);
#682=ORIENTED_EDGE('',*,*,#493,.T.);
#683=ORIENTED_EDGE('',*,*,#521,.T.);
#684=ORIENTED_EDGE('',*,*,#522,.F.);
#685=ORIENTED_EDGE('',*,*,#521,.F.);
#686=ORIENTED_EDGE('',*,*,#492,.T.);
#687=ORIENTED_EDGE('',*,*,#523,.T.);
#688=ORIENTED_EDGE('',*,*,#519,.F.);
#689=ORIENTED_EDGE('',*,*,#523,.F.);
#690=ORIENTED_EDGE('',*,*,#491,.T.);
#691=ORIENTED_EDGE('',*,*,#524,.T.);
#692=ORIENTED_EDGE('',*,*,#505,.F.);
#693=ORIENTED_EDGE('',*,*,#524,.F.);
#694=ORIENTED_EDGE('',*,*,#490,.T.);
#695=ORIENTED_EDGE('',*,*,#525,.T.);
#696=ORIENTED_EDGE('',*,*,#508,.F.);
#697=ORIENTED_EDGE('',*,*,#525,.F.);
#698=ORIENTED_EDGE('',*,*,#489,.T.);
#699=ORIENTED_EDGE('',*,*,#526,.T.);
#700=ORIENTED_EDGE('',*,*,#509,.F.);
#701=ORIENTED_EDGE('',*,*,#526,.F.);
#702=ORIENTED_EDGE('',*,*,#488,.T.);
#703=ORIENTED_EDGE('',*,*,#476,.T.);
#704=ORIENTED_EDGE('',*,*,#512,.F.);
#705=ORIENTED_EDGE('',*,*,#527,.F.);
#706=ORIENTED_EDGE('',*,*,#522,.T.);
#707=ORIENTED_EDGE('',*,*,#518,.T.);
#708=ORIENTED_EDGE('',*,*,#516,.T.);
#709=ORIENTED_EDGE('',*,*,#514,.F.);
#710=ORIENTED_EDGE('',*,*,#451,.F.);
#711=ORIENTED_EDGE('',*,*,#513,.T.);
#712=ORIENTED_EDGE('',*,*,#437,.F.);
#713=ORIENTED_EDGE('',*,*,#528,.F.);
#714=ORIENTED_EDGE('',*,*,#465,.F.);
#715=ORIENTED_EDGE('',*,*,#466,.F.);
#716=ORIENTED_EDGE('',*,*,#528,.T.);
#717=ORIENTED_EDGE('',*,*,#436,.T.);
#718=ORIENTED_EDGE('',*,*,#458,.F.);
#719=ORIENTED_EDGE('',*,*,#495,.F.);
#720=ORIENTED_EDGE('',*,*,#494,.T.);
#721=ORIENTED_EDGE('',*,*,#520,.T.);
#722=ORIENTED_EDGE('',*,*,#529,.F.);
#723=ORIENTED_EDGE('',*,*,#478,.F.);
#724=ORIENTED_EDGE('',*,*,#529,.T.);
#725=ORIENTED_EDGE('',*,*,#527,.T.);
#726=ORIENTED_EDGE('',*,*,#464,.F.);
#727=ORIENTED_EDGE('',*,*,#479,.F.);
#728=ORIENTED_EDGE('',*,*,#473,.T.);
#729=ORIENTED_EDGE('',*,*,#530,.T.);
#730=ORIENTED_EDGE('',*,*,#531,.T.);
#731=ORIENTED_EDGE('',*,*,#532,.F.);
#732=ORIENTED_EDGE('',*,*,#481,.T.);
#733=ORIENTED_EDGE('',*,*,#496,.T.);
#734=ORIENTED_EDGE('',*,*,#531,.F.);
#735=ORIENTED_EDGE('',*,*,#530,.F.);
#736=ORIENTED_EDGE('',*,*,#472,.T.);
#737=ORIENTED_EDGE('',*,*,#533,.T.);
#738=ORIENTED_EDGE('',*,*,#534,.T.);
#739=ORIENTED_EDGE('',*,*,#535,.T.);
#740=ORIENTED_EDGE('',*,*,#536,.T.);
#741=ORIENTED_EDGE('',*,*,#467,.F.);
#742=ORIENTED_EDGE('',*,*,#459,.T.);
#743=ORIENTED_EDGE('',*,*,#442,.T.);
#744=ORIENTED_EDGE('',*,*,#537,.F.);
#745=ORIENTED_EDGE('',*,*,#538,.F.);
#746=ORIENTED_EDGE('',*,*,#539,.T.);
#747=ORIENTED_EDGE('',*,*,#540,.T.);
#748=ORIENTED_EDGE('',*,*,#541,.T.);
#749=ORIENTED_EDGE('',*,*,#542,.F.);
#750=ORIENTED_EDGE('',*,*,#468,.T.);
#751=ORIENTED_EDGE('',*,*,#537,.T.);
#752=ORIENTED_EDGE('',*,*,#441,.F.);
#753=ORIENTED_EDGE('',*,*,#543,.F.);
#754=ORIENTED_EDGE('',*,*,#448,.F.);
#755=ORIENTED_EDGE('',*,*,#469,.F.);
#756=ORIENTED_EDGE('',*,*,#542,.T.);
#757=ORIENTED_EDGE('',*,*,#544,.T.);
#758=ORIENTED_EDGE('',*,*,#545,.F.);
#759=ORIENTED_EDGE('',*,*,#470,.F.);
#760=ORIENTED_EDGE('',*,*,#545,.T.);
#761=ORIENTED_EDGE('',*,*,#546,.T.);
#762=ORIENTED_EDGE('',*,*,#547,.F.);
#763=ORIENTED_EDGE('',*,*,#471,.F.);
#764=ORIENTED_EDGE('',*,*,#547,.T.);
#765=ORIENTED_EDGE('',*,*,#548,.T.);
#766=ORIENTED_EDGE('',*,*,#533,.F.);
#767=ORIENTED_EDGE('',*,*,#549,.F.);
#768=ORIENTED_EDGE('',*,*,#482,.T.);
#769=ORIENTED_EDGE('',*,*,#532,.T.);
#770=ORIENTED_EDGE('',*,*,#536,.F.);
#771=ORIENTED_EDGE('',*,*,#535,.F.);
#772=ORIENTED_EDGE('',*,*,#550,.T.);
#773=ORIENTED_EDGE('',*,*,#551,.T.);
#774=ORIENTED_EDGE('',*,*,#552,.T.);
#775=ORIENTED_EDGE('',*,*,#553,.F.);
#776=ORIENTED_EDGE('',*,*,#550,.F.);
#777=ORIENTED_EDGE('',*,*,#534,.F.);
#778=ORIENTED_EDGE('',*,*,#548,.F.);
#779=ORIENTED_EDGE('',*,*,#546,.F.);
#780=ORIENTED_EDGE('',*,*,#544,.F.);
#781=ORIENTED_EDGE('',*,*,#541,.F.);
#782=ORIENTED_EDGE('',*,*,#554,.T.);
#783=ORIENTED_EDGE('',*,*,#475,.F.);
#784=ORIENTED_EDGE('',*,*,#487,.T.);
#785=ORIENTED_EDGE('',*,*,#555,.T.);
#786=ORIENTED_EDGE('',*,*,#556,.F.);
#787=ORIENTED_EDGE('',*,*,#555,.F.);
#788=ORIENTED_EDGE('',*,*,#486,.T.);
#789=ORIENTED_EDGE('',*,*,#557,.T.);
#790=ORIENTED_EDGE('',*,*,#539,.F.);
#791=ORIENTED_EDGE('',*,*,#557,.F.);
#792=ORIENTED_EDGE('',*,*,#485,.T.);
#793=ORIENTED_EDGE('',*,*,#558,.T.);
#794=ORIENTED_EDGE('',*,*,#559,.F.);
#795=ORIENTED_EDGE('',*,*,#558,.F.);
#796=ORIENTED_EDGE('',*,*,#484,.T.);
#797=ORIENTED_EDGE('',*,*,#560,.T.);
#798=ORIENTED_EDGE('',*,*,#561,.F.);
#799=ORIENTED_EDGE('',*,*,#560,.F.);
#800=ORIENTED_EDGE('',*,*,#483,.T.);
#801=ORIENTED_EDGE('',*,*,#549,.T.);
#802=ORIENTED_EDGE('',*,*,#552,.F.);
#803=ORIENTED_EDGE('',*,*,#461,.F.);
#804=ORIENTED_EDGE('',*,*,#556,.T.);
#805=ORIENTED_EDGE('',*,*,#538,.T.);
#806=ORIENTED_EDGE('',*,*,#447,.F.);
#807=ORIENTED_EDGE('',*,*,#540,.F.);
#808=ORIENTED_EDGE('',*,*,#559,.T.);
#809=ORIENTED_EDGE('',*,*,#562,.T.);
#810=ORIENTED_EDGE('',*,*,#554,.F.);
#811=ORIENTED_EDGE('',*,*,#449,.T.);
#812=ORIENTED_EDGE('',*,*,#543,.T.);
#813=ORIENTED_EDGE('',*,*,#440,.F.);
#814=ORIENTED_EDGE('',*,*,#444,.F.);
#815=ORIENTED_EDGE('',*,*,#551,.F.);
#816=ORIENTED_EDGE('',*,*,#553,.T.);
#817=ORIENTED_EDGE('',*,*,#562,.F.);
#818=ORIENTED_EDGE('',*,*,#561,.T.);
#819=PLANE('',#909);
#820=PLANE('',#914);
#821=PLANE('',#915);
#822=PLANE('',#922);
#823=PLANE('',#923);
#824=PLANE('',#924);
#825=PLANE('',#931);
#826=PLANE('',#932);
#827=PLANE('',#933);
#828=PLANE('',#942);
#829=PLANE('',#943);
#830=PLANE('',#946);
#831=PLANE('',#950);
#832=PLANE('',#956);
#833=PLANE('',#960);
#834=PLANE('',#962);
#835=PLANE('',#964);
#836=PLANE('',#966);
#837=PLANE('',#974);
#838=PLANE('',#976);
#839=PLANE('',#979);
#840=PLANE('',#982);
#841=PLANE('',#986);
#842=PLANE('',#990);
#843=PLANE('',#993);
#844=PLANE('',#998);
#845=ADVANCED_FACE('',(#39),#819,.T.);
#846=ADVANCED_FACE('',(#40),#820,.T.);
#847=ADVANCED_FACE('',(#41),#821,.T.);
#848=ADVANCED_FACE('',(#42),#822,.T.);
#849=ADVANCED_FACE('',(#43),#823,.T.);
#850=ADVANCED_FACE('',(#44),#824,.T.);
#851=ADVANCED_FACE('',(#45),#825,.T.);
#852=ADVANCED_FACE('',(#46),#826,.T.);
#853=ADVANCED_FACE('',(#47),#827,.T.);
#854=ADVANCED_FACE('',(#48),#828,.T.);
#855=ADVANCED_FACE('',(#49),#829,.F.);
#856=ADVANCED_FACE('',(#50),#23,.T.);
#857=ADVANCED_FACE('',(#51),#830,.T.);
#858=ADVANCED_FACE('',(#52),#24,.T.);
#859=ADVANCED_FACE('',(#53),#831,.T.);
#860=ADVANCED_FACE('',(#54),#25,.F.);
#861=ADVANCED_FACE('',(#55),#26,.T.);
#862=ADVANCED_FACE('',(#56),#27,.T.);
#863=ADVANCED_FACE('',(#57),#832,.T.);
#864=ADVANCED_FACE('',(#58),#28,.T.);
#865=ADVANCED_FACE('',(#59),#833,.T.);
#866=ADVANCED_FACE('',(#60),#15,.T.);
#867=ADVANCED_FACE('',(#61),#834,.T.);
#868=ADVANCED_FACE('',(#62),#16,.T.);
#869=ADVANCED_FACE('',(#63),#835,.T.);
#870=ADVANCED_FACE('',(#64),#17,.F.);
#871=ADVANCED_FACE('',(#65),#836,.T.);
#872=ADVANCED_FACE('',(#66),#29,.T.);
#873=ADVANCED_FACE('',(#67),#18,.T.);
#874=ADVANCED_FACE('',(#68),#30,.T.);
#875=ADVANCED_FACE('',(#69),#31,.F.);
#876=ADVANCED_FACE('',(#70),#19,.F.);
#877=ADVANCED_FACE('',(#71),#837,.T.);
#878=ADVANCED_FACE('',(#72),#32,.T.);
#879=ADVANCED_FACE('',(#73),#838,.T.);
#880=ADVANCED_FACE('',(#74),#33,.T.);
#881=ADVANCED_FACE('',(#75),#839,.F.);
#882=ADVANCED_FACE('',(#76),#34,.T.);
#883=ADVANCED_FACE('',(#77),#840,.T.);
#884=ADVANCED_FACE('',(#78),#35,.T.);
#885=ADVANCED_FACE('',(#79),#841,.T.);
#886=ADVANCED_FACE('',(#80),#20,.T.);
#887=ADVANCED_FACE('',(#81),#842,.T.);
#888=ADVANCED_FACE('',(#82),#21,.T.);
#889=ADVANCED_FACE('',(#83),#843,.T.);
#890=ADVANCED_FACE('',(#84),#22,.T.);
#891=ADVANCED_FACE('',(#85),#36,.T.);
#892=ADVANCED_FACE('',(#86),#37,.T.);
#893=ADVANCED_FACE('',(#87),#38,.T.);
#894=ADVANCED_FACE('',(#88),#844,.T.);
#895=CLOSED_SHELL('',(#845,#846,#847,#848,#849,#850,#851,#852,#853,#854,
#855,#856,#857,#858,#859,#860,#861,#862,#863,#864,#865,#866,#867,#868,#869,
#870,#871,#872,#873,#874,#875,#876,#877,#878,#879,#880,#881,#882,#883,#884,
#885,#886,#887,#888,#889,#890,#891,#892,#893,#894));
#896=DERIVED_UNIT_ELEMENT(#898,1.);
#897=DERIVED_UNIT_ELEMENT(#1533,-3.);
#898=(
MASS_UNIT()
NAMED_UNIT(*)
SI_UNIT(.KILO.,.GRAM.)
);
#899=DERIVED_UNIT((#896,#897));
#900=MEASURE_REPRESENTATION_ITEM('density measure',
POSITIVE_RATIO_MEASURE(7850.),#899);
#901=PROPERTY_DEFINITION_REPRESENTATION(#906,#903);
#902=PROPERTY_DEFINITION_REPRESENTATION(#907,#904);
#903=REPRESENTATION('material name',(#905),#1530);
#904=REPRESENTATION('density',(#900),#1530);
#905=DESCRIPTIVE_REPRESENTATION_ITEM('Acero','Acero');
#906=PROPERTY_DEFINITION('material property','material name',#1540);
#907=PROPERTY_DEFINITION('material property','density of part',#1540);
#908=AXIS2_PLACEMENT_3D('',#1269,#999,#1000);
#909=AXIS2_PLACEMENT_3D('',#1270,#1001,#1002);
#910=AXIS2_PLACEMENT_3D('',#1275,#1004,#1005);
#911=AXIS2_PLACEMENT_3D('',#1279,#1007,#1008);
#912=AXIS2_PLACEMENT_3D('',#1283,#1010,#1011);
#913=AXIS2_PLACEMENT_3D('',#1286,#1013,#1014);
#914=AXIS2_PLACEMENT_3D('',#1287,#1015,#1016);
#915=AXIS2_PLACEMENT_3D('',#1293,#1020,#1021);
#916=AXIS2_PLACEMENT_3D('',#1298,#1023,#1024);
#917=AXIS2_PLACEMENT_3D('',#1301,#1026,#1027);
#918=AXIS2_PLACEMENT_3D('',#1303,#1028,#1029);
#919=AXIS2_PLACEMENT_3D('',#1307,#1031,#1032);
#920=AXIS2_PLACEMENT_3D('',#1311,#1034,#1035);
#921=AXIS2_PLACEMENT_3D('',#1314,#1037,#1038);
#922=AXIS2_PLACEMENT_3D('',#1315,#1039,#1040);
#923=AXIS2_PLACEMENT_3D('',#1321,#1044,#1045);
#924=AXIS2_PLACEMENT_3D('',#1327,#1049,#1050);
#925=AXIS2_PLACEMENT_3D('',#1332,#1052,#1053);
#926=AXIS2_PLACEMENT_3D('',#1335,#1055,#1056);
#927=AXIS2_PLACEMENT_3D('',#1337,#1057,#1058);
#928=AXIS2_PLACEMENT_3D('',#1341,#1060,#1061);
#929=AXIS2_PLACEMENT_3D('',#1345,#1063,#1064);
#930=AXIS2_PLACEMENT_3D('',#1348,#1066,#1067);
#931=AXIS2_PLACEMENT_3D('',#1349,#1068,#1069);
#932=AXIS2_PLACEMENT_3D('',#1355,#1073,#1074);
#933=AXIS2_PLACEMENT_3D('',#1361,#1078,#1079);
#934=AXIS2_PLACEMENT_3D('',#1366,#1081,#1082);
#935=AXIS2_PLACEMENT_3D('',#1370,#1084,#1085);
#936=AXIS2_PLACEMENT_3D('',#1374,#1087,#1088);
#937=AXIS2_PLACEMENT_3D('',#1377,#1090,#1091);
#938=AXIS2_PLACEMENT_3D('',#1379,#1092,#1093);
#939=AXIS2_PLACEMENT_3D('',#1383,#1095,#1096);
#940=AXIS2_PLACEMENT_3D('',#1387,#1098,#1099);
#941=AXIS2_PLACEMENT_3D('',#1390,#1101,#1102);
#942=AXIS2_PLACEMENT_3D('',#1391,#1103,#1104);
#943=AXIS2_PLACEMENT_3D('',#1394,#1107,#1108);
#944=AXIS2_PLACEMENT_3D('',#1400,#1112,#1113);
#945=AXIS2_PLACEMENT_3D('',#1402,#1114,#1115);
#946=AXIS2_PLACEMENT_3D('',#1404,#1117,#1118);
#947=AXIS2_PLACEMENT_3D('',#1413,#1123,#1124);
#948=AXIS2_PLACEMENT_3D('',#1417,#1126,#1127);
#949=AXIS2_PLACEMENT_3D('',#1418,#1128,#1129);
#950=AXIS2_PLACEMENT_3D('',#1419,#1130,#1131);
#951=AXIS2_PLACEMENT_3D('',#1424,#1135,#1136);
#952=AXIS2_PLACEMENT_3D('',#1425,#1137,#1138);
#953=AXIS2_PLACEMENT_3D('',#1426,#1139,#1140);
#954=AXIS2_PLACEMENT_3D('',#1428,#1142,#1143);
#955=AXIS2_PLACEMENT_3D('',#1431,#1145,#1146);
#956=AXIS2_PLACEMENT_3D('',#1432,#1147,#1148);
#957=AXIS2_PLACEMENT_3D('',#1435,#1150,#1151);
#958=AXIS2_PLACEMENT_3D('',#1436,#1152,#1153);
#959=AXIS2_PLACEMENT_3D('',#1439,#1155,#1156);
#960=AXIS2_PLACEMENT_3D('',#1440,#1157,#1158);
#961=AXIS2_PLACEMENT_3D('',#1445,#1162,#1163);
#962=AXIS2_PLACEMENT_3D('',#1447,#1165,#1166);
#963=AXIS2_PLACEMENT_3D('',#1449,#1168,#1169);
#964=AXIS2_PLACEMENT_3D('',#1451,#1171,#1172);
#965=AXIS2_PLACEMENT_3D('',#1453,#1174,#1175);
#966=AXIS2_PLACEMENT_3D('',#1454,#1176,#1177);
#967=AXIS2_PLACEMENT_3D('',#1457,#1180,#1181);
#968=AXIS2_PLACEMENT_3D('',#1458,#1182,#1183);
#969=AXIS2_PLACEMENT_3D('',#1459,#1184,#1185);
#970=AXIS2_PLACEMENT_3D('',#1460,#1186,#1187);
#971=AXIS2_PLACEMENT_3D('',#1461,#1188,#1189);
#972=AXIS2_PLACEMENT_3D('',#1464,#1191,#1192);
#973=AXIS2_PLACEMENT_3D('',#1465,#1193,#1194);
#974=AXIS2_PLACEMENT_3D('',#1467,#1196,#1197);
#975=AXIS2_PLACEMENT_3D('',#1475,#1202,#1203);
#976=AXIS2_PLACEMENT_3D('',#1477,#1205,#1206);
#977=AXIS2_PLACEMENT_3D('',#1488,#1213,#1214);
#978=AXIS2_PLACEMENT_3D('',#1490,#1215,#1216);
#979=AXIS2_PLACEMENT_3D('',#1492,#1218,#1219);
#980=AXIS2_PLACEMENT_3D('',#1496,#1222,#1223);
#981=AXIS2_PLACEMENT_3D('',#1497,#1224,#1225);
#982=AXIS2_PLACEMENT_3D('',#1498,#1226,#1227);
#983=AXIS2_PLACEMENT_3D('',#1500,#1229,#1230);
#984=AXIS2_PLACEMENT_3D('',#1502,#1231,#1232);
#985=AXIS2_PLACEMENT_3D('',#1505,#1234,#1235);
#986=AXIS2_PLACEMENT_3D('',#1506,#1236,#1237);
#987=AXIS2_PLACEMENT_3D('',#1509,#1239,#1240);
#988=AXIS2_PLACEMENT_3D('',#1510,#1241,#1242);
#989=AXIS2_PLACEMENT_3D('',#1512,#1244,#1245);
#990=AXIS2_PLACEMENT_3D('',#1513,#1246,#1247);
#991=AXIS2_PLACEMENT_3D('',#1515,#1249,#1250);
#992=AXIS2_PLACEMENT_3D('',#1518,#1252,#1253);
#993=AXIS2_PLACEMENT_3D('',#1519,#1254,#1255);
#994=AXIS2_PLACEMENT_3D('',#1522,#1258,#1259);
#995=AXIS2_PLACEMENT_3D('',#1523,#1260,#1261);
#996=AXIS2_PLACEMENT_3D('',#1524,#1262,#1263);
#997=AXIS2_PLACEMENT_3D('',#1526,#1265,#1266);
#998=AXIS2_PLACEMENT_3D('',#1527,#1267,#1268);
#999=DIRECTION('axis',(0.,0.,1.));
#1000=DIRECTION('refdir',(1.,0.,0.));
#1001=DIRECTION('center_axis',(0.,0.,1.));
#1002=DIRECTION('ref_axis',(1.,0.,0.));
#1003=DIRECTION('',(1.,0.,0.));
#1004=DIRECTION('center_axis',(0.,0.,-1.));
#1005=DIRECTION('ref_axis',(0.,-1.,0.));
#1006=DIRECTION('',(0.,1.,0.));
#1007=DIRECTION('center_axis',(0.,0.,1.));
#1008=DIRECTION('ref_axis',(0.,-1.,0.));
#1009=DIRECTION('',(-1.,0.,0.));
#1010=DIRECTION('center_axis',(0.,0.,1.));
#1011=DIRECTION('ref_axis',(0.,-1.,0.));
#1012=DIRECTION('',(0.,-1.,0.));
#1013=DIRECTION('center_axis',(0.,0.,-1.));
#1014=DIRECTION('ref_axis',(0.,-1.,0.));
#1015=DIRECTION('center_axis',(0.,1.,0.));
#1016=DIRECTION('ref_axis',(1.,0.,0.));
#1017=DIRECTION('',(-1.,0.,0.));
#1018=DIRECTION('',(0.,0.,1.));
#1019=DIRECTION('',(0.,0.,1.));
#1020=DIRECTION('center_axis',(0.,0.,1.));
#1021=DIRECTION('ref_axis',(0.,-1.,0.));
#1022=DIRECTION('',(-1.,0.,0.));
#1023=DIRECTION('center_axis',(0.,0.,1.));
#1024=DIRECTION('ref_axis',(0.,-1.,0.));
#1025=DIRECTION('',(0.,-1.,0.));
#1026=DIRECTION('center_axis',(0.,0.,1.));
#1027=DIRECTION('ref_axis',(0.,-1.,0.));
#1028=DIRECTION('center_axis',(0.,0.,1.));
#1029=DIRECTION('ref_axis',(0.,-1.,0.));
#1030=DIRECTION('',(0.,1.,0.));
#1031=DIRECTION('center_axis',(0.,0.,-1.));
#1032=DIRECTION('ref_axis',(0.,-1.,0.));
#1033=DIRECTION('',(-1.,0.,0.));
#1034=DIRECTION('center_axis',(0.,0.,1.));
#1035=DIRECTION('ref_axis',(0.,-1.,0.));
#1036=DIRECTION('',(0.,1.,0.));
#1037=DIRECTION('center_axis',(0.,0.,1.));
#1038=DIRECTION('ref_axis',(0.,1.,0.));
#1039=DIRECTION('center_axis',(0.,-1.,0.));
#1040=DIRECTION('ref_axis',(-1.,0.,0.));
#1041=DIRECTION('',(1.,0.,0.));
#1042=DIRECTION('',(0.,0.,1.));
#1043=DIRECTION('',(0.,0.,1.));
#1044=DIRECTION('center_axis',(0.,1.,0.));
#1045=DIRECTION('ref_axis',(1.,0.,0.));
#1046=DIRECTION('',(-1.,0.,0.));
#1047=DIRECTION('',(0.,0.,1.));
#1048=DIRECTION('',(0.,0.,-1.));
#1049=DIRECTION('center_axis',(0.,0.,1.));
#1050=DIRECTION('ref_axis',(0.,-1.,0.));
#1051=DIRECTION('',(1.,0.,0.));
#1052=DIRECTION('center_axis',(0.,0.,1.));
#1053=DIRECTION('ref_axis',(0.,-1.,0.));
#1054=DIRECTION('',(0.,1.,0.));
#1055=DIRECTION('center_axis',(0.,0.,-1.));
#1056=DIRECTION('ref_axis',(0.,-1.,0.));
#1057=DIRECTION('center_axis',(0.,0.,-1.));
#1058=DIRECTION('ref_axis',(0.,-1.,0.));
#1059=DIRECTION('',(0.,1.,0.));
#1060=DIRECTION('center_axis',(0.,0.,-1.));
#1061=DIRECTION('ref_axis',(0.,-1.,0.));
#1062=DIRECTION('',(1.,0.,0.));
#1063=DIRECTION('center_axis',(0.,0.,-1.));
#1064=DIRECTION('ref_axis',(0.,-1.,0.));
#1065=DIRECTION('',(0.,-1.,0.));
#1066=DIRECTION('center_axis',(0.,0.,1.));
#1067=DIRECTION('ref_axis',(0.,1.,0.));
#1068=DIRECTION('center_axis',(0.,0.707106781186548,-0.707106781186548));
#1069=DIRECTION('ref_axis',(-1.,0.,0.));
#1070=DIRECTION('',(-1.,0.,0.));
#1071=DIRECTION('',(0.,0.707106781186548,0.707106781186548));
#1072=DIRECTION('',(0.,0.707106781186548,0.707106781186548));
#1073=DIRECTION('center_axis',(0.,-1.,0.));
#1074=DIRECTION('ref_axis',(-1.,0.,0.));
#1075=DIRECTION('',(1.,0.,0.));
#1076=DIRECTION('',(0.,0.,1.));
#1077=DIRECTION('',(0.,0.,-1.));
#1078=DIRECTION('center_axis',(0.,0.,-1.));
#1079=DIRECTION('ref_axis',(-1.,0.,0.));
#1080=DIRECTION('',(1.,0.,0.));
#1081=DIRECTION('center_axis',(0.,0.,-1.));
#1082=DIRECTION('ref_axis',(-1.,0.,0.));
#1083=DIRECTION('',(0.,1.,0.));
#1084=DIRECTION('center_axis',(0.,0.,1.));
#1085=DIRECTION('ref_axis',(0.,-1.,0.));
#1086=DIRECTION('',(1.,0.,0.));
#1087=DIRECTION('center_axis',(0.,0.,1.));
#1088=DIRECTION('ref_axis',(-1.,0.,0.));
#1089=DIRECTION('',(0.,-1.,0.));
#1090=DIRECTION('center_axis',(0.,0.,1.));
#1091=DIRECTION('ref_axis',(0.,1.,0.));
#1092=DIRECTION('center_axis',(0.,0.,-1.));
#1093=DIRECTION('ref_axis',(1.,0.,0.));
#1094=DIRECTION('',(0.,-1.,0.));
#1095=DIRECTION('center_axis',(0.,0.,1.));
#1096=DIRECTION('ref_axis',(0.,1.,0.));
#1097=DIRECTION('',(-1.,0.,0.));
#1098=DIRECTION('center_axis',(0.,0.,1.));
#1099=DIRECTION('ref_axis',(1.,0.,0.));
#1100=DIRECTION('',(0.,1.,0.));
#1101=DIRECTION('center_axis',(0.,0.,1.));
#1102=DIRECTION('ref_axis',(2.2E-16,-1.,0.));
#1103=DIRECTION('center_axis',(0.,-0.707106781186548,-0.707106781186548));
#1104=DIRECTION('ref_axis',(1.,0.,0.));
#1105=DIRECTION('',(0.,-0.707106781186548,0.707106781186548));
#1106=DIRECTION('',(3.99999999999744E-17,-0.707106781186548,0.707106781186548));
#1107=DIRECTION('center_axis',(0.,1.,0.));
#1108=DIRECTION('ref_axis',(1.,0.,0.));
#1109=DIRECTION('',(0.,0.,1.));
#1110=DIRECTION('',(-1.,0.,0.));
#1111=DIRECTION('',(0.,0.,1.));
#1112=DIRECTION('center_axis',(0.,0.,1.));
#1113=DIRECTION('ref_axis',(-1.,0.,0.));
#1114=DIRECTION('center_axis',(0.,0.,1.));
#1115=DIRECTION('ref_axis',(0.,-1.,0.));
#1116=DIRECTION('',(0.,0.,1.));
#1117=DIRECTION('center_axis',(0.,1.,0.));
#1118=DIRECTION('ref_axis',(0.,0.,-1.));
#1119=DIRECTION('',(0.,0.,-1.));
#1120=DIRECTION('',(1.,0.,0.));
#1121=DIRECTION('',(0.,0.,1.));
#1122=DIRECTION('',(-1.,0.,0.));
#1123=DIRECTION('center_axis',(0.,0.,-1.));
#1124=DIRECTION('ref_axis',(-1.,0.,0.));
#1125=DIRECTION('',(0.,0.,-1.));
#1126=DIRECTION('center_axis',(0.,0.,-1.));
#1127=DIRECTION('ref_axis',(0.,1.,0.));
#1128=DIRECTION('center_axis',(0.,0.,1.));
#1129=DIRECTION('ref_axis',(0.,1.,0.));
#1130=DIRECTION('center_axis',(-1.,0.,0.));
#1131=DIRECTION('ref_axis',(0.,0.,-1.));
#1132=DIRECTION('',(0.,-1.,0.));
#1133=DIRECTION('',(0.,0.,-1.));
#1134=DIRECTION('',(0.,1.,0.));
#1135=DIRECTION('center_axis',(0.,0.,-1.));
#1136=DIRECTION('ref_axis',(0.,-1.,0.));
#1137=DIRECTION('center_axis',(0.,0.,-1.));
#1138=DIRECTION('ref_axis',(1.,0.,0.));
#1139=DIRECTION('center_axis',(0.,0.,1.));
#1140=DIRECTION('ref_axis',(1.,0.,0.));
#1141=DIRECTION('',(0.,0.,1.));
#1142=DIRECTION('center_axis',(0.,0.,1.));
#1143=DIRECTION('ref_axis',(1.,0.,0.));
#1144=DIRECTION('',(0.,0.,1.));
#1145=DIRECTION('center_axis',(0.,0.,-1.));
#1146=DIRECTION('ref_axis',(0.,-1.,0.));
#1147=DIRECTION('center_axis',(0.,0.,1.));
#1148=DIRECTION('ref_axis',(1.,0.,0.));
#1149=DIRECTION('',(0.,-1.,0.));
#1150=DIRECTION('center_axis',(0.,0.,1.));
#1151=DIRECTION('ref_axis',(0.,-1.,0.));
#1152=DIRECTION('center_axis',(0.,0.,1.));
#1153=DIRECTION('ref_axis',(1.,0.,0.));
#1154=DIRECTION('',(0.,0.,1.));
#1155=DIRECTION('center_axis',(0.,0.,1.));
#1156=DIRECTION('ref_axis',(1.,0.,0.));
#1157=DIRECTION('center_axis',(0.707106781186548,0.,-0.707106781186548));
#1158=DIRECTION('ref_axis',(0.,1.,0.));
#1159=DIRECTION('',(0.707106781186548,1.0999999999993E-16,0.707106781186548));
#1160=DIRECTION('',(0.707106781186548,0.,0.707106781186548));
#1161=DIRECTION('',(0.,1.,0.));
#1162=DIRECTION('center_axis',(0.,0.,1.));
#1163=DIRECTION('ref_axis',(1.,0.,0.));
#1164=DIRECTION('',(3.99999999999744E-17,0.707106781186548,0.707106781186548));
#1165=DIRECTION('center_axis',(9.9999999999936E-18,0.707106781186548,-0.707106781186548));
#1166=DIRECTION('ref_axis',(-1.,7.07106781186095E-18,-7.07106781186095E-18));
#1167=DIRECTION('',(0.,0.707106781186548,0.707106781186548));
#1168=DIRECTION('center_axis',(0.,0.,1.));
#1169=DIRECTION('ref_axis',(0.,1.,0.));
#1170=DIRECTION('',(-0.707106781186548,3.99999999999744E-17,0.707106781186548));
#1171=DIRECTION('center_axis',(-0.707106781186548,9.9999999999936E-18,-0.707106781186548));
#1172=DIRECTION('ref_axis',(-7.07106781186095E-18,-1.,-7.07106781186095E-18));
#1173=DIRECTION('',(-0.707106781186548,0.,0.707106781186548));
#1174=DIRECTION('center_axis',(0.,0.,-1.));
#1175=DIRECTION('ref_axis',(1.,0.,0.));
#1176=DIRECTION('center_axis',(1.,0.,0.));
#1177=DIRECTION('ref_axis',(0.,0.,1.));
#1178=DIRECTION('',(0.,0.,1.));
#1179=DIRECTION('',(0.,0.,1.));
#1180=DIRECTION('center_axis',(0.,0.,1.));
#1181=DIRECTION('ref_axis',(1.,0.,0.));
#1182=DIRECTION('center_axis',(0.,0.,1.));
#1183=DIRECTION('ref_axis',(2.2E-16,-1.,0.));
#1184=DIRECTION('center_axis',(0.,0.,1.));
#1185=DIRECTION('ref_axis',(2.2E-16,-1.,0.));
#1186=DIRECTION('center_axis',(0.,0.,1.));
#1187=DIRECTION('ref_axis',(0.,-1.,0.));
#1188=DIRECTION('center_axis',(0.,0.,-1.));
#1189=DIRECTION('ref_axis',(0.,1.,0.));
#1190=DIRECTION('',(0.,0.,-1.));
#1191=DIRECTION('center_axis',(0.,0.,-1.));
#1192=DIRECTION('ref_axis',(-1.,0.,0.));
#1193=DIRECTION('center_axis',(0.,0.,-1.));
#1194=DIRECTION('ref_axis',(-1.,0.,0.));
#1195=DIRECTION('',(0.707106781186548,0.,0.707106781186548));
#1196=DIRECTION('center_axis',(1.,0.,0.));
#1197=DIRECTION('ref_axis',(0.,0.,1.));
#1198=DIRECTION('',(0.,0.,1.));
#1199=DIRECTION('',(0.,-1.,0.));
#1200=DIRECTION('',(0.,0.,-1.));
#1201=DIRECTION('',(0.,1.,0.));
#1202=DIRECTION('center_axis',(0.,0.,1.));
#1203=DIRECTION('ref_axis',(0.,-1.,0.));
#1204=DIRECTION('',(0.,0.,1.));
#1205=DIRECTION('center_axis',(-1.,0.,0.));
#1206=DIRECTION('ref_axis',(0.,0.,-1.));
#1207=DIRECTION('',(0.,0.,1.));
#1208=DIRECTION('',(0.,-1.,0.));
#1209=DIRECTION('',(0.,0.,1.));
#1210=DIRECTION('',(0.,1.,0.));
#1211=DIRECTION('',(0.,0.,1.));
#1212=DIRECTION('',(0.,0.,1.));
#1213=DIRECTION('center_axis',(0.,0.,1.));
#1214=DIRECTION('ref_axis',(-1.,0.,0.));
#1215=DIRECTION('center_axis',(0.,0.,-1.));
#1216=DIRECTION('ref_axis',(0.,-1.,0.));
#1217=DIRECTION('',(0.,0.,1.));
#1218=DIRECTION('center_axis',(0.,-1.,0.));
#1219=DIRECTION('ref_axis',(-1.,0.,0.));
#1220=DIRECTION('',(1.,0.,0.));
#1221=DIRECTION('',(0.,0.,1.));
#1222=DIRECTION('center_axis',(0.,0.,1.));
#1223=DIRECTION('ref_axis',(0.,1.,0.));
#1224=DIRECTION('center_axis',(0.,0.,-1.));
#1225=DIRECTION('ref_axis',(0.,-1.,0.));
#1226=DIRECTION('center_axis',(0.707106781186548,0.,-0.707106781186548));
#1227=DIRECTION('ref_axis',(0.,1.,0.));
#1228=DIRECTION('',(0.707106781186548,-3.99999999999744E-17,0.707106781186548));
#1229=DIRECTION('center_axis',(0.,0.,-1.));
#1230=DIRECTION('ref_axis',(1.,0.,0.));
#1231=DIRECTION('center_axis',(0.,0.,-1.));
#1232=DIRECTION('ref_axis',(0.,1.,0.));
#1233=DIRECTION('',(0.,0.,-1.));
#1234=DIRECTION('center_axis',(0.,0.,1.));
#1235=DIRECTION('ref_axis',(0.,-1.,0.));
#1236=DIRECTION('center_axis',(0.,0.,1.));
#1237=DIRECTION('ref_axis',(1.,0.,0.));
#1238=DIRECTION('',(-1.,0.,0.));
#1239=DIRECTION('center_axis',(0.,0.,1.));
#1240=DIRECTION('ref_axis',(0.,-1.,0.));
#1241=DIRECTION('center_axis',(0.,0.,1.));
#1242=DIRECTION('ref_axis',(0.,1.,0.));
#1243=DIRECTION('',(-0.707106781186548,3.99999999999744E-17,0.707106781186548));
#1244=DIRECTION('center_axis',(0.,0.,1.));
#1245=DIRECTION('ref_axis',(0.,1.,0.));
#1246=DIRECTION('center_axis',(-0.707106781186548,0.,-0.707106781186548));
#1247=DIRECTION('ref_axis',(0.,-1.,0.));
#1248=DIRECTION('',(-0.707106781186548,0.,0.707106781186548));
#1249=DIRECTION('center_axis',(0.,0.,1.));
#1250=DIRECTION('ref_axis',(-1.,0.,0.));
#1251=DIRECTION('',(-3.99999999999744E-17,-0.707106781186548,0.707106781186548));
#1252=DIRECTION('center_axis',(0.,0.,1.));
#1253=DIRECTION('ref_axis',(-1.,0.,0.));
#1254=DIRECTION('center_axis',(-9.9999999999936E-18,-0.707106781186548,
-0.707106781186548));
#1255=DIRECTION('ref_axis',(1.,-7.07106781186095E-18,-7.07106781186095E-18));
#1256=DIRECTION('',(0.,-0.707106781186548,0.707106781186548));
#1257=DIRECTION('',(1.,0.,0.));
#1258=DIRECTION('center_axis',(0.,0.,1.));
#1259=DIRECTION('ref_axis',(0.,-1.,0.));
#1260=DIRECTION('center_axis',(0.,0.,1.));
#1261=DIRECTION('ref_axis',(0.,1.,0.));
#1262=DIRECTION('center_axis',(0.,0.,1.));
#1263=DIRECTION('ref_axis',(-1.,0.,0.));
#1264=DIRECTION('',(0.,0.,1.));
#1265=DIRECTION('center_axis',(0.,0.,1.));
#1266=DIRECTION('ref_axis',(0.,1.,0.));
#1267=DIRECTION('center_axis',(0.,-1.,0.));
#1268=DIRECTION('ref_axis',(0.,0.,1.));
#1269=CARTESIAN_POINT('',(0.,0.,0.));
#1270=CARTESIAN_POINT('Origin',(45.75,-2.5,5.));
#1271=CARTESIAN_POINT('',(-23.,-5.4,5.));
#1272=CARTESIAN_POINT('',(23.,-5.4,5.));
#1273=CARTESIAN_POINT('',(-115.5,-5.4,5.));
#1274=CARTESIAN_POINT('',(24.,-4.4,5.));
#1275=CARTESIAN_POINT('Origin',(23.,-4.4,5.));
#1276=CARTESIAN_POINT('',(24.,-0.599999999999998,5.));
#1277=CARTESIAN_POINT('',(24.,-5.4,5.));
#1278=CARTESIAN_POINT('',(23.,0.400000000000002,5.));
#1279=CARTESIAN_POINT('Origin',(23.,-0.599999999999998,5.));
#1280=CARTESIAN_POINT('',(-23.,0.400000000000002,5.));
#1281=CARTESIAN_POINT('',(115.5,0.400000000000002,5.));
#1282=CARTESIAN_POINT('',(-24.,-0.599999999999998,5.));
#1283=CARTESIAN_POINT('Origin',(-23.,-0.599999999999998,5.));
#1284=CARTESIAN_POINT('',(-24.,-4.4,5.));
#1285=CARTESIAN_POINT('',(-24.,0.400000000000002,5.));
#1286=CARTESIAN_POINT('Origin',(-23.,-4.4,5.));
#1287=CARTESIAN_POINT('Origin',(115.5,0.400000000000002,3.));
#1288=CARTESIAN_POINT('',(23.,0.400000000000002,3.));
#1289=CARTESIAN_POINT('',(-23.,0.400000000000002,3.));
#1290=CARTESIAN_POINT('',(115.5,0.400000000000002,3.));
#1291=CARTESIAN_POINT('',(-23.,0.400000000000002,3.));
#1292=CARTESIAN_POINT('',(23.,0.400000000000002,3.));
#1293=CARTESIAN_POINT('Origin',(46.76546566962,3.184534330387,3.));
#1294=CARTESIAN_POINT('',(3.00000000000001,5.5,3.));
#1295=CARTESIAN_POINT('',(-23.,5.5,3.));
#1296=CARTESIAN_POINT('',(115.5,5.5,3.));
#1297=CARTESIAN_POINT('',(-24.,4.5,3.));
#1298=CARTESIAN_POINT('Origin',(-23.,4.5,3.));
#1299=CARTESIAN_POINT('',(-24.,-0.599999999999998,3.));
#1300=CARTESIAN_POINT('',(-24.,-2.333869198443,3.));
#1301=CARTESIAN_POINT('Origin',(-23.,-0.599999999999998,3.));
#1302=CARTESIAN_POINT('',(24.,-0.599999999999998,3.));
#1303=CARTESIAN_POINT('Origin',(23.,-0.599999999999998,3.));
#1304=CARTESIAN_POINT('',(24.,9.,3.));
#1305=CARTESIAN_POINT('',(24.,5.717267165194,3.));
#1306=CARTESIAN_POINT('',(23.,8.,3.));
#1307=CARTESIAN_POINT('Origin',(23.,9.,3.));
#1308=CARTESIAN_POINT('',(5.,8.,3.));
#1309=CARTESIAN_POINT('',(24.,8.,3.));
#1310=CARTESIAN_POINT('',(4.,9.,3.));
#1311=CARTESIAN_POINT('Origin',(5.,9.,3.));
#1312=CARTESIAN_POINT('',(4.,6.5,3.));
#1313=CARTESIAN_POINT('',(4.,8.541942489869,3.));
#1314=CARTESIAN_POINT('Origin',(3.00000000000001,6.5,3.));
#1315=CARTESIAN_POINT('Origin',(-24.,-5.4,3.));
#1316=CARTESIAN_POINT('',(-23.,-5.4,3.));
#1317=CARTESIAN_POINT('',(23.,-5.4,3.));
#1318=CARTESIAN_POINT('',(-115.5,-5.4,3.));
#1319=CARTESIAN_POINT('',(23.,-5.4,3.));
#1320=CARTESIAN_POINT('',(-23.,-5.4,3.));
#1321=CARTESIAN_POINT('Origin',(115.5,5.5,0.));
#1322=CARTESIAN_POINT('',(3.00000000000001,5.5,0.4));
#1323=CARTESIAN_POINT('',(-23.,5.5,0.4));
#1324=CARTESIAN_POINT('',(94.5,5.5,0.4));
#1325=CARTESIAN_POINT('',(-23.,5.5,0.));
#1326=CARTESIAN_POINT('',(3.00000000000001,5.5,3.));
#1327=CARTESIAN_POINT('Origin',(44.73453433039,-8.184534330387,3.));
#1328=CARTESIAN_POINT('',(-3.00000000000001,-10.5,3.));
#1329=CARTESIAN_POINT('',(23.,-10.5,3.));
#1330=CARTESIAN_POINT('',(-115.5,-10.5,3.));
#1331=CARTESIAN_POINT('',(24.,-9.5,3.));
#1332=CARTESIAN_POINT('Origin',(23.,-9.5,3.));
#1333=CARTESIAN_POINT('',(24.,-4.4,3.));
#1334=CARTESIAN_POINT('',(24.,-10.5,3.));
#1335=CARTESIAN_POINT('Origin',(23.,-4.4,3.));
#1336=CARTESIAN_POINT('',(-24.,-4.4,3.));
#1337=CARTESIAN_POINT('Origin',(-23.,-4.4,3.));
#1338=CARTESIAN_POINT('',(-24.,-14.,3.));
#1339=CARTESIAN_POINT('',(-24.,-8.01840352883,3.));
#1340=CARTESIAN_POINT('',(-23.,-13.,3.));
#1341=CARTESIAN_POINT('Origin',(-23.,-14.,3.));
#1342=CARTESIAN_POINT('',(-5.,-13.,3.));
#1343=CARTESIAN_POINT('',(-24.,-13.,3.));
#1344=CARTESIAN_POINT('',(-4.,-14.,3.));
#1345=CARTESIAN_POINT('Origin',(-5.,-14.,3.));
#1346=CARTESIAN_POINT('',(-4.,-11.5,3.));
#1347=CARTESIAN_POINT('',(-4.,-12.029767165194,3.));
#1348=CARTESIAN_POINT('Origin',(-3.00000000000001,-11.5,3.));
#1349=CARTESIAN_POINT('Origin',(94.5,5.3,0.2));
#1350=CARTESIAN_POINT('',(3.00000000000001,5.1,0.));
#1351=CARTESIAN_POINT('',(-23.,5.1,1.E-15));
#1352=CARTESIAN_POINT('',(94.5,5.1,0.));
#1353=CARTESIAN_POINT('',(-23.,5.3,0.2));
#1354=CARTESIAN_POINT('',(3.00000000000001,5.3,0.2));
#1355=CARTESIAN_POINT('Origin',(-24.,-10.5,0.));
#1356=CARTESIAN_POINT('',(-3.00000000000001,-10.5,0.4));
#1357=CARTESIAN_POINT('',(23.,-10.5,0.4));
#1358=CARTESIAN_POINT('',(-3.00000000000001,-10.5,0.4));
#1359=CARTESIAN_POINT('',(23.,-10.5,0.));
#1360=CARTESIAN_POINT('',(-3.00000000000001,-10.5,3.));
#1361=CARTESIAN_POINT('Origin',(47.39600550965,-1.646005509642,0.));
#1362=CARTESIAN_POINT('',(-3.00000000000001,-10.1,3.E-15));
#1363=CARTESIAN_POINT('',(23.,-10.1,1.E-15));
#1364=CARTESIAN_POINT('',(-3.00000000000001,-10.1,0.));
#1365=CARTESIAN_POINT('',(-4.40000000000001,-11.5,2.E-15));
#1366=CARTESIAN_POINT('Origin',(-3.00000000000001,-11.5,0.));
#1367=CARTESIAN_POINT('',(-4.40000000000001,-20.,3.E-15));
#1368=CARTESIAN_POINT('',(-4.40000000000001,-20.,0.));
#1369=CARTESIAN_POINT('',(-5.,-20.6,1.E-15));
#1370=CARTESIAN_POINT('Origin',(-5.,-20.,0.));
#1371=CARTESIAN_POINT('',(-23.,-20.6,3.E-15));
#1372=CARTESIAN_POINT('',(-23.,-20.6,0.));
#1373=CARTESIAN_POINT('',(-23.6,-20.,2.E-15));
#1374=CARTESIAN_POINT('Origin',(-23.,-20.,0.));
#1375=CARTESIAN_POINT('',(-23.6,4.5,3.E-15));
#1376=CARTESIAN_POINT('',(-23.6,4.5,0.));
#1377=CARTESIAN_POINT('Origin',(-23.,4.5,0.));
#1378=CARTESIAN_POINT('',(4.4,6.5,0.));
#1379=CARTESIAN_POINT('Origin',(3.00000000000001,6.5,0.));
#1380=CARTESIAN_POINT('',(4.4,20.,-1.E-15));
#1381=CARTESIAN_POINT('',(4.4,20.,0.));
#1382=CARTESIAN_POINT('',(5.,20.6,0.));
#1383=CARTESIAN_POINT('Origin',(5.,20.,0.));
#1384=CARTESIAN_POINT('',(23.,20.6,0.));
#1385=CARTESIAN_POINT('',(23.,20.6,0.));
#1386=CARTESIAN_POINT('',(23.6,20.,0.));
#1387=CARTESIAN_POINT('Origin',(23.,20.,0.));
#1388=CARTESIAN_POINT('',(23.6,-9.5,0.));
#1389=CARTESIAN_POINT('',(23.6,-9.5,0.));
#1390=CARTESIAN_POINT('Origin',(23.,-9.5,0.));
#1391=CARTESIAN_POINT('Origin',(-3.00000000000001,-10.3,0.2));
#1392=CARTESIAN_POINT('',(23.,-10.3,0.2));
#1393=CARTESIAN_POINT('',(-3.00000000000001,-10.5,0.4));
#1394=CARTESIAN_POINT('Origin',(24.,8.,3.));
#1395=CARTESIAN_POINT('',(23.,8.,23.));
#1396=CARTESIAN_POINT('',(23.,8.,3.));
#1397=CARTESIAN_POINT('',(5.,8.,23.));
#1398=CARTESIAN_POINT('',(24.,8.,23.));
#1399=CARTESIAN_POINT('',(5.,8.,3.));
#1400=CARTESIAN_POINT('Origin',(5.,9.,3.));
#1401=CARTESIAN_POINT('',(4.,9.,23.));
#1402=CARTESIAN_POINT('Origin',(5.,9.,23.));
#1403=CARTESIAN_POINT('',(4.,9.,3.));
#1404=CARTESIAN_POINT('Origin',(14.,21.,11.5));
#1405=CARTESIAN_POINT('',(5.,21.,23.));
#1406=CARTESIAN_POINT('',(5.,21.,0.4));
#1407=CARTESIAN_POINT('',(5.,21.,23.));
#1408=CARTESIAN_POINT('',(23.,21.,23.));
#1409=CARTESIAN_POINT('',(4.,21.,23.));
#1410=CARTESIAN_POINT('',(23.,21.,0.4));
#1411=CARTESIAN_POINT('',(23.,21.,0.));
#1412=CARTESIAN_POINT('',(23.,21.,0.4));
#1413=CARTESIAN_POINT('Origin',(5.,20.,23.));
#1414=CARTESIAN_POINT('',(4.,20.,23.));
#1415=CARTESIAN_POINT('',(4.,20.,0.4));
#1416=CARTESIAN_POINT('',(4.,20.,23.));
#1417=CARTESIAN_POINT('Origin',(5.,20.,23.));
#1418=CARTESIAN_POINT('Origin',(5.,20.,0.4));
#1419=CARTESIAN_POINT('Origin',(4.,13.899350649351,10.850649350649));
#1420=CARTESIAN_POINT('',(4.,6.5,0.4));
#1421=CARTESIAN_POINT('',(4.,20.,0.4));
#1422=CARTESIAN_POINT('',(4.,6.5,3.));
#1423=CARTESIAN_POINT('',(4.,8.,23.));
#1424=CARTESIAN_POINT('Origin',(3.00000000000001,6.5,3.));
#1425=CARTESIAN_POINT('Origin',(3.00000000000001,6.5,0.4));
#1426=CARTESIAN_POINT('Origin',(23.,-0.599999999999998,3.));
#1427=CARTESIAN_POINT('',(24.,-0.599999999999998,3.));
#1428=CARTESIAN_POINT('Origin',(23.,9.,3.));
#1429=CARTESIAN_POINT('',(24.,9.,23.));
#1430=CARTESIAN_POINT('',(24.,9.,3.));
#1431=CARTESIAN_POINT('Origin',(23.,9.,23.));
#1432=CARTESIAN_POINT('Origin',(14.,14.5,23.));
#1433=CARTESIAN_POINT('',(24.,20.,23.));
#1434=CARTESIAN_POINT('',(24.,21.,23.));
#1435=CARTESIAN_POINT('Origin',(23.,20.,23.));
#1436=CARTESIAN_POINT('Origin',(23.,20.,0.));
#1437=CARTESIAN_POINT('',(24.,20.,0.4));
#1438=CARTESIAN_POINT('',(24.,20.,0.));
#1439=CARTESIAN_POINT('Origin',(23.,20.,0.4));
#1440=CARTESIAN_POINT('Origin',(23.8,-9.5,0.2));
#1441=CARTESIAN_POINT('',(24.,-9.5,0.4));
#1442=CARTESIAN_POINT('',(24.,-9.5,0.4));
#1443=CARTESIAN_POINT('',(23.8,20.,0.2));
#1444=CARTESIAN_POINT('',(24.,-9.5,0.4));
#1445=CARTESIAN_POINT('Origin',(23.,20.,0.4));
#1446=CARTESIAN_POINT('',(23.,21.,0.4));
#1447=CARTESIAN_POINT('Origin',(23.,20.8,0.2));
#1448=CARTESIAN_POINT('',(5.,20.8,0.2));
#1449=CARTESIAN_POINT('Origin',(5.,20.,0.4));
#1450=CARTESIAN_POINT('',(4.,20.,0.4));
#1451=CARTESIAN_POINT('Origin',(4.2,20.,0.2));
#1452=CARTESIAN_POINT('',(4.2,6.5,0.2));
#1453=CARTESIAN_POINT('Origin',(3.00000000000001,6.5,0.4));
#1454=CARTESIAN_POINT('Origin',(24.,8.25,8.062831858407));
#1455=CARTESIAN_POINT('',(24.,-9.5,0.));
#1456=CARTESIAN_POINT('',(24.,-4.4,3.));
#1457=CARTESIAN_POINT('Origin',(23.,-4.4,3.));
#1458=CARTESIAN_POINT('Origin',(23.,-9.5,0.4));
#1459=CARTESIAN_POINT('Origin',(23.,-9.5,0.4));
#1460=CARTESIAN_POINT('Origin',(23.,-9.5,0.));
#1461=CARTESIAN_POINT('Origin',(-3.00000000000001,-11.5,3.));
#1462=CARTESIAN_POINT('',(-4.,-11.5,0.4));
#1463=CARTESIAN_POINT('',(-4.,-11.5,3.));
#1464=CARTESIAN_POINT('Origin',(-3.00000000000001,-11.5,0.4));
#1465=CARTESIAN_POINT('Origin',(-3.00000000000001,-11.5,0.4));
#1466=CARTESIAN_POINT('',(-4.2,-11.5,0.2));
#1467=CARTESIAN_POINT('Origin',(-4.,-15.875,2.125));
#1468=CARTESIAN_POINT('',(-4.,-14.,4.5));
#1469=CARTESIAN_POINT('',(-4.,-14.,3.));
#1470=CARTESIAN_POINT('',(-4.,-20.,4.5));
#1471=CARTESIAN_POINT('',(-4.,-13.,4.5));
#1472=CARTESIAN_POINT('',(-4.,-20.,0.4));
#1473=CARTESIAN_POINT('',(-4.,-20.,4.5));
#1474=CARTESIAN_POINT('',(-4.,-20.,0.4));
#1475=CARTESIAN_POINT('Origin',(-23.,-4.4,3.));
#1476=CARTESIAN_POINT('',(-24.,-4.4,3.));
#1477=CARTESIAN_POINT('Origin',(-24.,-7.852272727273,2.111363636364));
#1478=CARTESIAN_POINT('',(-24.,4.5,0.4));
#1479=CARTESIAN_POINT('',(-24.,4.5,0.));
#1480=CARTESIAN_POINT('',(-24.,-20.,0.4));
#1481=CARTESIAN_POINT('',(-24.,4.5,0.4));
#1482=CARTESIAN_POINT('',(-24.,-20.,4.5));
#1483=CARTESIAN_POINT('',(-24.,-20.,0.));
#1484=CARTESIAN_POINT('',(-24.,-14.,4.5));
#1485=CARTESIAN_POINT('',(-24.,-21.,4.5));
#1486=CARTESIAN_POINT('',(-24.,-14.,3.));
#1487=CARTESIAN_POINT('',(-24.,-0.599999999999998,3.));
#1488=CARTESIAN_POINT('Origin',(-23.,-14.,3.));
#1489=CARTESIAN_POINT('',(-23.,-13.,4.5));
#1490=CARTESIAN_POINT('Origin',(-23.,-14.,4.5));
#1491=CARTESIAN_POINT('',(-23.,-13.,3.));
#1492=CARTESIAN_POINT('Origin',(-24.,-13.,3.));
#1493=CARTESIAN_POINT('',(-5.,-13.,4.5));
#1494=CARTESIAN_POINT('',(-24.,-13.,4.5));
#1495=CARTESIAN_POINT('',(-5.,-13.,3.));
#1496=CARTESIAN_POINT('Origin',(-5.,-14.,3.));
#1497=CARTESIAN_POINT('Origin',(-5.,-14.,4.5));
#1498=CARTESIAN_POINT('Origin',(-4.2,-20.,0.2));
#1499=CARTESIAN_POINT('',(-4.,-20.,0.4));
#1500=CARTESIAN_POINT('Origin',(-5.,-20.,4.5));
#1501=CARTESIAN_POINT('',(-5.,-21.,4.5));
#1502=CARTESIAN_POINT('Origin',(-5.,-20.,4.5));
#1503=CARTESIAN_POINT('',(-5.,-21.,0.4));
#1504=CARTESIAN_POINT('',(-5.,-21.,4.5));
#1505=CARTESIAN_POINT('Origin',(-5.,-20.,0.4));
#1506=CARTESIAN_POINT('Origin',(-14.,-17.,4.5));
#1507=CARTESIAN_POINT('',(-23.,-21.,4.5));
#1508=CARTESIAN_POINT('',(-4.,-21.,4.5));
#1509=CARTESIAN_POINT('Origin',(-23.,-20.,4.5));
#1510=CARTESIAN_POINT('Origin',(-23.,4.5,0.4));
#1511=CARTESIAN_POINT('',(-24.,4.5,0.4));
#1512=CARTESIAN_POINT('Origin',(-23.,4.5,0.4));
#1513=CARTESIAN_POINT('Origin',(-23.8,4.5,0.2));
#1514=CARTESIAN_POINT('',(-23.8,-20.,0.2));
#1515=CARTESIAN_POINT('Origin',(-23.,-20.,0.4));
#1516=CARTESIAN_POINT('',(-23.,-21.,0.4));
#1517=CARTESIAN_POINT('',(-23.,-21.,0.4));
#1518=CARTESIAN_POINT('Origin',(-23.,-20.,0.4));
#1519=CARTESIAN_POINT('Origin',(-23.,-20.8,0.2));
#1520=CARTESIAN_POINT('',(-5.,-20.8,0.2));
#1521=CARTESIAN_POINT('',(-23.,-21.,0.4));
#1522=CARTESIAN_POINT('Origin',(-5.,-20.,0.4));
#1523=CARTESIAN_POINT('Origin',(-23.,4.5,0.));
#1524=CARTESIAN_POINT('Origin',(-23.,-20.,0.));
#1525=CARTESIAN_POINT('',(-23.,-21.,0.));
#1526=CARTESIAN_POINT('Origin',(-23.,-0.599999999999998,3.));
#1527=CARTESIAN_POINT('Origin',(-14.,-21.,2.25));
#1528=UNCERTAINTY_MEASURE_WITH_UNIT(LENGTH_MEASURE(0.01),#1532,
'DISTANCE_ACCURACY_VALUE',
'Maximum model space distance between geometric entities at asserted c
onnectivities');
#1529=UNCERTAINTY_MEASURE_WITH_UNIT(LENGTH_MEASURE(0.01),#1532,
'DISTANCE_ACCURACY_VALUE',
'Maximum model space distance between geometric entities at asserted c
onnectivities');
#1530=(
GEOMETRIC_REPRESENTATION_CONTEXT(3)
GLOBAL_UNCERTAINTY_ASSIGNED_CONTEXT((#1528))
GLOBAL_UNIT_ASSIGNED_CONTEXT((#1532,#1534,#1535))
REPRESENTATION_CONTEXT('','3D')
);
#1531=(
GEOMETRIC_REPRESENTATION_CONTEXT(3)
GLOBAL_UNCERTAINTY_ASSIGNED_CONTEXT((#1529))
GLOBAL_UNIT_ASSIGNED_CONTEXT((#1532,#1534,#1535))
REPRESENTATION_CONTEXT('','3D')
);
#1532=(
LENGTH_UNIT()
NAMED_UNIT(*)
SI_UNIT(.MILLI.,.METRE.)
);
#1533=(
LENGTH_UNIT()
NAMED_UNIT(*)
SI_UNIT($,.METRE.)
);
#1534=(
NAMED_UNIT(*)
PLANE_ANGLE_UNIT()
SI_UNIT($,.RADIAN.)
);
#1535=(
NAMED_UNIT(*)
SI_UNIT($,.STERADIAN.)
SOLID_ANGLE_UNIT()
);
#1536=SHAPE_DEFINITION_REPRESENTATION(#1537,#1538);
#1537=PRODUCT_DEFINITION_SHAPE('',$,#1540);
#1538=SHAPE_REPRESENTATION('',(#908),#1530);
#1539=PRODUCT_DEFINITION_CONTEXT('part definition',#1544,'design');
#1540=PRODUCT_DEFINITION('Body (Mirror #1)','z-rod-mount-aligner v3',#1541,
#1539);
#1541=PRODUCT_DEFINITION_FORMATION('',$,#1546);
#1542=PRODUCT_RELATED_PRODUCT_CATEGORY('z-rod-mount-aligner v3',
'z-rod-mount-aligner v3',(#1546));
#1543=APPLICATION_PROTOCOL_DEFINITION('international standard',
'automotive_design',2009,#1544);
#1544=APPLICATION_CONTEXT(
'Core Data for Automotive Mechanical Design Process');
#1545=PRODUCT_CONTEXT('part definition',#1544,'mechanical');
#1546=PRODUCT('Body (Mirror #1)','z-rod-mount-aligner v3',
'FreeCAD Model',(#1545));
#1547=PRESENTATION_STYLE_ASSIGNMENT((#1549));
#1548=PRESENTATION_STYLE_ASSIGNMENT((#1550));
#1549=SURFACE_STYLE_USAGE(.BOTH.,#1551);
#1550=SURFACE_STYLE_USAGE(.BOTH.,#1552);
#1551=SURFACE_SIDE_STYLE('',(#1553));
#1552=SURFACE_SIDE_STYLE('',(#1554));
#1553=SURFACE_STYLE_FILL_AREA(#1555);
#1554=SURFACE_STYLE_FILL_AREA(#1556);
#1555=FILL_AREA_STYLE('Acero - Satinado',(#1557));
#1556=FILL_AREA_STYLE('Opaque(204,204,204)',(#1558));
#1557=FILL_AREA_STYLE_COLOUR('Acero - Satinado',#1559);
#1558=FILL_AREA_STYLE_COLOUR('Opaque(204,204,204)',#1560);
#1559=COLOUR_RGB('Acero - Satinado',0.627450980392157,0.627450980392157,
0.627450980392157);
#1560=COLOUR_RGB('Opaque(204,204,204)',0.8,0.8,0.8);
ENDSEC;
END-ISO-10303-21;
