ISO-10303-21;
HEADER;
/* Generated by software containing ST-Developer
 * from STEP Tools, Inc. (www.steptools.com) 
 */

FILE_DESCRIPTION(
/* description */ ('FreeCAD Model'),
/* implementation_level */ '2;1');

FILE_NAME(
/* name */ 'back-panel-top-right.step',
/* time_stamp */ '2026-04-24T17:55:02+02:00',
/* author */ (''),
/* organization */ (''),
/* preprocessor_version */ 'ST-DEVELOPER v20.1',
/* originating_system */ 'Autodesk Translation Framework v15.8.0.0',
/* authorisation */ '');

FILE_SCHEMA (('AUTOMOTIVE_DESIGN { 1 0 10303 214 3 1 1 }'));
ENDSEC;

DATA;
#10=MECHANICAL_DESIGN_GEOMETRIC_PRESENTATION_REPRESENTATION('',(#13),#1587);
#11=SHAPE_REPRESENTATION_RELATIONSHIP('SRR','None',#1594,#12);
#12=ADVANCED_BREP_SHAPE_REPRESENTATION('',(#14),#1586);
#13=STYLED_ITEM('',(#1603),#14);
#14=MANIFOLD_SOLID_BREP('back-panel-top-right',#967);
#15=CYLINDRICAL_SURFACE('',#1020,2.);
#16=CYLINDRICAL_SURFACE('',#1024,2.);
#17=CYLINDRICAL_SURFACE('',#1028,1.65);
#18=CYLINDRICAL_SURFACE('',#1032,1.65);
#19=CYLINDRICAL_SURFACE('',#1036,1.65);
#20=CYLINDRICAL_SURFACE('',#1040,1.65);
#21=CYLINDRICAL_SURFACE('',#1044,1.65);
#22=CYLINDRICAL_SURFACE('',#1048,1.65);
#23=CONICAL_SURFACE('',#1018,2.25,0.785398163397448);
#24=CONICAL_SURFACE('',#1022,2.25,0.785398163397448);
#25=CONICAL_SURFACE('',#1026,2.075,0.785398163397448);
#26=CONICAL_SURFACE('',#1030,2.075,0.785398163397448);
#27=CONICAL_SURFACE('',#1034,2.075,0.785398163397448);
#28=CONICAL_SURFACE('',#1038,2.075,0.785398163397448);
#29=CONICAL_SURFACE('',#1042,2.075,0.785398163397448);
#30=CONICAL_SURFACE('',#1046,2.075,0.785398163397448);
#31=FACE_BOUND('',#131,.T.);
#32=FACE_BOUND('',#132,.T.);
#33=FACE_BOUND('',#133,.T.);
#34=FACE_BOUND('',#134,.T.);
#35=FACE_BOUND('',#135,.T.);
#36=FACE_BOUND('',#136,.T.);
#37=FACE_BOUND('',#137,.T.);
#38=FACE_BOUND('',#138,.T.);
#39=FACE_BOUND('',#191,.T.);
#40=FACE_BOUND('',#192,.T.);
#41=FACE_BOUND('',#193,.T.);
#42=FACE_BOUND('',#194,.T.);
#43=FACE_BOUND('',#195,.T.);
#44=FACE_BOUND('',#196,.T.);
#45=FACE_BOUND('',#197,.T.);
#46=FACE_BOUND('',#198,.T.);
#47=FACE_BOUND('',#199,.T.);
#48=FACE_BOUND('',#200,.T.);
#49=FACE_BOUND('',#201,.T.);
#50=FACE_BOUND('',#202,.T.);
#51=CIRCLE('',#983,2.50000000000004);
#52=CIRCLE('',#984,2.50000000000004);
#53=CIRCLE('',#985,2.50000000000004);
#54=CIRCLE('',#986,2.50000000000004);
#55=CIRCLE('',#987,2.50000000000004);
#56=CIRCLE('',#988,2.50000000000004);
#57=CIRCLE('',#989,2.50000000000006);
#58=CIRCLE('',#990,2.50000000000006);
#59=CIRCLE('',#1019,2.);
#60=CIRCLE('',#1021,2.);
#61=CIRCLE('',#1023,2.);
#62=CIRCLE('',#1025,2.);
#63=CIRCLE('',#1027,1.65);
#64=CIRCLE('',#1029,1.65);
#65=CIRCLE('',#1031,1.65);
#66=CIRCLE('',#1033,1.65);
#67=CIRCLE('',#1035,1.65);
#68=CIRCLE('',#1037,1.65);
#69=CIRCLE('',#1039,1.65);
#70=CIRCLE('',#1041,1.65);
#71=CIRCLE('',#1043,1.65);
#72=CIRCLE('',#1045,1.65);
#73=CIRCLE('',#1047,1.65);
#74=CIRCLE('',#1049,1.65);
#75=FACE_OUTER_BOUND('',#129,.T.);
#76=FACE_OUTER_BOUND('',#130,.T.);
#77=FACE_OUTER_BOUND('',#139,.T.);
#78=FACE_OUTER_BOUND('',#140,.T.);
#79=FACE_OUTER_BOUND('',#141,.T.);
#80=FACE_OUTER_BOUND('',#142,.T.);
#81=FACE_OUTER_BOUND('',#143,.T.);
#82=FACE_OUTER_BOUND('',#144,.T.);
#83=FACE_OUTER_BOUND('',#145,.T.);
#84=FACE_OUTER_BOUND('',#146,.T.);
#85=FACE_OUTER_BOUND('',#147,.T.);
#86=FACE_OUTER_BOUND('',#148,.T.);
#87=FACE_OUTER_BOUND('',#149,.T.);
#88=FACE_OUTER_BOUND('',#150,.T.);
#89=FACE_OUTER_BOUND('',#151,.T.);
#90=FACE_OUTER_BOUND('',#152,.T.);
#91=FACE_OUTER_BOUND('',#153,.T.);
#92=FACE_OUTER_BOUND('',#154,.T.);
#93=FACE_OUTER_BOUND('',#155,.T.);
#94=FACE_OUTER_BOUND('',#156,.T.);
#95=FACE_OUTER_BOUND('',#157,.T.);
#96=FACE_OUTER_BOUND('',#158,.T.);
#97=FACE_OUTER_BOUND('',#159,.T.);
#98=FACE_OUTER_BOUND('',#160,.T.);
#99=FACE_OUTER_BOUND('',#161,.T.);
#100=FACE_OUTER_BOUND('',#162,.T.);
#101=FACE_OUTER_BOUND('',#163,.T.);
#102=FACE_OUTER_BOUND('',#164,.T.);
#103=FACE_OUTER_BOUND('',#165,.T.);
#104=FACE_OUTER_BOUND('',#166,.T.);
#105=FACE_OUTER_BOUND('',#167,.T.);
#106=FACE_OUTER_BOUND('',#168,.T.);
#107=FACE_OUTER_BOUND('',#169,.T.);
#108=FACE_OUTER_BOUND('',#170,.T.);
#109=FACE_OUTER_BOUND('',#171,.T.);
#110=FACE_OUTER_BOUND('',#172,.T.);
#111=FACE_OUTER_BOUND('',#173,.T.);
#112=FACE_OUTER_BOUND('',#174,.T.);
#113=FACE_OUTER_BOUND('',#175,.T.);
#114=FACE_OUTER_BOUND('',#176,.T.);
#115=FACE_OUTER_BOUND('',#177,.T.);
#116=FACE_OUTER_BOUND('',#178,.T.);
#117=FACE_OUTER_BOUND('',#179,.T.);
#118=FACE_OUTER_BOUND('',#180,.T.);
#119=FACE_OUTER_BOUND('',#181,.T.);
#120=FACE_OUTER_BOUND('',#182,.T.);
#121=FACE_OUTER_BOUND('',#183,.T.);
#122=FACE_OUTER_BOUND('',#184,.T.);
#123=FACE_OUTER_BOUND('',#185,.T.);
#124=FACE_OUTER_BOUND('',#186,.T.);
#125=FACE_OUTER_BOUND('',#187,.T.);
#126=FACE_OUTER_BOUND('',#188,.T.);
#127=FACE_OUTER_BOUND('',#189,.T.);
#128=FACE_OUTER_BOUND('',#190,.T.);
#129=EDGE_LOOP('',(#619,#620,#621,#622));
#130=EDGE_LOOP('',(#623,#624,#625,#626,#627,#628,#629,#630));
#131=EDGE_LOOP('',(#631));
#132=EDGE_LOOP('',(#632));
#133=EDGE_LOOP('',(#633));
#134=EDGE_LOOP('',(#634));
#135=EDGE_LOOP('',(#635));
#136=EDGE_LOOP('',(#636));
#137=EDGE_LOOP('',(#637));
#138=EDGE_LOOP('',(#638));
#139=EDGE_LOOP('',(#639,#640,#641,#642));
#140=EDGE_LOOP('',(#643,#644,#645,#646));
#141=EDGE_LOOP('',(#647,#648,#649,#650));
#142=EDGE_LOOP('',(#651,#652,#653,#654));
#143=EDGE_LOOP('',(#655,#656,#657,#658));
#144=EDGE_LOOP('',(#659,#660,#661,#662));
#145=EDGE_LOOP('',(#663,#664,#665,#666));
#146=EDGE_LOOP('',(#667,#668,#669,#670));
#147=EDGE_LOOP('',(#671,#672,#673,#674));
#148=EDGE_LOOP('',(#675,#676,#677,#678));
#149=EDGE_LOOP('',(#679,#680,#681,#682));
#150=EDGE_LOOP('',(#683,#684,#685,#686));
#151=EDGE_LOOP('',(#687,#688,#689,#690));
#152=EDGE_LOOP('',(#691,#692,#693,#694));
#153=EDGE_LOOP('',(#695,#696,#697,#698));
#154=EDGE_LOOP('',(#699,#700,#701,#702));
#155=EDGE_LOOP('',(#703,#704,#705,#706));
#156=EDGE_LOOP('',(#707,#708,#709,#710));
#157=EDGE_LOOP('',(#711,#712,#713,#714));
#158=EDGE_LOOP('',(#715,#716,#717,#718));
#159=EDGE_LOOP('',(#719,#720,#721,#722));
#160=EDGE_LOOP('',(#723,#724,#725,#726));
#161=EDGE_LOOP('',(#727,#728,#729,#730));
#162=EDGE_LOOP('',(#731,#732,#733,#734));
#163=EDGE_LOOP('',(#735,#736,#737,#738));
#164=EDGE_LOOP('',(#739,#740,#741,#742));
#165=EDGE_LOOP('',(#743,#744,#745,#746));
#166=EDGE_LOOP('',(#747,#748,#749,#750));
#167=EDGE_LOOP('',(#751,#752,#753,#754));
#168=EDGE_LOOP('',(#755,#756,#757,#758));
#169=EDGE_LOOP('',(#759,#760,#761,#762));
#170=EDGE_LOOP('',(#763,#764,#765,#766));
#171=EDGE_LOOP('',(#767,#768,#769,#770));
#172=EDGE_LOOP('',(#771,#772,#773,#774));
#173=EDGE_LOOP('',(#775,#776,#777,#778));
#174=EDGE_LOOP('',(#779,#780,#781,#782));
#175=EDGE_LOOP('',(#783,#784,#785,#786));
#176=EDGE_LOOP('',(#787,#788,#789,#790));
#177=EDGE_LOOP('',(#791,#792,#793,#794));
#178=EDGE_LOOP('',(#795,#796,#797,#798));
#179=EDGE_LOOP('',(#799,#800,#801,#802));
#180=EDGE_LOOP('',(#803,#804,#805,#806));
#181=EDGE_LOOP('',(#807,#808,#809,#810));
#182=EDGE_LOOP('',(#811,#812,#813,#814));
#183=EDGE_LOOP('',(#815,#816,#817,#818));
#184=EDGE_LOOP('',(#819,#820,#821,#822));
#185=EDGE_LOOP('',(#823,#824,#825,#826));
#186=EDGE_LOOP('',(#827,#828,#829,#830));
#187=EDGE_LOOP('',(#831,#832,#833,#834));
#188=EDGE_LOOP('',(#835,#836,#837,#838));
#189=EDGE_LOOP('',(#839,#840,#841,#842));
#190=EDGE_LOOP('',(#843,#844,#845,#846,#847,#848,#849,#850));
#191=EDGE_LOOP('',(#851,#852,#853,#854));
#192=EDGE_LOOP('',(#855,#856,#857,#858));
#193=EDGE_LOOP('',(#859));
#194=EDGE_LOOP('',(#860));
#195=EDGE_LOOP('',(#861));
#196=EDGE_LOOP('',(#862));
#197=EDGE_LOOP('',(#863));
#198=EDGE_LOOP('',(#864));
#199=EDGE_LOOP('',(#865));
#200=EDGE_LOOP('',(#866));
#201=EDGE_LOOP('',(#867,#868,#869,#870));
#202=EDGE_LOOP('',(#871,#872,#873,#874));
#203=LINE('',#1325,#307);
#204=LINE('',#1327,#308);
#205=LINE('',#1329,#309);
#206=LINE('',#1330,#310);
#207=LINE('',#1333,#311);
#208=LINE('',#1335,#312);
#209=LINE('',#1337,#313);
#210=LINE('',#1339,#314);
#211=LINE('',#1341,#315);
#212=LINE('',#1343,#316);
#213=LINE('',#1344,#317);
#214=LINE('',#1363,#318);
#215=LINE('',#1364,#319);
#216=LINE('',#1367,#320);
#217=LINE('',#1368,#321);
#218=LINE('',#1371,#322);
#219=LINE('',#1372,#323);
#220=LINE('',#1375,#324);
#221=LINE('',#1376,#325);
#222=LINE('',#1379,#326);
#223=LINE('',#1380,#327);
#224=LINE('',#1383,#328);
#225=LINE('',#1384,#329);
#226=LINE('',#1386,#330);
#227=LINE('',#1390,#331);
#228=LINE('',#1392,#332);
#229=LINE('',#1394,#333);
#230=LINE('',#1395,#334);
#231=LINE('',#1399,#335);
#232=LINE('',#1401,#336);
#233=LINE('',#1403,#337);
#234=LINE('',#1404,#338);
#235=LINE('',#1406,#339);
#236=LINE('',#1407,#340);
#237=LINE('',#1409,#341);
#238=LINE('',#1411,#342);
#239=LINE('',#1415,#343);
#240=LINE('',#1417,#344);
#241=LINE('',#1419,#345);
#242=LINE('',#1420,#346);
#243=LINE('',#1424,#347);
#244=LINE('',#1426,#348);
#245=LINE('',#1428,#349);
#246=LINE('',#1429,#350);
#247=LINE('',#1431,#351);
#248=LINE('',#1432,#352);
#249=LINE('',#1434,#353);
#250=LINE('',#1436,#354);
#251=LINE('',#1440,#355);
#252=LINE('',#1442,#356);
#253=LINE('',#1444,#357);
#254=LINE('',#1445,#358);
#255=LINE('',#1449,#359);
#256=LINE('',#1451,#360);
#257=LINE('',#1453,#361);
#258=LINE('',#1454,#362);
#259=LINE('',#1456,#363);
#260=LINE('',#1457,#364);
#261=LINE('',#1459,#365);
#262=LINE('',#1461,#366);
#263=LINE('',#1465,#367);
#264=LINE('',#1467,#368);
#265=LINE('',#1469,#369);
#266=LINE('',#1470,#370);
#267=LINE('',#1474,#371);
#268=LINE('',#1476,#372);
#269=LINE('',#1478,#373);
#270=LINE('',#1479,#374);
#271=LINE('',#1481,#375);
#272=LINE('',#1482,#376);
#273=LINE('',#1484,#377);
#274=LINE('',#1486,#378);
#275=LINE('',#1489,#379);
#276=LINE('',#1493,#380);
#277=LINE('',#1497,#381);
#278=LINE('',#1501,#382);
#279=LINE('',#1505,#383);
#280=LINE('',#1509,#384);
#281=LINE('',#1513,#385);
#282=LINE('',#1517,#386);
#283=LINE('',#1521,#387);
#284=LINE('',#1525,#388);
#285=LINE('',#1529,#389);
#286=LINE('',#1533,#390);
#287=LINE('',#1537,#391);
#288=LINE('',#1541,#392);
#289=LINE('',#1545,#393);
#290=LINE('',#1549,#394);
#291=LINE('',#1553,#395);
#292=LINE('',#1555,#396);
#293=LINE('',#1556,#397);
#294=LINE('',#1559,#398);
#295=LINE('',#1560,#399);
#296=LINE('',#1563,#400);
#297=LINE('',#1564,#401);
#298=LINE('',#1567,#402);
#299=LINE('',#1568,#403);
#300=LINE('',#1571,#404);
#301=LINE('',#1572,#405);
#302=LINE('',#1575,#406);
#303=LINE('',#1576,#407);
#304=LINE('',#1579,#408);
#305=LINE('',#1580,#409);
#306=LINE('',#1582,#410);
#307=VECTOR('',#1063,10.);
#308=VECTOR('',#1064,10.);
#309=VECTOR('',#1065,10.);
#310=VECTOR('',#1066,10.);
#311=VECTOR('',#1069,10.);
#312=VECTOR('',#1070,10.);
#313=VECTOR('',#1071,10.);
#314=VECTOR('',#1072,10.);
#315=VECTOR('',#1073,10.);
#316=VECTOR('',#1074,10.);
#317=VECTOR('',#1075,10.);
#318=VECTOR('',#1094,10.);
#319=VECTOR('',#1095,10.);
#320=VECTOR('',#1098,10.);
#321=VECTOR('',#1099,10.);
#322=VECTOR('',#1102,10.);
#323=VECTOR('',#1103,10.);
#324=VECTOR('',#1106,10.);
#325=VECTOR('',#1107,10.);
#326=VECTOR('',#1110,10.);
#327=VECTOR('',#1111,10.);
#328=VECTOR('',#1114,10.);
#329=VECTOR('',#1115,10.);
#330=VECTOR('',#1118,10.);
#331=VECTOR('',#1121,10.);
#332=VECTOR('',#1122,10.);
#333=VECTOR('',#1123,10.);
#334=VECTOR('',#1124,10.);
#335=VECTOR('',#1127,10.);
#336=VECTOR('',#1128,10.);
#337=VECTOR('',#1129,10.);
#338=VECTOR('',#1130,10.);
#339=VECTOR('',#1133,10.);
#340=VECTOR('',#1134,10.);
#341=VECTOR('',#1137,10.);
#342=VECTOR('',#1140,10.);
#343=VECTOR('',#1143,10.);
#344=VECTOR('',#1144,10.);
#345=VECTOR('',#1145,10.);
#346=VECTOR('',#1146,10.);
#347=VECTOR('',#1149,10.);
#348=VECTOR('',#1150,10.);
#349=VECTOR('',#1151,10.);
#350=VECTOR('',#1152,10.);
#351=VECTOR('',#1155,10.);
#352=VECTOR('',#1156,10.);
#353=VECTOR('',#1159,10.);
#354=VECTOR('',#1162,10.);
#355=VECTOR('',#1165,10.);
#356=VECTOR('',#1166,10.);
#357=VECTOR('',#1167,10.);
#358=VECTOR('',#1168,10.);
#359=VECTOR('',#1171,10.);
#360=VECTOR('',#1172,10.);
#361=VECTOR('',#1173,10.);
#362=VECTOR('',#1174,10.);
#363=VECTOR('',#1177,10.);
#364=VECTOR('',#1178,10.);
#365=VECTOR('',#1181,10.);
#366=VECTOR('',#1184,10.);
#367=VECTOR('',#1187,10.);
#368=VECTOR('',#1188,10.);
#369=VECTOR('',#1189,10.);
#370=VECTOR('',#1190,10.);
#371=VECTOR('',#1193,10.);
#372=VECTOR('',#1194,10.);
#373=VECTOR('',#1195,10.);
#374=VECTOR('',#1196,10.);
#375=VECTOR('',#1199,10.);
#376=VECTOR('',#1200,10.);
#377=VECTOR('',#1203,10.);
#378=VECTOR('',#1206,10.);
#379=VECTOR('',#1209,2.25);
#380=VECTOR('',#1214,2.);
#381=VECTOR('',#1219,2.25);
#382=VECTOR('',#1224,2.);
#383=VECTOR('',#1229,2.075);
#384=VECTOR('',#1234,1.65);
#385=VECTOR('',#1239,2.075);
#386=VECTOR('',#1244,1.65);
#387=VECTOR('',#1249,2.075);
#388=VECTOR('',#1254,1.65);
#389=VECTOR('',#1259,2.075);
#390=VECTOR('',#1264,1.65);
#391=VECTOR('',#1269,2.075);
#392=VECTOR('',#1274,1.65);
#393=VECTOR('',#1279,2.075);
#394=VECTOR('',#1284,1.65);
#395=VECTOR('',#1289,10.);
#396=VECTOR('',#1290,10.);
#397=VECTOR('',#1291,10.);
#398=VECTOR('',#1294,10.);
#399=VECTOR('',#1295,10.);
#400=VECTOR('',#1298,10.);
#401=VECTOR('',#1299,10.);
#402=VECTOR('',#1302,10.);
#403=VECTOR('',#1303,10.);
#404=VECTOR('',#1306,10.);
#405=VECTOR('',#1307,10.);
#406=VECTOR('',#1310,10.);
#407=VECTOR('',#1311,10.);
#408=VECTOR('',#1314,10.);
#409=VECTOR('',#1315,10.);
#410=VECTOR('',#1318,10.);
#411=VERTEX_POINT('',#1323);
#412=VERTEX_POINT('',#1324);
#413=VERTEX_POINT('',#1326);
#414=VERTEX_POINT('',#1328);
#415=VERTEX_POINT('',#1332);
#416=VERTEX_POINT('',#1334);
#417=VERTEX_POINT('',#1336);
#418=VERTEX_POINT('',#1338);
#419=VERTEX_POINT('',#1340);
#420=VERTEX_POINT('',#1342);
#421=VERTEX_POINT('',#1345);
#422=VERTEX_POINT('',#1347);
#423=VERTEX_POINT('',#1349);
#424=VERTEX_POINT('',#1351);
#425=VERTEX_POINT('',#1353);
#426=VERTEX_POINT('',#1355);
#427=VERTEX_POINT('',#1357);
#428=VERTEX_POINT('',#1359);
#429=VERTEX_POINT('',#1362);
#430=VERTEX_POINT('',#1366);
#431=VERTEX_POINT('',#1370);
#432=VERTEX_POINT('',#1374);
#433=VERTEX_POINT('',#1378);
#434=VERTEX_POINT('',#1382);
#435=VERTEX_POINT('',#1388);
#436=VERTEX_POINT('',#1389);
#437=VERTEX_POINT('',#1391);
#438=VERTEX_POINT('',#1393);
#439=VERTEX_POINT('',#1397);
#440=VERTEX_POINT('',#1398);
#441=VERTEX_POINT('',#1400);
#442=VERTEX_POINT('',#1402);
#443=VERTEX_POINT('',#1413);
#444=VERTEX_POINT('',#1414);
#445=VERTEX_POINT('',#1416);
#446=VERTEX_POINT('',#1418);
#447=VERTEX_POINT('',#1422);
#448=VERTEX_POINT('',#1423);
#449=VERTEX_POINT('',#1425);
#450=VERTEX_POINT('',#1427);
#451=VERTEX_POINT('',#1438);
#452=VERTEX_POINT('',#1439);
#453=VERTEX_POINT('',#1441);
#454=VERTEX_POINT('',#1443);
#455=VERTEX_POINT('',#1447);
#456=VERTEX_POINT('',#1448);
#457=VERTEX_POINT('',#1450);
#458=VERTEX_POINT('',#1452);
#459=VERTEX_POINT('',#1463);
#460=VERTEX_POINT('',#1464);
#461=VERTEX_POINT('',#1466);
#462=VERTEX_POINT('',#1468);
#463=VERTEX_POINT('',#1472);
#464=VERTEX_POINT('',#1473);
#465=VERTEX_POINT('',#1475);
#466=VERTEX_POINT('',#1477);
#467=VERTEX_POINT('',#1488);
#468=VERTEX_POINT('',#1492);
#469=VERTEX_POINT('',#1496);
#470=VERTEX_POINT('',#1500);
#471=VERTEX_POINT('',#1504);
#472=VERTEX_POINT('',#1508);
#473=VERTEX_POINT('',#1512);
#474=VERTEX_POINT('',#1516);
#475=VERTEX_POINT('',#1520);
#476=VERTEX_POINT('',#1524);
#477=VERTEX_POINT('',#1528);
#478=VERTEX_POINT('',#1532);
#479=VERTEX_POINT('',#1536);
#480=VERTEX_POINT('',#1540);
#481=VERTEX_POINT('',#1544);
#482=VERTEX_POINT('',#1548);
#483=VERTEX_POINT('',#1552);
#484=VERTEX_POINT('',#1554);
#485=VERTEX_POINT('',#1558);
#486=VERTEX_POINT('',#1562);
#487=VERTEX_POINT('',#1566);
#488=VERTEX_POINT('',#1570);
#489=VERTEX_POINT('',#1574);
#490=VERTEX_POINT('',#1578);
#491=EDGE_CURVE('',#411,#412,#203,.T.);
#492=EDGE_CURVE('',#412,#413,#204,.T.);
#493=EDGE_CURVE('',#413,#414,#205,.T.);
#494=EDGE_CURVE('',#414,#411,#206,.T.);
#495=EDGE_CURVE('',#415,#412,#207,.T.);
#496=EDGE_CURVE('',#416,#415,#208,.T.);
#497=EDGE_CURVE('',#417,#416,#209,.T.);
#498=EDGE_CURVE('',#418,#417,#210,.T.);
#499=EDGE_CURVE('',#419,#418,#211,.T.);
#500=EDGE_CURVE('',#420,#419,#212,.T.);
#501=EDGE_CURVE('',#413,#420,#213,.T.);
#502=EDGE_CURVE('',#421,#421,#51,.T.);
#503=EDGE_CURVE('',#422,#422,#52,.T.);
#504=EDGE_CURVE('',#423,#423,#53,.T.);
#505=EDGE_CURVE('',#424,#424,#54,.T.);
#506=EDGE_CURVE('',#425,#425,#55,.T.);
#507=EDGE_CURVE('',#426,#426,#56,.T.);
#508=EDGE_CURVE('',#427,#427,#57,.T.);
#509=EDGE_CURVE('',#428,#428,#58,.T.);
#510=EDGE_CURVE('',#411,#429,#214,.T.);
#511=EDGE_CURVE('',#415,#429,#215,.T.);
#512=EDGE_CURVE('',#420,#430,#216,.T.);
#513=EDGE_CURVE('',#430,#414,#217,.T.);
#514=EDGE_CURVE('',#419,#431,#218,.T.);
#515=EDGE_CURVE('',#431,#430,#219,.T.);
#516=EDGE_CURVE('',#418,#432,#220,.T.);
#517=EDGE_CURVE('',#432,#431,#221,.T.);
#518=EDGE_CURVE('',#417,#433,#222,.T.);
#519=EDGE_CURVE('',#433,#432,#223,.T.);
#520=EDGE_CURVE('',#416,#434,#224,.T.);
#521=EDGE_CURVE('',#434,#433,#225,.T.);
#522=EDGE_CURVE('',#429,#434,#226,.T.);
#523=EDGE_CURVE('',#435,#436,#227,.T.);
#524=EDGE_CURVE('',#435,#437,#228,.T.);
#525=EDGE_CURVE('',#438,#437,#229,.T.);
#526=EDGE_CURVE('',#436,#438,#230,.T.);
#527=EDGE_CURVE('',#439,#440,#231,.T.);
#528=EDGE_CURVE('',#439,#441,#232,.T.);
#529=EDGE_CURVE('',#441,#442,#233,.T.);
#530=EDGE_CURVE('',#440,#442,#234,.T.);
#531=EDGE_CURVE('',#442,#437,#235,.T.);
#532=EDGE_CURVE('',#440,#435,#236,.T.);
#533=EDGE_CURVE('',#441,#438,#237,.T.);
#534=EDGE_CURVE('',#436,#439,#238,.T.);
#535=EDGE_CURVE('',#443,#444,#239,.T.);
#536=EDGE_CURVE('',#443,#445,#240,.T.);
#537=EDGE_CURVE('',#446,#445,#241,.T.);
#538=EDGE_CURVE('',#444,#446,#242,.T.);
#539=EDGE_CURVE('',#447,#448,#243,.T.);
#540=EDGE_CURVE('',#447,#449,#244,.T.);
#541=EDGE_CURVE('',#449,#450,#245,.T.);
#542=EDGE_CURVE('',#448,#450,#246,.T.);
#543=EDGE_CURVE('',#450,#445,#247,.T.);
#544=EDGE_CURVE('',#448,#443,#248,.T.);
#545=EDGE_CURVE('',#449,#446,#249,.T.);
#546=EDGE_CURVE('',#444,#447,#250,.T.);
#547=EDGE_CURVE('',#451,#452,#251,.T.);
#548=EDGE_CURVE('',#451,#453,#252,.T.);
#549=EDGE_CURVE('',#454,#453,#253,.T.);
#550=EDGE_CURVE('',#452,#454,#254,.T.);
#551=EDGE_CURVE('',#455,#456,#255,.T.);
#552=EDGE_CURVE('',#455,#457,#256,.T.);
#553=EDGE_CURVE('',#457,#458,#257,.T.);
#554=EDGE_CURVE('',#456,#458,#258,.T.);
#555=EDGE_CURVE('',#458,#453,#259,.T.);
#556=EDGE_CURVE('',#456,#451,#260,.T.);
#557=EDGE_CURVE('',#457,#454,#261,.T.);
#558=EDGE_CURVE('',#452,#455,#262,.T.);
#559=EDGE_CURVE('',#459,#460,#263,.T.);
#560=EDGE_CURVE('',#459,#461,#264,.T.);
#561=EDGE_CURVE('',#462,#461,#265,.T.);
#562=EDGE_CURVE('',#460,#462,#266,.T.);
#563=EDGE_CURVE('',#463,#464,#267,.T.);
#564=EDGE_CURVE('',#463,#465,#268,.T.);
#565=EDGE_CURVE('',#465,#466,#269,.T.);
#566=EDGE_CURVE('',#464,#466,#270,.T.);
#567=EDGE_CURVE('',#466,#461,#271,.T.);
#568=EDGE_CURVE('',#464,#459,#272,.T.);
#569=EDGE_CURVE('',#465,#462,#273,.T.);
#570=EDGE_CURVE('',#460,#463,#274,.T.);
#571=EDGE_CURVE('',#428,#467,#275,.T.);
#572=EDGE_CURVE('',#467,#467,#59,.T.);
#573=EDGE_CURVE('',#467,#468,#276,.T.);
#574=EDGE_CURVE('',#468,#468,#60,.T.);
#575=EDGE_CURVE('',#427,#469,#277,.T.);
#576=EDGE_CURVE('',#469,#469,#61,.T.);
#577=EDGE_CURVE('',#469,#470,#278,.T.);
#578=EDGE_CURVE('',#470,#470,#62,.T.);
#579=EDGE_CURVE('',#421,#471,#279,.T.);
#580=EDGE_CURVE('',#471,#471,#63,.T.);
#581=EDGE_CURVE('',#471,#472,#280,.T.);
#582=EDGE_CURVE('',#472,#472,#64,.T.);
#583=EDGE_CURVE('',#422,#473,#281,.T.);
#584=EDGE_CURVE('',#473,#473,#65,.T.);
#585=EDGE_CURVE('',#473,#474,#282,.T.);
#586=EDGE_CURVE('',#474,#474,#66,.T.);
#587=EDGE_CURVE('',#423,#475,#283,.T.);
#588=EDGE_CURVE('',#475,#475,#67,.T.);
#589=EDGE_CURVE('',#475,#476,#284,.T.);
#590=EDGE_CURVE('',#476,#476,#68,.T.);
#591=EDGE_CURVE('',#424,#477,#285,.T.);
#592=EDGE_CURVE('',#477,#477,#69,.T.);
#593=EDGE_CURVE('',#477,#478,#286,.T.);
#594=EDGE_CURVE('',#478,#478,#70,.T.);
#595=EDGE_CURVE('',#425,#479,#287,.T.);
#596=EDGE_CURVE('',#479,#479,#71,.T.);
#597=EDGE_CURVE('',#479,#480,#288,.T.);
#598=EDGE_CURVE('',#480,#480,#72,.T.);
#599=EDGE_CURVE('',#426,#481,#289,.T.);
#600=EDGE_CURVE('',#481,#481,#73,.T.);
#601=EDGE_CURVE('',#481,#482,#290,.T.);
#602=EDGE_CURVE('',#482,#482,#74,.T.);
#603=EDGE_CURVE('',#483,#429,#291,.T.);
#604=EDGE_CURVE('',#484,#483,#292,.T.);
#605=EDGE_CURVE('',#484,#434,#293,.T.);
#606=EDGE_CURVE('',#485,#411,#294,.T.);
#607=EDGE_CURVE('',#485,#483,#295,.T.);
#608=EDGE_CURVE('',#486,#414,#296,.T.);
#609=EDGE_CURVE('',#485,#486,#297,.T.);
#610=EDGE_CURVE('',#487,#430,#298,.T.);
#611=EDGE_CURVE('',#487,#486,#299,.T.);
#612=EDGE_CURVE('',#488,#431,#300,.T.);
#613=EDGE_CURVE('',#487,#488,#301,.T.);
#614=EDGE_CURVE('',#489,#432,#302,.T.);
#615=EDGE_CURVE('',#488,#489,#303,.T.);
#616=EDGE_CURVE('',#490,#433,#304,.T.);
#617=EDGE_CURVE('',#490,#489,#305,.T.);
#618=EDGE_CURVE('',#484,#490,#306,.T.);
#619=ORIENTED_EDGE('',*,*,#491,.T.);
#620=ORIENTED_EDGE('',*,*,#492,.T.);
#621=ORIENTED_EDGE('',*,*,#493,.T.);
#622=ORIENTED_EDGE('',*,*,#494,.T.);
#623=ORIENTED_EDGE('',*,*,#492,.F.);
#624=ORIENTED_EDGE('',*,*,#495,.F.);
#625=ORIENTED_EDGE('',*,*,#496,.F.);
#626=ORIENTED_EDGE('',*,*,#497,.F.);
#627=ORIENTED_EDGE('',*,*,#498,.F.);
#628=ORIENTED_EDGE('',*,*,#499,.F.);
#629=ORIENTED_EDGE('',*,*,#500,.F.);
#630=ORIENTED_EDGE('',*,*,#501,.F.);
#631=ORIENTED_EDGE('',*,*,#502,.T.);
#632=ORIENTED_EDGE('',*,*,#503,.T.);
#633=ORIENTED_EDGE('',*,*,#504,.T.);
#634=ORIENTED_EDGE('',*,*,#505,.T.);
#635=ORIENTED_EDGE('',*,*,#506,.T.);
#636=ORIENTED_EDGE('',*,*,#507,.T.);
#637=ORIENTED_EDGE('',*,*,#508,.T.);
#638=ORIENTED_EDGE('',*,*,#509,.T.);
#639=ORIENTED_EDGE('',*,*,#491,.F.);
#640=ORIENTED_EDGE('',*,*,#510,.T.);
#641=ORIENTED_EDGE('',*,*,#511,.F.);
#642=ORIENTED_EDGE('',*,*,#495,.T.);
#643=ORIENTED_EDGE('',*,*,#493,.F.);
#644=ORIENTED_EDGE('',*,*,#501,.T.);
#645=ORIENTED_EDGE('',*,*,#512,.T.);
#646=ORIENTED_EDGE('',*,*,#513,.T.);
#647=ORIENTED_EDGE('',*,*,#500,.T.);
#648=ORIENTED_EDGE('',*,*,#514,.T.);
#649=ORIENTED_EDGE('',*,*,#515,.T.);
#650=ORIENTED_EDGE('',*,*,#512,.F.);
#651=ORIENTED_EDGE('',*,*,#499,.T.);
#652=ORIENTED_EDGE('',*,*,#516,.T.);
#653=ORIENTED_EDGE('',*,*,#517,.T.);
#654=ORIENTED_EDGE('',*,*,#514,.F.);
#655=ORIENTED_EDGE('',*,*,#498,.T.);
#656=ORIENTED_EDGE('',*,*,#518,.T.);
#657=ORIENTED_EDGE('',*,*,#519,.T.);
#658=ORIENTED_EDGE('',*,*,#516,.F.);
#659=ORIENTED_EDGE('',*,*,#497,.T.);
#660=ORIENTED_EDGE('',*,*,#520,.T.);
#661=ORIENTED_EDGE('',*,*,#521,.T.);
#662=ORIENTED_EDGE('',*,*,#518,.F.);
#663=ORIENTED_EDGE('',*,*,#496,.T.);
#664=ORIENTED_EDGE('',*,*,#511,.T.);
#665=ORIENTED_EDGE('',*,*,#522,.T.);
#666=ORIENTED_EDGE('',*,*,#520,.F.);
#667=ORIENTED_EDGE('',*,*,#523,.F.);
#668=ORIENTED_EDGE('',*,*,#524,.T.);
#669=ORIENTED_EDGE('',*,*,#525,.F.);
#670=ORIENTED_EDGE('',*,*,#526,.F.);
#671=ORIENTED_EDGE('',*,*,#527,.F.);
#672=ORIENTED_EDGE('',*,*,#528,.T.);
#673=ORIENTED_EDGE('',*,*,#529,.T.);
#674=ORIENTED_EDGE('',*,*,#530,.F.);
#675=ORIENTED_EDGE('',*,*,#530,.T.);
#676=ORIENTED_EDGE('',*,*,#531,.T.);
#677=ORIENTED_EDGE('',*,*,#524,.F.);
#678=ORIENTED_EDGE('',*,*,#532,.F.);
#679=ORIENTED_EDGE('',*,*,#529,.F.);
#680=ORIENTED_EDGE('',*,*,#533,.T.);
#681=ORIENTED_EDGE('',*,*,#525,.T.);
#682=ORIENTED_EDGE('',*,*,#531,.F.);
#683=ORIENTED_EDGE('',*,*,#528,.F.);
#684=ORIENTED_EDGE('',*,*,#534,.F.);
#685=ORIENTED_EDGE('',*,*,#526,.T.);
#686=ORIENTED_EDGE('',*,*,#533,.F.);
#687=ORIENTED_EDGE('',*,*,#535,.F.);
#688=ORIENTED_EDGE('',*,*,#536,.T.);
#689=ORIENTED_EDGE('',*,*,#537,.F.);
#690=ORIENTED_EDGE('',*,*,#538,.F.);
#691=ORIENTED_EDGE('',*,*,#539,.F.);
#692=ORIENTED_EDGE('',*,*,#540,.T.);
#693=ORIENTED_EDGE('',*,*,#541,.T.);
#694=ORIENTED_EDGE('',*,*,#542,.F.);
#695=ORIENTED_EDGE('',*,*,#542,.T.);
#696=ORIENTED_EDGE('',*,*,#543,.T.);
#697=ORIENTED_EDGE('',*,*,#536,.F.);
#698=ORIENTED_EDGE('',*,*,#544,.F.);
#699=ORIENTED_EDGE('',*,*,#541,.F.);
#700=ORIENTED_EDGE('',*,*,#545,.T.);
#701=ORIENTED_EDGE('',*,*,#537,.T.);
#702=ORIENTED_EDGE('',*,*,#543,.F.);
#703=ORIENTED_EDGE('',*,*,#540,.F.);
#704=ORIENTED_EDGE('',*,*,#546,.F.);
#705=ORIENTED_EDGE('',*,*,#538,.T.);
#706=ORIENTED_EDGE('',*,*,#545,.F.);
#707=ORIENTED_EDGE('',*,*,#547,.F.);
#708=ORIENTED_EDGE('',*,*,#548,.T.);
#709=ORIENTED_EDGE('',*,*,#549,.F.);
#710=ORIENTED_EDGE('',*,*,#550,.F.);
#711=ORIENTED_EDGE('',*,*,#551,.F.);
#712=ORIENTED_EDGE('',*,*,#552,.T.);
#713=ORIENTED_EDGE('',*,*,#553,.T.);
#714=ORIENTED_EDGE('',*,*,#554,.F.);
#715=ORIENTED_EDGE('',*,*,#554,.T.);
#716=ORIENTED_EDGE('',*,*,#555,.T.);
#717=ORIENTED_EDGE('',*,*,#548,.F.);
#718=ORIENTED_EDGE('',*,*,#556,.F.);
#719=ORIENTED_EDGE('',*,*,#553,.F.);
#720=ORIENTED_EDGE('',*,*,#557,.T.);
#721=ORIENTED_EDGE('',*,*,#549,.T.);
#722=ORIENTED_EDGE('',*,*,#555,.F.);
#723=ORIENTED_EDGE('',*,*,#552,.F.);
#724=ORIENTED_EDGE('',*,*,#558,.F.);
#725=ORIENTED_EDGE('',*,*,#550,.T.);
#726=ORIENTED_EDGE('',*,*,#557,.F.);
#727=ORIENTED_EDGE('',*,*,#559,.F.);
#728=ORIENTED_EDGE('',*,*,#560,.T.);
#729=ORIENTED_EDGE('',*,*,#561,.F.);
#730=ORIENTED_EDGE('',*,*,#562,.F.);
#731=ORIENTED_EDGE('',*,*,#563,.F.);
#732=ORIENTED_EDGE('',*,*,#564,.T.);
#733=ORIENTED_EDGE('',*,*,#565,.T.);
#734=ORIENTED_EDGE('',*,*,#566,.F.);
#735=ORIENTED_EDGE('',*,*,#566,.T.);
#736=ORIENTED_EDGE('',*,*,#567,.T.);
#737=ORIENTED_EDGE('',*,*,#560,.F.);
#738=ORIENTED_EDGE('',*,*,#568,.F.);
#739=ORIENTED_EDGE('',*,*,#565,.F.);
#740=ORIENTED_EDGE('',*,*,#569,.T.);
#741=ORIENTED_EDGE('',*,*,#561,.T.);
#742=ORIENTED_EDGE('',*,*,#567,.F.);
#743=ORIENTED_EDGE('',*,*,#564,.F.);
#744=ORIENTED_EDGE('',*,*,#570,.F.);
#745=ORIENTED_EDGE('',*,*,#562,.T.);
#746=ORIENTED_EDGE('',*,*,#569,.F.);
#747=ORIENTED_EDGE('',*,*,#509,.F.);
#748=ORIENTED_EDGE('',*,*,#571,.T.);
#749=ORIENTED_EDGE('',*,*,#572,.T.);
#750=ORIENTED_EDGE('',*,*,#571,.F.);
#751=ORIENTED_EDGE('',*,*,#572,.F.);
#752=ORIENTED_EDGE('',*,*,#573,.T.);
#753=ORIENTED_EDGE('',*,*,#574,.F.);
#754=ORIENTED_EDGE('',*,*,#573,.F.);
#755=ORIENTED_EDGE('',*,*,#508,.F.);
#756=ORIENTED_EDGE('',*,*,#575,.T.);
#757=ORIENTED_EDGE('',*,*,#576,.T.);
#758=ORIENTED_EDGE('',*,*,#575,.F.);
#759=ORIENTED_EDGE('',*,*,#576,.F.);
#760=ORIENTED_EDGE('',*,*,#577,.T.);
#761=ORIENTED_EDGE('',*,*,#578,.F.);
#762=ORIENTED_EDGE('',*,*,#577,.F.);
#763=ORIENTED_EDGE('',*,*,#502,.F.);
#764=ORIENTED_EDGE('',*,*,#579,.T.);
#765=ORIENTED_EDGE('',*,*,#580,.T.);
#766=ORIENTED_EDGE('',*,*,#579,.F.);
#767=ORIENTED_EDGE('',*,*,#580,.F.);
#768=ORIENTED_EDGE('',*,*,#581,.T.);
#769=ORIENTED_EDGE('',*,*,#582,.F.);
#770=ORIENTED_EDGE('',*,*,#581,.F.);
#771=ORIENTED_EDGE('',*,*,#503,.F.);
#772=ORIENTED_EDGE('',*,*,#583,.T.);
#773=ORIENTED_EDGE('',*,*,#584,.T.);
#774=ORIENTED_EDGE('',*,*,#583,.F.);
#775=ORIENTED_EDGE('',*,*,#584,.F.);
#776=ORIENTED_EDGE('',*,*,#585,.T.);
#777=ORIENTED_EDGE('',*,*,#586,.F.);
#778=ORIENTED_EDGE('',*,*,#585,.F.);
#779=ORIENTED_EDGE('',*,*,#504,.F.);
#780=ORIENTED_EDGE('',*,*,#587,.T.);
#781=ORIENTED_EDGE('',*,*,#588,.T.);
#782=ORIENTED_EDGE('',*,*,#587,.F.);
#783=ORIENTED_EDGE('',*,*,#588,.F.);
#784=ORIENTED_EDGE('',*,*,#589,.T.);
#785=ORIENTED_EDGE('',*,*,#590,.F.);
#786=ORIENTED_EDGE('',*,*,#589,.F.);
#787=ORIENTED_EDGE('',*,*,#505,.F.);
#788=ORIENTED_EDGE('',*,*,#591,.T.);
#789=ORIENTED_EDGE('',*,*,#592,.T.);
#790=ORIENTED_EDGE('',*,*,#591,.F.);
#791=ORIENTED_EDGE('',*,*,#592,.F.);
#792=ORIENTED_EDGE('',*,*,#593,.T.);
#793=ORIENTED_EDGE('',*,*,#594,.F.);
#794=ORIENTED_EDGE('',*,*,#593,.F.);
#795=ORIENTED_EDGE('',*,*,#506,.F.);
#796=ORIENTED_EDGE('',*,*,#595,.T.);
#797=ORIENTED_EDGE('',*,*,#596,.T.);
#798=ORIENTED_EDGE('',*,*,#595,.F.);
#799=ORIENTED_EDGE('',*,*,#596,.F.);
#800=ORIENTED_EDGE('',*,*,#597,.T.);
#801=ORIENTED_EDGE('',*,*,#598,.F.);
#802=ORIENTED_EDGE('',*,*,#597,.F.);
#803=ORIENTED_EDGE('',*,*,#507,.F.);
#804=ORIENTED_EDGE('',*,*,#599,.T.);
#805=ORIENTED_EDGE('',*,*,#600,.T.);
#806=ORIENTED_EDGE('',*,*,#599,.F.);
#807=ORIENTED_EDGE('',*,*,#600,.F.);
#808=ORIENTED_EDGE('',*,*,#601,.T.);
#809=ORIENTED_EDGE('',*,*,#602,.F.);
#810=ORIENTED_EDGE('',*,*,#601,.F.);
#811=ORIENTED_EDGE('',*,*,#522,.F.);
#812=ORIENTED_EDGE('',*,*,#603,.F.);
#813=ORIENTED_EDGE('',*,*,#604,.F.);
#814=ORIENTED_EDGE('',*,*,#605,.T.);
#815=ORIENTED_EDGE('',*,*,#510,.F.);
#816=ORIENTED_EDGE('',*,*,#606,.F.);
#817=ORIENTED_EDGE('',*,*,#607,.T.);
#818=ORIENTED_EDGE('',*,*,#603,.T.);
#819=ORIENTED_EDGE('',*,*,#494,.F.);
#820=ORIENTED_EDGE('',*,*,#608,.F.);
#821=ORIENTED_EDGE('',*,*,#609,.F.);
#822=ORIENTED_EDGE('',*,*,#606,.T.);
#823=ORIENTED_EDGE('',*,*,#513,.F.);
#824=ORIENTED_EDGE('',*,*,#610,.F.);
#825=ORIENTED_EDGE('',*,*,#611,.T.);
#826=ORIENTED_EDGE('',*,*,#608,.T.);
#827=ORIENTED_EDGE('',*,*,#515,.F.);
#828=ORIENTED_EDGE('',*,*,#612,.F.);
#829=ORIENTED_EDGE('',*,*,#613,.F.);
#830=ORIENTED_EDGE('',*,*,#610,.T.);
#831=ORIENTED_EDGE('',*,*,#517,.F.);
#832=ORIENTED_EDGE('',*,*,#614,.F.);
#833=ORIENTED_EDGE('',*,*,#615,.F.);
#834=ORIENTED_EDGE('',*,*,#612,.T.);
#835=ORIENTED_EDGE('',*,*,#519,.F.);
#836=ORIENTED_EDGE('',*,*,#616,.F.);
#837=ORIENTED_EDGE('',*,*,#617,.T.);
#838=ORIENTED_EDGE('',*,*,#614,.T.);
#839=ORIENTED_EDGE('',*,*,#521,.F.);
#840=ORIENTED_EDGE('',*,*,#605,.F.);
#841=ORIENTED_EDGE('',*,*,#618,.T.);
#842=ORIENTED_EDGE('',*,*,#616,.T.);
#843=ORIENTED_EDGE('',*,*,#618,.F.);
#844=ORIENTED_EDGE('',*,*,#604,.T.);
#845=ORIENTED_EDGE('',*,*,#607,.F.);
#846=ORIENTED_EDGE('',*,*,#609,.T.);
#847=ORIENTED_EDGE('',*,*,#611,.F.);
#848=ORIENTED_EDGE('',*,*,#613,.T.);
#849=ORIENTED_EDGE('',*,*,#615,.T.);
#850=ORIENTED_EDGE('',*,*,#617,.F.);
#851=ORIENTED_EDGE('',*,*,#539,.T.);
#852=ORIENTED_EDGE('',*,*,#544,.T.);
#853=ORIENTED_EDGE('',*,*,#535,.T.);
#854=ORIENTED_EDGE('',*,*,#546,.T.);
#855=ORIENTED_EDGE('',*,*,#563,.T.);
#856=ORIENTED_EDGE('',*,*,#568,.T.);
#857=ORIENTED_EDGE('',*,*,#559,.T.);
#858=ORIENTED_EDGE('',*,*,#570,.T.);
#859=ORIENTED_EDGE('',*,*,#582,.T.);
#860=ORIENTED_EDGE('',*,*,#586,.T.);
#861=ORIENTED_EDGE('',*,*,#590,.T.);
#862=ORIENTED_EDGE('',*,*,#594,.T.);
#863=ORIENTED_EDGE('',*,*,#598,.T.);
#864=ORIENTED_EDGE('',*,*,#602,.T.);
#865=ORIENTED_EDGE('',*,*,#578,.T.);
#866=ORIENTED_EDGE('',*,*,#574,.T.);
#867=ORIENTED_EDGE('',*,*,#551,.T.);
#868=ORIENTED_EDGE('',*,*,#556,.T.);
#869=ORIENTED_EDGE('',*,*,#547,.T.);
#870=ORIENTED_EDGE('',*,*,#558,.T.);
#871=ORIENTED_EDGE('',*,*,#527,.T.);
#872=ORIENTED_EDGE('',*,*,#532,.T.);
#873=ORIENTED_EDGE('',*,*,#523,.T.);
#874=ORIENTED_EDGE('',*,*,#534,.T.);
#875=PLANE('',#981);
#876=PLANE('',#982);
#877=PLANE('',#991);
#878=PLANE('',#992);
#879=PLANE('',#993);
#880=PLANE('',#994);
#881=PLANE('',#995);
#882=PLANE('',#996);
#883=PLANE('',#997);
#884=PLANE('',#998);
#885=PLANE('',#999);
#886=PLANE('',#1000);
#887=PLANE('',#1001);
#888=PLANE('',#1002);
#889=PLANE('',#1003);
#890=PLANE('',#1004);
#891=PLANE('',#1005);
#892=PLANE('',#1006);
#893=PLANE('',#1007);
#894=PLANE('',#1008);
#895=PLANE('',#1009);
#896=PLANE('',#1010);
#897=PLANE('',#1011);
#898=PLANE('',#1012);
#899=PLANE('',#1013);
#900=PLANE('',#1014);
#901=PLANE('',#1015);
#902=PLANE('',#1016);
#903=PLANE('',#1017);
#904=PLANE('',#1050);
#905=PLANE('',#1051);
#906=PLANE('',#1052);
#907=PLANE('',#1053);
#908=PLANE('',#1054);
#909=PLANE('',#1055);
#910=PLANE('',#1056);
#911=PLANE('',#1057);
#912=PLANE('',#1058);
#913=ADVANCED_FACE('',(#75),#875,.T.);
#914=ADVANCED_FACE('',(#76,#31,#32,#33,#34,#35,#36,#37,#38),#876,.T.);
#915=ADVANCED_FACE('',(#77),#877,.T.);
#916=ADVANCED_FACE('',(#78),#878,.T.);
#917=ADVANCED_FACE('',(#79),#879,.T.);
#918=ADVANCED_FACE('',(#80),#880,.T.);
#919=ADVANCED_FACE('',(#81),#881,.T.);
#920=ADVANCED_FACE('',(#82),#882,.T.);
#921=ADVANCED_FACE('',(#83),#883,.T.);
#922=ADVANCED_FACE('',(#84),#884,.T.);
#923=ADVANCED_FACE('',(#85),#885,.F.);
#924=ADVANCED_FACE('',(#86),#886,.F.);
#925=ADVANCED_FACE('',(#87),#887,.F.);
#926=ADVANCED_FACE('',(#88),#888,.F.);
#927=ADVANCED_FACE('',(#89),#889,.T.);
#928=ADVANCED_FACE('',(#90),#890,.F.);
#929=ADVANCED_FACE('',(#91),#891,.F.);
#930=ADVANCED_FACE('',(#92),#892,.F.);
#931=ADVANCED_FACE('',(#93),#893,.F.);
#932=ADVANCED_FACE('',(#94),#894,.T.);
#933=ADVANCED_FACE('',(#95),#895,.F.);
#934=ADVANCED_FACE('',(#96),#896,.F.);
#935=ADVANCED_FACE('',(#97),#897,.F.);
#936=ADVANCED_FACE('',(#98),#898,.F.);
#937=ADVANCED_FACE('',(#99),#899,.T.);
#938=ADVANCED_FACE('',(#100),#900,.F.);
#939=ADVANCED_FACE('',(#101),#901,.F.);
#940=ADVANCED_FACE('',(#102),#902,.F.);
#941=ADVANCED_FACE('',(#103),#903,.F.);
#942=ADVANCED_FACE('',(#104),#23,.F.);
#943=ADVANCED_FACE('',(#105),#15,.F.);
#944=ADVANCED_FACE('',(#106),#24,.F.);
#945=ADVANCED_FACE('',(#107),#16,.F.);
#946=ADVANCED_FACE('',(#108),#25,.F.);
#947=ADVANCED_FACE('',(#109),#17,.F.);
#948=ADVANCED_FACE('',(#110),#26,.F.);
#949=ADVANCED_FACE('',(#111),#18,.F.);
#950=ADVANCED_FACE('',(#112),#27,.F.);
#951=ADVANCED_FACE('',(#113),#19,.F.);
#952=ADVANCED_FACE('',(#114),#28,.F.);
#953=ADVANCED_FACE('',(#115),#20,.F.);
#954=ADVANCED_FACE('',(#116),#29,.F.);
#955=ADVANCED_FACE('',(#117),#21,.F.);
#956=ADVANCED_FACE('',(#118),#30,.F.);
#957=ADVANCED_FACE('',(#119),#22,.F.);
#958=ADVANCED_FACE('',(#120),#904,.T.);
#959=ADVANCED_FACE('',(#121),#905,.T.);
#960=ADVANCED_FACE('',(#122),#906,.T.);
#961=ADVANCED_FACE('',(#123),#907,.T.);
#962=ADVANCED_FACE('',(#124),#908,.T.);
#963=ADVANCED_FACE('',(#125),#909,.T.);
#964=ADVANCED_FACE('',(#126),#910,.T.);
#965=ADVANCED_FACE('',(#127),#911,.T.);
#966=ADVANCED_FACE('',(#128,#39,#40,#41,#42,#43,#44,#45,#46,#47,#48,#49,
#50),#912,.F.);
#967=CLOSED_SHELL('',(#913,#914,#915,#916,#917,#918,#919,#920,#921,#922,
#923,#924,#925,#926,#927,#928,#929,#930,#931,#932,#933,#934,#935,#936,#937,
#938,#939,#940,#941,#942,#943,#944,#945,#946,#947,#948,#949,#950,#951,#952,
#953,#954,#955,#956,#957,#958,#959,#960,#961,#962,#963,#964,#965,#966));
#968=DERIVED_UNIT_ELEMENT(#970,1.);
#969=DERIVED_UNIT_ELEMENT(#1589,-3.);
#970=(
MASS_UNIT()
NAMED_UNIT(*)
SI_UNIT(.KILO.,.GRAM.)
);
#971=DERIVED_UNIT((#968,#969));
#972=MEASURE_REPRESENTATION_ITEM('density measure',
POSITIVE_RATIO_MEASURE(7850.),#971);
#973=PROPERTY_DEFINITION_REPRESENTATION(#978,#975);
#974=PROPERTY_DEFINITION_REPRESENTATION(#979,#976);
#975=REPRESENTATION('material name',(#977),#1586);
#976=REPRESENTATION('density',(#972),#1586);
#977=DESCRIPTIVE_REPRESENTATION_ITEM('Acero','Acero');
#978=PROPERTY_DEFINITION('material property','material name',#1596);
#979=PROPERTY_DEFINITION('material property','density of part',#1596);
#980=AXIS2_PLACEMENT_3D('',#1321,#1059,#1060);
#981=AXIS2_PLACEMENT_3D('',#1322,#1061,#1062);
#982=AXIS2_PLACEMENT_3D('',#1331,#1067,#1068);
#983=AXIS2_PLACEMENT_3D('',#1346,#1076,#1077);
#984=AXIS2_PLACEMENT_3D('',#1348,#1078,#1079);
#985=AXIS2_PLACEMENT_3D('',#1350,#1080,#1081);
#986=AXIS2_PLACEMENT_3D('',#1352,#1082,#1083);
#987=AXIS2_PLACEMENT_3D('',#1354,#1084,#1085);
#988=AXIS2_PLACEMENT_3D('',#1356,#1086,#1087);
#989=AXIS2_PLACEMENT_3D('',#1358,#1088,#1089);
#990=AXIS2_PLACEMENT_3D('',#1360,#1090,#1091);
#991=AXIS2_PLACEMENT_3D('',#1361,#1092,#1093);
#992=AXIS2_PLACEMENT_3D('',#1365,#1096,#1097);
#993=AXIS2_PLACEMENT_3D('',#1369,#1100,#1101);
#994=AXIS2_PLACEMENT_3D('',#1373,#1104,#1105);
#995=AXIS2_PLACEMENT_3D('',#1377,#1108,#1109);
#996=AXIS2_PLACEMENT_3D('',#1381,#1112,#1113);
#997=AXIS2_PLACEMENT_3D('',#1385,#1116,#1117);
#998=AXIS2_PLACEMENT_3D('',#1387,#1119,#1120);
#999=AXIS2_PLACEMENT_3D('',#1396,#1125,#1126);
#1000=AXIS2_PLACEMENT_3D('',#1405,#1131,#1132);
#1001=AXIS2_PLACEMENT_3D('',#1408,#1135,#1136);
#1002=AXIS2_PLACEMENT_3D('',#1410,#1138,#1139);
#1003=AXIS2_PLACEMENT_3D('',#1412,#1141,#1142);
#1004=AXIS2_PLACEMENT_3D('',#1421,#1147,#1148);
#1005=AXIS2_PLACEMENT_3D('',#1430,#1153,#1154);
#1006=AXIS2_PLACEMENT_3D('',#1433,#1157,#1158);
#1007=AXIS2_PLACEMENT_3D('',#1435,#1160,#1161);
#1008=AXIS2_PLACEMENT_3D('',#1437,#1163,#1164);
#1009=AXIS2_PLACEMENT_3D('',#1446,#1169,#1170);
#1010=AXIS2_PLACEMENT_3D('',#1455,#1175,#1176);
#1011=AXIS2_PLACEMENT_3D('',#1458,#1179,#1180);
#1012=AXIS2_PLACEMENT_3D('',#1460,#1182,#1183);
#1013=AXIS2_PLACEMENT_3D('',#1462,#1185,#1186);
#1014=AXIS2_PLACEMENT_3D('',#1471,#1191,#1192);
#1015=AXIS2_PLACEMENT_3D('',#1480,#1197,#1198);
#1016=AXIS2_PLACEMENT_3D('',#1483,#1201,#1202);
#1017=AXIS2_PLACEMENT_3D('',#1485,#1204,#1205);
#1018=AXIS2_PLACEMENT_3D('',#1487,#1207,#1208);
#1019=AXIS2_PLACEMENT_3D('',#1490,#1210,#1211);
#1020=AXIS2_PLACEMENT_3D('',#1491,#1212,#1213);
#1021=AXIS2_PLACEMENT_3D('',#1494,#1215,#1216);
#1022=AXIS2_PLACEMENT_3D('',#1495,#1217,#1218);
#1023=AXIS2_PLACEMENT_3D('',#1498,#1220,#1221);
#1024=AXIS2_PLACEMENT_3D('',#1499,#1222,#1223);
#1025=AXIS2_PLACEMENT_3D('',#1502,#1225,#1226);
#1026=AXIS2_PLACEMENT_3D('',#1503,#1227,#1228);
#1027=AXIS2_PLACEMENT_3D('',#1506,#1230,#1231);
#1028=AXIS2_PLACEMENT_3D('',#1507,#1232,#1233);
#1029=AXIS2_PLACEMENT_3D('',#1510,#1235,#1236);
#1030=AXIS2_PLACEMENT_3D('',#1511,#1237,#1238);
#1031=AXIS2_PLACEMENT_3D('',#1514,#1240,#1241);
#1032=AXIS2_PLACEMENT_3D('',#1515,#1242,#1243);
#1033=AXIS2_PLACEMENT_3D('',#1518,#1245,#1246);
#1034=AXIS2_PLACEMENT_3D('',#1519,#1247,#1248);
#1035=AXIS2_PLACEMENT_3D('',#1522,#1250,#1251);
#1036=AXIS2_PLACEMENT_3D('',#1523,#1252,#1253);
#1037=AXIS2_PLACEMENT_3D('',#1526,#1255,#1256);
#1038=AXIS2_PLACEMENT_3D('',#1527,#1257,#1258);
#1039=AXIS2_PLACEMENT_3D('',#1530,#1260,#1261);
#1040=AXIS2_PLACEMENT_3D('',#1531,#1262,#1263);
#1041=AXIS2_PLACEMENT_3D('',#1534,#1265,#1266);
#1042=AXIS2_PLACEMENT_3D('',#1535,#1267,#1268);
#1043=AXIS2_PLACEMENT_3D('',#1538,#1270,#1271);
#1044=AXIS2_PLACEMENT_3D('',#1539,#1272,#1273);
#1045=AXIS2_PLACEMENT_3D('',#1542,#1275,#1276);
#1046=AXIS2_PLACEMENT_3D('',#1543,#1277,#1278);
#1047=AXIS2_PLACEMENT_3D('',#1546,#1280,#1281);
#1048=AXIS2_PLACEMENT_3D('',#1547,#1282,#1283);
#1049=AXIS2_PLACEMENT_3D('',#1550,#1285,#1286);
#1050=AXIS2_PLACEMENT_3D('',#1551,#1287,#1288);
#1051=AXIS2_PLACEMENT_3D('',#1557,#1292,#1293);
#1052=AXIS2_PLACEMENT_3D('',#1561,#1296,#1297);
#1053=AXIS2_PLACEMENT_3D('',#1565,#1300,#1301);
#1054=AXIS2_PLACEMENT_3D('',#1569,#1304,#1305);
#1055=AXIS2_PLACEMENT_3D('',#1573,#1308,#1309);
#1056=AXIS2_PLACEMENT_3D('',#1577,#1312,#1313);
#1057=AXIS2_PLACEMENT_3D('',#1581,#1316,#1317);
#1058=AXIS2_PLACEMENT_3D('',#1583,#1319,#1320);
#1059=DIRECTION('axis',(0.,0.,1.));
#1060=DIRECTION('refdir',(1.,0.,0.));
#1061=DIRECTION('center_axis',(-0.707106781186595,2.45621165935182E-16,
-0.7071067811865));
#1062=DIRECTION('ref_axis',(-1.25316179146402E-16,-1.,-2.22044604925031E-16));
#1063=DIRECTION('',(0.577350269189609,-0.577350269189583,-0.577350269189686));
#1064=DIRECTION('',(-1.25316179146402E-16,-1.,-2.22044604925031E-16));
#1065=DIRECTION('',(-0.577350269189574,-0.577350269189652,0.577350269189651));
#1066=DIRECTION('',(1.25316179146402E-16,1.,2.22044604925031E-16));
#1067=DIRECTION('center_axis',(0.,2.22044604925031E-16,-1.));
#1068=DIRECTION('ref_axis',(0.,1.,2.22044604925031E-16));
#1069=DIRECTION('',(-1.,2.32964831396754E-16,5.17285839489188E-32));
#1070=DIRECTION('',(1.70803542250024E-16,1.,2.22044604925031E-16));
#1071=DIRECTION('',(1.,1.23259516440783E-32,2.73691106313441E-48));
#1072=DIRECTION('',(-3.15540386830006E-32,1.,2.22044604925031E-16));
#1073=DIRECTION('',(1.,1.23259516440783E-32,2.73691106313441E-48));
#1074=DIRECTION('',(-3.15540386830006E-32,1.,2.22044604925031E-16));
#1075=DIRECTION('',(1.,5.30255772955298E-16,1.17740433615076E-31));
#1076=DIRECTION('center_axis',(0.,-2.22044604925031E-16,1.));
#1077=DIRECTION('ref_axis',(0.,1.,2.22044604925031E-16));
#1078=DIRECTION('center_axis',(0.,-2.22044604925031E-16,1.));
#1079=DIRECTION('ref_axis',(0.,1.,2.22044604925031E-16));
#1080=DIRECTION('center_axis',(0.,-2.22044604925031E-16,1.));
#1081=DIRECTION('ref_axis',(0.,1.,2.22044604925031E-16));
#1082=DIRECTION('center_axis',(0.,-2.22044604925031E-16,1.));
#1083=DIRECTION('ref_axis',(0.,1.,2.22044604925031E-16));
#1084=DIRECTION('center_axis',(0.,-2.22044604925031E-16,1.));
#1085=DIRECTION('ref_axis',(0.,1.,2.22044604925031E-16));
#1086=DIRECTION('center_axis',(0.,-2.22044604925031E-16,1.));
#1087=DIRECTION('ref_axis',(0.,1.,2.22044604925031E-16));
#1088=DIRECTION('center_axis',(0.,-2.22044604925031E-16,1.));
#1089=DIRECTION('ref_axis',(0.,1.,2.22044604925031E-16));
#1090=DIRECTION('center_axis',(0.,-2.22044604925031E-16,1.));
#1091=DIRECTION('ref_axis',(0.,1.,2.22044604925031E-16));
#1092=DIRECTION('center_axis',(1.6473101205864E-16,0.70710678118661,-0.707106781186485));
#1093=DIRECTION('ref_axis',(-1.,2.32964831396754E-16,5.17285839489188E-32));
#1094=DIRECTION('',(1.,-2.32964831396754E-16,-5.17285839489188E-32));
#1095=DIRECTION('',(0.577350269189669,0.577350269189592,0.577350269189617));
#1096=DIRECTION('center_axis',(3.74947452820006E-16,-0.707106781186547,
-0.707106781186548));
#1097=DIRECTION('ref_axis',(1.,5.30255772955298E-16,1.17740433615076E-31));
#1098=DIRECTION('',(0.577350269189626,-0.577350269189626,0.577350269189626));
#1099=DIRECTION('',(-1.,-5.30255772955298E-16,-1.17740433615076E-31));
#1100=DIRECTION('center_axis',(0.707106781186548,1.57009245868378E-16,-0.707106781186548));
#1101=DIRECTION('ref_axis',(-3.15540386830006E-32,1.,2.22044604925031E-16));
#1102=DIRECTION('',(0.577350269189626,-0.577350269189626,0.577350269189626));
#1103=DIRECTION('',(3.15540386830006E-32,-1.,-2.22044604925031E-16));
#1104=DIRECTION('center_axis',(8.71576399210525E-33,-0.707106781186547,
-0.707106781186548));
#1105=DIRECTION('ref_axis',(1.,1.23259516440783E-32,2.73691106313441E-48));
#1106=DIRECTION('',(0.577350269189626,-0.577350269189626,0.577350269189626));
#1107=DIRECTION('',(-1.,-1.23259516440783E-32,-2.73691106313441E-48));
#1108=DIRECTION('center_axis',(0.707106781186548,1.57009245868378E-16,-0.707106781186548));
#1109=DIRECTION('ref_axis',(-3.15540386830006E-32,1.,2.22044604925031E-16));
#1110=DIRECTION('',(0.577350269189626,-0.577350269189626,0.577350269189626));
#1111=DIRECTION('',(3.15540386830006E-32,-1.,-2.22044604925031E-16));
#1112=DIRECTION('center_axis',(8.71576399210525E-33,-0.707106781186547,
-0.707106781186548));
#1113=DIRECTION('ref_axis',(1.,1.23259516440783E-32,2.73691106313441E-48));
#1114=DIRECTION('',(0.577350269189626,-0.577350269189626,0.577350269189626));
#1115=DIRECTION('',(-1.,-1.23259516440783E-32,-2.73691106313441E-48));
#1116=DIRECTION('center_axis',(0.707106781186548,3.62329028927026E-17,-0.707106781186548));
#1117=DIRECTION('ref_axis',(1.70803542250024E-16,1.,2.22044604925031E-16));
#1118=DIRECTION('',(-1.70803542250024E-16,-1.,-2.22044604925031E-16));
#1119=DIRECTION('center_axis',(0.,1.,2.22044604925031E-16));
#1120=DIRECTION('ref_axis',(-1.,0.,0.));
#1121=DIRECTION('',(1.,4.93038065763063E-32,-2.22044604925E-16));
#1122=DIRECTION('',(0.,-2.22044604925031E-16,1.));
#1123=DIRECTION('',(-1.,0.,0.));
#1124=DIRECTION('',(0.,-2.22044604925031E-16,1.));
#1125=DIRECTION('center_axis',(0.,1.,2.22044604925031E-16));
#1126=DIRECTION('ref_axis',(-1.,0.,0.));
#1127=DIRECTION('',(-1.,-4.93038065763063E-32,2.22044604925E-16));
#1128=DIRECTION('',(0.,-2.22044604925031E-16,1.));
#1129=DIRECTION('',(-1.,0.,0.));
#1130=DIRECTION('',(0.,-2.22044604925031E-16,1.));
#1131=DIRECTION('center_axis',(1.,0.,0.));
#1132=DIRECTION('ref_axis',(0.,1.,2.22044604925031E-16));
#1133=DIRECTION('',(0.,1.,2.22044604925031E-16));
#1134=DIRECTION('',(0.,1.,1.35448999301481E-16));
#1135=DIRECTION('center_axis',(0.,2.22044604925031E-16,-1.));
#1136=DIRECTION('ref_axis',(0.,1.,2.22044604925031E-16));
#1137=DIRECTION('',(0.,1.,2.22044604925031E-16));
#1138=DIRECTION('center_axis',(-1.,0.,0.));
#1139=DIRECTION('ref_axis',(0.,-1.,-2.22044604925031E-16));
#1140=DIRECTION('',(0.,-1.,-1.35448999301481E-16));
#1141=DIRECTION('center_axis',(-1.,0.,0.));
#1142=DIRECTION('ref_axis',(0.,-1.,-2.22044604925031E-16));
#1143=DIRECTION('',(0.,1.,1.35448999301481E-16));
#1144=DIRECTION('',(0.,-2.22044604925031E-16,1.));
#1145=DIRECTION('',(0.,-1.,-2.22044604925031E-16));
#1146=DIRECTION('',(0.,-2.22044604925031E-16,1.));
#1147=DIRECTION('center_axis',(-1.,0.,0.));
#1148=DIRECTION('ref_axis',(0.,-1.,-2.22044604925031E-16));
#1149=DIRECTION('',(0.,-1.,-1.35448999301481E-16));
#1150=DIRECTION('',(0.,-2.22044604925031E-16,1.));
#1151=DIRECTION('',(0.,-1.,-2.22044604925031E-16));
#1152=DIRECTION('',(0.,-2.22044604925031E-16,1.));
#1153=DIRECTION('center_axis',(0.,1.,2.22044604925031E-16));
#1154=DIRECTION('ref_axis',(-1.,0.,0.));
#1155=DIRECTION('',(-1.,0.,0.));
#1156=DIRECTION('',(-1.,-4.93038065763063E-32,2.22044604925E-16));
#1157=DIRECTION('center_axis',(0.,2.22044604925031E-16,-1.));
#1158=DIRECTION('ref_axis',(0.,1.,2.22044604925031E-16));
#1159=DIRECTION('',(-1.,0.,0.));
#1160=DIRECTION('center_axis',(0.,-1.,-2.22044604925031E-16));
#1161=DIRECTION('ref_axis',(1.,0.,0.));
#1162=DIRECTION('',(1.,4.93038065763063E-32,-2.22044604925E-16));
#1163=DIRECTION('center_axis',(-1.,0.,0.));
#1164=DIRECTION('ref_axis',(0.,-1.,-2.22044604925031E-16));
#1165=DIRECTION('',(0.,1.,1.35448999301481E-16));
#1166=DIRECTION('',(0.,-2.22044604925031E-16,1.));
#1167=DIRECTION('',(0.,-1.,-2.22044604925031E-16));
#1168=DIRECTION('',(0.,-2.22044604925031E-16,1.));
#1169=DIRECTION('center_axis',(-1.,0.,0.));
#1170=DIRECTION('ref_axis',(0.,-1.,-2.22044604925031E-16));
#1171=DIRECTION('',(0.,-1.,-1.35448999301481E-16));
#1172=DIRECTION('',(0.,-2.22044604925031E-16,1.));
#1173=DIRECTION('',(0.,-1.,-2.22044604925031E-16));
#1174=DIRECTION('',(0.,-2.22044604925031E-16,1.));
#1175=DIRECTION('center_axis',(0.,1.,2.22044604925031E-16));
#1176=DIRECTION('ref_axis',(-1.,0.,0.));
#1177=DIRECTION('',(-1.,0.,0.));
#1178=DIRECTION('',(-1.,-4.93038065763063E-32,2.22044604925E-16));
#1179=DIRECTION('center_axis',(0.,2.22044604925031E-16,-1.));
#1180=DIRECTION('ref_axis',(0.,1.,2.22044604925031E-16));
#1181=DIRECTION('',(-1.,0.,0.));
#1182=DIRECTION('center_axis',(0.,-1.,-2.22044604925031E-16));
#1183=DIRECTION('ref_axis',(1.,0.,0.));
#1184=DIRECTION('',(1.,4.93038065763063E-32,-2.22044604925E-16));
#1185=DIRECTION('center_axis',(0.,1.,2.22044604925031E-16));
#1186=DIRECTION('ref_axis',(-1.,0.,0.));
#1187=DIRECTION('',(1.,4.93038065763063E-32,-2.22044604925E-16));
#1188=DIRECTION('',(0.,-2.22044604925031E-16,1.));
#1189=DIRECTION('',(-1.,0.,0.));
#1190=DIRECTION('',(0.,-2.22044604925031E-16,1.));
#1191=DIRECTION('center_axis',(0.,1.,2.22044604925031E-16));
#1192=DIRECTION('ref_axis',(-1.,0.,0.));
#1193=DIRECTION('',(-1.,-4.93038065763063E-32,2.22044604925E-16));
#1194=DIRECTION('',(0.,-2.22044604925031E-16,1.));
#1195=DIRECTION('',(-1.,0.,0.));
#1196=DIRECTION('',(0.,-2.22044604925031E-16,1.));
#1197=DIRECTION('center_axis',(1.,0.,0.));
#1198=DIRECTION('ref_axis',(0.,1.,2.22044604925031E-16));
#1199=DIRECTION('',(0.,1.,2.22044604925031E-16));
#1200=DIRECTION('',(0.,1.,1.35448999301481E-16));
#1201=DIRECTION('center_axis',(0.,2.22044604925031E-16,-1.));
#1202=DIRECTION('ref_axis',(0.,1.,2.22044604925031E-16));
#1203=DIRECTION('',(0.,1.,2.22044604925031E-16));
#1204=DIRECTION('center_axis',(-1.,0.,0.));
#1205=DIRECTION('ref_axis',(0.,-1.,-2.22044604925031E-16));
#1206=DIRECTION('',(0.,-1.,-1.35448999301481E-16));
#1207=DIRECTION('center_axis',(0.,2.22044604925031E-16,-1.));
#1208=DIRECTION('ref_axis',(0.,1.,2.22044604925031E-16));
#1209=DIRECTION('',(-8.65956056235493E-17,0.707106781186547,0.707106781186548));
#1210=DIRECTION('center_axis',(0.,-2.22044604925031E-16,1.));
#1211=DIRECTION('ref_axis',(0.,1.,2.22044604925031E-16));
#1212=DIRECTION('center_axis',(0.,-2.22044604925031E-16,1.));
#1213=DIRECTION('ref_axis',(0.,1.,2.22044604925031E-16));
#1214=DIRECTION('',(0.,-2.22044604925031E-16,1.));
#1215=DIRECTION('center_axis',(-2.22044604925E-16,1.35448999301481E-16,
-1.));
#1216=DIRECTION('ref_axis',(0.,1.,2.22044604925031E-16));
#1217=DIRECTION('center_axis',(0.,2.22044604925031E-16,-1.));
#1218=DIRECTION('ref_axis',(0.,1.,2.22044604925031E-16));
#1219=DIRECTION('',(-8.65956056235493E-17,0.707106781186547,0.707106781186548));
#1220=DIRECTION('center_axis',(0.,-2.22044604925031E-16,1.));
#1221=DIRECTION('ref_axis',(0.,1.,2.22044604925031E-16));
#1222=DIRECTION('center_axis',(0.,-2.22044604925031E-16,1.));
#1223=DIRECTION('ref_axis',(0.,1.,2.22044604925031E-16));
#1224=DIRECTION('',(0.,-2.22044604925031E-16,1.));
#1225=DIRECTION('center_axis',(-2.22044604925E-16,1.35448999301481E-16,
-1.));
#1226=DIRECTION('ref_axis',(0.,1.,2.22044604925031E-16));
#1227=DIRECTION('center_axis',(0.,2.22044604925031E-16,-1.));
#1228=DIRECTION('ref_axis',(0.,1.,2.22044604925031E-16));
#1229=DIRECTION('',(-8.65956056235493E-17,0.707106781186547,0.707106781186548));
#1230=DIRECTION('center_axis',(0.,-2.22044604925031E-16,1.));
#1231=DIRECTION('ref_axis',(0.,1.,2.22044604925031E-16));
#1232=DIRECTION('center_axis',(0.,-2.22044604925031E-16,1.));
#1233=DIRECTION('ref_axis',(0.,1.,2.22044604925031E-16));
#1234=DIRECTION('',(0.,-2.22044604925031E-16,1.));
#1235=DIRECTION('center_axis',(-2.22044604925E-16,1.35448999301481E-16,
-1.));
#1236=DIRECTION('ref_axis',(0.,1.,2.22044604925031E-16));
#1237=DIRECTION('center_axis',(0.,2.22044604925031E-16,-1.));
#1238=DIRECTION('ref_axis',(0.,1.,2.22044604925031E-16));
#1239=DIRECTION('',(-8.65956056235493E-17,0.707106781186547,0.707106781186548));
#1240=DIRECTION('center_axis',(0.,-2.22044604925031E-16,1.));
#1241=DIRECTION('ref_axis',(0.,1.,2.22044604925031E-16));
#1242=DIRECTION('center_axis',(0.,-2.22044604925031E-16,1.));
#1243=DIRECTION('ref_axis',(0.,1.,2.22044604925031E-16));
#1244=DIRECTION('',(0.,-2.22044604925031E-16,1.));
#1245=DIRECTION('center_axis',(-2.22044604925E-16,1.35448999301481E-16,
-1.));
#1246=DIRECTION('ref_axis',(0.,1.,2.22044604925031E-16));
#1247=DIRECTION('center_axis',(0.,2.22044604925031E-16,-1.));
#1248=DIRECTION('ref_axis',(0.,1.,2.22044604925031E-16));
#1249=DIRECTION('',(-8.65956056235493E-17,0.707106781186547,0.707106781186548));
#1250=DIRECTION('center_axis',(0.,-2.22044604925031E-16,1.));
#1251=DIRECTION('ref_axis',(0.,1.,2.22044604925031E-16));
#1252=DIRECTION('center_axis',(0.,-2.22044604925031E-16,1.));
#1253=DIRECTION('ref_axis',(0.,1.,2.22044604925031E-16));
#1254=DIRECTION('',(0.,-2.22044604925031E-16,1.));
#1255=DIRECTION('center_axis',(-2.22044604925E-16,1.35448999301481E-16,
-1.));
#1256=DIRECTION('ref_axis',(0.,1.,2.22044604925031E-16));
#1257=DIRECTION('center_axis',(0.,2.22044604925031E-16,-1.));
#1258=DIRECTION('ref_axis',(0.,1.,2.22044604925031E-16));
#1259=DIRECTION('',(-8.65956056235493E-17,0.707106781186547,0.707106781186548));
#1260=DIRECTION('center_axis',(0.,-2.22044604925031E-16,1.));
#1261=DIRECTION('ref_axis',(0.,1.,2.22044604925031E-16));
#1262=DIRECTION('center_axis',(0.,-2.22044604925031E-16,1.));
#1263=DIRECTION('ref_axis',(0.,1.,2.22044604925031E-16));
#1264=DIRECTION('',(0.,-2.22044604925031E-16,1.));
#1265=DIRECTION('center_axis',(-2.22044604925E-16,1.35448999301481E-16,
-1.));
#1266=DIRECTION('ref_axis',(0.,1.,2.22044604925031E-16));
#1267=DIRECTION('center_axis',(0.,2.22044604925031E-16,-1.));
#1268=DIRECTION('ref_axis',(0.,1.,2.22044604925031E-16));
#1269=DIRECTION('',(-8.65956056235493E-17,0.707106781186547,0.707106781186548));
#1270=DIRECTION('center_axis',(0.,-2.22044604925031E-16,1.));
#1271=DIRECTION('ref_axis',(0.,1.,2.22044604925031E-16));
#1272=DIRECTION('center_axis',(0.,-2.22044604925031E-16,1.));
#1273=DIRECTION('ref_axis',(0.,1.,2.22044604925031E-16));
#1274=DIRECTION('',(0.,-2.22044604925031E-16,1.));
#1275=DIRECTION('center_axis',(-2.22044604925E-16,1.35448999301481E-16,
-1.));
#1276=DIRECTION('ref_axis',(0.,1.,2.22044604925031E-16));
#1277=DIRECTION('center_axis',(0.,2.22044604925031E-16,-1.));
#1278=DIRECTION('ref_axis',(0.,1.,2.22044604925031E-16));
#1279=DIRECTION('',(-8.65956056235493E-17,0.707106781186547,0.707106781186548));
#1280=DIRECTION('center_axis',(0.,-2.22044604925031E-16,1.));
#1281=DIRECTION('ref_axis',(0.,1.,2.22044604925031E-16));
#1282=DIRECTION('center_axis',(0.,-2.22044604925031E-16,1.));
#1283=DIRECTION('ref_axis',(0.,1.,2.22044604925031E-16));
#1284=DIRECTION('',(0.,-2.22044604925031E-16,1.));
#1285=DIRECTION('center_axis',(-2.22044604925E-16,1.35448999301481E-16,
-1.));
#1286=DIRECTION('ref_axis',(0.,1.,2.22044604925031E-16));
#1287=DIRECTION('center_axis',(1.,-1.70803542250024E-16,-3.79260050587024E-32));
#1288=DIRECTION('ref_axis',(-1.70803542250024E-16,-1.,-1.35448999301481E-16));
#1289=DIRECTION('',(0.,2.22044604925031E-16,-1.));
#1290=DIRECTION('',(1.70803542250024E-16,1.,1.35448999301481E-16));
#1291=DIRECTION('',(0.,2.22044604925031E-16,-1.));
#1292=DIRECTION('center_axis',(2.32964831396754E-16,1.,2.22044604925031E-16));
#1293=DIRECTION('ref_axis',(1.,-2.32964831396754E-16,-2.22044604925E-16));
#1294=DIRECTION('',(0.,2.22044604925031E-16,-1.));
#1295=DIRECTION('',(1.,-2.32964831396754E-16,-2.22044604925E-16));
#1296=DIRECTION('center_axis',(-1.,1.25316179146402E-16,2.78257814892773E-32));
#1297=DIRECTION('ref_axis',(1.25316179146402E-16,1.,1.35448999301481E-16));
#1298=DIRECTION('',(0.,2.22044604925031E-16,-1.));
#1299=DIRECTION('',(-1.25316179146402E-16,-1.,-1.35448999301481E-16));
#1300=DIRECTION('center_axis',(5.30255772955298E-16,-1.,-2.22044604925031E-16));
#1301=DIRECTION('ref_axis',(-1.,-5.30255772955298E-16,2.22044604925E-16));
#1302=DIRECTION('',(0.,2.22044604925031E-16,-1.));
#1303=DIRECTION('',(-1.,-5.30255772955298E-16,2.22044604925E-16));
#1304=DIRECTION('center_axis',(1.,3.15540386830006E-32,7.00640405315601E-48));
#1305=DIRECTION('ref_axis',(3.15540386830006E-32,-1.,-1.35448999301481E-16));
#1306=DIRECTION('',(0.,2.22044604925031E-16,-1.));
#1307=DIRECTION('',(-3.15540386830006E-32,1.,1.35448999301481E-16));
#1308=DIRECTION('center_axis',(1.23259516440783E-32,-1.,-2.22044604925031E-16));
#1309=DIRECTION('ref_axis',(-1.,-6.16297582203846E-32,2.22044604925E-16));
#1310=DIRECTION('',(0.,2.22044604925031E-16,-1.));
#1311=DIRECTION('',(1.,6.16297582203846E-32,-2.22044604925E-16));
#1312=DIRECTION('center_axis',(1.,3.15540386830006E-32,7.00640405315601E-48));
#1313=DIRECTION('ref_axis',(3.15540386830006E-32,-1.,-1.35448999301481E-16));
#1314=DIRECTION('',(0.,2.22044604925031E-16,-1.));
#1315=DIRECTION('',(3.15540386830006E-32,-1.,-1.35448999301481E-16));
#1316=DIRECTION('center_axis',(1.23259516440783E-32,-1.,-2.22044604925031E-16));
#1317=DIRECTION('ref_axis',(-1.,-6.16297582203846E-32,2.22044604925E-16));
#1318=DIRECTION('',(-1.,-6.16297582203846E-32,2.22044604925E-16));
#1319=DIRECTION('center_axis',(-2.22044604925E-16,1.35448999301481E-16,
-1.));
#1320=DIRECTION('ref_axis',(1.,6.16297582203846E-32,-2.22044604925E-16));
#1321=CARTESIAN_POINT('',(0.,0.,0.));
#1322=CARTESIAN_POINT('Origin',(-76.05,-35.4375,0.200000000000031));
#1323=CARTESIAN_POINT('',(-76.25,70.875,0.400000000000134));
#1324=CARTESIAN_POINT('',(-75.85,70.475,7.105427357601E-14));
#1325=CARTESIAN_POINT('',(-52.0437500000022,46.6687500000033,-23.8062500000009));
#1326=CARTESIAN_POINT('',(-75.85,-70.475,0.));
#1327=CARTESIAN_POINT('',(-75.85,-35.4375,0.));
#1328=CARTESIAN_POINT('',(-76.25,-70.875,0.399999999999991));
#1329=CARTESIAN_POINT('',(-52.6895833333367,-47.3145833333336,-23.1604166666665));
#1330=CARTESIAN_POINT('',(-76.25,-35.4375,0.400000000000063));
#1331=CARTESIAN_POINT('Origin',(0.,0.,0.));
#1332=CARTESIAN_POINT('',(75.85,70.475,7.105427357601E-14));
#1333=CARTESIAN_POINT('',(-38.125,70.475,7.105427357601E-14));
#1334=CARTESIAN_POINT('',(75.85,-12.9750000000001,0.));
#1335=CARTESIAN_POINT('',(75.85,35.4375,0.));
#1336=CARTESIAN_POINT('',(58.3499999999999,-12.9750000000001,0.));
#1337=CARTESIAN_POINT('',(38.125,-12.9750000000001,0.));
#1338=CARTESIAN_POINT('',(58.3499999999999,-47.475,0.));
#1339=CARTESIAN_POINT('',(58.3499999999999,-6.68750000000003,0.));
#1340=CARTESIAN_POINT('',(57.35,-47.475,0.));
#1341=CARTESIAN_POINT('',(29.375,-47.475,0.));
#1342=CARTESIAN_POINT('',(57.35,-70.475,0.));
#1343=CARTESIAN_POINT('',(57.35,-23.9375,0.));
#1344=CARTESIAN_POINT('',(28.875,-70.475,0.));
#1345=CARTESIAN_POINT('',(-67.7500000000001,-67.375,-6.24500451351651E-16));
#1346=CARTESIAN_POINT('Origin',(-67.7500000000001,-64.875,0.));
#1347=CARTESIAN_POINT('',(49.25,-67.375,-6.24500451351651E-16));
#1348=CARTESIAN_POINT('Origin',(49.25,-64.875,0.));
#1349=CARTESIAN_POINT('',(68.75,26.2499999999999,-6.24500451351651E-16));
#1350=CARTESIAN_POINT('Origin',(68.75,28.75,0.));
#1351=CARTESIAN_POINT('',(68.75,58.375,7.04297731246584E-14));
#1352=CARTESIAN_POINT('Origin',(68.75,60.875,7.105427357601E-14));
#1353=CARTESIAN_POINT('',(68.75,-5.87500000000013,-6.24500451351651E-16));
#1354=CARTESIAN_POINT('Origin',(68.75,-3.37500000000009,0.));
#1355=CARTESIAN_POINT('',(-9.25000000000001,-67.375,-6.24500451351651E-16));
#1356=CARTESIAN_POINT('Origin',(-9.25000000000001,-64.875,0.));
#1357=CARTESIAN_POINT('',(-26.25,18.375,-9.71445146547012E-16));
#1358=CARTESIAN_POINT('Origin',(-26.25,20.875,0.));
#1359=CARTESIAN_POINT('',(-51.25,43.375,7.04297731246584E-14));
#1360=CARTESIAN_POINT('Origin',(-51.25,45.875,7.105427357601E-14));
#1361=CARTESIAN_POINT('Origin',(-38.125,70.675,0.200000000000102));
#1362=CARTESIAN_POINT('',(76.25,70.875,0.400000000000063));
#1363=CARTESIAN_POINT('',(-38.125,70.875,0.400000000000134));
#1364=CARTESIAN_POINT('',(75.85,70.475,7.105427357601E-14));
#1365=CARTESIAN_POINT('Origin',(28.875,-70.675,0.19999999999996));
#1366=CARTESIAN_POINT('',(57.75,-70.8749999999999,0.399999999999991));
#1367=CARTESIAN_POINT('',(57.35,-70.475,0.));
#1368=CARTESIAN_POINT('',(28.875,-70.8749999999999,0.399999999999991));
#1369=CARTESIAN_POINT('Origin',(57.55,-23.9375,0.19999999999996));
#1370=CARTESIAN_POINT('',(57.75,-47.8749999999999,0.399999999999991));
#1371=CARTESIAN_POINT('',(57.35,-47.475,0.));
#1372=CARTESIAN_POINT('',(57.75,-23.9375,0.399999999999991));
#1373=CARTESIAN_POINT('Origin',(29.375,-47.6749999999999,0.19999999999996));
#1374=CARTESIAN_POINT('',(58.7499999999999,-47.8749999999999,0.399999999999991));
#1375=CARTESIAN_POINT('',(58.3499999999999,-47.475,0.));
#1376=CARTESIAN_POINT('',(29.375,-47.8749999999999,0.399999999999991));
#1377=CARTESIAN_POINT('Origin',(58.5499999999999,-6.68750000000003,0.19999999999996));
#1378=CARTESIAN_POINT('',(58.7499999999999,-13.3750000000001,0.399999999999991));
#1379=CARTESIAN_POINT('',(58.3499999999999,-12.9750000000001,0.));
#1380=CARTESIAN_POINT('',(58.7499999999999,-6.68750000000003,0.399999999999991));
#1381=CARTESIAN_POINT('Origin',(38.125,-13.1750000000001,0.19999999999996));
#1382=CARTESIAN_POINT('',(76.25,-13.3750000000001,0.399999999999991));
#1383=CARTESIAN_POINT('',(75.85,-12.9750000000001,0.));
#1384=CARTESIAN_POINT('',(38.125,-13.3750000000001,0.399999999999991));
#1385=CARTESIAN_POINT('Origin',(76.05,35.4375,0.19999999999996));
#1386=CARTESIAN_POINT('',(76.25,35.4375,0.399999999999991));
#1387=CARTESIAN_POINT('Origin',(-23.5000000000001,-61.9750000000001,4.60000000000015));
#1388=CARTESIAN_POINT('',(-53.5000000000001,-61.9750000000001,4.60000000000015));
#1389=CARTESIAN_POINT('',(-23.5000000000001,-61.9750000000001,4.60000000000015));
#1390=CARTESIAN_POINT('',(-11.7500000000001,-61.9750000000001,4.60000000000008));
#1391=CARTESIAN_POINT('',(-53.5000000000001,-61.9750000000001,5.60000000000016));
#1392=CARTESIAN_POINT('',(-53.5000000000001,-61.9750000000001,4.60000000000015));
#1393=CARTESIAN_POINT('',(-23.5000000000001,-61.9750000000001,5.60000000000016));
#1394=CARTESIAN_POINT('',(-23.5000000000001,-61.9750000000001,5.60000000000016));
#1395=CARTESIAN_POINT('',(-23.5000000000001,-61.9750000000001,4.60000000000015));
#1396=CARTESIAN_POINT('Origin',(-23.5000000000001,-67.775,4.60000000000015));
#1397=CARTESIAN_POINT('',(-23.5000000000001,-67.775,4.60000000000015));
#1398=CARTESIAN_POINT('',(-53.5000000000001,-67.775,4.60000000000015));
#1399=CARTESIAN_POINT('',(-11.7500000000001,-67.775,4.60000000000008));
#1400=CARTESIAN_POINT('',(-23.5000000000001,-67.775,5.60000000000016));
#1401=CARTESIAN_POINT('',(-23.5000000000001,-67.775,4.60000000000015));
#1402=CARTESIAN_POINT('',(-53.5000000000001,-67.775,5.60000000000016));
#1403=CARTESIAN_POINT('',(-23.5000000000001,-67.775,5.60000000000016));
#1404=CARTESIAN_POINT('',(-53.5000000000001,-67.775,4.60000000000015));
#1405=CARTESIAN_POINT('Origin',(-53.5000000000001,-64.875,5.10000000000019));
#1406=CARTESIAN_POINT('',(-53.5000000000001,-64.875,5.60000000000016));
#1407=CARTESIAN_POINT('',(-53.5000000000001,-32.4375,4.60000000000008));
#1408=CARTESIAN_POINT('Origin',(-38.5000000000001,-64.875,5.60000000000016));
#1409=CARTESIAN_POINT('',(-23.5000000000001,-64.875,5.60000000000016));
#1410=CARTESIAN_POINT('Origin',(-23.5000000000001,-64.875,5.10000000000019));
#1411=CARTESIAN_POINT('',(-23.5000000000001,-32.4375,4.60000000000008));
#1412=CARTESIAN_POINT('Origin',(65.85,20.1874999999999,4.60000000000008));
#1413=CARTESIAN_POINT('',(65.85,5.1874999999999,4.60000000000008));
#1414=CARTESIAN_POINT('',(65.85,20.1874999999999,4.60000000000008));
#1415=CARTESIAN_POINT('',(65.85,10.09375,4.60000000000008));
#1416=CARTESIAN_POINT('',(65.85,5.1874999999999,5.60000000000009));
#1417=CARTESIAN_POINT('',(65.85,5.1874999999999,4.60000000000008));
#1418=CARTESIAN_POINT('',(65.85,20.1874999999999,5.60000000000009));
#1419=CARTESIAN_POINT('',(65.85,20.1874999999999,5.60000000000009));
#1420=CARTESIAN_POINT('',(65.85,20.1874999999999,4.60000000000008));
#1421=CARTESIAN_POINT('Origin',(71.6499999999999,20.1874999999999,4.60000000000008));
#1422=CARTESIAN_POINT('',(71.6499999999999,20.1874999999999,4.60000000000008));
#1423=CARTESIAN_POINT('',(71.6499999999999,5.1874999999999,4.60000000000008));
#1424=CARTESIAN_POINT('',(71.6499999999999,10.09375,4.60000000000008));
#1425=CARTESIAN_POINT('',(71.6499999999999,20.1874999999999,5.60000000000009));
#1426=CARTESIAN_POINT('',(71.6499999999999,20.1874999999999,4.60000000000008));
#1427=CARTESIAN_POINT('',(71.6499999999999,5.1874999999999,5.60000000000009));
#1428=CARTESIAN_POINT('',(71.6499999999999,20.1874999999999,5.60000000000009));
#1429=CARTESIAN_POINT('',(71.6499999999999,5.1874999999999,4.60000000000008));
#1430=CARTESIAN_POINT('Origin',(68.75,5.1874999999999,5.10000000000005));
#1431=CARTESIAN_POINT('',(68.75,5.1874999999999,5.60000000000009));
#1432=CARTESIAN_POINT('',(34.375,5.1874999999999,4.60000000000008));
#1433=CARTESIAN_POINT('Origin',(68.75,12.6874999999999,5.60000000000009));
#1434=CARTESIAN_POINT('',(68.75,20.1874999999999,5.60000000000009));
#1435=CARTESIAN_POINT('Origin',(68.75,20.1874999999999,5.10000000000005));
#1436=CARTESIAN_POINT('',(34.375,20.1874999999999,4.60000000000008));
#1437=CARTESIAN_POINT('Origin',(65.85,52.3125,4.60000000000015));
#1438=CARTESIAN_POINT('',(65.85,37.3125,4.60000000000008));
#1439=CARTESIAN_POINT('',(65.85,52.3125,4.60000000000015));
#1440=CARTESIAN_POINT('',(65.85,26.15625,4.60000000000008));
#1441=CARTESIAN_POINT('',(65.85,37.3125,5.60000000000009));
#1442=CARTESIAN_POINT('',(65.85,37.3125,4.60000000000008));
#1443=CARTESIAN_POINT('',(65.85,52.3125,5.60000000000016));
#1444=CARTESIAN_POINT('',(65.85,52.3125,5.60000000000016));
#1445=CARTESIAN_POINT('',(65.85,52.3125,4.60000000000015));
#1446=CARTESIAN_POINT('Origin',(71.6499999999999,52.3125,4.60000000000015));
#1447=CARTESIAN_POINT('',(71.6499999999999,52.3125,4.60000000000015));
#1448=CARTESIAN_POINT('',(71.6499999999999,37.3125,4.60000000000008));
#1449=CARTESIAN_POINT('',(71.6499999999999,26.15625,4.60000000000008));
#1450=CARTESIAN_POINT('',(71.6499999999999,52.3125,5.60000000000016));
#1451=CARTESIAN_POINT('',(71.6499999999999,52.3125,4.60000000000015));
#1452=CARTESIAN_POINT('',(71.6499999999999,37.3125,5.60000000000009));
#1453=CARTESIAN_POINT('',(71.6499999999999,52.3125,5.60000000000016));
#1454=CARTESIAN_POINT('',(71.6499999999999,37.3125,4.60000000000008));
#1455=CARTESIAN_POINT('Origin',(68.75,37.3125,5.10000000000005));
#1456=CARTESIAN_POINT('',(68.75,37.3125,5.60000000000009));
#1457=CARTESIAN_POINT('',(34.375,37.3125,4.60000000000008));
#1458=CARTESIAN_POINT('Origin',(68.75,44.8125,5.60000000000009));
#1459=CARTESIAN_POINT('',(68.75,52.3125,5.60000000000016));
#1460=CARTESIAN_POINT('Origin',(68.75,52.3125,5.10000000000012));
#1461=CARTESIAN_POINT('',(34.375,52.3125,4.60000000000015));
#1462=CARTESIAN_POINT('Origin',(34.9999999999999,-61.9750000000001,4.60000000000008));
#1463=CARTESIAN_POINT('',(4.99999999999993,-61.9750000000001,4.60000000000008));
#1464=CARTESIAN_POINT('',(34.9999999999999,-61.9750000000001,4.60000000000008));
#1465=CARTESIAN_POINT('',(17.5,-61.9750000000001,4.60000000000008));
#1466=CARTESIAN_POINT('',(4.99999999999993,-61.9750000000001,5.60000000000009));
#1467=CARTESIAN_POINT('',(4.99999999999993,-61.9750000000001,4.60000000000008));
#1468=CARTESIAN_POINT('',(34.9999999999999,-61.9750000000001,5.60000000000009));
#1469=CARTESIAN_POINT('',(34.9999999999999,-61.9750000000001,5.60000000000009));
#1470=CARTESIAN_POINT('',(34.9999999999999,-61.9750000000001,4.60000000000008));
#1471=CARTESIAN_POINT('Origin',(34.9999999999999,-67.775,4.60000000000008));
#1472=CARTESIAN_POINT('',(34.9999999999999,-67.775,4.60000000000008));
#1473=CARTESIAN_POINT('',(4.99999999999993,-67.775,4.60000000000008));
#1474=CARTESIAN_POINT('',(17.5,-67.775,4.60000000000008));
#1475=CARTESIAN_POINT('',(34.9999999999999,-67.775,5.60000000000009));
#1476=CARTESIAN_POINT('',(34.9999999999999,-67.775,4.60000000000008));
#1477=CARTESIAN_POINT('',(4.99999999999993,-67.775,5.60000000000009));
#1478=CARTESIAN_POINT('',(34.9999999999999,-67.775,5.60000000000009));
#1479=CARTESIAN_POINT('',(4.99999999999993,-67.775,4.60000000000008));
#1480=CARTESIAN_POINT('Origin',(4.99999999999993,-64.875,5.10000000000005));
#1481=CARTESIAN_POINT('',(4.99999999999993,-64.875,5.60000000000009));
#1482=CARTESIAN_POINT('',(4.99999999999993,-32.4375,4.60000000000008));
#1483=CARTESIAN_POINT('Origin',(19.9999999999999,-64.875,5.60000000000009));
#1484=CARTESIAN_POINT('',(34.9999999999999,-64.875,5.60000000000009));
#1485=CARTESIAN_POINT('Origin',(34.9999999999999,-64.875,5.10000000000005));
#1486=CARTESIAN_POINT('',(34.9999999999999,-32.4375,4.60000000000008));
#1487=CARTESIAN_POINT('Origin',(-51.25,45.875,0.250000000000128));
#1488=CARTESIAN_POINT('',(-51.25,43.875,0.500000000000119));
#1489=CARTESIAN_POINT('',(-51.25,43.625,0.250000000000127));
#1490=CARTESIAN_POINT('Origin',(-51.25,45.875,0.500000000000114));
#1491=CARTESIAN_POINT('Origin',(-51.25,45.875,5.00000000000014));
#1492=CARTESIAN_POINT('',(-51.25,43.875,4.60000000000008));
#1493=CARTESIAN_POINT('',(-51.25,43.875,5.00000000000014));
#1494=CARTESIAN_POINT('Origin',(-51.25,45.875,4.60000000000015));
#1495=CARTESIAN_POINT('Origin',(-26.25,20.875,0.250000000000057));
#1496=CARTESIAN_POINT('',(-26.25,18.875,0.50000000000005));
#1497=CARTESIAN_POINT('',(-26.25,18.625,0.250000000000056));
#1498=CARTESIAN_POINT('Origin',(-26.25,20.875,0.500000000000043));
#1499=CARTESIAN_POINT('Origin',(-26.25,20.875,5.00000000000007));
#1500=CARTESIAN_POINT('',(-26.25,18.875,4.60000000000008));
#1501=CARTESIAN_POINT('',(-26.25,18.875,5.00000000000007));
#1502=CARTESIAN_POINT('Origin',(-26.25,20.875,4.60000000000008));
#1503=CARTESIAN_POINT('Origin',(-67.7500000000001,-64.875,0.42500000000004));
#1504=CARTESIAN_POINT('',(-67.7500000000001,-66.525,0.850000000000024));
#1505=CARTESIAN_POINT('',(-67.7500000000001,-66.95,0.425000000000039));
#1506=CARTESIAN_POINT('Origin',(-67.7500000000001,-64.875,0.850000000000009));
#1507=CARTESIAN_POINT('Origin',(-67.7500000000001,-64.875,5.00000000000007));
#1508=CARTESIAN_POINT('',(-67.7500000000001,-66.525,4.60000000000008));
#1509=CARTESIAN_POINT('',(-67.7500000000001,-66.525,5.00000000000007));
#1510=CARTESIAN_POINT('Origin',(-67.7500000000001,-64.875,4.60000000000008));
#1511=CARTESIAN_POINT('Origin',(49.25,-64.875,0.42500000000004));
#1512=CARTESIAN_POINT('',(49.25,-66.525,0.850000000000024));
#1513=CARTESIAN_POINT('',(49.25,-66.95,0.425000000000039));
#1514=CARTESIAN_POINT('Origin',(49.25,-64.875,0.850000000000009));
#1515=CARTESIAN_POINT('Origin',(49.25,-64.875,5.00000000000007));
#1516=CARTESIAN_POINT('',(49.25,-66.525,4.60000000000008));
#1517=CARTESIAN_POINT('',(49.25,-66.525,5.00000000000007));
#1518=CARTESIAN_POINT('Origin',(49.25,-64.875,4.60000000000008));
#1519=CARTESIAN_POINT('Origin',(68.75,28.75,0.42500000000004));
#1520=CARTESIAN_POINT('',(68.75,27.0999999999999,0.850000000000024));
#1521=CARTESIAN_POINT('',(68.75,26.675,0.425000000000039));
#1522=CARTESIAN_POINT('Origin',(68.75,28.75,0.850000000000009));
#1523=CARTESIAN_POINT('Origin',(68.75,28.75,5.00000000000007));
#1524=CARTESIAN_POINT('',(68.75,27.1,4.60000000000008));
#1525=CARTESIAN_POINT('',(68.75,27.1,5.00000000000007));
#1526=CARTESIAN_POINT('Origin',(68.75,28.75,4.60000000000008));
#1527=CARTESIAN_POINT('Origin',(68.75,60.875,0.425000000000111));
#1528=CARTESIAN_POINT('',(68.75,59.225,0.850000000000095));
#1529=CARTESIAN_POINT('',(68.75,58.8,0.42500000000011));
#1530=CARTESIAN_POINT('Origin',(68.75,60.875,0.85000000000008));
#1531=CARTESIAN_POINT('Origin',(68.75,60.875,5.00000000000014));
#1532=CARTESIAN_POINT('',(68.75,59.225,4.60000000000015));
#1533=CARTESIAN_POINT('',(68.75,59.225,5.00000000000014));
#1534=CARTESIAN_POINT('Origin',(68.75,60.875,4.60000000000015));
#1535=CARTESIAN_POINT('Origin',(68.75,-3.37500000000009,0.42500000000004));
#1536=CARTESIAN_POINT('',(68.75,-5.02500000000011,0.850000000000024));
#1537=CARTESIAN_POINT('',(68.75,-5.45000000000009,0.425000000000039));
#1538=CARTESIAN_POINT('Origin',(68.75,-3.37500000000009,0.850000000000009));
#1539=CARTESIAN_POINT('Origin',(68.75,-3.37500000000009,5.00000000000007));
#1540=CARTESIAN_POINT('',(68.75,-5.02500000000008,4.60000000000008));
#1541=CARTESIAN_POINT('',(68.75,-5.02500000000009,5.00000000000007));
#1542=CARTESIAN_POINT('Origin',(68.75,-3.37500000000009,4.60000000000008));
#1543=CARTESIAN_POINT('Origin',(-9.25000000000001,-64.875,0.42500000000004));
#1544=CARTESIAN_POINT('',(-9.25000000000001,-66.525,0.850000000000024));
#1545=CARTESIAN_POINT('',(-9.25000000000001,-66.95,0.425000000000039));
#1546=CARTESIAN_POINT('Origin',(-9.25000000000001,-64.875,0.850000000000009));
#1547=CARTESIAN_POINT('Origin',(-9.25000000000001,-64.875,5.00000000000007));
#1548=CARTESIAN_POINT('',(-9.25000000000001,-66.525,4.60000000000008));
#1549=CARTESIAN_POINT('',(-9.25000000000001,-66.525,5.00000000000007));
#1550=CARTESIAN_POINT('Origin',(-9.25000000000001,-64.875,4.60000000000008));
#1551=CARTESIAN_POINT('Origin',(76.25,70.875,4.60000000000008));
#1552=CARTESIAN_POINT('',(76.25,70.875,4.60000000000008));
#1553=CARTESIAN_POINT('',(76.25,70.875,4.60000000000008));
#1554=CARTESIAN_POINT('',(76.25,-13.3750000000001,4.60000000000001));
#1555=CARTESIAN_POINT('',(76.25,-13.3750000000001,4.60000000000001));
#1556=CARTESIAN_POINT('',(76.25,-13.3750000000001,4.60000000000001));
#1557=CARTESIAN_POINT('Origin',(-76.25,70.875,4.60000000000015));
#1558=CARTESIAN_POINT('',(-76.25,70.875,4.60000000000015));
#1559=CARTESIAN_POINT('',(-76.25,70.875,4.60000000000015));
#1560=CARTESIAN_POINT('',(-76.25,70.875,4.60000000000015));
#1561=CARTESIAN_POINT('Origin',(-76.25,-70.875,4.60000000000008));
#1562=CARTESIAN_POINT('',(-76.25,-70.875,4.60000000000008));
#1563=CARTESIAN_POINT('',(-76.25,-70.875,4.60000000000008));
#1564=CARTESIAN_POINT('',(-76.25,212.625,4.60000000000015));
#1565=CARTESIAN_POINT('Origin',(57.75,-70.8749999999999,4.60000000000001));
#1566=CARTESIAN_POINT('',(57.75,-70.8749999999999,4.60000000000001));
#1567=CARTESIAN_POINT('',(57.75,-70.8749999999999,4.60000000000001));
#1568=CARTESIAN_POINT('',(57.75,-70.8749999999999,4.60000000000001));
#1569=CARTESIAN_POINT('Origin',(57.75,-47.8749999999999,4.60000000000001));
#1570=CARTESIAN_POINT('',(57.75,-47.8749999999999,4.60000000000001));
#1571=CARTESIAN_POINT('',(57.75,-47.8749999999999,4.60000000000001));
#1572=CARTESIAN_POINT('',(57.75,-70.8749999999999,4.60000000000001));
#1573=CARTESIAN_POINT('Origin',(58.7499999999999,-47.8749999999999,4.60000000000001));
#1574=CARTESIAN_POINT('',(58.7499999999999,-47.8749999999999,4.60000000000001));
#1575=CARTESIAN_POINT('',(58.7499999999999,-47.8749999999999,4.60000000000001));
#1576=CARTESIAN_POINT('',(57.75,-47.8749999999999,4.60000000000001));
#1577=CARTESIAN_POINT('Origin',(58.7499999999999,-13.3750000000001,4.60000000000001));
#1578=CARTESIAN_POINT('',(58.7499999999999,-13.3750000000001,4.60000000000001));
#1579=CARTESIAN_POINT('',(58.7499999999999,-13.3750000000001,4.60000000000001));
#1580=CARTESIAN_POINT('',(58.7499999999999,-13.3750000000001,4.60000000000001));
#1581=CARTESIAN_POINT('Origin',(76.25,-13.3750000000001,4.60000000000001));
#1582=CARTESIAN_POINT('',(76.25,-13.3750000000001,4.60000000000001));
#1583=CARTESIAN_POINT('Origin',(0.,0.,4.60000000000008));
#1584=UNCERTAINTY_MEASURE_WITH_UNIT(LENGTH_MEASURE(0.01),#1588,
'DISTANCE_ACCURACY_VALUE',
'Maximum model space distance between geometric entities at asserted c
onnectivities');
#1585=UNCERTAINTY_MEASURE_WITH_UNIT(LENGTH_MEASURE(0.01),#1588,
'DISTANCE_ACCURACY_VALUE',
'Maximum model space distance between geometric entities at asserted c
onnectivities');
#1586=(
GEOMETRIC_REPRESENTATION_CONTEXT(3)
GLOBAL_UNCERTAINTY_ASSIGNED_CONTEXT((#1584))
GLOBAL_UNIT_ASSIGNED_CONTEXT((#1588,#1590,#1591))
REPRESENTATION_CONTEXT('','3D')
);
#1587=(
GEOMETRIC_REPRESENTATION_CONTEXT(3)
GLOBAL_UNCERTAINTY_ASSIGNED_CONTEXT((#1585))
GLOBAL_UNIT_ASSIGNED_CONTEXT((#1588,#1590,#1591))
REPRESENTATION_CONTEXT('','3D')
);
#1588=(
LENGTH_UNIT()
NAMED_UNIT(*)
SI_UNIT(.MILLI.,.METRE.)
);
#1589=(
LENGTH_UNIT()
NAMED_UNIT(*)
SI_UNIT($,.METRE.)
);
#1590=(
NAMED_UNIT(*)
PLANE_ANGLE_UNIT()
SI_UNIT($,.RADIAN.)
);
#1591=(
NAMED_UNIT(*)
SI_UNIT($,.STERADIAN.)
SOLID_ANGLE_UNIT()
);
#1592=SHAPE_DEFINITION_REPRESENTATION(#1593,#1594);
#1593=PRODUCT_DEFINITION_SHAPE('',$,#1596);
#1594=SHAPE_REPRESENTATION('',(#980),#1586);
#1595=PRODUCT_DEFINITION_CONTEXT('part definition',#1600,'design');
#1596=PRODUCT_DEFINITION('MAIN','Proosa Mini - panels - export v2',#1597,
#1595);
#1597=PRODUCT_DEFINITION_FORMATION('',$,#1602);
#1598=PRODUCT_RELATED_PRODUCT_CATEGORY(
'Proosa Mini - panels - export v2','Proosa Mini - panels - export v2',(#1602));
#1599=APPLICATION_PROTOCOL_DEFINITION('international standard',
'automotive_design',2009,#1600);
#1600=APPLICATION_CONTEXT(
'Core Data for Automotive Mechanical Design Process');
#1601=PRODUCT_CONTEXT('part definition',#1600,'mechanical');
#1602=PRODUCT('MAIN','Proosa Mini - panels - export v2','FreeCAD Model',
(#1601));
#1603=PRESENTATION_STYLE_ASSIGNMENT((#1605));
#1604=PRESENTATION_STYLE_ASSIGNMENT((#1606));
#1605=SURFACE_STYLE_USAGE(.BOTH.,#1607);
#1606=SURFACE_STYLE_USAGE(.BOTH.,#1608);
#1607=SURFACE_SIDE_STYLE('',(#1609));
#1608=SURFACE_SIDE_STYLE('',(#1610));
#1609=SURFACE_STYLE_FILL_AREA(#1611);
#1610=SURFACE_STYLE_FILL_AREA(#1612);
#1611=FILL_AREA_STYLE('Acero - Satinado',(#1613));
#1612=FILL_AREA_STYLE('Opaque(82,82,82)',(#1614));
#1613=FILL_AREA_STYLE_COLOUR('Acero - Satinado',#1615);
#1614=FILL_AREA_STYLE_COLOUR('Opaque(82,82,82)',#1616);
#1615=COLOUR_RGB('Acero - Satinado',0.627450980392157,0.627450980392157,
0.627450980392157);
#1616=COLOUR_RGB('Opaque(82,82,82)',0.32156862745098,0.32156862745098,0.32156862745098);
ENDSEC;
END-ISO-10303-21;
