ISO-10303-21;
HEADER;
/* Generated by software containing ST-Developer
 * from STEP Tools, Inc. (www.steptools.com) 
 */

FILE_DESCRIPTION(
/* description */ ('FreeCAD Model'),
/* implementation_level */ '2;1');

FILE_NAME(
/* name */ 'back-panel-bottom-left.step',
/* time_stamp */ '2026-04-24T17:55:10+02:00',
/* author */ (''),
/* organization */ (''),
/* preprocessor_version */ 'ST-DEVELOPER v20.1',
/* originating_system */ 'Autodesk Translation Framework v15.8.0.0',
/* authorisation */ '');

FILE_SCHEMA (('AUTOMOTIVE_DESIGN { 1 0 10303 214 3 1 1 }'));
ENDSEC;

DATA;
#10=MECHANICAL_DESIGN_GEOMETRIC_PRESENTATION_REPRESENTATION('',(#13),#2150);
#11=SHAPE_REPRESENTATION_RELATIONSHIP('SRR','None',#2157,#12);
#12=ADVANCED_BREP_SHAPE_REPRESENTATION('',(#14),#2149);
#13=STYLED_ITEM('',(#2166),#14);
#14=MANIFOLD_SOLID_BREP('back-panel-bottom-left',#1328);
#15=CYLINDRICAL_SURFACE('',#1382,7.5);
#16=CYLINDRICAL_SURFACE('',#1400,2.);
#17=CYLINDRICAL_SURFACE('',#1404,2.);
#18=CYLINDRICAL_SURFACE('',#1408,1.65);
#19=CYLINDRICAL_SURFACE('',#1412,1.65);
#20=CYLINDRICAL_SURFACE('',#1416,1.65);
#21=CYLINDRICAL_SURFACE('',#1420,1.65);
#22=CYLINDRICAL_SURFACE('',#1424,1.65);
#23=CONICAL_SURFACE('',#1380,7.7,0.785398163397448);
#24=CONICAL_SURFACE('',#1398,2.25,0.785398163397448);
#25=CONICAL_SURFACE('',#1402,2.25,0.785398163397448);
#26=CONICAL_SURFACE('',#1406,2.075,0.785398163397448);
#27=CONICAL_SURFACE('',#1410,2.075,0.785398163397448);
#28=CONICAL_SURFACE('',#1414,2.075,0.785398163397448);
#29=CONICAL_SURFACE('',#1418,2.075,0.785398163397448);
#30=CONICAL_SURFACE('',#1422,2.075,0.785398163397448);
#31=CIRCLE('',#1348,7.89999999999999);
#32=CIRCLE('',#1349,2.49999999999999);
#33=CIRCLE('',#1350,2.49999999999999);
#34=CIRCLE('',#1351,2.49999999999997);
#35=CIRCLE('',#1352,2.49999999999997);
#36=CIRCLE('',#1353,2.49999999999997);
#37=CIRCLE('',#1354,2.49999999999997);
#38=CIRCLE('',#1355,2.49999999999997);
#39=CIRCLE('',#1381,7.5);
#40=CIRCLE('',#1383,7.5);
#41=CIRCLE('',#1399,2.);
#42=CIRCLE('',#1401,2.);
#43=CIRCLE('',#1403,2.);
#44=CIRCLE('',#1405,2.);
#45=CIRCLE('',#1407,1.65);
#46=CIRCLE('',#1409,1.65);
#47=CIRCLE('',#1411,1.65);
#48=CIRCLE('',#1413,1.65);
#49=CIRCLE('',#1415,1.65);
#50=CIRCLE('',#1417,1.65);
#51=CIRCLE('',#1419,1.65);
#52=CIRCLE('',#1421,1.65);
#53=CIRCLE('',#1423,1.65);
#54=CIRCLE('',#1425,1.65);
#55=FACE_BOUND('',#160,.T.);
#56=FACE_BOUND('',#161,.T.);
#57=FACE_BOUND('',#162,.T.);
#58=FACE_BOUND('',#163,.T.);
#59=FACE_BOUND('',#164,.T.);
#60=FACE_BOUND('',#165,.T.);
#61=FACE_BOUND('',#166,.T.);
#62=FACE_BOUND('',#167,.T.);
#63=FACE_BOUND('',#168,.T.);
#64=FACE_BOUND('',#169,.T.);
#65=FACE_BOUND('',#170,.T.);
#66=FACE_BOUND('',#171,.T.);
#67=FACE_BOUND('',#239,.T.);
#68=FACE_BOUND('',#240,.T.);
#69=FACE_BOUND('',#241,.T.);
#70=FACE_BOUND('',#242,.T.);
#71=FACE_BOUND('',#243,.T.);
#72=FACE_BOUND('',#244,.T.);
#73=FACE_BOUND('',#245,.T.);
#74=FACE_BOUND('',#246,.T.);
#75=FACE_BOUND('',#247,.T.);
#76=FACE_BOUND('',#248,.T.);
#77=FACE_BOUND('',#249,.T.);
#78=FACE_BOUND('',#250,.T.);
#79=FACE_BOUND('',#251,.T.);
#80=FACE_BOUND('',#252,.T.);
#81=FACE_OUTER_BOUND('',#154,.T.);
#82=FACE_OUTER_BOUND('',#155,.T.);
#83=FACE_OUTER_BOUND('',#156,.T.);
#84=FACE_OUTER_BOUND('',#157,.T.);
#85=FACE_OUTER_BOUND('',#158,.T.);
#86=FACE_OUTER_BOUND('',#159,.T.);
#87=FACE_OUTER_BOUND('',#172,.T.);
#88=FACE_OUTER_BOUND('',#173,.T.);
#89=FACE_OUTER_BOUND('',#174,.T.);
#90=FACE_OUTER_BOUND('',#175,.T.);
#91=FACE_OUTER_BOUND('',#176,.T.);
#92=FACE_OUTER_BOUND('',#177,.T.);
#93=FACE_OUTER_BOUND('',#178,.T.);
#94=FACE_OUTER_BOUND('',#179,.T.);
#95=FACE_OUTER_BOUND('',#180,.T.);
#96=FACE_OUTER_BOUND('',#181,.T.);
#97=FACE_OUTER_BOUND('',#182,.T.);
#98=FACE_OUTER_BOUND('',#183,.T.);
#99=FACE_OUTER_BOUND('',#184,.T.);
#100=FACE_OUTER_BOUND('',#185,.T.);
#101=FACE_OUTER_BOUND('',#186,.T.);
#102=FACE_OUTER_BOUND('',#187,.T.);
#103=FACE_OUTER_BOUND('',#188,.T.);
#104=FACE_OUTER_BOUND('',#189,.T.);
#105=FACE_OUTER_BOUND('',#190,.T.);
#106=FACE_OUTER_BOUND('',#191,.T.);
#107=FACE_OUTER_BOUND('',#192,.T.);
#108=FACE_OUTER_BOUND('',#193,.T.);
#109=FACE_OUTER_BOUND('',#194,.T.);
#110=FACE_OUTER_BOUND('',#195,.T.);
#111=FACE_OUTER_BOUND('',#196,.T.);
#112=FACE_OUTER_BOUND('',#197,.T.);
#113=FACE_OUTER_BOUND('',#198,.T.);
#114=FACE_OUTER_BOUND('',#199,.T.);
#115=FACE_OUTER_BOUND('',#200,.T.);
#116=FACE_OUTER_BOUND('',#201,.T.);
#117=FACE_OUTER_BOUND('',#202,.T.);
#118=FACE_OUTER_BOUND('',#203,.T.);
#119=FACE_OUTER_BOUND('',#204,.T.);
#120=FACE_OUTER_BOUND('',#205,.T.);
#121=FACE_OUTER_BOUND('',#206,.T.);
#122=FACE_OUTER_BOUND('',#207,.T.);
#123=FACE_OUTER_BOUND('',#208,.T.);
#124=FACE_OUTER_BOUND('',#209,.T.);
#125=FACE_OUTER_BOUND('',#210,.T.);
#126=FACE_OUTER_BOUND('',#211,.T.);
#127=FACE_OUTER_BOUND('',#212,.T.);
#128=FACE_OUTER_BOUND('',#213,.T.);
#129=FACE_OUTER_BOUND('',#214,.T.);
#130=FACE_OUTER_BOUND('',#215,.T.);
#131=FACE_OUTER_BOUND('',#216,.T.);
#132=FACE_OUTER_BOUND('',#217,.T.);
#133=FACE_OUTER_BOUND('',#218,.T.);
#134=FACE_OUTER_BOUND('',#219,.T.);
#135=FACE_OUTER_BOUND('',#220,.T.);
#136=FACE_OUTER_BOUND('',#221,.T.);
#137=FACE_OUTER_BOUND('',#222,.T.);
#138=FACE_OUTER_BOUND('',#223,.T.);
#139=FACE_OUTER_BOUND('',#224,.T.);
#140=FACE_OUTER_BOUND('',#225,.T.);
#141=FACE_OUTER_BOUND('',#226,.T.);
#142=FACE_OUTER_BOUND('',#227,.T.);
#143=FACE_OUTER_BOUND('',#228,.T.);
#144=FACE_OUTER_BOUND('',#229,.T.);
#145=FACE_OUTER_BOUND('',#230,.T.);
#146=FACE_OUTER_BOUND('',#231,.T.);
#147=FACE_OUTER_BOUND('',#232,.T.);
#148=FACE_OUTER_BOUND('',#233,.T.);
#149=FACE_OUTER_BOUND('',#234,.T.);
#150=FACE_OUTER_BOUND('',#235,.T.);
#151=FACE_OUTER_BOUND('',#236,.T.);
#152=FACE_OUTER_BOUND('',#237,.T.);
#153=FACE_OUTER_BOUND('',#238,.T.);
#154=EDGE_LOOP('',(#844,#845,#846,#847));
#155=EDGE_LOOP('',(#848,#849,#850,#851));
#156=EDGE_LOOP('',(#852,#853,#854,#855,#856));
#157=EDGE_LOOP('',(#857,#858,#859,#860));
#158=EDGE_LOOP('',(#861,#862,#863,#864));
#159=EDGE_LOOP('',(#865,#866,#867,#868,#869,#870));
#160=EDGE_LOOP('',(#871,#872,#873,#874));
#161=EDGE_LOOP('',(#875,#876,#877,#878));
#162=EDGE_LOOP('',(#879));
#163=EDGE_LOOP('',(#880));
#164=EDGE_LOOP('',(#881));
#165=EDGE_LOOP('',(#882));
#166=EDGE_LOOP('',(#883));
#167=EDGE_LOOP('',(#884));
#168=EDGE_LOOP('',(#885));
#169=EDGE_LOOP('',(#886));
#170=EDGE_LOOP('',(#887,#888,#889,#890));
#171=EDGE_LOOP('',(#891,#892,#893,#894));
#172=EDGE_LOOP('',(#895,#896,#897,#898));
#173=EDGE_LOOP('',(#899,#900,#901,#902));
#174=EDGE_LOOP('',(#903,#904,#905,#906));
#175=EDGE_LOOP('',(#907,#908,#909,#910));
#176=EDGE_LOOP('',(#911,#912,#913,#914));
#177=EDGE_LOOP('',(#915,#916,#917,#918));
#178=EDGE_LOOP('',(#919,#920,#921,#922));
#179=EDGE_LOOP('',(#923,#924,#925,#926));
#180=EDGE_LOOP('',(#927,#928,#929,#930));
#181=EDGE_LOOP('',(#931,#932,#933,#934));
#182=EDGE_LOOP('',(#935,#936,#937,#938));
#183=EDGE_LOOP('',(#939,#940,#941,#942));
#184=EDGE_LOOP('',(#943,#944,#945,#946));
#185=EDGE_LOOP('',(#947,#948,#949,#950));
#186=EDGE_LOOP('',(#951,#952,#953,#954));
#187=EDGE_LOOP('',(#955,#956,#957,#958));
#188=EDGE_LOOP('',(#959,#960,#961,#962));
#189=EDGE_LOOP('',(#963,#964,#965,#966));
#190=EDGE_LOOP('',(#967,#968,#969,#970));
#191=EDGE_LOOP('',(#971,#972,#973,#974));
#192=EDGE_LOOP('',(#975,#976,#977,#978));
#193=EDGE_LOOP('',(#979,#980,#981,#982));
#194=EDGE_LOOP('',(#983,#984,#985,#986));
#195=EDGE_LOOP('',(#987,#988,#989,#990));
#196=EDGE_LOOP('',(#991,#992,#993,#994));
#197=EDGE_LOOP('',(#995,#996,#997,#998));
#198=EDGE_LOOP('',(#999,#1000,#1001,#1002));
#199=EDGE_LOOP('',(#1003,#1004,#1005,#1006));
#200=EDGE_LOOP('',(#1007,#1008,#1009,#1010));
#201=EDGE_LOOP('',(#1011,#1012,#1013,#1014));
#202=EDGE_LOOP('',(#1015,#1016,#1017,#1018));
#203=EDGE_LOOP('',(#1019,#1020,#1021,#1022));
#204=EDGE_LOOP('',(#1023,#1024,#1025,#1026));
#205=EDGE_LOOP('',(#1027,#1028,#1029,#1030));
#206=EDGE_LOOP('',(#1031,#1032,#1033,#1034));
#207=EDGE_LOOP('',(#1035,#1036,#1037,#1038));
#208=EDGE_LOOP('',(#1039,#1040,#1041,#1042));
#209=EDGE_LOOP('',(#1043,#1044,#1045,#1046));
#210=EDGE_LOOP('',(#1047,#1048,#1049,#1050));
#211=EDGE_LOOP('',(#1051,#1052,#1053,#1054));
#212=EDGE_LOOP('',(#1055,#1056,#1057,#1058));
#213=EDGE_LOOP('',(#1059,#1060,#1061,#1062));
#214=EDGE_LOOP('',(#1063,#1064,#1065,#1066));
#215=EDGE_LOOP('',(#1067,#1068,#1069,#1070));
#216=EDGE_LOOP('',(#1071,#1072,#1073,#1074));
#217=EDGE_LOOP('',(#1075,#1076,#1077,#1078));
#218=EDGE_LOOP('',(#1079,#1080,#1081,#1082));
#219=EDGE_LOOP('',(#1083,#1084,#1085,#1086));
#220=EDGE_LOOP('',(#1087,#1088,#1089,#1090));
#221=EDGE_LOOP('',(#1091,#1092,#1093,#1094));
#222=EDGE_LOOP('',(#1095,#1096,#1097,#1098));
#223=EDGE_LOOP('',(#1099,#1100,#1101,#1102));
#224=EDGE_LOOP('',(#1103,#1104,#1105,#1106));
#225=EDGE_LOOP('',(#1107,#1108,#1109,#1110));
#226=EDGE_LOOP('',(#1111,#1112,#1113,#1114));
#227=EDGE_LOOP('',(#1115,#1116,#1117,#1118));
#228=EDGE_LOOP('',(#1119,#1120,#1121,#1122));
#229=EDGE_LOOP('',(#1123,#1124,#1125,#1126));
#230=EDGE_LOOP('',(#1127,#1128,#1129,#1130));
#231=EDGE_LOOP('',(#1131,#1132,#1133,#1134));
#232=EDGE_LOOP('',(#1135,#1136,#1137,#1138));
#233=EDGE_LOOP('',(#1139,#1140,#1141,#1142));
#234=EDGE_LOOP('',(#1143,#1144,#1145,#1146,#1147));
#235=EDGE_LOOP('',(#1148,#1149,#1150,#1151));
#236=EDGE_LOOP('',(#1152,#1153,#1154,#1155));
#237=EDGE_LOOP('',(#1156,#1157,#1158,#1159));
#238=EDGE_LOOP('',(#1160,#1161,#1162,#1163,#1164,#1165));
#239=EDGE_LOOP('',(#1166,#1167,#1168,#1169));
#240=EDGE_LOOP('',(#1170));
#241=EDGE_LOOP('',(#1171));
#242=EDGE_LOOP('',(#1172));
#243=EDGE_LOOP('',(#1173));
#244=EDGE_LOOP('',(#1174));
#245=EDGE_LOOP('',(#1175,#1176,#1177,#1178));
#246=EDGE_LOOP('',(#1179));
#247=EDGE_LOOP('',(#1180,#1181,#1182,#1183));
#248=EDGE_LOOP('',(#1184,#1185,#1186,#1187));
#249=EDGE_LOOP('',(#1188,#1189,#1190,#1191));
#250=EDGE_LOOP('',(#1192));
#251=EDGE_LOOP('',(#1193));
#252=EDGE_LOOP('',(#1194,#1195,#1196,#1197));
#253=LINE('',#1792,#406);
#254=LINE('',#1794,#407);
#255=LINE('',#1796,#408);
#256=LINE('',#1797,#409);
#257=LINE('',#1800,#410);
#258=LINE('',#1802,#411);
#259=LINE('',#1803,#412);
#260=LINE('',#1806,#413);
#261=LINE('',#1808,#414);
#262=LINE('',#1809,#415);
#263=LINE('',#1812,#416);
#264=LINE('',#1814,#417);
#265=LINE('',#1815,#418);
#266=LINE('',#1818,#419);
#267=LINE('',#1819,#420);
#268=LINE('',#1822,#421);
#269=LINE('',#1824,#422);
#270=LINE('',#1826,#423);
#271=LINE('',#1827,#424);
#272=LINE('',#1830,#425);
#273=LINE('',#1832,#426);
#274=LINE('',#1834,#427);
#275=LINE('',#1835,#428);
#276=LINE('',#1838,#429);
#277=LINE('',#1840,#430);
#278=LINE('',#1842,#431);
#279=LINE('',#1843,#432);
#280=LINE('',#1862,#433);
#281=LINE('',#1864,#434);
#282=LINE('',#1866,#435);
#283=LINE('',#1867,#436);
#284=LINE('',#1870,#437);
#285=LINE('',#1872,#438);
#286=LINE('',#1874,#439);
#287=LINE('',#1875,#440);
#288=LINE('',#1878,#441);
#289=LINE('',#1880,#442);
#290=LINE('',#1881,#443);
#291=LINE('',#1884,#444);
#292=LINE('',#1885,#445);
#293=LINE('',#1888,#446);
#294=LINE('',#1889,#447);
#295=LINE('',#1891,#448);
#296=LINE('',#1894,#449);
#297=LINE('',#1896,#450);
#298=LINE('',#1897,#451);
#299=LINE('',#1900,#452);
#300=LINE('',#1901,#453);
#301=LINE('',#1904,#454);
#302=LINE('',#1906,#455);
#303=LINE('',#1907,#456);
#304=LINE('',#1910,#457);
#305=LINE('',#1911,#458);
#306=LINE('',#1914,#459);
#307=LINE('',#1915,#460);
#308=LINE('',#1917,#461);
#309=LINE('',#1920,#462);
#310=LINE('',#1922,#463);
#311=LINE('',#1923,#464);
#312=LINE('',#1926,#465);
#313=LINE('',#1927,#466);
#314=LINE('',#1930,#467);
#315=LINE('',#1932,#468);
#316=LINE('',#1933,#469);
#317=LINE('',#1936,#470);
#318=LINE('',#1937,#471);
#319=LINE('',#1940,#472);
#320=LINE('',#1941,#473);
#321=LINE('',#1943,#474);
#322=LINE('',#1946,#475);
#323=LINE('',#1948,#476);
#324=LINE('',#1949,#477);
#325=LINE('',#1952,#478);
#326=LINE('',#1953,#479);
#327=LINE('',#1956,#480);
#328=LINE('',#1958,#481);
#329=LINE('',#1959,#482);
#330=LINE('',#1962,#483);
#331=LINE('',#1963,#484);
#332=LINE('',#1966,#485);
#333=LINE('',#1967,#486);
#334=LINE('',#1969,#487);
#335=LINE('',#1972,#488);
#336=LINE('',#1974,#489);
#337=LINE('',#1975,#490);
#338=LINE('',#1978,#491);
#339=LINE('',#1979,#492);
#340=LINE('',#1982,#493);
#341=LINE('',#1986,#494);
#342=LINE('',#1990,#495);
#343=LINE('',#1991,#496);
#344=LINE('',#1994,#497);
#345=LINE('',#1995,#498);
#346=LINE('',#1998,#499);
#347=LINE('',#1999,#500);
#348=LINE('',#2001,#501);
#349=LINE('',#2005,#502);
#350=LINE('',#2007,#503);
#351=LINE('',#2009,#504);
#352=LINE('',#2010,#505);
#353=LINE('',#2014,#506);
#354=LINE('',#2016,#507);
#355=LINE('',#2018,#508);
#356=LINE('',#2019,#509);
#357=LINE('',#2021,#510);
#358=LINE('',#2022,#511);
#359=LINE('',#2024,#512);
#360=LINE('',#2026,#513);
#361=LINE('',#2030,#514);
#362=LINE('',#2032,#515);
#363=LINE('',#2034,#516);
#364=LINE('',#2035,#517);
#365=LINE('',#2039,#518);
#366=LINE('',#2041,#519);
#367=LINE('',#2043,#520);
#368=LINE('',#2044,#521);
#369=LINE('',#2046,#522);
#370=LINE('',#2047,#523);
#371=LINE('',#2049,#524);
#372=LINE('',#2051,#525);
#373=LINE('',#2054,#526);
#374=LINE('',#2058,#527);
#375=LINE('',#2062,#528);
#376=LINE('',#2066,#529);
#377=LINE('',#2070,#530);
#378=LINE('',#2074,#531);
#379=LINE('',#2078,#532);
#380=LINE('',#2082,#533);
#381=LINE('',#2086,#534);
#382=LINE('',#2090,#535);
#383=LINE('',#2094,#536);
#384=LINE('',#2098,#537);
#385=LINE('',#2102,#538);
#386=LINE('',#2106,#539);
#387=LINE('',#2110,#540);
#388=LINE('',#2111,#541);
#389=LINE('',#2113,#542);
#390=LINE('',#2116,#543);
#391=LINE('',#2117,#544);
#392=LINE('',#2119,#545);
#393=LINE('',#2122,#546);
#394=LINE('',#2123,#547);
#395=LINE('',#2125,#548);
#396=LINE('',#2128,#549);
#397=LINE('',#2129,#550);
#398=LINE('',#2131,#551);
#399=LINE('',#2134,#552);
#400=LINE('',#2135,#553);
#401=LINE('',#2138,#554);
#402=LINE('',#2139,#555);
#403=LINE('',#2142,#556);
#404=LINE('',#2143,#557);
#405=LINE('',#2145,#558);
#406=VECTOR('',#1443,10.);
#407=VECTOR('',#1444,10.);
#408=VECTOR('',#1445,10.);
#409=VECTOR('',#1446,10.);
#410=VECTOR('',#1449,10.);
#411=VECTOR('',#1450,10.);
#412=VECTOR('',#1451,10.);
#413=VECTOR('',#1454,10.);
#414=VECTOR('',#1455,10.);
#415=VECTOR('',#1456,10.);
#416=VECTOR('',#1459,10.);
#417=VECTOR('',#1460,10.);
#418=VECTOR('',#1461,10.);
#419=VECTOR('',#1464,10.);
#420=VECTOR('',#1465,10.);
#421=VECTOR('',#1468,10.);
#422=VECTOR('',#1469,10.);
#423=VECTOR('',#1470,10.);
#424=VECTOR('',#1471,10.);
#425=VECTOR('',#1472,10.);
#426=VECTOR('',#1473,10.);
#427=VECTOR('',#1474,10.);
#428=VECTOR('',#1475,10.);
#429=VECTOR('',#1476,10.);
#430=VECTOR('',#1477,10.);
#431=VECTOR('',#1478,10.);
#432=VECTOR('',#1479,10.);
#433=VECTOR('',#1496,10.);
#434=VECTOR('',#1497,10.);
#435=VECTOR('',#1498,10.);
#436=VECTOR('',#1499,10.);
#437=VECTOR('',#1500,10.);
#438=VECTOR('',#1501,10.);
#439=VECTOR('',#1502,10.);
#440=VECTOR('',#1503,10.);
#441=VECTOR('',#1506,10.);
#442=VECTOR('',#1507,10.);
#443=VECTOR('',#1508,10.);
#444=VECTOR('',#1511,10.);
#445=VECTOR('',#1512,10.);
#446=VECTOR('',#1515,10.);
#447=VECTOR('',#1516,10.);
#448=VECTOR('',#1519,10.);
#449=VECTOR('',#1522,10.);
#450=VECTOR('',#1523,10.);
#451=VECTOR('',#1524,10.);
#452=VECTOR('',#1527,10.);
#453=VECTOR('',#1528,10.);
#454=VECTOR('',#1531,10.);
#455=VECTOR('',#1532,10.);
#456=VECTOR('',#1533,10.);
#457=VECTOR('',#1536,10.);
#458=VECTOR('',#1537,10.);
#459=VECTOR('',#1540,10.);
#460=VECTOR('',#1541,10.);
#461=VECTOR('',#1544,10.);
#462=VECTOR('',#1547,10.);
#463=VECTOR('',#1548,10.);
#464=VECTOR('',#1549,10.);
#465=VECTOR('',#1552,10.);
#466=VECTOR('',#1553,10.);
#467=VECTOR('',#1556,10.);
#468=VECTOR('',#1557,10.);
#469=VECTOR('',#1558,10.);
#470=VECTOR('',#1561,10.);
#471=VECTOR('',#1562,10.);
#472=VECTOR('',#1565,10.);
#473=VECTOR('',#1566,10.);
#474=VECTOR('',#1569,10.);
#475=VECTOR('',#1572,10.);
#476=VECTOR('',#1573,10.);
#477=VECTOR('',#1574,10.);
#478=VECTOR('',#1577,10.);
#479=VECTOR('',#1578,10.);
#480=VECTOR('',#1581,10.);
#481=VECTOR('',#1582,10.);
#482=VECTOR('',#1583,10.);
#483=VECTOR('',#1586,10.);
#484=VECTOR('',#1587,10.);
#485=VECTOR('',#1590,10.);
#486=VECTOR('',#1591,10.);
#487=VECTOR('',#1594,10.);
#488=VECTOR('',#1597,10.);
#489=VECTOR('',#1598,10.);
#490=VECTOR('',#1599,10.);
#491=VECTOR('',#1602,10.);
#492=VECTOR('',#1603,10.);
#493=VECTOR('',#1606,7.69999999999999);
#494=VECTOR('',#1611,7.5);
#495=VECTOR('',#1616,10.);
#496=VECTOR('',#1617,10.);
#497=VECTOR('',#1620,10.);
#498=VECTOR('',#1621,10.);
#499=VECTOR('',#1624,10.);
#500=VECTOR('',#1625,10.);
#501=VECTOR('',#1628,10.);
#502=VECTOR('',#1631,10.);
#503=VECTOR('',#1632,10.);
#504=VECTOR('',#1633,10.);
#505=VECTOR('',#1634,10.);
#506=VECTOR('',#1637,10.);
#507=VECTOR('',#1638,10.);
#508=VECTOR('',#1639,10.);
#509=VECTOR('',#1640,10.);
#510=VECTOR('',#1643,10.);
#511=VECTOR('',#1644,10.);
#512=VECTOR('',#1647,10.);
#513=VECTOR('',#1650,10.);
#514=VECTOR('',#1653,10.);
#515=VECTOR('',#1654,10.);
#516=VECTOR('',#1655,10.);
#517=VECTOR('',#1656,10.);
#518=VECTOR('',#1659,10.);
#519=VECTOR('',#1660,10.);
#520=VECTOR('',#1661,10.);
#521=VECTOR('',#1662,10.);
#522=VECTOR('',#1665,10.);
#523=VECTOR('',#1666,10.);
#524=VECTOR('',#1669,10.);
#525=VECTOR('',#1672,10.);
#526=VECTOR('',#1675,2.25);
#527=VECTOR('',#1680,2.);
#528=VECTOR('',#1685,2.25);
#529=VECTOR('',#1690,2.);
#530=VECTOR('',#1695,2.075);
#531=VECTOR('',#1700,1.65);
#532=VECTOR('',#1705,2.075);
#533=VECTOR('',#1710,1.65);
#534=VECTOR('',#1715,2.075);
#535=VECTOR('',#1720,1.65);
#536=VECTOR('',#1725,2.075);
#537=VECTOR('',#1730,1.65);
#538=VECTOR('',#1735,2.075);
#539=VECTOR('',#1740,1.65);
#540=VECTOR('',#1745,10.);
#541=VECTOR('',#1746,10.);
#542=VECTOR('',#1749,10.);
#543=VECTOR('',#1752,10.);
#544=VECTOR('',#1753,10.);
#545=VECTOR('',#1756,10.);
#546=VECTOR('',#1759,10.);
#547=VECTOR('',#1760,10.);
#548=VECTOR('',#1763,10.);
#549=VECTOR('',#1766,10.);
#550=VECTOR('',#1767,10.);
#551=VECTOR('',#1770,10.);
#552=VECTOR('',#1773,10.);
#553=VECTOR('',#1774,10.);
#554=VECTOR('',#1777,10.);
#555=VECTOR('',#1778,10.);
#556=VECTOR('',#1781,10.);
#557=VECTOR('',#1782,10.);
#558=VECTOR('',#1785,10.);
#559=VERTEX_POINT('',#1790);
#560=VERTEX_POINT('',#1791);
#561=VERTEX_POINT('',#1793);
#562=VERTEX_POINT('',#1795);
#563=VERTEX_POINT('',#1799);
#564=VERTEX_POINT('',#1801);
#565=VERTEX_POINT('',#1805);
#566=VERTEX_POINT('',#1807);
#567=VERTEX_POINT('',#1811);
#568=VERTEX_POINT('',#1813);
#569=VERTEX_POINT('',#1817);
#570=VERTEX_POINT('',#1821);
#571=VERTEX_POINT('',#1823);
#572=VERTEX_POINT('',#1825);
#573=VERTEX_POINT('',#1828);
#574=VERTEX_POINT('',#1829);
#575=VERTEX_POINT('',#1831);
#576=VERTEX_POINT('',#1833);
#577=VERTEX_POINT('',#1836);
#578=VERTEX_POINT('',#1837);
#579=VERTEX_POINT('',#1839);
#580=VERTEX_POINT('',#1841);
#581=VERTEX_POINT('',#1844);
#582=VERTEX_POINT('',#1846);
#583=VERTEX_POINT('',#1848);
#584=VERTEX_POINT('',#1850);
#585=VERTEX_POINT('',#1852);
#586=VERTEX_POINT('',#1854);
#587=VERTEX_POINT('',#1856);
#588=VERTEX_POINT('',#1858);
#589=VERTEX_POINT('',#1860);
#590=VERTEX_POINT('',#1861);
#591=VERTEX_POINT('',#1863);
#592=VERTEX_POINT('',#1865);
#593=VERTEX_POINT('',#1868);
#594=VERTEX_POINT('',#1869);
#595=VERTEX_POINT('',#1871);
#596=VERTEX_POINT('',#1873);
#597=VERTEX_POINT('',#1877);
#598=VERTEX_POINT('',#1879);
#599=VERTEX_POINT('',#1883);
#600=VERTEX_POINT('',#1887);
#601=VERTEX_POINT('',#1893);
#602=VERTEX_POINT('',#1895);
#603=VERTEX_POINT('',#1899);
#604=VERTEX_POINT('',#1903);
#605=VERTEX_POINT('',#1905);
#606=VERTEX_POINT('',#1909);
#607=VERTEX_POINT('',#1913);
#608=VERTEX_POINT('',#1919);
#609=VERTEX_POINT('',#1921);
#610=VERTEX_POINT('',#1925);
#611=VERTEX_POINT('',#1929);
#612=VERTEX_POINT('',#1931);
#613=VERTEX_POINT('',#1935);
#614=VERTEX_POINT('',#1939);
#615=VERTEX_POINT('',#1945);
#616=VERTEX_POINT('',#1947);
#617=VERTEX_POINT('',#1951);
#618=VERTEX_POINT('',#1955);
#619=VERTEX_POINT('',#1957);
#620=VERTEX_POINT('',#1961);
#621=VERTEX_POINT('',#1965);
#622=VERTEX_POINT('',#1971);
#623=VERTEX_POINT('',#1973);
#624=VERTEX_POINT('',#1977);
#625=VERTEX_POINT('',#1981);
#626=VERTEX_POINT('',#1985);
#627=VERTEX_POINT('',#1989);
#628=VERTEX_POINT('',#1993);
#629=VERTEX_POINT('',#1997);
#630=VERTEX_POINT('',#2003);
#631=VERTEX_POINT('',#2004);
#632=VERTEX_POINT('',#2006);
#633=VERTEX_POINT('',#2008);
#634=VERTEX_POINT('',#2012);
#635=VERTEX_POINT('',#2013);
#636=VERTEX_POINT('',#2015);
#637=VERTEX_POINT('',#2017);
#638=VERTEX_POINT('',#2028);
#639=VERTEX_POINT('',#2029);
#640=VERTEX_POINT('',#2031);
#641=VERTEX_POINT('',#2033);
#642=VERTEX_POINT('',#2037);
#643=VERTEX_POINT('',#2038);
#644=VERTEX_POINT('',#2040);
#645=VERTEX_POINT('',#2042);
#646=VERTEX_POINT('',#2053);
#647=VERTEX_POINT('',#2057);
#648=VERTEX_POINT('',#2061);
#649=VERTEX_POINT('',#2065);
#650=VERTEX_POINT('',#2069);
#651=VERTEX_POINT('',#2073);
#652=VERTEX_POINT('',#2077);
#653=VERTEX_POINT('',#2081);
#654=VERTEX_POINT('',#2085);
#655=VERTEX_POINT('',#2089);
#656=VERTEX_POINT('',#2093);
#657=VERTEX_POINT('',#2097);
#658=VERTEX_POINT('',#2101);
#659=VERTEX_POINT('',#2105);
#660=VERTEX_POINT('',#2109);
#661=VERTEX_POINT('',#2115);
#662=VERTEX_POINT('',#2121);
#663=VERTEX_POINT('',#2127);
#664=VERTEX_POINT('',#2133);
#665=VERTEX_POINT('',#2137);
#666=VERTEX_POINT('',#2141);
#667=EDGE_CURVE('',#559,#560,#253,.T.);
#668=EDGE_CURVE('',#560,#561,#254,.T.);
#669=EDGE_CURVE('',#561,#562,#255,.T.);
#670=EDGE_CURVE('',#562,#559,#256,.T.);
#671=EDGE_CURVE('',#560,#563,#257,.T.);
#672=EDGE_CURVE('',#564,#563,#258,.T.);
#673=EDGE_CURVE('',#561,#564,#259,.T.);
#674=EDGE_CURVE('',#559,#565,#260,.T.);
#675=EDGE_CURVE('',#565,#566,#261,.T.);
#676=EDGE_CURVE('',#563,#566,#262,.T.);
#677=EDGE_CURVE('',#566,#567,#263,.T.);
#678=EDGE_CURVE('',#567,#568,#264,.T.);
#679=EDGE_CURVE('',#568,#563,#265,.T.);
#680=EDGE_CURVE('',#568,#569,#266,.T.);
#681=EDGE_CURVE('',#569,#564,#267,.T.);
#682=EDGE_CURVE('',#570,#567,#268,.T.);
#683=EDGE_CURVE('',#571,#570,#269,.T.);
#684=EDGE_CURVE('',#572,#571,#270,.T.);
#685=EDGE_CURVE('',#569,#572,#271,.T.);
#686=EDGE_CURVE('',#573,#574,#272,.T.);
#687=EDGE_CURVE('',#575,#573,#273,.T.);
#688=EDGE_CURVE('',#576,#575,#274,.T.);
#689=EDGE_CURVE('',#574,#576,#275,.T.);
#690=EDGE_CURVE('',#577,#578,#276,.T.);
#691=EDGE_CURVE('',#579,#577,#277,.T.);
#692=EDGE_CURVE('',#580,#579,#278,.T.);
#693=EDGE_CURVE('',#578,#580,#279,.T.);
#694=EDGE_CURVE('',#581,#581,#31,.T.);
#695=EDGE_CURVE('',#582,#582,#32,.T.);
#696=EDGE_CURVE('',#583,#583,#33,.T.);
#697=EDGE_CURVE('',#584,#584,#34,.T.);
#698=EDGE_CURVE('',#585,#585,#35,.T.);
#699=EDGE_CURVE('',#586,#586,#36,.T.);
#700=EDGE_CURVE('',#587,#587,#37,.T.);
#701=EDGE_CURVE('',#588,#588,#38,.T.);
#702=EDGE_CURVE('',#589,#590,#280,.T.);
#703=EDGE_CURVE('',#591,#589,#281,.T.);
#704=EDGE_CURVE('',#592,#591,#282,.T.);
#705=EDGE_CURVE('',#590,#592,#283,.T.);
#706=EDGE_CURVE('',#593,#594,#284,.T.);
#707=EDGE_CURVE('',#595,#593,#285,.T.);
#708=EDGE_CURVE('',#596,#595,#286,.T.);
#709=EDGE_CURVE('',#594,#596,#287,.T.);
#710=EDGE_CURVE('',#574,#597,#288,.T.);
#711=EDGE_CURVE('',#597,#598,#289,.T.);
#712=EDGE_CURVE('',#573,#598,#290,.T.);
#713=EDGE_CURVE('',#576,#599,#291,.T.);
#714=EDGE_CURVE('',#599,#597,#292,.T.);
#715=EDGE_CURVE('',#598,#600,#293,.T.);
#716=EDGE_CURVE('',#600,#575,#294,.T.);
#717=EDGE_CURVE('',#600,#599,#295,.T.);
#718=EDGE_CURVE('',#598,#601,#296,.T.);
#719=EDGE_CURVE('',#602,#601,#297,.T.);
#720=EDGE_CURVE('',#600,#602,#298,.T.);
#721=EDGE_CURVE('',#597,#603,#299,.T.);
#722=EDGE_CURVE('',#601,#603,#300,.T.);
#723=EDGE_CURVE('',#594,#604,#301,.T.);
#724=EDGE_CURVE('',#604,#605,#302,.T.);
#725=EDGE_CURVE('',#605,#593,#303,.T.);
#726=EDGE_CURVE('',#596,#606,#304,.T.);
#727=EDGE_CURVE('',#606,#604,#305,.T.);
#728=EDGE_CURVE('',#595,#607,#306,.T.);
#729=EDGE_CURVE('',#607,#606,#307,.T.);
#730=EDGE_CURVE('',#605,#607,#308,.T.);
#731=EDGE_CURVE('',#605,#608,#309,.T.);
#732=EDGE_CURVE('',#609,#608,#310,.T.);
#733=EDGE_CURVE('',#607,#609,#311,.T.);
#734=EDGE_CURVE('',#604,#610,#312,.T.);
#735=EDGE_CURVE('',#608,#610,#313,.T.);
#736=EDGE_CURVE('',#578,#611,#314,.T.);
#737=EDGE_CURVE('',#611,#612,#315,.T.);
#738=EDGE_CURVE('',#612,#577,#316,.T.);
#739=EDGE_CURVE('',#580,#613,#317,.T.);
#740=EDGE_CURVE('',#613,#611,#318,.T.);
#741=EDGE_CURVE('',#614,#613,#319,.T.);
#742=EDGE_CURVE('',#579,#614,#320,.T.);
#743=EDGE_CURVE('',#612,#614,#321,.T.);
#744=EDGE_CURVE('',#612,#615,#322,.T.);
#745=EDGE_CURVE('',#616,#615,#323,.T.);
#746=EDGE_CURVE('',#614,#616,#324,.T.);
#747=EDGE_CURVE('',#611,#617,#325,.T.);
#748=EDGE_CURVE('',#615,#617,#326,.T.);
#749=EDGE_CURVE('',#590,#618,#327,.T.);
#750=EDGE_CURVE('',#618,#619,#328,.T.);
#751=EDGE_CURVE('',#619,#589,#329,.T.);
#752=EDGE_CURVE('',#592,#620,#330,.T.);
#753=EDGE_CURVE('',#620,#618,#331,.T.);
#754=EDGE_CURVE('',#621,#620,#332,.T.);
#755=EDGE_CURVE('',#591,#621,#333,.T.);
#756=EDGE_CURVE('',#619,#621,#334,.T.);
#757=EDGE_CURVE('',#619,#622,#335,.T.);
#758=EDGE_CURVE('',#623,#622,#336,.T.);
#759=EDGE_CURVE('',#621,#623,#337,.T.);
#760=EDGE_CURVE('',#618,#624,#338,.T.);
#761=EDGE_CURVE('',#622,#624,#339,.T.);
#762=EDGE_CURVE('',#581,#625,#340,.T.);
#763=EDGE_CURVE('',#625,#625,#39,.T.);
#764=EDGE_CURVE('',#625,#626,#341,.T.);
#765=EDGE_CURVE('',#626,#626,#40,.T.);
#766=EDGE_CURVE('',#627,#564,#342,.T.);
#767=EDGE_CURVE('',#572,#627,#343,.T.);
#768=EDGE_CURVE('',#628,#627,#344,.T.);
#769=EDGE_CURVE('',#571,#628,#345,.T.);
#770=EDGE_CURVE('',#629,#628,#346,.T.);
#771=EDGE_CURVE('',#570,#629,#347,.T.);
#772=EDGE_CURVE('',#566,#629,#348,.T.);
#773=EDGE_CURVE('',#630,#631,#349,.T.);
#774=EDGE_CURVE('',#630,#632,#350,.T.);
#775=EDGE_CURVE('',#633,#632,#351,.T.);
#776=EDGE_CURVE('',#631,#633,#352,.T.);
#777=EDGE_CURVE('',#634,#635,#353,.T.);
#778=EDGE_CURVE('',#634,#636,#354,.T.);
#779=EDGE_CURVE('',#636,#637,#355,.T.);
#780=EDGE_CURVE('',#635,#637,#356,.T.);
#781=EDGE_CURVE('',#637,#632,#357,.T.);
#782=EDGE_CURVE('',#635,#630,#358,.T.);
#783=EDGE_CURVE('',#636,#633,#359,.T.);
#784=EDGE_CURVE('',#631,#634,#360,.T.);
#785=EDGE_CURVE('',#638,#639,#361,.T.);
#786=EDGE_CURVE('',#638,#640,#362,.T.);
#787=EDGE_CURVE('',#641,#640,#363,.T.);
#788=EDGE_CURVE('',#639,#641,#364,.T.);
#789=EDGE_CURVE('',#642,#643,#365,.T.);
#790=EDGE_CURVE('',#642,#644,#366,.T.);
#791=EDGE_CURVE('',#644,#645,#367,.T.);
#792=EDGE_CURVE('',#643,#645,#368,.T.);
#793=EDGE_CURVE('',#645,#640,#369,.T.);
#794=EDGE_CURVE('',#643,#638,#370,.T.);
#795=EDGE_CURVE('',#644,#641,#371,.T.);
#796=EDGE_CURVE('',#639,#642,#372,.T.);
#797=EDGE_CURVE('',#582,#646,#373,.T.);
#798=EDGE_CURVE('',#646,#646,#41,.T.);
#799=EDGE_CURVE('',#646,#647,#374,.T.);
#800=EDGE_CURVE('',#647,#647,#42,.T.);
#801=EDGE_CURVE('',#583,#648,#375,.T.);
#802=EDGE_CURVE('',#648,#648,#43,.T.);
#803=EDGE_CURVE('',#648,#649,#376,.T.);
#804=EDGE_CURVE('',#649,#649,#44,.T.);
#805=EDGE_CURVE('',#588,#650,#377,.T.);
#806=EDGE_CURVE('',#650,#650,#45,.T.);
#807=EDGE_CURVE('',#650,#651,#378,.T.);
#808=EDGE_CURVE('',#651,#651,#46,.T.);
#809=EDGE_CURVE('',#587,#652,#379,.T.);
#810=EDGE_CURVE('',#652,#652,#47,.T.);
#811=EDGE_CURVE('',#652,#653,#380,.T.);
#812=EDGE_CURVE('',#653,#653,#48,.T.);
#813=EDGE_CURVE('',#586,#654,#381,.T.);
#814=EDGE_CURVE('',#654,#654,#49,.T.);
#815=EDGE_CURVE('',#654,#655,#382,.T.);
#816=EDGE_CURVE('',#655,#655,#50,.T.);
#817=EDGE_CURVE('',#585,#656,#383,.T.);
#818=EDGE_CURVE('',#656,#656,#51,.T.);
#819=EDGE_CURVE('',#656,#657,#384,.T.);
#820=EDGE_CURVE('',#657,#657,#52,.T.);
#821=EDGE_CURVE('',#584,#658,#385,.T.);
#822=EDGE_CURVE('',#658,#658,#53,.T.);
#823=EDGE_CURVE('',#658,#659,#386,.T.);
#824=EDGE_CURVE('',#659,#659,#54,.T.);
#825=EDGE_CURVE('',#620,#660,#387,.T.);
#826=EDGE_CURVE('',#624,#660,#388,.T.);
#827=EDGE_CURVE('',#660,#623,#389,.T.);
#828=EDGE_CURVE('',#613,#661,#390,.T.);
#829=EDGE_CURVE('',#617,#661,#391,.T.);
#830=EDGE_CURVE('',#661,#616,#392,.T.);
#831=EDGE_CURVE('',#599,#662,#393,.T.);
#832=EDGE_CURVE('',#603,#662,#394,.T.);
#833=EDGE_CURVE('',#662,#602,#395,.T.);
#834=EDGE_CURVE('',#606,#663,#396,.T.);
#835=EDGE_CURVE('',#610,#663,#397,.T.);
#836=EDGE_CURVE('',#663,#609,#398,.T.);
#837=EDGE_CURVE('',#664,#627,#399,.T.);
#838=EDGE_CURVE('',#664,#562,#400,.T.);
#839=EDGE_CURVE('',#665,#628,#401,.T.);
#840=EDGE_CURVE('',#665,#664,#402,.T.);
#841=EDGE_CURVE('',#666,#629,#403,.T.);
#842=EDGE_CURVE('',#666,#665,#404,.T.);
#843=EDGE_CURVE('',#565,#666,#405,.T.);
#844=ORIENTED_EDGE('',*,*,#667,.T.);
#845=ORIENTED_EDGE('',*,*,#668,.T.);
#846=ORIENTED_EDGE('',*,*,#669,.T.);
#847=ORIENTED_EDGE('',*,*,#670,.T.);
#848=ORIENTED_EDGE('',*,*,#668,.F.);
#849=ORIENTED_EDGE('',*,*,#671,.T.);
#850=ORIENTED_EDGE('',*,*,#672,.F.);
#851=ORIENTED_EDGE('',*,*,#673,.F.);
#852=ORIENTED_EDGE('',*,*,#667,.F.);
#853=ORIENTED_EDGE('',*,*,#674,.T.);
#854=ORIENTED_EDGE('',*,*,#675,.T.);
#855=ORIENTED_EDGE('',*,*,#676,.F.);
#856=ORIENTED_EDGE('',*,*,#671,.F.);
#857=ORIENTED_EDGE('',*,*,#677,.T.);
#858=ORIENTED_EDGE('',*,*,#678,.T.);
#859=ORIENTED_EDGE('',*,*,#679,.T.);
#860=ORIENTED_EDGE('',*,*,#676,.T.);
#861=ORIENTED_EDGE('',*,*,#679,.F.);
#862=ORIENTED_EDGE('',*,*,#680,.T.);
#863=ORIENTED_EDGE('',*,*,#681,.T.);
#864=ORIENTED_EDGE('',*,*,#672,.T.);
#865=ORIENTED_EDGE('',*,*,#678,.F.);
#866=ORIENTED_EDGE('',*,*,#682,.F.);
#867=ORIENTED_EDGE('',*,*,#683,.F.);
#868=ORIENTED_EDGE('',*,*,#684,.F.);
#869=ORIENTED_EDGE('',*,*,#685,.F.);
#870=ORIENTED_EDGE('',*,*,#680,.F.);
#871=ORIENTED_EDGE('',*,*,#686,.F.);
#872=ORIENTED_EDGE('',*,*,#687,.F.);
#873=ORIENTED_EDGE('',*,*,#688,.F.);
#874=ORIENTED_EDGE('',*,*,#689,.F.);
#875=ORIENTED_EDGE('',*,*,#690,.F.);
#876=ORIENTED_EDGE('',*,*,#691,.F.);
#877=ORIENTED_EDGE('',*,*,#692,.F.);
#878=ORIENTED_EDGE('',*,*,#693,.F.);
#879=ORIENTED_EDGE('',*,*,#694,.F.);
#880=ORIENTED_EDGE('',*,*,#695,.T.);
#881=ORIENTED_EDGE('',*,*,#696,.T.);
#882=ORIENTED_EDGE('',*,*,#697,.T.);
#883=ORIENTED_EDGE('',*,*,#698,.T.);
#884=ORIENTED_EDGE('',*,*,#699,.T.);
#885=ORIENTED_EDGE('',*,*,#700,.T.);
#886=ORIENTED_EDGE('',*,*,#701,.T.);
#887=ORIENTED_EDGE('',*,*,#702,.F.);
#888=ORIENTED_EDGE('',*,*,#703,.F.);
#889=ORIENTED_EDGE('',*,*,#704,.F.);
#890=ORIENTED_EDGE('',*,*,#705,.F.);
#891=ORIENTED_EDGE('',*,*,#706,.F.);
#892=ORIENTED_EDGE('',*,*,#707,.F.);
#893=ORIENTED_EDGE('',*,*,#708,.F.);
#894=ORIENTED_EDGE('',*,*,#709,.F.);
#895=ORIENTED_EDGE('',*,*,#686,.T.);
#896=ORIENTED_EDGE('',*,*,#710,.T.);
#897=ORIENTED_EDGE('',*,*,#711,.T.);
#898=ORIENTED_EDGE('',*,*,#712,.F.);
#899=ORIENTED_EDGE('',*,*,#689,.T.);
#900=ORIENTED_EDGE('',*,*,#713,.T.);
#901=ORIENTED_EDGE('',*,*,#714,.T.);
#902=ORIENTED_EDGE('',*,*,#710,.F.);
#903=ORIENTED_EDGE('',*,*,#715,.T.);
#904=ORIENTED_EDGE('',*,*,#716,.T.);
#905=ORIENTED_EDGE('',*,*,#687,.T.);
#906=ORIENTED_EDGE('',*,*,#712,.T.);
#907=ORIENTED_EDGE('',*,*,#688,.T.);
#908=ORIENTED_EDGE('',*,*,#716,.F.);
#909=ORIENTED_EDGE('',*,*,#717,.T.);
#910=ORIENTED_EDGE('',*,*,#713,.F.);
#911=ORIENTED_EDGE('',*,*,#715,.F.);
#912=ORIENTED_EDGE('',*,*,#718,.T.);
#913=ORIENTED_EDGE('',*,*,#719,.F.);
#914=ORIENTED_EDGE('',*,*,#720,.F.);
#915=ORIENTED_EDGE('',*,*,#711,.F.);
#916=ORIENTED_EDGE('',*,*,#721,.T.);
#917=ORIENTED_EDGE('',*,*,#722,.F.);
#918=ORIENTED_EDGE('',*,*,#718,.F.);
#919=ORIENTED_EDGE('',*,*,#706,.T.);
#920=ORIENTED_EDGE('',*,*,#723,.T.);
#921=ORIENTED_EDGE('',*,*,#724,.T.);
#922=ORIENTED_EDGE('',*,*,#725,.T.);
#923=ORIENTED_EDGE('',*,*,#709,.T.);
#924=ORIENTED_EDGE('',*,*,#726,.T.);
#925=ORIENTED_EDGE('',*,*,#727,.T.);
#926=ORIENTED_EDGE('',*,*,#723,.F.);
#927=ORIENTED_EDGE('',*,*,#708,.T.);
#928=ORIENTED_EDGE('',*,*,#728,.T.);
#929=ORIENTED_EDGE('',*,*,#729,.T.);
#930=ORIENTED_EDGE('',*,*,#726,.F.);
#931=ORIENTED_EDGE('',*,*,#730,.T.);
#932=ORIENTED_EDGE('',*,*,#728,.F.);
#933=ORIENTED_EDGE('',*,*,#707,.T.);
#934=ORIENTED_EDGE('',*,*,#725,.F.);
#935=ORIENTED_EDGE('',*,*,#730,.F.);
#936=ORIENTED_EDGE('',*,*,#731,.T.);
#937=ORIENTED_EDGE('',*,*,#732,.F.);
#938=ORIENTED_EDGE('',*,*,#733,.F.);
#939=ORIENTED_EDGE('',*,*,#724,.F.);
#940=ORIENTED_EDGE('',*,*,#734,.T.);
#941=ORIENTED_EDGE('',*,*,#735,.F.);
#942=ORIENTED_EDGE('',*,*,#731,.F.);
#943=ORIENTED_EDGE('',*,*,#690,.T.);
#944=ORIENTED_EDGE('',*,*,#736,.T.);
#945=ORIENTED_EDGE('',*,*,#737,.T.);
#946=ORIENTED_EDGE('',*,*,#738,.T.);
#947=ORIENTED_EDGE('',*,*,#693,.T.);
#948=ORIENTED_EDGE('',*,*,#739,.T.);
#949=ORIENTED_EDGE('',*,*,#740,.T.);
#950=ORIENTED_EDGE('',*,*,#736,.F.);
#951=ORIENTED_EDGE('',*,*,#741,.T.);
#952=ORIENTED_EDGE('',*,*,#739,.F.);
#953=ORIENTED_EDGE('',*,*,#692,.T.);
#954=ORIENTED_EDGE('',*,*,#742,.T.);
#955=ORIENTED_EDGE('',*,*,#691,.T.);
#956=ORIENTED_EDGE('',*,*,#738,.F.);
#957=ORIENTED_EDGE('',*,*,#743,.T.);
#958=ORIENTED_EDGE('',*,*,#742,.F.);
#959=ORIENTED_EDGE('',*,*,#743,.F.);
#960=ORIENTED_EDGE('',*,*,#744,.T.);
#961=ORIENTED_EDGE('',*,*,#745,.F.);
#962=ORIENTED_EDGE('',*,*,#746,.F.);
#963=ORIENTED_EDGE('',*,*,#737,.F.);
#964=ORIENTED_EDGE('',*,*,#747,.T.);
#965=ORIENTED_EDGE('',*,*,#748,.F.);
#966=ORIENTED_EDGE('',*,*,#744,.F.);
#967=ORIENTED_EDGE('',*,*,#702,.T.);
#968=ORIENTED_EDGE('',*,*,#749,.T.);
#969=ORIENTED_EDGE('',*,*,#750,.T.);
#970=ORIENTED_EDGE('',*,*,#751,.T.);
#971=ORIENTED_EDGE('',*,*,#705,.T.);
#972=ORIENTED_EDGE('',*,*,#752,.T.);
#973=ORIENTED_EDGE('',*,*,#753,.T.);
#974=ORIENTED_EDGE('',*,*,#749,.F.);
#975=ORIENTED_EDGE('',*,*,#754,.T.);
#976=ORIENTED_EDGE('',*,*,#752,.F.);
#977=ORIENTED_EDGE('',*,*,#704,.T.);
#978=ORIENTED_EDGE('',*,*,#755,.T.);
#979=ORIENTED_EDGE('',*,*,#703,.T.);
#980=ORIENTED_EDGE('',*,*,#751,.F.);
#981=ORIENTED_EDGE('',*,*,#756,.T.);
#982=ORIENTED_EDGE('',*,*,#755,.F.);
#983=ORIENTED_EDGE('',*,*,#756,.F.);
#984=ORIENTED_EDGE('',*,*,#757,.T.);
#985=ORIENTED_EDGE('',*,*,#758,.F.);
#986=ORIENTED_EDGE('',*,*,#759,.F.);
#987=ORIENTED_EDGE('',*,*,#750,.F.);
#988=ORIENTED_EDGE('',*,*,#760,.T.);
#989=ORIENTED_EDGE('',*,*,#761,.F.);
#990=ORIENTED_EDGE('',*,*,#757,.F.);
#991=ORIENTED_EDGE('',*,*,#694,.T.);
#992=ORIENTED_EDGE('',*,*,#762,.T.);
#993=ORIENTED_EDGE('',*,*,#763,.T.);
#994=ORIENTED_EDGE('',*,*,#762,.F.);
#995=ORIENTED_EDGE('',*,*,#763,.F.);
#996=ORIENTED_EDGE('',*,*,#764,.T.);
#997=ORIENTED_EDGE('',*,*,#765,.F.);
#998=ORIENTED_EDGE('',*,*,#764,.F.);
#999=ORIENTED_EDGE('',*,*,#766,.T.);
#1000=ORIENTED_EDGE('',*,*,#681,.F.);
#1001=ORIENTED_EDGE('',*,*,#685,.T.);
#1002=ORIENTED_EDGE('',*,*,#767,.T.);
#1003=ORIENTED_EDGE('',*,*,#768,.T.);
#1004=ORIENTED_EDGE('',*,*,#767,.F.);
#1005=ORIENTED_EDGE('',*,*,#684,.T.);
#1006=ORIENTED_EDGE('',*,*,#769,.T.);
#1007=ORIENTED_EDGE('',*,*,#770,.T.);
#1008=ORIENTED_EDGE('',*,*,#769,.F.);
#1009=ORIENTED_EDGE('',*,*,#683,.T.);
#1010=ORIENTED_EDGE('',*,*,#771,.T.);
#1011=ORIENTED_EDGE('',*,*,#677,.F.);
#1012=ORIENTED_EDGE('',*,*,#772,.T.);
#1013=ORIENTED_EDGE('',*,*,#771,.F.);
#1014=ORIENTED_EDGE('',*,*,#682,.T.);
#1015=ORIENTED_EDGE('',*,*,#773,.F.);
#1016=ORIENTED_EDGE('',*,*,#774,.T.);
#1017=ORIENTED_EDGE('',*,*,#775,.F.);
#1018=ORIENTED_EDGE('',*,*,#776,.F.);
#1019=ORIENTED_EDGE('',*,*,#777,.F.);
#1020=ORIENTED_EDGE('',*,*,#778,.T.);
#1021=ORIENTED_EDGE('',*,*,#779,.T.);
#1022=ORIENTED_EDGE('',*,*,#780,.F.);
#1023=ORIENTED_EDGE('',*,*,#780,.T.);
#1024=ORIENTED_EDGE('',*,*,#781,.T.);
#1025=ORIENTED_EDGE('',*,*,#774,.F.);
#1026=ORIENTED_EDGE('',*,*,#782,.F.);
#1027=ORIENTED_EDGE('',*,*,#779,.F.);
#1028=ORIENTED_EDGE('',*,*,#783,.T.);
#1029=ORIENTED_EDGE('',*,*,#775,.T.);
#1030=ORIENTED_EDGE('',*,*,#781,.F.);
#1031=ORIENTED_EDGE('',*,*,#778,.F.);
#1032=ORIENTED_EDGE('',*,*,#784,.F.);
#1033=ORIENTED_EDGE('',*,*,#776,.T.);
#1034=ORIENTED_EDGE('',*,*,#783,.F.);
#1035=ORIENTED_EDGE('',*,*,#785,.F.);
#1036=ORIENTED_EDGE('',*,*,#786,.T.);
#1037=ORIENTED_EDGE('',*,*,#787,.F.);
#1038=ORIENTED_EDGE('',*,*,#788,.F.);
#1039=ORIENTED_EDGE('',*,*,#789,.F.);
#1040=ORIENTED_EDGE('',*,*,#790,.T.);
#1041=ORIENTED_EDGE('',*,*,#791,.T.);
#1042=ORIENTED_EDGE('',*,*,#792,.F.);
#1043=ORIENTED_EDGE('',*,*,#792,.T.);
#1044=ORIENTED_EDGE('',*,*,#793,.T.);
#1045=ORIENTED_EDGE('',*,*,#786,.F.);
#1046=ORIENTED_EDGE('',*,*,#794,.F.);
#1047=ORIENTED_EDGE('',*,*,#791,.F.);
#1048=ORIENTED_EDGE('',*,*,#795,.T.);
#1049=ORIENTED_EDGE('',*,*,#787,.T.);
#1050=ORIENTED_EDGE('',*,*,#793,.F.);
#1051=ORIENTED_EDGE('',*,*,#790,.F.);
#1052=ORIENTED_EDGE('',*,*,#796,.F.);
#1053=ORIENTED_EDGE('',*,*,#788,.T.);
#1054=ORIENTED_EDGE('',*,*,#795,.F.);
#1055=ORIENTED_EDGE('',*,*,#695,.F.);
#1056=ORIENTED_EDGE('',*,*,#797,.T.);
#1057=ORIENTED_EDGE('',*,*,#798,.T.);
#1058=ORIENTED_EDGE('',*,*,#797,.F.);
#1059=ORIENTED_EDGE('',*,*,#798,.F.);
#1060=ORIENTED_EDGE('',*,*,#799,.T.);
#1061=ORIENTED_EDGE('',*,*,#800,.F.);
#1062=ORIENTED_EDGE('',*,*,#799,.F.);
#1063=ORIENTED_EDGE('',*,*,#696,.F.);
#1064=ORIENTED_EDGE('',*,*,#801,.T.);
#1065=ORIENTED_EDGE('',*,*,#802,.T.);
#1066=ORIENTED_EDGE('',*,*,#801,.F.);
#1067=ORIENTED_EDGE('',*,*,#802,.F.);
#1068=ORIENTED_EDGE('',*,*,#803,.T.);
#1069=ORIENTED_EDGE('',*,*,#804,.F.);
#1070=ORIENTED_EDGE('',*,*,#803,.F.);
#1071=ORIENTED_EDGE('',*,*,#701,.F.);
#1072=ORIENTED_EDGE('',*,*,#805,.T.);
#1073=ORIENTED_EDGE('',*,*,#806,.T.);
#1074=ORIENTED_EDGE('',*,*,#805,.F.);
#1075=ORIENTED_EDGE('',*,*,#806,.F.);
#1076=ORIENTED_EDGE('',*,*,#807,.T.);
#1077=ORIENTED_EDGE('',*,*,#808,.F.);
#1078=ORIENTED_EDGE('',*,*,#807,.F.);
#1079=ORIENTED_EDGE('',*,*,#700,.F.);
#1080=ORIENTED_EDGE('',*,*,#809,.T.);
#1081=ORIENTED_EDGE('',*,*,#810,.T.);
#1082=ORIENTED_EDGE('',*,*,#809,.F.);
#1083=ORIENTED_EDGE('',*,*,#810,.F.);
#1084=ORIENTED_EDGE('',*,*,#811,.T.);
#1085=ORIENTED_EDGE('',*,*,#812,.F.);
#1086=ORIENTED_EDGE('',*,*,#811,.F.);
#1087=ORIENTED_EDGE('',*,*,#699,.F.);
#1088=ORIENTED_EDGE('',*,*,#813,.T.);
#1089=ORIENTED_EDGE('',*,*,#814,.T.);
#1090=ORIENTED_EDGE('',*,*,#813,.F.);
#1091=ORIENTED_EDGE('',*,*,#814,.F.);
#1092=ORIENTED_EDGE('',*,*,#815,.T.);
#1093=ORIENTED_EDGE('',*,*,#816,.F.);
#1094=ORIENTED_EDGE('',*,*,#815,.F.);
#1095=ORIENTED_EDGE('',*,*,#698,.F.);
#1096=ORIENTED_EDGE('',*,*,#817,.T.);
#1097=ORIENTED_EDGE('',*,*,#818,.T.);
#1098=ORIENTED_EDGE('',*,*,#817,.F.);
#1099=ORIENTED_EDGE('',*,*,#818,.F.);
#1100=ORIENTED_EDGE('',*,*,#819,.T.);
#1101=ORIENTED_EDGE('',*,*,#820,.F.);
#1102=ORIENTED_EDGE('',*,*,#819,.F.);
#1103=ORIENTED_EDGE('',*,*,#697,.F.);
#1104=ORIENTED_EDGE('',*,*,#821,.T.);
#1105=ORIENTED_EDGE('',*,*,#822,.T.);
#1106=ORIENTED_EDGE('',*,*,#821,.F.);
#1107=ORIENTED_EDGE('',*,*,#822,.F.);
#1108=ORIENTED_EDGE('',*,*,#823,.T.);
#1109=ORIENTED_EDGE('',*,*,#824,.F.);
#1110=ORIENTED_EDGE('',*,*,#823,.F.);
#1111=ORIENTED_EDGE('',*,*,#753,.F.);
#1112=ORIENTED_EDGE('',*,*,#825,.T.);
#1113=ORIENTED_EDGE('',*,*,#826,.F.);
#1114=ORIENTED_EDGE('',*,*,#760,.F.);
#1115=ORIENTED_EDGE('',*,*,#754,.F.);
#1116=ORIENTED_EDGE('',*,*,#759,.T.);
#1117=ORIENTED_EDGE('',*,*,#827,.F.);
#1118=ORIENTED_EDGE('',*,*,#825,.F.);
#1119=ORIENTED_EDGE('',*,*,#740,.F.);
#1120=ORIENTED_EDGE('',*,*,#828,.T.);
#1121=ORIENTED_EDGE('',*,*,#829,.F.);
#1122=ORIENTED_EDGE('',*,*,#747,.F.);
#1123=ORIENTED_EDGE('',*,*,#741,.F.);
#1124=ORIENTED_EDGE('',*,*,#746,.T.);
#1125=ORIENTED_EDGE('',*,*,#830,.F.);
#1126=ORIENTED_EDGE('',*,*,#828,.F.);
#1127=ORIENTED_EDGE('',*,*,#714,.F.);
#1128=ORIENTED_EDGE('',*,*,#831,.T.);
#1129=ORIENTED_EDGE('',*,*,#832,.F.);
#1130=ORIENTED_EDGE('',*,*,#721,.F.);
#1131=ORIENTED_EDGE('',*,*,#717,.F.);
#1132=ORIENTED_EDGE('',*,*,#720,.T.);
#1133=ORIENTED_EDGE('',*,*,#833,.F.);
#1134=ORIENTED_EDGE('',*,*,#831,.F.);
#1135=ORIENTED_EDGE('',*,*,#727,.F.);
#1136=ORIENTED_EDGE('',*,*,#834,.T.);
#1137=ORIENTED_EDGE('',*,*,#835,.F.);
#1138=ORIENTED_EDGE('',*,*,#734,.F.);
#1139=ORIENTED_EDGE('',*,*,#729,.F.);
#1140=ORIENTED_EDGE('',*,*,#733,.T.);
#1141=ORIENTED_EDGE('',*,*,#836,.F.);
#1142=ORIENTED_EDGE('',*,*,#834,.F.);
#1143=ORIENTED_EDGE('',*,*,#669,.F.);
#1144=ORIENTED_EDGE('',*,*,#673,.T.);
#1145=ORIENTED_EDGE('',*,*,#766,.F.);
#1146=ORIENTED_EDGE('',*,*,#837,.F.);
#1147=ORIENTED_EDGE('',*,*,#838,.T.);
#1148=ORIENTED_EDGE('',*,*,#768,.F.);
#1149=ORIENTED_EDGE('',*,*,#839,.F.);
#1150=ORIENTED_EDGE('',*,*,#840,.T.);
#1151=ORIENTED_EDGE('',*,*,#837,.T.);
#1152=ORIENTED_EDGE('',*,*,#770,.F.);
#1153=ORIENTED_EDGE('',*,*,#841,.F.);
#1154=ORIENTED_EDGE('',*,*,#842,.T.);
#1155=ORIENTED_EDGE('',*,*,#839,.T.);
#1156=ORIENTED_EDGE('',*,*,#772,.F.);
#1157=ORIENTED_EDGE('',*,*,#675,.F.);
#1158=ORIENTED_EDGE('',*,*,#843,.T.);
#1159=ORIENTED_EDGE('',*,*,#841,.T.);
#1160=ORIENTED_EDGE('',*,*,#670,.F.);
#1161=ORIENTED_EDGE('',*,*,#838,.F.);
#1162=ORIENTED_EDGE('',*,*,#840,.F.);
#1163=ORIENTED_EDGE('',*,*,#842,.F.);
#1164=ORIENTED_EDGE('',*,*,#843,.F.);
#1165=ORIENTED_EDGE('',*,*,#674,.F.);
#1166=ORIENTED_EDGE('',*,*,#789,.T.);
#1167=ORIENTED_EDGE('',*,*,#794,.T.);
#1168=ORIENTED_EDGE('',*,*,#785,.T.);
#1169=ORIENTED_EDGE('',*,*,#796,.T.);
#1170=ORIENTED_EDGE('',*,*,#808,.T.);
#1171=ORIENTED_EDGE('',*,*,#812,.T.);
#1172=ORIENTED_EDGE('',*,*,#816,.T.);
#1173=ORIENTED_EDGE('',*,*,#820,.T.);
#1174=ORIENTED_EDGE('',*,*,#824,.T.);
#1175=ORIENTED_EDGE('',*,*,#735,.T.);
#1176=ORIENTED_EDGE('',*,*,#835,.T.);
#1177=ORIENTED_EDGE('',*,*,#836,.T.);
#1178=ORIENTED_EDGE('',*,*,#732,.T.);
#1179=ORIENTED_EDGE('',*,*,#765,.T.);
#1180=ORIENTED_EDGE('',*,*,#719,.T.);
#1181=ORIENTED_EDGE('',*,*,#722,.T.);
#1182=ORIENTED_EDGE('',*,*,#832,.T.);
#1183=ORIENTED_EDGE('',*,*,#833,.T.);
#1184=ORIENTED_EDGE('',*,*,#748,.T.);
#1185=ORIENTED_EDGE('',*,*,#829,.T.);
#1186=ORIENTED_EDGE('',*,*,#830,.T.);
#1187=ORIENTED_EDGE('',*,*,#745,.T.);
#1188=ORIENTED_EDGE('',*,*,#761,.T.);
#1189=ORIENTED_EDGE('',*,*,#826,.T.);
#1190=ORIENTED_EDGE('',*,*,#827,.T.);
#1191=ORIENTED_EDGE('',*,*,#758,.T.);
#1192=ORIENTED_EDGE('',*,*,#804,.T.);
#1193=ORIENTED_EDGE('',*,*,#800,.T.);
#1194=ORIENTED_EDGE('',*,*,#777,.T.);
#1195=ORIENTED_EDGE('',*,*,#782,.T.);
#1196=ORIENTED_EDGE('',*,*,#773,.T.);
#1197=ORIENTED_EDGE('',*,*,#784,.T.);
#1198=PLANE('',#1342);
#1199=PLANE('',#1343);
#1200=PLANE('',#1344);
#1201=PLANE('',#1345);
#1202=PLANE('',#1346);
#1203=PLANE('',#1347);
#1204=PLANE('',#1356);
#1205=PLANE('',#1357);
#1206=PLANE('',#1358);
#1207=PLANE('',#1359);
#1208=PLANE('',#1360);
#1209=PLANE('',#1361);
#1210=PLANE('',#1362);
#1211=PLANE('',#1363);
#1212=PLANE('',#1364);
#1213=PLANE('',#1365);
#1214=PLANE('',#1366);
#1215=PLANE('',#1367);
#1216=PLANE('',#1368);
#1217=PLANE('',#1369);
#1218=PLANE('',#1370);
#1219=PLANE('',#1371);
#1220=PLANE('',#1372);
#1221=PLANE('',#1373);
#1222=PLANE('',#1374);
#1223=PLANE('',#1375);
#1224=PLANE('',#1376);
#1225=PLANE('',#1377);
#1226=PLANE('',#1378);
#1227=PLANE('',#1379);
#1228=PLANE('',#1384);
#1229=PLANE('',#1385);
#1230=PLANE('',#1386);
#1231=PLANE('',#1387);
#1232=PLANE('',#1388);
#1233=PLANE('',#1389);
#1234=PLANE('',#1390);
#1235=PLANE('',#1391);
#1236=PLANE('',#1392);
#1237=PLANE('',#1393);
#1238=PLANE('',#1394);
#1239=PLANE('',#1395);
#1240=PLANE('',#1396);
#1241=PLANE('',#1397);
#1242=PLANE('',#1426);
#1243=PLANE('',#1427);
#1244=PLANE('',#1428);
#1245=PLANE('',#1429);
#1246=PLANE('',#1430);
#1247=PLANE('',#1431);
#1248=PLANE('',#1432);
#1249=PLANE('',#1433);
#1250=PLANE('',#1434);
#1251=PLANE('',#1435);
#1252=PLANE('',#1436);
#1253=PLANE('',#1437);
#1254=PLANE('',#1438);
#1255=ADVANCED_FACE('',(#81),#1198,.T.);
#1256=ADVANCED_FACE('',(#82),#1199,.T.);
#1257=ADVANCED_FACE('',(#83),#1200,.T.);
#1258=ADVANCED_FACE('',(#84),#1201,.T.);
#1259=ADVANCED_FACE('',(#85),#1202,.T.);
#1260=ADVANCED_FACE('',(#86,#55,#56,#57,#58,#59,#60,#61,#62,#63,#64,#65,
#66),#1203,.T.);
#1261=ADVANCED_FACE('',(#87),#1204,.T.);
#1262=ADVANCED_FACE('',(#88),#1205,.T.);
#1263=ADVANCED_FACE('',(#89),#1206,.T.);
#1264=ADVANCED_FACE('',(#90),#1207,.T.);
#1265=ADVANCED_FACE('',(#91),#1208,.F.);
#1266=ADVANCED_FACE('',(#92),#1209,.F.);
#1267=ADVANCED_FACE('',(#93),#1210,.T.);
#1268=ADVANCED_FACE('',(#94),#1211,.T.);
#1269=ADVANCED_FACE('',(#95),#1212,.T.);
#1270=ADVANCED_FACE('',(#96),#1213,.T.);
#1271=ADVANCED_FACE('',(#97),#1214,.F.);
#1272=ADVANCED_FACE('',(#98),#1215,.F.);
#1273=ADVANCED_FACE('',(#99),#1216,.T.);
#1274=ADVANCED_FACE('',(#100),#1217,.T.);
#1275=ADVANCED_FACE('',(#101),#1218,.T.);
#1276=ADVANCED_FACE('',(#102),#1219,.T.);
#1277=ADVANCED_FACE('',(#103),#1220,.F.);
#1278=ADVANCED_FACE('',(#104),#1221,.F.);
#1279=ADVANCED_FACE('',(#105),#1222,.T.);
#1280=ADVANCED_FACE('',(#106),#1223,.T.);
#1281=ADVANCED_FACE('',(#107),#1224,.T.);
#1282=ADVANCED_FACE('',(#108),#1225,.T.);
#1283=ADVANCED_FACE('',(#109),#1226,.F.);
#1284=ADVANCED_FACE('',(#110),#1227,.F.);
#1285=ADVANCED_FACE('',(#111),#23,.F.);
#1286=ADVANCED_FACE('',(#112),#15,.F.);
#1287=ADVANCED_FACE('',(#113),#1228,.T.);
#1288=ADVANCED_FACE('',(#114),#1229,.T.);
#1289=ADVANCED_FACE('',(#115),#1230,.T.);
#1290=ADVANCED_FACE('',(#116),#1231,.T.);
#1291=ADVANCED_FACE('',(#117),#1232,.T.);
#1292=ADVANCED_FACE('',(#118),#1233,.F.);
#1293=ADVANCED_FACE('',(#119),#1234,.F.);
#1294=ADVANCED_FACE('',(#120),#1235,.F.);
#1295=ADVANCED_FACE('',(#121),#1236,.F.);
#1296=ADVANCED_FACE('',(#122),#1237,.T.);
#1297=ADVANCED_FACE('',(#123),#1238,.F.);
#1298=ADVANCED_FACE('',(#124),#1239,.F.);
#1299=ADVANCED_FACE('',(#125),#1240,.F.);
#1300=ADVANCED_FACE('',(#126),#1241,.F.);
#1301=ADVANCED_FACE('',(#127),#24,.F.);
#1302=ADVANCED_FACE('',(#128),#16,.F.);
#1303=ADVANCED_FACE('',(#129),#25,.F.);
#1304=ADVANCED_FACE('',(#130),#17,.F.);
#1305=ADVANCED_FACE('',(#131),#26,.F.);
#1306=ADVANCED_FACE('',(#132),#18,.F.);
#1307=ADVANCED_FACE('',(#133),#27,.F.);
#1308=ADVANCED_FACE('',(#134),#19,.F.);
#1309=ADVANCED_FACE('',(#135),#28,.F.);
#1310=ADVANCED_FACE('',(#136),#20,.F.);
#1311=ADVANCED_FACE('',(#137),#29,.F.);
#1312=ADVANCED_FACE('',(#138),#21,.F.);
#1313=ADVANCED_FACE('',(#139),#30,.F.);
#1314=ADVANCED_FACE('',(#140),#22,.F.);
#1315=ADVANCED_FACE('',(#141),#1242,.F.);
#1316=ADVANCED_FACE('',(#142),#1243,.F.);
#1317=ADVANCED_FACE('',(#143),#1244,.F.);
#1318=ADVANCED_FACE('',(#144),#1245,.F.);
#1319=ADVANCED_FACE('',(#145),#1246,.F.);
#1320=ADVANCED_FACE('',(#146),#1247,.F.);
#1321=ADVANCED_FACE('',(#147),#1248,.F.);
#1322=ADVANCED_FACE('',(#148),#1249,.F.);
#1323=ADVANCED_FACE('',(#149),#1250,.T.);
#1324=ADVANCED_FACE('',(#150),#1251,.T.);
#1325=ADVANCED_FACE('',(#151),#1252,.T.);
#1326=ADVANCED_FACE('',(#152),#1253,.T.);
#1327=ADVANCED_FACE('',(#153,#67,#68,#69,#70,#71,#72,#73,#74,#75,#76,#77,
#78,#79,#80),#1254,.F.);
#1328=CLOSED_SHELL('',(#1255,#1256,#1257,#1258,#1259,#1260,#1261,#1262,
#1263,#1264,#1265,#1266,#1267,#1268,#1269,#1270,#1271,#1272,#1273,#1274,
#1275,#1276,#1277,#1278,#1279,#1280,#1281,#1282,#1283,#1284,#1285,#1286,
#1287,#1288,#1289,#1290,#1291,#1292,#1293,#1294,#1295,#1296,#1297,#1298,
#1299,#1300,#1301,#1302,#1303,#1304,#1305,#1306,#1307,#1308,#1309,#1310,
#1311,#1312,#1313,#1314,#1315,#1316,#1317,#1318,#1319,#1320,#1321,#1322,
#1323,#1324,#1325,#1326,#1327));
#1329=DERIVED_UNIT_ELEMENT(#1331,1.);
#1330=DERIVED_UNIT_ELEMENT(#2152,-3.);
#1331=(
MASS_UNIT()
NAMED_UNIT(*)
SI_UNIT(.KILO.,.GRAM.)
);
#1332=DERIVED_UNIT((#1329,#1330));
#1333=MEASURE_REPRESENTATION_ITEM('density measure',
POSITIVE_RATIO_MEASURE(7850.),#1332);
#1334=PROPERTY_DEFINITION_REPRESENTATION(#1339,#1336);
#1335=PROPERTY_DEFINITION_REPRESENTATION(#1340,#1337);
#1336=REPRESENTATION('material name',(#1338),#2149);
#1337=REPRESENTATION('density',(#1333),#2149);
#1338=DESCRIPTIVE_REPRESENTATION_ITEM('Acero','Acero');
#1339=PROPERTY_DEFINITION('material property','material name',#2159);
#1340=PROPERTY_DEFINITION('material property','density of part',#2159);
#1341=AXIS2_PLACEMENT_3D('',#1788,#1439,#1440);
#1342=AXIS2_PLACEMENT_3D('',#1789,#1441,#1442);
#1343=AXIS2_PLACEMENT_3D('',#1798,#1447,#1448);
#1344=AXIS2_PLACEMENT_3D('',#1804,#1452,#1453);
#1345=AXIS2_PLACEMENT_3D('',#1810,#1457,#1458);
#1346=AXIS2_PLACEMENT_3D('',#1816,#1462,#1463);
#1347=AXIS2_PLACEMENT_3D('',#1820,#1466,#1467);
#1348=AXIS2_PLACEMENT_3D('',#1845,#1480,#1481);
#1349=AXIS2_PLACEMENT_3D('',#1847,#1482,#1483);
#1350=AXIS2_PLACEMENT_3D('',#1849,#1484,#1485);
#1351=AXIS2_PLACEMENT_3D('',#1851,#1486,#1487);
#1352=AXIS2_PLACEMENT_3D('',#1853,#1488,#1489);
#1353=AXIS2_PLACEMENT_3D('',#1855,#1490,#1491);
#1354=AXIS2_PLACEMENT_3D('',#1857,#1492,#1493);
#1355=AXIS2_PLACEMENT_3D('',#1859,#1494,#1495);
#1356=AXIS2_PLACEMENT_3D('',#1876,#1504,#1505);
#1357=AXIS2_PLACEMENT_3D('',#1882,#1509,#1510);
#1358=AXIS2_PLACEMENT_3D('',#1886,#1513,#1514);
#1359=AXIS2_PLACEMENT_3D('',#1890,#1517,#1518);
#1360=AXIS2_PLACEMENT_3D('',#1892,#1520,#1521);
#1361=AXIS2_PLACEMENT_3D('',#1898,#1525,#1526);
#1362=AXIS2_PLACEMENT_3D('',#1902,#1529,#1530);
#1363=AXIS2_PLACEMENT_3D('',#1908,#1534,#1535);
#1364=AXIS2_PLACEMENT_3D('',#1912,#1538,#1539);
#1365=AXIS2_PLACEMENT_3D('',#1916,#1542,#1543);
#1366=AXIS2_PLACEMENT_3D('',#1918,#1545,#1546);
#1367=AXIS2_PLACEMENT_3D('',#1924,#1550,#1551);
#1368=AXIS2_PLACEMENT_3D('',#1928,#1554,#1555);
#1369=AXIS2_PLACEMENT_3D('',#1934,#1559,#1560);
#1370=AXIS2_PLACEMENT_3D('',#1938,#1563,#1564);
#1371=AXIS2_PLACEMENT_3D('',#1942,#1567,#1568);
#1372=AXIS2_PLACEMENT_3D('',#1944,#1570,#1571);
#1373=AXIS2_PLACEMENT_3D('',#1950,#1575,#1576);
#1374=AXIS2_PLACEMENT_3D('',#1954,#1579,#1580);
#1375=AXIS2_PLACEMENT_3D('',#1960,#1584,#1585);
#1376=AXIS2_PLACEMENT_3D('',#1964,#1588,#1589);
#1377=AXIS2_PLACEMENT_3D('',#1968,#1592,#1593);
#1378=AXIS2_PLACEMENT_3D('',#1970,#1595,#1596);
#1379=AXIS2_PLACEMENT_3D('',#1976,#1600,#1601);
#1380=AXIS2_PLACEMENT_3D('',#1980,#1604,#1605);
#1381=AXIS2_PLACEMENT_3D('',#1983,#1607,#1608);
#1382=AXIS2_PLACEMENT_3D('',#1984,#1609,#1610);
#1383=AXIS2_PLACEMENT_3D('',#1987,#1612,#1613);
#1384=AXIS2_PLACEMENT_3D('',#1988,#1614,#1615);
#1385=AXIS2_PLACEMENT_3D('',#1992,#1618,#1619);
#1386=AXIS2_PLACEMENT_3D('',#1996,#1622,#1623);
#1387=AXIS2_PLACEMENT_3D('',#2000,#1626,#1627);
#1388=AXIS2_PLACEMENT_3D('',#2002,#1629,#1630);
#1389=AXIS2_PLACEMENT_3D('',#2011,#1635,#1636);
#1390=AXIS2_PLACEMENT_3D('',#2020,#1641,#1642);
#1391=AXIS2_PLACEMENT_3D('',#2023,#1645,#1646);
#1392=AXIS2_PLACEMENT_3D('',#2025,#1648,#1649);
#1393=AXIS2_PLACEMENT_3D('',#2027,#1651,#1652);
#1394=AXIS2_PLACEMENT_3D('',#2036,#1657,#1658);
#1395=AXIS2_PLACEMENT_3D('',#2045,#1663,#1664);
#1396=AXIS2_PLACEMENT_3D('',#2048,#1667,#1668);
#1397=AXIS2_PLACEMENT_3D('',#2050,#1670,#1671);
#1398=AXIS2_PLACEMENT_3D('',#2052,#1673,#1674);
#1399=AXIS2_PLACEMENT_3D('',#2055,#1676,#1677);
#1400=AXIS2_PLACEMENT_3D('',#2056,#1678,#1679);
#1401=AXIS2_PLACEMENT_3D('',#2059,#1681,#1682);
#1402=AXIS2_PLACEMENT_3D('',#2060,#1683,#1684);
#1403=AXIS2_PLACEMENT_3D('',#2063,#1686,#1687);
#1404=AXIS2_PLACEMENT_3D('',#2064,#1688,#1689);
#1405=AXIS2_PLACEMENT_3D('',#2067,#1691,#1692);
#1406=AXIS2_PLACEMENT_3D('',#2068,#1693,#1694);
#1407=AXIS2_PLACEMENT_3D('',#2071,#1696,#1697);
#1408=AXIS2_PLACEMENT_3D('',#2072,#1698,#1699);
#1409=AXIS2_PLACEMENT_3D('',#2075,#1701,#1702);
#1410=AXIS2_PLACEMENT_3D('',#2076,#1703,#1704);
#1411=AXIS2_PLACEMENT_3D('',#2079,#1706,#1707);
#1412=AXIS2_PLACEMENT_3D('',#2080,#1708,#1709);
#1413=AXIS2_PLACEMENT_3D('',#2083,#1711,#1712);
#1414=AXIS2_PLACEMENT_3D('',#2084,#1713,#1714);
#1415=AXIS2_PLACEMENT_3D('',#2087,#1716,#1717);
#1416=AXIS2_PLACEMENT_3D('',#2088,#1718,#1719);
#1417=AXIS2_PLACEMENT_3D('',#2091,#1721,#1722);
#1418=AXIS2_PLACEMENT_3D('',#2092,#1723,#1724);
#1419=AXIS2_PLACEMENT_3D('',#2095,#1726,#1727);
#1420=AXIS2_PLACEMENT_3D('',#2096,#1728,#1729);
#1421=AXIS2_PLACEMENT_3D('',#2099,#1731,#1732);
#1422=AXIS2_PLACEMENT_3D('',#2100,#1733,#1734);
#1423=AXIS2_PLACEMENT_3D('',#2103,#1736,#1737);
#1424=AXIS2_PLACEMENT_3D('',#2104,#1738,#1739);
#1425=AXIS2_PLACEMENT_3D('',#2107,#1741,#1742);
#1426=AXIS2_PLACEMENT_3D('',#2108,#1743,#1744);
#1427=AXIS2_PLACEMENT_3D('',#2112,#1747,#1748);
#1428=AXIS2_PLACEMENT_3D('',#2114,#1750,#1751);
#1429=AXIS2_PLACEMENT_3D('',#2118,#1754,#1755);
#1430=AXIS2_PLACEMENT_3D('',#2120,#1757,#1758);
#1431=AXIS2_PLACEMENT_3D('',#2124,#1761,#1762);
#1432=AXIS2_PLACEMENT_3D('',#2126,#1764,#1765);
#1433=AXIS2_PLACEMENT_3D('',#2130,#1768,#1769);
#1434=AXIS2_PLACEMENT_3D('',#2132,#1771,#1772);
#1435=AXIS2_PLACEMENT_3D('',#2136,#1775,#1776);
#1436=AXIS2_PLACEMENT_3D('',#2140,#1779,#1780);
#1437=AXIS2_PLACEMENT_3D('',#2144,#1783,#1784);
#1438=AXIS2_PLACEMENT_3D('',#2146,#1786,#1787);
#1439=DIRECTION('axis',(0.,0.,1.));
#1440=DIRECTION('refdir',(1.,0.,0.));
#1441=DIRECTION('center_axis',(0.707106781186548,-1.84388825977818E-16,
0.707106781186548));
#1442=DIRECTION('ref_axis',(3.87205735228521E-17,1.,2.22044604925031E-16));
#1443=DIRECTION('',(0.707106781186548,1.57009245868377E-16,-0.707106781186548));
#1444=DIRECTION('',(1.25316179146402E-16,1.,1.35448999301481E-16));
#1445=DIRECTION('',(-0.707106781186548,-7.55970443069966E-17,0.707106781186548));
#1446=DIRECTION('',(-1.25316179146402E-16,-1.,-1.35448999301481E-16));
#1447=DIRECTION('center_axis',(1.,-1.25316179146402E-16,-2.78257814892773E-32));
#1448=DIRECTION('ref_axis',(-1.25316179146402E-16,-1.,-1.35448999301481E-16));
#1449=DIRECTION('',(0.,2.22044604925031E-16,-1.));
#1450=DIRECTION('',(-1.25316179146402E-16,-1.,-2.22044604925031E-16));
#1451=DIRECTION('',(0.,2.22044604925031E-16,-1.));
#1452=DIRECTION('center_axis',(1.23259516440783E-32,-1.,-2.22044604925031E-16));
#1453=DIRECTION('ref_axis',(-1.,-6.16297582203846E-32,2.22044604925E-16));
#1454=DIRECTION('',(-1.,-6.16297582203846E-32,2.22044604925E-16));
#1455=DIRECTION('',(0.,2.22044604925031E-16,-1.));
#1456=DIRECTION('',(-1.,-1.23259516440783E-32,-2.73691106313441E-48));
#1457=DIRECTION('center_axis',(8.71576399210525E-33,-0.707106781186547,
-0.707106781186548));
#1458=DIRECTION('ref_axis',(1.,1.23259516440783E-32,2.73691106313441E-48));
#1459=DIRECTION('',(0.577350269189634,0.577350269189622,-0.577350269189622));
#1460=DIRECTION('',(1.,1.23259516440783E-32,2.73691106313441E-48));
#1461=DIRECTION('',(0.577350269189626,-0.577350269189626,0.577350269189626));
#1462=DIRECTION('center_axis',(0.707106781186548,6.83973258015684E-17,-0.707106781186548));
#1463=DIRECTION('ref_axis',(1.25316179146402E-16,1.,2.22044604925031E-16));
#1464=DIRECTION('',(1.25316179146402E-16,1.,2.22044604925031E-16));
#1465=DIRECTION('',(0.577350269189614,0.57735026918965,0.577350269189614));
#1466=DIRECTION('center_axis',(0.,2.22044604925031E-16,-1.));
#1467=DIRECTION('ref_axis',(0.,1.,2.22044604925031E-16));
#1468=DIRECTION('',(-5.60449123007891E-17,-1.,-2.22044604925031E-16));
#1469=DIRECTION('',(-1.,1.26882631385732E-16,2.81736037578931E-32));
#1470=DIRECTION('',(8.63506796930677E-16,-1.,-2.22044604925031E-16));
#1471=DIRECTION('',(-1.,1.15134239590757E-16,2.55649367432735E-32));
#1472=DIRECTION('',(1.,0.,0.));
#1473=DIRECTION('',(-4.44089209850062E-15,1.,2.22044604925031E-16));
#1474=DIRECTION('',(-1.,0.,0.));
#1475=DIRECTION('',(-4.44089209850062E-15,-1.,-2.22044604925031E-16));
#1476=DIRECTION('',(0.,-1.,-2.22044604925031E-16));
#1477=DIRECTION('',(1.,0.,0.));
#1478=DIRECTION('',(0.,1.,2.22044604925031E-16));
#1479=DIRECTION('',(-1.,0.,0.));
#1480=DIRECTION('center_axis',(0.,2.22044604925031E-16,-1.));
#1481=DIRECTION('ref_axis',(1.,0.,0.));
#1482=DIRECTION('center_axis',(0.,-2.22044604925031E-16,1.));
#1483=DIRECTION('ref_axis',(0.,1.,2.22044604925031E-16));
#1484=DIRECTION('center_axis',(0.,-2.22044604925031E-16,1.));
#1485=DIRECTION('ref_axis',(0.,1.,2.22044604925031E-16));
#1486=DIRECTION('center_axis',(0.,-2.22044604925031E-16,1.));
#1487=DIRECTION('ref_axis',(0.,1.,2.22044604925031E-16));
#1488=DIRECTION('center_axis',(0.,-2.22044604925031E-16,1.));
#1489=DIRECTION('ref_axis',(0.,1.,2.22044604925031E-16));
#1490=DIRECTION('center_axis',(0.,-2.22044604925031E-16,1.));
#1491=DIRECTION('ref_axis',(0.,1.,2.22044604925031E-16));
#1492=DIRECTION('center_axis',(0.,-2.22044604925031E-16,1.));
#1493=DIRECTION('ref_axis',(0.,1.,2.22044604925031E-16));
#1494=DIRECTION('center_axis',(0.,-2.22044604925031E-16,1.));
#1495=DIRECTION('ref_axis',(0.,1.,2.22044604925031E-16));
#1496=DIRECTION('',(-1.,0.,0.));
#1497=DIRECTION('',(0.,-1.,-2.22044604925031E-16));
#1498=DIRECTION('',(1.,0.,0.));
#1499=DIRECTION('',(0.,1.,2.22044604925031E-16));
#1500=DIRECTION('',(-4.44089209850062E-15,-1.,-2.22044604925031E-16));
#1501=DIRECTION('',(1.,0.,0.));
#1502=DIRECTION('',(-4.44089209850062E-15,1.,2.22044604925031E-16));
#1503=DIRECTION('',(-1.,0.,0.));
#1504=DIRECTION('center_axis',(0.,-0.707106781186547,-0.707106781186548));
#1505=DIRECTION('ref_axis',(1.,0.,0.));
#1506=DIRECTION('',(-0.577350269189626,-0.577350269189626,0.577350269189626));
#1507=DIRECTION('',(-1.,0.,0.));
#1508=DIRECTION('',(0.577350269189626,-0.577350269189626,0.577350269189626));
#1509=DIRECTION('center_axis',(-0.707106781186548,3.29719416323593E-15,
-0.707106781186548));
#1510=DIRECTION('ref_axis',(-4.44089209850062E-15,-1.,-2.22044604925031E-16));
#1511=DIRECTION('',(-0.577350269189626,0.577350269189626,0.577350269189626));
#1512=DIRECTION('',(4.44089209850062E-15,1.,2.22044604925031E-16));
#1513=DIRECTION('center_axis',(0.707106781186548,3.29719416323593E-15,-0.707106781186548));
#1514=DIRECTION('ref_axis',(-4.44089209850062E-15,1.,2.22044604925031E-16));
#1515=DIRECTION('',(4.44089209850062E-15,-1.,-2.22044604925031E-16));
#1516=DIRECTION('',(-0.577350269189626,-0.577350269189626,-0.577350269189626));
#1517=DIRECTION('center_axis',(0.,0.707106781186548,-0.707106781186547));
#1518=DIRECTION('ref_axis',(-1.,0.,0.));
#1519=DIRECTION('',(1.,0.,0.));
#1520=DIRECTION('center_axis',(-1.,-4.44089209850062E-15,-9.86076131526264E-31));
#1521=DIRECTION('ref_axis',(4.44089209850062E-15,-1.,-2.22044604925031E-16));
#1522=DIRECTION('',(0.,-2.22044604925031E-16,1.));
#1523=DIRECTION('',(-4.44089209850062E-15,1.,1.35448999301482E-16));
#1524=DIRECTION('',(0.,-2.22044604925031E-16,1.));
#1525=DIRECTION('center_axis',(0.,1.,2.22044604925031E-16));
#1526=DIRECTION('ref_axis',(-1.,0.,0.));
#1527=DIRECTION('',(0.,-2.22044604925031E-16,1.));
#1528=DIRECTION('',(1.,4.93038065763063E-32,-2.22044604925E-16));
#1529=DIRECTION('center_axis',(-0.707106781186548,3.29719416323593E-15,
-0.707106781186548));
#1530=DIRECTION('ref_axis',(-4.44089209850062E-15,-1.,-2.22044604925031E-16));
#1531=DIRECTION('',(-0.577350269189622,0.577350269189634,0.577350269189622));
#1532=DIRECTION('',(4.44089209850062E-15,1.,2.22044604925031E-16));
#1533=DIRECTION('',(0.577350269189621,0.577350269189634,-0.577350269189621));
#1534=DIRECTION('center_axis',(0.,0.70710678118654,-0.707106781186555));
#1535=DIRECTION('ref_axis',(-1.,0.,0.));
#1536=DIRECTION('',(0.577350269189622,0.577350269189634,0.577350269189622));
#1537=DIRECTION('',(1.,0.,0.));
#1538=DIRECTION('center_axis',(0.707106781186548,3.29719416323593E-15,-0.707106781186548));
#1539=DIRECTION('ref_axis',(-4.44089209850062E-15,1.,2.22044604925031E-16));
#1540=DIRECTION('',(0.577350269189621,-0.577350269189634,0.577350269189621));
#1541=DIRECTION('',(4.44089209850062E-15,-1.,-2.22044604925031E-16));
#1542=DIRECTION('center_axis',(0.,-0.70710678118654,-0.707106781186555));
#1543=DIRECTION('ref_axis',(1.,0.,0.));
#1544=DIRECTION('',(-1.,0.,0.));
#1545=DIRECTION('center_axis',(0.,1.,2.22044604925031E-16));
#1546=DIRECTION('ref_axis',(-1.,0.,0.));
#1547=DIRECTION('',(0.,-2.22044604925031E-16,1.));
#1548=DIRECTION('',(1.,4.93038065763063E-32,-2.22044604925E-16));
#1549=DIRECTION('',(0.,-2.22044604925031E-16,1.));
#1550=DIRECTION('center_axis',(1.,-4.44089209850062E-15,-9.86076131526264E-31));
#1551=DIRECTION('ref_axis',(4.44089209850062E-15,1.,2.22044604925031E-16));
#1552=DIRECTION('',(0.,-2.22044604925031E-16,1.));
#1553=DIRECTION('',(-4.44089209850062E-15,-1.,-1.3544899930148E-16));
#1554=DIRECTION('center_axis',(-0.707106781186548,1.57009245868377E-16,
-0.707106781186548));
#1555=DIRECTION('ref_axis',(0.,-1.,-2.22044604925031E-16));
#1556=DIRECTION('',(-0.577350269189626,0.577350269189626,0.577350269189626));
#1557=DIRECTION('',(0.,1.,2.22044604925031E-16));
#1558=DIRECTION('',(0.577350269189626,0.577350269189626,-0.577350269189626));
#1559=DIRECTION('center_axis',(0.,0.707106781186548,-0.707106781186547));
#1560=DIRECTION('ref_axis',(-1.,0.,0.));
#1561=DIRECTION('',(0.577350269189626,0.577350269189626,0.577350269189626));
#1562=DIRECTION('',(1.,0.,0.));
#1563=DIRECTION('center_axis',(0.707106781186548,1.57009245868377E-16,-0.707106781186548));
#1564=DIRECTION('ref_axis',(0.,1.,2.22044604925031E-16));
#1565=DIRECTION('',(0.,-1.,-2.22044604925031E-16));
#1566=DIRECTION('',(0.577350269189626,-0.577350269189626,0.577350269189626));
#1567=DIRECTION('center_axis',(0.,-0.707106781186547,-0.707106781186548));
#1568=DIRECTION('ref_axis',(1.,0.,0.));
#1569=DIRECTION('',(-1.,0.,0.));
#1570=DIRECTION('center_axis',(0.,1.,2.22044604925031E-16));
#1571=DIRECTION('ref_axis',(-1.,0.,0.));
#1572=DIRECTION('',(0.,-2.22044604925031E-16,1.));
#1573=DIRECTION('',(1.,4.93038065763063E-32,-2.22044604925E-16));
#1574=DIRECTION('',(0.,-2.22044604925031E-16,1.));
#1575=DIRECTION('center_axis',(1.,0.,0.));
#1576=DIRECTION('ref_axis',(0.,1.,2.22044604925031E-16));
#1577=DIRECTION('',(0.,-2.22044604925031E-16,1.));
#1578=DIRECTION('',(0.,-1.,-1.35448999301481E-16));
#1579=DIRECTION('center_axis',(0.,0.70710678118654,-0.707106781186555));
#1580=DIRECTION('ref_axis',(-1.,0.,0.));
#1581=DIRECTION('',(0.577350269189622,0.577350269189634,0.577350269189622));
#1582=DIRECTION('',(1.,0.,0.));
#1583=DIRECTION('',(0.577350269189622,-0.577350269189634,-0.577350269189622));
#1584=DIRECTION('center_axis',(0.707106781186548,1.57009245868377E-16,-0.707106781186548));
#1585=DIRECTION('ref_axis',(0.,1.,2.22044604925031E-16));
#1586=DIRECTION('',(0.577350269189621,-0.577350269189634,0.577350269189621));
#1587=DIRECTION('',(0.,-1.,-2.22044604925031E-16));
#1588=DIRECTION('center_axis',(0.,-0.70710678118654,-0.707106781186555));
#1589=DIRECTION('ref_axis',(1.,0.,0.));
#1590=DIRECTION('',(-1.,0.,0.));
#1591=DIRECTION('',(-0.577350269189621,-0.577350269189634,0.577350269189621));
#1592=DIRECTION('center_axis',(-0.707106781186548,1.57009245868377E-16,
-0.707106781186548));
#1593=DIRECTION('ref_axis',(0.,-1.,-2.22044604925031E-16));
#1594=DIRECTION('',(0.,1.,2.22044604925031E-16));
#1595=DIRECTION('center_axis',(1.,0.,0.));
#1596=DIRECTION('ref_axis',(0.,1.,2.22044604925031E-16));
#1597=DIRECTION('',(0.,-2.22044604925031E-16,1.));
#1598=DIRECTION('',(0.,-1.,-1.35448999301481E-16));
#1599=DIRECTION('',(0.,-2.22044604925031E-16,1.));
#1600=DIRECTION('center_axis',(0.,-1.,-2.22044604925031E-16));
#1601=DIRECTION('ref_axis',(1.,0.,0.));
#1602=DIRECTION('',(0.,-2.22044604925031E-16,1.));
#1603=DIRECTION('',(-1.,-4.93038065763063E-32,2.22044604925E-16));
#1604=DIRECTION('center_axis',(0.,2.22044604925031E-16,-1.));
#1605=DIRECTION('ref_axis',(1.,0.,0.));
#1606=DIRECTION('',(0.707106781186548,-2.43604851491927E-16,0.707106781186548));
#1607=DIRECTION('center_axis',(0.,-2.22044604925031E-16,1.));
#1608=DIRECTION('ref_axis',(1.,0.,0.));
#1609=DIRECTION('center_axis',(0.,-2.22044604925031E-16,1.));
#1610=DIRECTION('ref_axis',(1.,0.,0.));
#1611=DIRECTION('',(0.,-2.22044604925031E-16,1.));
#1612=DIRECTION('center_axis',(-2.22044604925E-16,1.35448999301481E-16,
-1.));
#1613=DIRECTION('ref_axis',(1.,0.,0.));
#1614=DIRECTION('center_axis',(8.14122015613799E-17,0.707106781186539,-0.707106781186556));
#1615=DIRECTION('ref_axis',(-1.,1.15134239590757E-16,2.55649367432735E-32));
#1616=DIRECTION('',(1.,-1.15134239590757E-16,-2.55649367432735E-32));
#1617=DIRECTION('',(-0.577350269189624,0.577350269189636,0.577350269189617));
#1618=DIRECTION('center_axis',(-0.70710678118654,-4.53582265841971E-16,
-0.707106781186555));
#1619=DIRECTION('ref_axis',(8.63506796930677E-16,-1.,-2.22044604925031E-16));
#1620=DIRECTION('',(-8.63506796930677E-16,1.,2.22044604925031E-16));
#1621=DIRECTION('',(-0.57735026918963,0.57735026918963,0.577350269189617));
#1622=DIRECTION('center_axis',(8.97195690676428E-17,0.70710678118654,-0.707106781186555));
#1623=DIRECTION('ref_axis',(-1.,1.26882631385732E-16,2.81736037578931E-32));
#1624=DIRECTION('',(1.,-1.26882631385732E-16,-2.81736037578931E-32));
#1625=DIRECTION('',(-0.57735026918963,0.57735026918963,0.577350269189618));
#1626=DIRECTION('center_axis',(-0.70710678118654,1.96638983407272E-16,-0.707106781186555));
#1627=DIRECTION('ref_axis',(-5.60449123007891E-17,-1.,-2.22044604925031E-16));
#1628=DIRECTION('',(5.60449123007891E-17,1.,2.22044604925031E-16));
#1629=DIRECTION('center_axis',(-1.,0.,0.));
#1630=DIRECTION('ref_axis',(0.,-1.,-2.22044604925031E-16));
#1631=DIRECTION('',(0.,1.,1.35448999301481E-16));
#1632=DIRECTION('',(0.,-2.22044604925031E-16,1.));
#1633=DIRECTION('',(0.,-1.,-2.22044604925031E-16));
#1634=DIRECTION('',(0.,-2.22044604925031E-16,1.));
#1635=DIRECTION('center_axis',(-1.,0.,0.));
#1636=DIRECTION('ref_axis',(0.,-1.,-2.22044604925031E-16));
#1637=DIRECTION('',(0.,-1.,-1.35448999301481E-16));
#1638=DIRECTION('',(0.,-2.22044604925031E-16,1.));
#1639=DIRECTION('',(0.,-1.,-2.22044604925031E-16));
#1640=DIRECTION('',(0.,-2.22044604925031E-16,1.));
#1641=DIRECTION('center_axis',(0.,1.,2.22044604925031E-16));
#1642=DIRECTION('ref_axis',(-1.,0.,0.));
#1643=DIRECTION('',(-1.,0.,0.));
#1644=DIRECTION('',(-1.,-4.93038065763063E-32,2.22044604925E-16));
#1645=DIRECTION('center_axis',(0.,2.22044604925031E-16,-1.));
#1646=DIRECTION('ref_axis',(0.,1.,2.22044604925031E-16));
#1647=DIRECTION('',(-1.,0.,0.));
#1648=DIRECTION('center_axis',(0.,-1.,-2.22044604925031E-16));
#1649=DIRECTION('ref_axis',(1.,0.,0.));
#1650=DIRECTION('',(1.,4.93038065763063E-32,-2.22044604925E-16));
#1651=DIRECTION('center_axis',(-1.,0.,0.));
#1652=DIRECTION('ref_axis',(0.,-1.,-2.22044604925031E-16));
#1653=DIRECTION('',(0.,1.,1.35448999301481E-16));
#1654=DIRECTION('',(0.,-2.22044604925031E-16,1.));
#1655=DIRECTION('',(0.,-1.,-2.22044604925031E-16));
#1656=DIRECTION('',(0.,-2.22044604925031E-16,1.));
#1657=DIRECTION('center_axis',(-1.,0.,0.));
#1658=DIRECTION('ref_axis',(0.,-1.,-2.22044604925031E-16));
#1659=DIRECTION('',(0.,-1.,-1.35448999301481E-16));
#1660=DIRECTION('',(0.,-2.22044604925031E-16,1.));
#1661=DIRECTION('',(0.,-1.,-2.22044604925031E-16));
#1662=DIRECTION('',(0.,-2.22044604925031E-16,1.));
#1663=DIRECTION('center_axis',(0.,1.,2.22044604925031E-16));
#1664=DIRECTION('ref_axis',(-1.,0.,0.));
#1665=DIRECTION('',(-1.,0.,0.));
#1666=DIRECTION('',(-1.,-4.93038065763063E-32,2.22044604925E-16));
#1667=DIRECTION('center_axis',(0.,2.22044604925031E-16,-1.));
#1668=DIRECTION('ref_axis',(0.,1.,2.22044604925031E-16));
#1669=DIRECTION('',(-1.,0.,0.));
#1670=DIRECTION('center_axis',(0.,-1.,-2.22044604925031E-16));
#1671=DIRECTION('ref_axis',(1.,0.,0.));
#1672=DIRECTION('',(1.,4.93038065763063E-32,-2.22044604925E-16));
#1673=DIRECTION('center_axis',(0.,2.22044604925031E-16,-1.));
#1674=DIRECTION('ref_axis',(0.,1.,2.22044604925031E-16));
#1675=DIRECTION('',(-8.65956056235493E-17,0.707106781186547,0.707106781186548));
#1676=DIRECTION('center_axis',(0.,-2.22044604925031E-16,1.));
#1677=DIRECTION('ref_axis',(0.,1.,2.22044604925031E-16));
#1678=DIRECTION('center_axis',(0.,-2.22044604925031E-16,1.));
#1679=DIRECTION('ref_axis',(0.,1.,2.22044604925031E-16));
#1680=DIRECTION('',(0.,-2.22044604925031E-16,1.));
#1681=DIRECTION('center_axis',(-2.22044604925E-16,1.35448999301481E-16,
-1.));
#1682=DIRECTION('ref_axis',(0.,1.,2.22044604925031E-16));
#1683=DIRECTION('center_axis',(0.,2.22044604925031E-16,-1.));
#1684=DIRECTION('ref_axis',(0.,1.,2.22044604925031E-16));
#1685=DIRECTION('',(-8.65956056235493E-17,0.707106781186547,0.707106781186548));
#1686=DIRECTION('center_axis',(0.,-2.22044604925031E-16,1.));
#1687=DIRECTION('ref_axis',(0.,1.,2.22044604925031E-16));
#1688=DIRECTION('center_axis',(0.,-2.22044604925031E-16,1.));
#1689=DIRECTION('ref_axis',(0.,1.,2.22044604925031E-16));
#1690=DIRECTION('',(0.,-2.22044604925031E-16,1.));
#1691=DIRECTION('center_axis',(-2.22044604925E-16,1.35448999301481E-16,
-1.));
#1692=DIRECTION('ref_axis',(0.,1.,2.22044604925031E-16));
#1693=DIRECTION('center_axis',(0.,2.22044604925031E-16,-1.));
#1694=DIRECTION('ref_axis',(0.,1.,2.22044604925031E-16));
#1695=DIRECTION('',(-8.65956056235493E-17,0.707106781186547,0.707106781186548));
#1696=DIRECTION('center_axis',(0.,-2.22044604925031E-16,1.));
#1697=DIRECTION('ref_axis',(0.,1.,2.22044604925031E-16));
#1698=DIRECTION('center_axis',(0.,-2.22044604925031E-16,1.));
#1699=DIRECTION('ref_axis',(0.,1.,2.22044604925031E-16));
#1700=DIRECTION('',(0.,-2.22044604925031E-16,1.));
#1701=DIRECTION('center_axis',(-2.22044604925E-16,1.35448999301481E-16,
-1.));
#1702=DIRECTION('ref_axis',(0.,1.,2.22044604925031E-16));
#1703=DIRECTION('center_axis',(0.,2.22044604925031E-16,-1.));
#1704=DIRECTION('ref_axis',(0.,1.,2.22044604925031E-16));
#1705=DIRECTION('',(-8.65956056235493E-17,0.707106781186547,0.707106781186548));
#1706=DIRECTION('center_axis',(0.,-2.22044604925031E-16,1.));
#1707=DIRECTION('ref_axis',(0.,1.,2.22044604925031E-16));
#1708=DIRECTION('center_axis',(0.,-2.22044604925031E-16,1.));
#1709=DIRECTION('ref_axis',(0.,1.,2.22044604925031E-16));
#1710=DIRECTION('',(0.,-2.22044604925031E-16,1.));
#1711=DIRECTION('center_axis',(-2.22044604925E-16,1.35448999301481E-16,
-1.));
#1712=DIRECTION('ref_axis',(0.,1.,2.22044604925031E-16));
#1713=DIRECTION('center_axis',(0.,2.22044604925031E-16,-1.));
#1714=DIRECTION('ref_axis',(0.,1.,2.22044604925031E-16));
#1715=DIRECTION('',(-8.65956056235493E-17,0.707106781186547,0.707106781186548));
#1716=DIRECTION('center_axis',(0.,-2.22044604925031E-16,1.));
#1717=DIRECTION('ref_axis',(0.,1.,2.22044604925031E-16));
#1718=DIRECTION('center_axis',(0.,-2.22044604925031E-16,1.));
#1719=DIRECTION('ref_axis',(0.,1.,2.22044604925031E-16));
#1720=DIRECTION('',(0.,-2.22044604925031E-16,1.));
#1721=DIRECTION('center_axis',(-2.22044604925E-16,1.35448999301481E-16,
-1.));
#1722=DIRECTION('ref_axis',(0.,1.,2.22044604925031E-16));
#1723=DIRECTION('center_axis',(0.,2.22044604925031E-16,-1.));
#1724=DIRECTION('ref_axis',(0.,1.,2.22044604925031E-16));
#1725=DIRECTION('',(-8.65956056235493E-17,0.707106781186547,0.707106781186548));
#1726=DIRECTION('center_axis',(0.,-2.22044604925031E-16,1.));
#1727=DIRECTION('ref_axis',(0.,1.,2.22044604925031E-16));
#1728=DIRECTION('center_axis',(0.,-2.22044604925031E-16,1.));
#1729=DIRECTION('ref_axis',(0.,1.,2.22044604925031E-16));
#1730=DIRECTION('',(0.,-2.22044604925031E-16,1.));
#1731=DIRECTION('center_axis',(-2.22044604925E-16,1.35448999301481E-16,
-1.));
#1732=DIRECTION('ref_axis',(0.,1.,2.22044604925031E-16));
#1733=DIRECTION('center_axis',(0.,2.22044604925031E-16,-1.));
#1734=DIRECTION('ref_axis',(0.,1.,2.22044604925031E-16));
#1735=DIRECTION('',(-8.65956056235493E-17,0.707106781186547,0.707106781186548));
#1736=DIRECTION('center_axis',(0.,-2.22044604925031E-16,1.));
#1737=DIRECTION('ref_axis',(0.,1.,2.22044604925031E-16));
#1738=DIRECTION('center_axis',(0.,-2.22044604925031E-16,1.));
#1739=DIRECTION('ref_axis',(0.,1.,2.22044604925031E-16));
#1740=DIRECTION('',(0.,-2.22044604925031E-16,1.));
#1741=DIRECTION('center_axis',(-2.22044604925E-16,1.35448999301481E-16,
-1.));
#1742=DIRECTION('ref_axis',(0.,1.,2.22044604925031E-16));
#1743=DIRECTION('center_axis',(-1.,0.,0.));
#1744=DIRECTION('ref_axis',(0.,-1.,-2.22044604925031E-16));
#1745=DIRECTION('',(0.,-2.22044604925031E-16,1.));
#1746=DIRECTION('',(0.,1.,1.35448999301481E-16));
#1747=DIRECTION('center_axis',(0.,1.,2.22044604925031E-16));
#1748=DIRECTION('ref_axis',(-1.,0.,0.));
#1749=DIRECTION('',(1.,4.93038065763063E-32,-2.22044604925E-16));
#1750=DIRECTION('center_axis',(0.,-1.,-2.22044604925031E-16));
#1751=DIRECTION('ref_axis',(1.,0.,0.));
#1752=DIRECTION('',(0.,-2.22044604925031E-16,1.));
#1753=DIRECTION('',(-1.,-4.93038065763063E-32,2.22044604925E-16));
#1754=DIRECTION('center_axis',(-1.,0.,0.));
#1755=DIRECTION('ref_axis',(0.,-1.,-2.22044604925031E-16));
#1756=DIRECTION('',(0.,1.,1.35448999301481E-16));
#1757=DIRECTION('center_axis',(1.,-4.44089209850062E-15,-9.86076131526264E-31));
#1758=DIRECTION('ref_axis',(4.44089209850062E-15,1.,2.22044604925031E-16));
#1759=DIRECTION('',(0.,-2.22044604925031E-16,1.));
#1760=DIRECTION('',(-4.44089209850062E-15,-1.,-1.3544899930148E-16));
#1761=DIRECTION('center_axis',(0.,-1.,-2.22044604925031E-16));
#1762=DIRECTION('ref_axis',(1.,0.,0.));
#1763=DIRECTION('',(-1.,-4.93038065763063E-32,2.22044604925E-16));
#1764=DIRECTION('center_axis',(0.,-1.,-2.22044604925031E-16));
#1765=DIRECTION('ref_axis',(1.,0.,0.));
#1766=DIRECTION('',(0.,-2.22044604925031E-16,1.));
#1767=DIRECTION('',(-1.,-4.93038065763063E-32,2.22044604925E-16));
#1768=DIRECTION('center_axis',(-1.,-4.44089209850062E-15,-9.86076131526264E-31));
#1769=DIRECTION('ref_axis',(4.44089209850062E-15,-1.,-2.22044604925031E-16));
#1770=DIRECTION('',(-4.44089209850062E-15,1.,1.35448999301482E-16));
#1771=DIRECTION('center_axis',(1.15134239590757E-16,1.,2.22044604925031E-16));
#1772=DIRECTION('ref_axis',(1.,-1.15134239590757E-16,-2.22044604925E-16));
#1773=DIRECTION('',(0.,2.22044604925031E-16,-1.));
#1774=DIRECTION('',(1.,-1.15134239590757E-16,-2.22044604925E-16));
#1775=DIRECTION('center_axis',(-1.,-8.63506796930677E-16,-1.91737025574551E-31));
#1776=DIRECTION('ref_axis',(-8.63506796930677E-16,1.,1.35448999301481E-16));
#1777=DIRECTION('',(0.,2.22044604925031E-16,-1.));
#1778=DIRECTION('',(-8.63506796930677E-16,1.,1.35448999301481E-16));
#1779=DIRECTION('center_axis',(1.26882631385732E-16,1.,2.22044604925031E-16));
#1780=DIRECTION('ref_axis',(1.,-1.26882631385731E-16,-2.22044604925E-16));
#1781=DIRECTION('',(0.,2.22044604925031E-16,-1.));
#1782=DIRECTION('',(1.,-1.26882631385731E-16,-2.22044604925E-16));
#1783=DIRECTION('center_axis',(-1.,5.60449123007891E-17,1.24444704098867E-32));
#1784=DIRECTION('ref_axis',(5.60449123007891E-17,1.,1.35448999301481E-16));
#1785=DIRECTION('',(5.60449123007891E-17,1.,1.35448999301481E-16));
#1786=DIRECTION('center_axis',(-2.22044604925E-16,1.35448999301481E-16,
-1.));
#1787=DIRECTION('ref_axis',(1.,6.16297582203846E-32,-2.22044604925E-16));
#1788=CARTESIAN_POINT('',(0.,0.,0.));
#1789=CARTESIAN_POINT('Origin',(76.05,35.4375,4.40000000000005));
#1790=CARTESIAN_POINT('',(75.85,-70.875,4.60000000000001));
#1791=CARTESIAN_POINT('',(76.25,-70.875,4.20000000000002));
#1792=CARTESIAN_POINT('',(76.05,-70.875,4.40000000000005));
#1793=CARTESIAN_POINT('',(76.25,70.8750000000001,4.20000000000002));
#1794=CARTESIAN_POINT('',(76.25,35.4375,4.20000000000002));
#1795=CARTESIAN_POINT('',(75.85,70.8750000000001,4.60000000000001));
#1796=CARTESIAN_POINT('',(42.3,70.8750000000001,38.15));
#1797=CARTESIAN_POINT('',(75.85,35.4375,4.60000000000001));
#1798=CARTESIAN_POINT('Origin',(76.25,70.8750000000001,4.60000000000001));
#1799=CARTESIAN_POINT('',(76.25,-70.875,0.399999999999991));
#1800=CARTESIAN_POINT('',(76.25,-70.875,4.60000000000001));
#1801=CARTESIAN_POINT('',(76.25,70.8750000000001,0.399999999999991));
#1802=CARTESIAN_POINT('',(76.25,35.4375,0.399999999999991));
#1803=CARTESIAN_POINT('',(76.25,70.8750000000001,4.60000000000001));
#1804=CARTESIAN_POINT('Origin',(76.25,-70.875,4.60000000000001));
#1805=CARTESIAN_POINT('',(-76.25,-70.875,4.60000000000001));
#1806=CARTESIAN_POINT('',(76.25,-70.875,4.60000000000001));
#1807=CARTESIAN_POINT('',(-76.25,-70.875,0.399999999999991));
#1808=CARTESIAN_POINT('',(-76.25,-70.875,4.60000000000001));
#1809=CARTESIAN_POINT('',(38.125,-70.875,0.399999999999991));
#1810=CARTESIAN_POINT('Origin',(38.125,-70.675,0.200000000000031));
#1811=CARTESIAN_POINT('',(-75.85,-70.475,0.));
#1812=CARTESIAN_POINT('',(-51.1479166666661,-45.7729166666666,-24.7020833333334));
#1813=CARTESIAN_POINT('',(75.85,-70.475,0.));
#1814=CARTESIAN_POINT('',(38.125,-70.475,0.));
#1815=CARTESIAN_POINT('',(52.04375,-46.66875,-23.80625));
#1816=CARTESIAN_POINT('Origin',(76.05,35.4375,0.200000000000031));
#1817=CARTESIAN_POINT('',(75.85,70.4750000000001,0.));
#1818=CARTESIAN_POINT('',(75.85,35.4375,0.));
#1819=CARTESIAN_POINT('',(75.85,70.4750000000001,0.));
#1820=CARTESIAN_POINT('Origin',(0.,0.,0.));
#1821=CARTESIAN_POINT('',(-75.85,52.475,0.));
#1822=CARTESIAN_POINT('',(-75.85,-35.4375,0.));
#1823=CARTESIAN_POINT('',(-58.3499999999999,52.475,0.));
#1824=CARTESIAN_POINT('',(-38.125,52.475,0.));
#1825=CARTESIAN_POINT('',(-58.35,70.4750000000001,0.));
#1826=CARTESIAN_POINT('',(-58.3499999999999,26.4375,0.));
#1827=CARTESIAN_POINT('',(-29.375,70.4750000000001,0.));
#1828=CARTESIAN_POINT('',(48.85,3.27500000000008,0.));
#1829=CARTESIAN_POINT('',(51.65,3.27500000000008,0.));
#1830=CARTESIAN_POINT('',(25.625,3.27500000000008,0.));
#1831=CARTESIAN_POINT('',(48.85,-1.52499999999993,0.));
#1832=CARTESIAN_POINT('',(48.85,1.43750000000015,0.));
#1833=CARTESIAN_POINT('',(51.65,-1.52499999999993,0.));
#1834=CARTESIAN_POINT('',(24.625,-1.52499999999993,0.));
#1835=CARTESIAN_POINT('',(51.65,-0.562500000000057,0.));
#1836=CARTESIAN_POINT('',(63.65,15.7750000000001,0.));
#1837=CARTESIAN_POINT('',(63.65,10.9750000000001,0.));
#1838=CARTESIAN_POINT('',(63.65,5.68750000000005,0.));
#1839=CARTESIAN_POINT('',(60.85,15.7750000000001,0.));
#1840=CARTESIAN_POINT('',(31.625,15.7750000000001,0.));
#1841=CARTESIAN_POINT('',(60.85,10.9750000000001,0.));
#1842=CARTESIAN_POINT('',(60.85,7.68750000000004,0.));
#1843=CARTESIAN_POINT('',(30.625,10.9750000000001,0.));
#1844=CARTESIAN_POINT('',(48.35,25.8750000000001,0.));
#1845=CARTESIAN_POINT('Origin',(56.25,25.8750000000001,0.));
#1846=CARTESIAN_POINT('',(26.25,-23.375,-9.71445146547012E-16));
#1847=CARTESIAN_POINT('Origin',(26.25,-20.875,0.));
#1848=CARTESIAN_POINT('',(51.25,-48.375,-6.24500451351651E-16));
#1849=CARTESIAN_POINT('Origin',(51.25,-45.875,0.));
#1850=CARTESIAN_POINT('',(-68.75,-63.375,-4.9960036108132E-15));
#1851=CARTESIAN_POINT('Origin',(-68.75,-60.875,0.));
#1852=CARTESIAN_POINT('',(-68.75,-11.25,-4.9960036108132E-15));
#1853=CARTESIAN_POINT('Origin',(-68.75,-8.75000000000004,0.));
#1854=CARTESIAN_POINT('',(-53.75,63.3750000000001,-4.9960036108132E-15));
#1855=CARTESIAN_POINT('Origin',(-53.75,65.8750000000001,0.));
#1856=CARTESIAN_POINT('',(8.75000000000003,63.3750000000001,-5.55111512312578E-15));
#1857=CARTESIAN_POINT('Origin',(8.75000000000003,65.8750000000001,0.));
#1858=CARTESIAN_POINT('',(-68.75,40.3750000000001,-4.9960036108132E-15));
#1859=CARTESIAN_POINT('Origin',(-68.75,42.875,0.));
#1860=CARTESIAN_POINT('',(51.65,10.9750000000001,0.));
#1861=CARTESIAN_POINT('',(48.85,10.9750000000001,0.));
#1862=CARTESIAN_POINT('',(24.625,10.9750000000001,0.));
#1863=CARTESIAN_POINT('',(51.65,15.7750000000001,0.));
#1864=CARTESIAN_POINT('',(51.65,5.68750000000005,0.));
#1865=CARTESIAN_POINT('',(48.85,15.7750000000001,0.));
#1866=CARTESIAN_POINT('',(25.625,15.7750000000001,0.));
#1867=CARTESIAN_POINT('',(48.85,7.68750000000004,0.));
#1868=CARTESIAN_POINT('',(63.65,3.27500000000008,0.));
#1869=CARTESIAN_POINT('',(63.65,-1.52499999999996,0.));
#1870=CARTESIAN_POINT('',(63.65,-0.562500000000128,0.));
#1871=CARTESIAN_POINT('',(60.8500000000001,3.27500000000008,0.));
#1872=CARTESIAN_POINT('',(31.625,3.27500000000008,0.));
#1873=CARTESIAN_POINT('',(60.8500000000001,-1.52499999999996,0.));
#1874=CARTESIAN_POINT('',(60.8500000000001,1.43750000000018,0.));
#1875=CARTESIAN_POINT('',(30.625,-1.52499999999996,0.));
#1876=CARTESIAN_POINT('Origin',(25.625,3.07500000000005,0.200000000000031));
#1877=CARTESIAN_POINT('',(51.25,2.87500000000009,0.399999999999991));
#1878=CARTESIAN_POINT('',(51.65,3.27500000000008,0.));
#1879=CARTESIAN_POINT('',(49.25,2.87500000000009,0.399999999999991));
#1880=CARTESIAN_POINT('',(25.625,2.87500000000009,0.399999999999991));
#1881=CARTESIAN_POINT('',(48.85,3.27500000000008,0.));
#1882=CARTESIAN_POINT('Origin',(51.45,-0.562500000000057,0.200000000000031));
#1883=CARTESIAN_POINT('',(51.25,-1.12499999999994,0.399999999999991));
#1884=CARTESIAN_POINT('',(51.65,-1.52499999999993,0.));
#1885=CARTESIAN_POINT('',(51.25,-0.562500000000057,0.399999999999991));
#1886=CARTESIAN_POINT('Origin',(49.05,1.43750000000015,0.200000000000031));
#1887=CARTESIAN_POINT('',(49.25,-1.12499999999994,0.399999999999991));
#1888=CARTESIAN_POINT('',(49.25,1.43750000000015,0.399999999999991));
#1889=CARTESIAN_POINT('',(49.25,-1.12499999999994,0.399999999999991));
#1890=CARTESIAN_POINT('Origin',(24.625,-1.32499999999993,0.200000000000031));
#1891=CARTESIAN_POINT('',(24.625,-1.12499999999994,0.399999999999991));
#1892=CARTESIAN_POINT('Origin',(49.25,2.87500000000009,0.));
#1893=CARTESIAN_POINT('',(49.25,2.87500000000009,4.60000000000001));
#1894=CARTESIAN_POINT('',(49.25,2.87500000000009,0.));
#1895=CARTESIAN_POINT('',(49.25,-1.12499999999994,4.60000000000001));
#1896=CARTESIAN_POINT('',(49.25,1.43750000000015,4.60000000000001));
#1897=CARTESIAN_POINT('',(49.25,-1.12499999999994,0.));
#1898=CARTESIAN_POINT('Origin',(51.25,2.87500000000009,0.));
#1899=CARTESIAN_POINT('',(51.25,2.87500000000009,4.60000000000001));
#1900=CARTESIAN_POINT('',(51.25,2.87500000000009,0.));
#1901=CARTESIAN_POINT('',(25.625,2.87500000000005,4.60000000000001));
#1902=CARTESIAN_POINT('Origin',(63.45,-0.562500000000128,0.200000000000031));
#1903=CARTESIAN_POINT('',(63.25,-1.12499999999994,0.399999999999991));
#1904=CARTESIAN_POINT('',(63.65,-1.52499999999996,0.));
#1905=CARTESIAN_POINT('',(63.2500000000001,2.87500000000005,0.399999999999991));
#1906=CARTESIAN_POINT('',(63.25,-0.562500000000128,0.399999999999991));
#1907=CARTESIAN_POINT('',(63.2500000000001,2.87500000000005,0.399999999999991));
#1908=CARTESIAN_POINT('Origin',(30.625,-1.32499999999993,0.200000000000031));
#1909=CARTESIAN_POINT('',(61.2500000000001,-1.12499999999994,0.399999999999991));
#1910=CARTESIAN_POINT('',(60.8500000000001,-1.52499999999996,0.));
#1911=CARTESIAN_POINT('',(30.625,-1.12499999999994,0.399999999999991));
#1912=CARTESIAN_POINT('Origin',(61.05,1.43750000000018,0.200000000000031));
#1913=CARTESIAN_POINT('',(61.25,2.87500000000005,0.399999999999991));
#1914=CARTESIAN_POINT('',(60.8500000000001,3.27500000000008,0.));
#1915=CARTESIAN_POINT('',(61.25,1.43750000000018,0.399999999999991));
#1916=CARTESIAN_POINT('Origin',(31.625,3.07500000000005,0.200000000000031));
#1917=CARTESIAN_POINT('',(31.625,2.87500000000005,0.399999999999991));
#1918=CARTESIAN_POINT('Origin',(63.2500000000001,2.87500000000005,0.));
#1919=CARTESIAN_POINT('',(63.2500000000001,2.87500000000005,4.60000000000001));
#1920=CARTESIAN_POINT('',(63.2500000000001,2.87500000000005,0.));
#1921=CARTESIAN_POINT('',(61.25,2.87500000000005,4.60000000000001));
#1922=CARTESIAN_POINT('',(31.625,2.87500000000005,4.60000000000001));
#1923=CARTESIAN_POINT('',(61.25,2.87500000000005,0.));
#1924=CARTESIAN_POINT('Origin',(63.25,-1.12499999999994,0.));
#1925=CARTESIAN_POINT('',(63.25,-1.12499999999994,4.60000000000001));
#1926=CARTESIAN_POINT('',(63.25,-1.12499999999994,0.));
#1927=CARTESIAN_POINT('',(63.2500000000001,-0.562500000000128,4.60000000000001));
#1928=CARTESIAN_POINT('Origin',(63.45,5.68750000000005,0.200000000000031));
#1929=CARTESIAN_POINT('',(63.25,11.3750000000001,0.399999999999991));
#1930=CARTESIAN_POINT('',(63.65,10.9750000000001,0.));
#1931=CARTESIAN_POINT('',(63.25,15.3750000000001,0.399999999999991));
#1932=CARTESIAN_POINT('',(63.25,5.68750000000005,0.399999999999991));
#1933=CARTESIAN_POINT('',(63.25,15.3750000000001,0.399999999999991));
#1934=CARTESIAN_POINT('Origin',(30.625,11.1750000000001,0.200000000000031));
#1935=CARTESIAN_POINT('',(61.25,11.3750000000001,0.399999999999991));
#1936=CARTESIAN_POINT('',(60.85,10.9750000000001,0.));
#1937=CARTESIAN_POINT('',(30.625,11.3750000000001,0.399999999999991));
#1938=CARTESIAN_POINT('Origin',(61.05,7.68750000000004,0.200000000000031));
#1939=CARTESIAN_POINT('',(61.25,15.3750000000001,0.399999999999991));
#1940=CARTESIAN_POINT('',(61.25,7.68750000000004,0.399999999999991));
#1941=CARTESIAN_POINT('',(60.85,15.7750000000001,0.));
#1942=CARTESIAN_POINT('Origin',(31.625,15.575,0.200000000000031));
#1943=CARTESIAN_POINT('',(31.625,15.3750000000001,0.399999999999991));
#1944=CARTESIAN_POINT('Origin',(63.25,15.3750000000001,0.));
#1945=CARTESIAN_POINT('',(63.25,15.3750000000001,4.60000000000001));
#1946=CARTESIAN_POINT('',(63.25,15.3750000000001,0.));
#1947=CARTESIAN_POINT('',(61.25,15.3750000000001,4.60000000000001));
#1948=CARTESIAN_POINT('',(31.625,15.375,4.60000000000001));
#1949=CARTESIAN_POINT('',(61.25,15.3750000000001,0.));
#1950=CARTESIAN_POINT('Origin',(63.25,11.3750000000001,0.));
#1951=CARTESIAN_POINT('',(63.25,11.3750000000001,4.60000000000001));
#1952=CARTESIAN_POINT('',(63.25,11.3750000000001,0.));
#1953=CARTESIAN_POINT('',(63.25,5.68750000000005,4.60000000000001));
#1954=CARTESIAN_POINT('Origin',(24.625,11.1750000000001,0.200000000000031));
#1955=CARTESIAN_POINT('',(49.25,11.3750000000001,0.399999999999991));
#1956=CARTESIAN_POINT('',(48.85,10.9750000000001,0.));
#1957=CARTESIAN_POINT('',(51.25,11.3750000000001,0.399999999999991));
#1958=CARTESIAN_POINT('',(24.625,11.3750000000001,0.399999999999991));
#1959=CARTESIAN_POINT('',(51.25,11.3750000000001,0.399999999999991));
#1960=CARTESIAN_POINT('Origin',(49.05,7.68750000000004,0.200000000000031));
#1961=CARTESIAN_POINT('',(49.25,15.3750000000001,0.399999999999991));
#1962=CARTESIAN_POINT('',(48.85,15.7750000000001,0.));
#1963=CARTESIAN_POINT('',(49.25,7.68750000000004,0.399999999999991));
#1964=CARTESIAN_POINT('Origin',(25.625,15.5750000000001,0.200000000000031));
#1965=CARTESIAN_POINT('',(51.25,15.3750000000001,0.399999999999991));
#1966=CARTESIAN_POINT('',(25.625,15.3750000000001,0.399999999999991));
#1967=CARTESIAN_POINT('',(51.65,15.7750000000001,0.));
#1968=CARTESIAN_POINT('Origin',(51.45,5.68750000000005,0.200000000000031));
#1969=CARTESIAN_POINT('',(51.25,5.68750000000005,0.399999999999991));
#1970=CARTESIAN_POINT('Origin',(51.25,11.3750000000001,0.));
#1971=CARTESIAN_POINT('',(51.25,11.3750000000001,4.60000000000001));
#1972=CARTESIAN_POINT('',(51.25,11.3750000000001,0.));
#1973=CARTESIAN_POINT('',(51.25,15.3750000000001,4.60000000000001));
#1974=CARTESIAN_POINT('',(51.25,5.68750000000005,4.60000000000001));
#1975=CARTESIAN_POINT('',(51.25,15.3750000000001,0.));
#1976=CARTESIAN_POINT('Origin',(49.25,11.3750000000001,0.));
#1977=CARTESIAN_POINT('',(49.25,11.3750000000001,4.60000000000001));
#1978=CARTESIAN_POINT('',(49.25,11.3750000000001,0.));
#1979=CARTESIAN_POINT('',(24.625,11.3750000000001,4.60000000000001));
#1980=CARTESIAN_POINT('Origin',(56.25,25.8750000000001,0.200000000000031));
#1981=CARTESIAN_POINT('',(48.75,25.8750000000001,0.399999999999991));
#1982=CARTESIAN_POINT('',(48.55,25.8750000000001,0.200000000000031));
#1983=CARTESIAN_POINT('Origin',(56.25,25.8750000000001,0.399999999999991));
#1984=CARTESIAN_POINT('Origin',(56.25,25.8750000000001,0.));
#1985=CARTESIAN_POINT('',(48.75,25.8750000000001,4.60000000000001));
#1986=CARTESIAN_POINT('',(48.75,25.8750000000001,-2.03944661017034E-31));
#1987=CARTESIAN_POINT('Origin',(56.25,25.8750000000001,4.60000000000001));
#1988=CARTESIAN_POINT('Origin',(-29.375,70.675,0.200000000000031));
#1989=CARTESIAN_POINT('',(-58.75,70.8750000000001,0.399999999999991));
#1990=CARTESIAN_POINT('',(-29.375,70.8750000000001,0.399999999999991));
#1991=CARTESIAN_POINT('',(-58.35,70.4750000000001,0.));
#1992=CARTESIAN_POINT('Origin',(-58.5499999999999,26.4375,0.200000000000031));
#1993=CARTESIAN_POINT('',(-58.7499999999999,52.8750000000001,0.399999999999991));
#1994=CARTESIAN_POINT('',(-58.7499999999999,26.4375,0.399999999999991));
#1995=CARTESIAN_POINT('',(-58.3499999999999,52.475,0.));
#1996=CARTESIAN_POINT('Origin',(-38.125,52.6750000000001,0.200000000000031));
#1997=CARTESIAN_POINT('',(-76.25,52.8750000000001,0.399999999999991));
#1998=CARTESIAN_POINT('',(-38.125,52.8750000000001,0.399999999999991));
#1999=CARTESIAN_POINT('',(-75.85,52.475,0.));
#2000=CARTESIAN_POINT('Origin',(-76.05,-35.4375,0.200000000000031));
#2001=CARTESIAN_POINT('',(-76.25,-35.4375,0.399999999999991));
#2002=CARTESIAN_POINT('Origin',(-71.6500000000001,32.0625,4.60000000000001));
#2003=CARTESIAN_POINT('',(-71.6500000000001,2.06249999999997,4.60000000000001));
#2004=CARTESIAN_POINT('',(-71.6500000000001,32.0625,4.60000000000001));
#2005=CARTESIAN_POINT('',(-71.6500000000001,16.03125,4.60000000000001));
#2006=CARTESIAN_POINT('',(-71.6500000000001,2.06249999999997,5.60000000000002));
#2007=CARTESIAN_POINT('',(-71.6500000000001,2.06249999999997,4.60000000000001));
#2008=CARTESIAN_POINT('',(-71.6500000000001,32.0625,5.60000000000002));
#2009=CARTESIAN_POINT('',(-71.6500000000001,32.0625,5.60000000000002));
#2010=CARTESIAN_POINT('',(-71.6500000000001,32.0625,4.60000000000001));
#2011=CARTESIAN_POINT('Origin',(-65.8500000000001,32.0625,4.60000000000001));
#2012=CARTESIAN_POINT('',(-65.8500000000001,32.0625,4.60000000000001));
#2013=CARTESIAN_POINT('',(-65.8500000000001,2.06249999999997,4.60000000000001));
#2014=CARTESIAN_POINT('',(-65.8500000000001,16.03125,4.60000000000001));
#2015=CARTESIAN_POINT('',(-65.8500000000001,32.0625,5.60000000000002));
#2016=CARTESIAN_POINT('',(-65.8500000000001,32.0625,4.60000000000001));
#2017=CARTESIAN_POINT('',(-65.8500000000001,2.06249999999997,5.60000000000002));
#2018=CARTESIAN_POINT('',(-65.8500000000001,32.0625,5.60000000000002));
#2019=CARTESIAN_POINT('',(-65.8500000000001,2.06249999999997,4.60000000000001));
#2020=CARTESIAN_POINT('Origin',(-68.7500000000001,2.06249999999997,5.09999999999998));
#2021=CARTESIAN_POINT('',(-68.7500000000001,2.06249999999997,5.60000000000002));
#2022=CARTESIAN_POINT('',(-34.375,2.06249999999997,4.60000000000001));
#2023=CARTESIAN_POINT('Origin',(-68.7500000000001,17.0625,5.60000000000002));
#2024=CARTESIAN_POINT('',(-68.7500000000001,32.0625,5.60000000000002));
#2025=CARTESIAN_POINT('Origin',(-68.7500000000001,32.0625,5.09999999999998));
#2026=CARTESIAN_POINT('',(-34.375,32.0625,4.60000000000001));
#2027=CARTESIAN_POINT('Origin',(-71.6500000000001,-19.8125000000001,4.60000000000001));
#2028=CARTESIAN_POINT('',(-71.6500000000001,-49.8125000000001,4.60000000000001));
#2029=CARTESIAN_POINT('',(-71.6500000000001,-19.8125000000001,4.60000000000001));
#2030=CARTESIAN_POINT('',(-71.6500000000001,-9.90625000000001,4.60000000000001));
#2031=CARTESIAN_POINT('',(-71.6500000000001,-49.8125000000001,5.60000000000002));
#2032=CARTESIAN_POINT('',(-71.6500000000001,-49.8125000000001,4.60000000000001));
#2033=CARTESIAN_POINT('',(-71.6500000000001,-19.8125000000001,5.60000000000002));
#2034=CARTESIAN_POINT('',(-71.6500000000001,-19.8125000000001,5.60000000000002));
#2035=CARTESIAN_POINT('',(-71.6500000000001,-19.8125000000001,4.60000000000001));
#2036=CARTESIAN_POINT('Origin',(-65.8500000000001,-19.8125000000001,4.60000000000001));
#2037=CARTESIAN_POINT('',(-65.8500000000001,-19.8125000000001,4.60000000000001));
#2038=CARTESIAN_POINT('',(-65.8500000000001,-49.8125000000001,4.60000000000001));
#2039=CARTESIAN_POINT('',(-65.8500000000001,-9.90625000000001,4.60000000000001));
#2040=CARTESIAN_POINT('',(-65.8500000000001,-19.8125000000001,5.60000000000002));
#2041=CARTESIAN_POINT('',(-65.8500000000001,-19.8125000000001,4.60000000000001));
#2042=CARTESIAN_POINT('',(-65.8500000000001,-49.8125000000001,5.60000000000002));
#2043=CARTESIAN_POINT('',(-65.8500000000001,-19.8125000000001,5.60000000000002));
#2044=CARTESIAN_POINT('',(-65.8500000000001,-49.8125000000001,4.60000000000001));
#2045=CARTESIAN_POINT('Origin',(-68.7500000000001,-49.8125000000001,5.09999999999998));
#2046=CARTESIAN_POINT('',(-68.7500000000001,-49.8125000000001,5.60000000000002));
#2047=CARTESIAN_POINT('',(-34.3750000000001,-49.8125000000001,4.60000000000001));
#2048=CARTESIAN_POINT('Origin',(-68.7500000000001,-34.8125000000001,5.60000000000002));
#2049=CARTESIAN_POINT('',(-68.7500000000001,-19.8125000000001,5.60000000000002));
#2050=CARTESIAN_POINT('Origin',(-68.7500000000001,-19.8125000000001,5.09999999999998));
#2051=CARTESIAN_POINT('',(-34.3750000000001,-19.8125000000001,4.60000000000001));
#2052=CARTESIAN_POINT('Origin',(26.25,-20.875,0.249999999999986));
#2053=CARTESIAN_POINT('',(26.25,-22.875,0.499999999999979));
#2054=CARTESIAN_POINT('',(26.25,-23.125,0.249999999999985));
#2055=CARTESIAN_POINT('Origin',(26.25,-20.875,0.499999999999972));
#2056=CARTESIAN_POINT('Origin',(26.25,-20.875,5.));
#2057=CARTESIAN_POINT('',(26.25,-22.875,4.60000000000001));
#2058=CARTESIAN_POINT('',(26.25,-22.875,5.));
#2059=CARTESIAN_POINT('Origin',(26.25,-20.875,4.60000000000001));
#2060=CARTESIAN_POINT('Origin',(51.25,-45.875,0.249999999999986));
#2061=CARTESIAN_POINT('',(51.25,-47.875,0.499999999999977));
#2062=CARTESIAN_POINT('',(51.25,-48.125,0.249999999999985));
#2063=CARTESIAN_POINT('Origin',(51.25,-45.875,0.499999999999972));
#2064=CARTESIAN_POINT('Origin',(51.25,-45.875,5.));
#2065=CARTESIAN_POINT('',(51.25,-47.875,4.60000000000001));
#2066=CARTESIAN_POINT('',(51.25,-47.875,5.));
#2067=CARTESIAN_POINT('Origin',(51.25,-45.875,4.60000000000001));
#2068=CARTESIAN_POINT('Origin',(-68.75,42.875,0.424999999999969));
#2069=CARTESIAN_POINT('',(-68.75,41.225,0.849999999999953));
#2070=CARTESIAN_POINT('',(-68.75,40.8000000000001,0.424999999999968));
#2071=CARTESIAN_POINT('Origin',(-68.75,42.875,0.849999999999937));
#2072=CARTESIAN_POINT('Origin',(-68.75,42.875,5.));
#2073=CARTESIAN_POINT('',(-68.75,41.2250000000001,4.60000000000001));
#2074=CARTESIAN_POINT('',(-68.75,41.2250000000001,5.));
#2075=CARTESIAN_POINT('Origin',(-68.75,42.875,4.60000000000001));
#2076=CARTESIAN_POINT('Origin',(8.75000000000003,65.8750000000001,0.424999999999969));
#2077=CARTESIAN_POINT('',(8.75000000000003,64.2250000000001,0.849999999999953));
#2078=CARTESIAN_POINT('',(8.75000000000003,63.8000000000001,0.424999999999968));
#2079=CARTESIAN_POINT('Origin',(8.75000000000003,65.8750000000001,0.849999999999937));
#2080=CARTESIAN_POINT('Origin',(8.75000000000003,65.8750000000001,5.));
#2081=CARTESIAN_POINT('',(8.75000000000003,64.2250000000001,4.60000000000001));
#2082=CARTESIAN_POINT('',(8.75000000000003,64.2250000000001,5.));
#2083=CARTESIAN_POINT('Origin',(8.75000000000003,65.8750000000001,4.60000000000001));
#2084=CARTESIAN_POINT('Origin',(-53.75,65.8750000000001,0.424999999999969));
#2085=CARTESIAN_POINT('',(-53.75,64.2250000000001,0.849999999999955));
#2086=CARTESIAN_POINT('',(-53.75,63.8000000000001,0.424999999999968));
#2087=CARTESIAN_POINT('Origin',(-53.75,65.8750000000001,0.849999999999937));
#2088=CARTESIAN_POINT('Origin',(-53.75,65.8750000000001,5.));
#2089=CARTESIAN_POINT('',(-53.75,64.2250000000001,4.60000000000001));
#2090=CARTESIAN_POINT('',(-53.75,64.2250000000001,5.));
#2091=CARTESIAN_POINT('Origin',(-53.75,65.8750000000001,4.60000000000001));
#2092=CARTESIAN_POINT('Origin',(-68.75,-8.75000000000004,0.424999999999969));
#2093=CARTESIAN_POINT('',(-68.75,-10.4000000000001,0.849999999999953));
#2094=CARTESIAN_POINT('',(-68.75,-10.825,0.424999999999968));
#2095=CARTESIAN_POINT('Origin',(-68.75,-8.75000000000004,0.849999999999937));
#2096=CARTESIAN_POINT('Origin',(-68.75,-8.75000000000004,5.));
#2097=CARTESIAN_POINT('',(-68.75,-10.4000000000001,4.60000000000001));
#2098=CARTESIAN_POINT('',(-68.75,-10.4,5.));
#2099=CARTESIAN_POINT('Origin',(-68.75,-8.75000000000004,4.60000000000001));
#2100=CARTESIAN_POINT('Origin',(-68.75,-60.875,0.424999999999969));
#2101=CARTESIAN_POINT('',(-68.75,-62.525,0.849999999999955));
#2102=CARTESIAN_POINT('',(-68.75,-62.95,0.424999999999968));
#2103=CARTESIAN_POINT('Origin',(-68.75,-60.875,0.849999999999937));
#2104=CARTESIAN_POINT('Origin',(-68.75,-60.875,5.));
#2105=CARTESIAN_POINT('',(-68.75,-62.525,4.60000000000001));
#2106=CARTESIAN_POINT('',(-68.75,-62.525,5.));
#2107=CARTESIAN_POINT('Origin',(-68.75,-60.875,4.60000000000001));
#2108=CARTESIAN_POINT('Origin',(49.25,15.3750000000001,0.));
#2109=CARTESIAN_POINT('',(49.25,15.3750000000001,4.60000000000001));
#2110=CARTESIAN_POINT('',(49.25,15.3750000000001,0.));
#2111=CARTESIAN_POINT('',(49.25,7.68750000000004,4.60000000000001));
#2112=CARTESIAN_POINT('Origin',(51.25,15.3750000000001,0.));
#2113=CARTESIAN_POINT('',(25.625,15.3750000000001,4.60000000000001));
#2114=CARTESIAN_POINT('Origin',(61.25,11.3750000000001,0.));
#2115=CARTESIAN_POINT('',(61.25,11.3750000000001,4.60000000000001));
#2116=CARTESIAN_POINT('',(61.25,11.3750000000001,0.));
#2117=CARTESIAN_POINT('',(30.625,11.3750000000001,4.60000000000001));
#2118=CARTESIAN_POINT('Origin',(61.25,15.3750000000001,0.));
#2119=CARTESIAN_POINT('',(61.25,7.68750000000004,4.60000000000001));
#2120=CARTESIAN_POINT('Origin',(51.25,-1.12499999999994,0.));
#2121=CARTESIAN_POINT('',(51.25,-1.12499999999994,4.60000000000001));
#2122=CARTESIAN_POINT('',(51.25,-1.12499999999994,0.));
#2123=CARTESIAN_POINT('',(51.25,-0.562500000000057,4.60000000000001));
#2124=CARTESIAN_POINT('Origin',(49.25,-1.12499999999994,0.));
#2125=CARTESIAN_POINT('',(24.625,-1.12499999999994,4.60000000000001));
#2126=CARTESIAN_POINT('Origin',(61.2500000000001,-1.12499999999994,0.));
#2127=CARTESIAN_POINT('',(61.2500000000001,-1.12499999999994,4.60000000000001));
#2128=CARTESIAN_POINT('',(61.2500000000001,-1.12499999999994,0.));
#2129=CARTESIAN_POINT('',(30.625,-1.12499999999994,4.60000000000001));
#2130=CARTESIAN_POINT('Origin',(61.25,2.87500000000005,0.));
#2131=CARTESIAN_POINT('',(61.2500000000001,1.43750000000018,4.60000000000001));
#2132=CARTESIAN_POINT('Origin',(-58.75,70.8750000000001,4.60000000000001));
#2133=CARTESIAN_POINT('',(-58.75,70.8750000000001,4.60000000000001));
#2134=CARTESIAN_POINT('',(-58.75,70.8750000000001,4.60000000000001));
#2135=CARTESIAN_POINT('',(-58.75,70.8750000000001,4.60000000000001));
#2136=CARTESIAN_POINT('Origin',(-58.7499999999999,52.8750000000001,4.60000000000001));
#2137=CARTESIAN_POINT('',(-58.7499999999999,52.8750000000001,4.60000000000001));
#2138=CARTESIAN_POINT('',(-58.7499999999999,52.8750000000001,4.60000000000001));
#2139=CARTESIAN_POINT('',(-58.7499999999999,52.8750000000001,4.60000000000001));
#2140=CARTESIAN_POINT('Origin',(-76.25,52.8750000000001,4.60000000000001));
#2141=CARTESIAN_POINT('',(-76.25,52.8750000000001,4.60000000000001));
#2142=CARTESIAN_POINT('',(-76.25,52.8750000000001,4.60000000000001));
#2143=CARTESIAN_POINT('',(-76.25,52.8750000000001,4.60000000000001));
#2144=CARTESIAN_POINT('Origin',(-76.25,-70.875,4.60000000000001));
#2145=CARTESIAN_POINT('',(-76.25,-155.125,4.59999999999994));
#2146=CARTESIAN_POINT('Origin',(0.,0.,4.60000000000001));
#2147=UNCERTAINTY_MEASURE_WITH_UNIT(LENGTH_MEASURE(0.01),#2151,
'DISTANCE_ACCURACY_VALUE',
'Maximum model space distance between geometric entities at asserted c
onnectivities');
#2148=UNCERTAINTY_MEASURE_WITH_UNIT(LENGTH_MEASURE(0.01),#2151,
'DISTANCE_ACCURACY_VALUE',
'Maximum model space distance between geometric entities at asserted c
onnectivities');
#2149=(
GEOMETRIC_REPRESENTATION_CONTEXT(3)
GLOBAL_UNCERTAINTY_ASSIGNED_CONTEXT((#2147))
GLOBAL_UNIT_ASSIGNED_CONTEXT((#2151,#2153,#2154))
REPRESENTATION_CONTEXT('','3D')
);
#2150=(
GEOMETRIC_REPRESENTATION_CONTEXT(3)
GLOBAL_UNCERTAINTY_ASSIGNED_CONTEXT((#2148))
GLOBAL_UNIT_ASSIGNED_CONTEXT((#2151,#2153,#2154))
REPRESENTATION_CONTEXT('','3D')
);
#2151=(
LENGTH_UNIT()
NAMED_UNIT(*)
SI_UNIT(.MILLI.,.METRE.)
);
#2152=(
LENGTH_UNIT()
NAMED_UNIT(*)
SI_UNIT($,.METRE.)
);
#2153=(
NAMED_UNIT(*)
PLANE_ANGLE_UNIT()
SI_UNIT($,.RADIAN.)
);
#2154=(
NAMED_UNIT(*)
SI_UNIT($,.STERADIAN.)
SOLID_ANGLE_UNIT()
);
#2155=SHAPE_DEFINITION_REPRESENTATION(#2156,#2157);
#2156=PRODUCT_DEFINITION_SHAPE('',$,#2159);
#2157=SHAPE_REPRESENTATION('',(#1341),#2149);
#2158=PRODUCT_DEFINITION_CONTEXT('part definition',#2163,'design');
#2159=PRODUCT_DEFINITION('MAIN','Proosa Mini - panels - export v2',#2160,
#2158);
#2160=PRODUCT_DEFINITION_FORMATION('',$,#2165);
#2161=PRODUCT_RELATED_PRODUCT_CATEGORY(
'Proosa Mini - panels - export v2','Proosa Mini - panels - export v2',(#2165));
#2162=APPLICATION_PROTOCOL_DEFINITION('international standard',
'automotive_design',2009,#2163);
#2163=APPLICATION_CONTEXT(
'Core Data for Automotive Mechanical Design Process');
#2164=PRODUCT_CONTEXT('part definition',#2163,'mechanical');
#2165=PRODUCT('MAIN','Proosa Mini - panels - export v2','FreeCAD Model',
(#2164));
#2166=PRESENTATION_STYLE_ASSIGNMENT((#2168));
#2167=PRESENTATION_STYLE_ASSIGNMENT((#2169));
#2168=SURFACE_STYLE_USAGE(.BOTH.,#2170);
#2169=SURFACE_STYLE_USAGE(.BOTH.,#2171);
#2170=SURFACE_SIDE_STYLE('',(#2172));
#2171=SURFACE_SIDE_STYLE('',(#2173));
#2172=SURFACE_STYLE_FILL_AREA(#2174);
#2173=SURFACE_STYLE_FILL_AREA(#2175);
#2174=FILL_AREA_STYLE('Acero - Satinado',(#2176));
#2175=FILL_AREA_STYLE('Opaque(82,82,82)',(#2177));
#2176=FILL_AREA_STYLE_COLOUR('Acero - Satinado',#2178);
#2177=FILL_AREA_STYLE_COLOUR('Opaque(82,82,82)',#2179);
#2178=COLOUR_RGB('Acero - Satinado',0.627450980392157,0.627450980392157,
0.627450980392157);
#2179=COLOUR_RGB('Opaque(82,82,82)',0.32156862745098,0.32156862745098,0.32156862745098);
ENDSEC;
END-ISO-10303-21;
