ISO-10303-21;
HEADER;
/* Generated by software containing ST-Developer
 * from STEP Tools, Inc. (www.steptools.com) 
 */

FILE_DESCRIPTION(
/* description */ ('FreeCAD Model'),
/* implementation_level */ '2;1');

FILE_NAME(
/* name */ 'back-panel-bottom-right.step',
/* time_stamp */ '2026-04-24T17:55:19+02:00',
/* author */ (''),
/* organization */ (''),
/* preprocessor_version */ 'ST-DEVELOPER v20.1',
/* originating_system */ 'Autodesk Translation Framework v15.8.0.0',
/* authorisation */ '');

FILE_SCHEMA (('AUTOMOTIVE_DESIGN { 1 0 10303 214 3 1 1 }'));
ENDSEC;

DATA;
#10=MECHANICAL_DESIGN_GEOMETRIC_PRESENTATION_REPRESENTATION('',(#13),#1158);
#11=SHAPE_REPRESENTATION_RELATIONSHIP('SRR','None',#1165,#12);
#12=ADVANCED_BREP_SHAPE_REPRESENTATION('',(#14),#1157);
#13=STYLED_ITEM('',(#1174),#14);
#14=MANIFOLD_SOLID_BREP('back-panel-bottom-right',#699);
#15=CYLINDRICAL_SURFACE('',#742,2.);
#16=CYLINDRICAL_SURFACE('',#746,2.);
#17=CYLINDRICAL_SURFACE('',#750,1.65);
#18=CYLINDRICAL_SURFACE('',#754,1.65);
#19=CYLINDRICAL_SURFACE('',#758,1.65);
#20=CYLINDRICAL_SURFACE('',#762,1.65);
#21=CYLINDRICAL_SURFACE('',#766,1.65);
#22=CONICAL_SURFACE('',#740,2.25,0.785398163397448);
#23=CONICAL_SURFACE('',#744,2.25,0.785398163397448);
#24=CONICAL_SURFACE('',#748,2.075,0.785398163397448);
#25=CONICAL_SURFACE('',#752,2.075,0.785398163397448);
#26=CONICAL_SURFACE('',#756,2.075,0.785398163397448);
#27=CONICAL_SURFACE('',#760,2.075,0.785398163397448);
#28=CONICAL_SURFACE('',#764,2.075,0.785398163397448);
#29=FACE_BOUND('',#115,.T.);
#30=FACE_BOUND('',#116,.T.);
#31=FACE_BOUND('',#117,.T.);
#32=FACE_BOUND('',#118,.T.);
#33=FACE_BOUND('',#119,.T.);
#34=FACE_BOUND('',#120,.T.);
#35=FACE_BOUND('',#121,.T.);
#36=FACE_BOUND('',#151,.T.);
#37=FACE_BOUND('',#152,.T.);
#38=FACE_BOUND('',#153,.T.);
#39=FACE_BOUND('',#154,.T.);
#40=FACE_BOUND('',#155,.T.);
#41=FACE_BOUND('',#156,.T.);
#42=FACE_BOUND('',#157,.T.);
#43=FACE_BOUND('',#158,.T.);
#44=FACE_BOUND('',#159,.T.);
#45=CIRCLE('',#723,2.49999999999999);
#46=CIRCLE('',#724,2.49999999999999);
#47=CIRCLE('',#725,2.49999999999997);
#48=CIRCLE('',#726,2.49999999999997);
#49=CIRCLE('',#727,2.49999999999997);
#50=CIRCLE('',#728,2.49999999999997);
#51=CIRCLE('',#729,2.49999999999997);
#52=CIRCLE('',#741,2.);
#53=CIRCLE('',#743,2.);
#54=CIRCLE('',#745,2.);
#55=CIRCLE('',#747,2.);
#56=CIRCLE('',#749,1.65);
#57=CIRCLE('',#751,1.65);
#58=CIRCLE('',#753,1.65);
#59=CIRCLE('',#755,1.65);
#60=CIRCLE('',#757,1.65);
#61=CIRCLE('',#759,1.65);
#62=CIRCLE('',#761,1.65);
#63=CIRCLE('',#763,1.65);
#64=CIRCLE('',#765,1.65);
#65=CIRCLE('',#767,1.65);
#66=FACE_OUTER_BOUND('',#105,.T.);
#67=FACE_OUTER_BOUND('',#106,.T.);
#68=FACE_OUTER_BOUND('',#107,.T.);
#69=FACE_OUTER_BOUND('',#108,.T.);
#70=FACE_OUTER_BOUND('',#109,.T.);
#71=FACE_OUTER_BOUND('',#110,.T.);
#72=FACE_OUTER_BOUND('',#111,.T.);
#73=FACE_OUTER_BOUND('',#112,.T.);
#74=FACE_OUTER_BOUND('',#113,.T.);
#75=FACE_OUTER_BOUND('',#114,.T.);
#76=FACE_OUTER_BOUND('',#122,.T.);
#77=FACE_OUTER_BOUND('',#123,.T.);
#78=FACE_OUTER_BOUND('',#124,.T.);
#79=FACE_OUTER_BOUND('',#125,.T.);
#80=FACE_OUTER_BOUND('',#126,.T.);
#81=FACE_OUTER_BOUND('',#127,.T.);
#82=FACE_OUTER_BOUND('',#128,.T.);
#83=FACE_OUTER_BOUND('',#129,.T.);
#84=FACE_OUTER_BOUND('',#130,.T.);
#85=FACE_OUTER_BOUND('',#131,.T.);
#86=FACE_OUTER_BOUND('',#132,.T.);
#87=FACE_OUTER_BOUND('',#133,.T.);
#88=FACE_OUTER_BOUND('',#134,.T.);
#89=FACE_OUTER_BOUND('',#135,.T.);
#90=FACE_OUTER_BOUND('',#136,.T.);
#91=FACE_OUTER_BOUND('',#137,.T.);
#92=FACE_OUTER_BOUND('',#138,.T.);
#93=FACE_OUTER_BOUND('',#139,.T.);
#94=FACE_OUTER_BOUND('',#140,.T.);
#95=FACE_OUTER_BOUND('',#141,.T.);
#96=FACE_OUTER_BOUND('',#142,.T.);
#97=FACE_OUTER_BOUND('',#143,.T.);
#98=FACE_OUTER_BOUND('',#144,.T.);
#99=FACE_OUTER_BOUND('',#145,.T.);
#100=FACE_OUTER_BOUND('',#146,.T.);
#101=FACE_OUTER_BOUND('',#147,.T.);
#102=FACE_OUTER_BOUND('',#148,.T.);
#103=FACE_OUTER_BOUND('',#149,.T.);
#104=FACE_OUTER_BOUND('',#150,.T.);
#105=EDGE_LOOP('',(#451,#452,#453,#454));
#106=EDGE_LOOP('',(#455,#456,#457,#458,#459));
#107=EDGE_LOOP('',(#460,#461,#462,#463));
#108=EDGE_LOOP('',(#464,#465,#466,#467));
#109=EDGE_LOOP('',(#468,#469,#470,#471));
#110=EDGE_LOOP('',(#472,#473,#474,#475));
#111=EDGE_LOOP('',(#476,#477,#478,#479));
#112=EDGE_LOOP('',(#480,#481,#482,#483));
#113=EDGE_LOOP('',(#484,#485,#486,#487));
#114=EDGE_LOOP('',(#488,#489,#490,#491,#492,#493));
#115=EDGE_LOOP('',(#494));
#116=EDGE_LOOP('',(#495));
#117=EDGE_LOOP('',(#496));
#118=EDGE_LOOP('',(#497));
#119=EDGE_LOOP('',(#498));
#120=EDGE_LOOP('',(#499));
#121=EDGE_LOOP('',(#500));
#122=EDGE_LOOP('',(#501,#502,#503,#504));
#123=EDGE_LOOP('',(#505,#506,#507,#508));
#124=EDGE_LOOP('',(#509,#510,#511,#512));
#125=EDGE_LOOP('',(#513,#514,#515,#516));
#126=EDGE_LOOP('',(#517,#518,#519,#520));
#127=EDGE_LOOP('',(#521,#522,#523,#524));
#128=EDGE_LOOP('',(#525,#526,#527,#528));
#129=EDGE_LOOP('',(#529,#530,#531,#532));
#130=EDGE_LOOP('',(#533,#534,#535,#536));
#131=EDGE_LOOP('',(#537,#538,#539,#540));
#132=EDGE_LOOP('',(#541,#542,#543,#544));
#133=EDGE_LOOP('',(#545,#546,#547,#548));
#134=EDGE_LOOP('',(#549,#550,#551,#552));
#135=EDGE_LOOP('',(#553,#554,#555,#556));
#136=EDGE_LOOP('',(#557,#558,#559,#560));
#137=EDGE_LOOP('',(#561,#562,#563,#564));
#138=EDGE_LOOP('',(#565,#566,#567,#568));
#139=EDGE_LOOP('',(#569,#570,#571,#572));
#140=EDGE_LOOP('',(#573,#574,#575,#576));
#141=EDGE_LOOP('',(#577,#578,#579,#580));
#142=EDGE_LOOP('',(#581,#582,#583,#584));
#143=EDGE_LOOP('',(#585,#586,#587,#588));
#144=EDGE_LOOP('',(#589,#590,#591,#592));
#145=EDGE_LOOP('',(#593,#594,#595,#596));
#146=EDGE_LOOP('',(#597,#598,#599,#600));
#147=EDGE_LOOP('',(#601,#602,#603,#604));
#148=EDGE_LOOP('',(#605,#606,#607,#608));
#149=EDGE_LOOP('',(#609,#610,#611,#612,#613));
#150=EDGE_LOOP('',(#614,#615,#616,#617,#618,#619));
#151=EDGE_LOOP('',(#620,#621,#622,#623));
#152=EDGE_LOOP('',(#624));
#153=EDGE_LOOP('',(#625));
#154=EDGE_LOOP('',(#626));
#155=EDGE_LOOP('',(#627));
#156=EDGE_LOOP('',(#628));
#157=EDGE_LOOP('',(#629));
#158=EDGE_LOOP('',(#630));
#159=EDGE_LOOP('',(#631,#632,#633,#634));
#160=LINE('',#970,#231);
#161=LINE('',#972,#232);
#162=LINE('',#974,#233);
#163=LINE('',#975,#234);
#164=LINE('',#978,#235);
#165=LINE('',#980,#236);
#166=LINE('',#982,#237);
#167=LINE('',#983,#238);
#168=LINE('',#986,#239);
#169=LINE('',#987,#240);
#170=LINE('',#990,#241);
#171=LINE('',#992,#242);
#172=LINE('',#993,#243);
#173=LINE('',#996,#244);
#174=LINE('',#997,#245);
#175=LINE('',#1000,#246);
#176=LINE('',#1002,#247);
#177=LINE('',#1003,#248);
#178=LINE('',#1006,#249);
#179=LINE('',#1008,#250);
#180=LINE('',#1009,#251);
#181=LINE('',#1012,#252);
#182=LINE('',#1014,#253);
#183=LINE('',#1015,#254);
#184=LINE('',#1017,#255);
#185=LINE('',#1018,#256);
#186=LINE('',#1037,#257);
#187=LINE('',#1039,#258);
#188=LINE('',#1041,#259);
#189=LINE('',#1042,#260);
#190=LINE('',#1046,#261);
#191=LINE('',#1048,#262);
#192=LINE('',#1050,#263);
#193=LINE('',#1051,#264);
#194=LINE('',#1053,#265);
#195=LINE('',#1054,#266);
#196=LINE('',#1056,#267);
#197=LINE('',#1058,#268);
#198=LINE('',#1062,#269);
#199=LINE('',#1064,#270);
#200=LINE('',#1066,#271);
#201=LINE('',#1067,#272);
#202=LINE('',#1071,#273);
#203=LINE('',#1073,#274);
#204=LINE('',#1075,#275);
#205=LINE('',#1076,#276);
#206=LINE('',#1078,#277);
#207=LINE('',#1079,#278);
#208=LINE('',#1081,#279);
#209=LINE('',#1083,#280);
#210=LINE('',#1086,#281);
#211=LINE('',#1090,#282);
#212=LINE('',#1094,#283);
#213=LINE('',#1098,#284);
#214=LINE('',#1102,#285);
#215=LINE('',#1106,#286);
#216=LINE('',#1110,#287);
#217=LINE('',#1114,#288);
#218=LINE('',#1118,#289);
#219=LINE('',#1122,#290);
#220=LINE('',#1126,#291);
#221=LINE('',#1130,#292);
#222=LINE('',#1134,#293);
#223=LINE('',#1138,#294);
#224=LINE('',#1142,#295);
#225=LINE('',#1143,#296);
#226=LINE('',#1146,#297);
#227=LINE('',#1147,#298);
#228=LINE('',#1150,#299);
#229=LINE('',#1151,#300);
#230=LINE('',#1153,#301);
#231=VECTOR('',#777,10.);
#232=VECTOR('',#778,10.);
#233=VECTOR('',#779,10.);
#234=VECTOR('',#780,10.);
#235=VECTOR('',#783,10.);
#236=VECTOR('',#784,10.);
#237=VECTOR('',#785,10.);
#238=VECTOR('',#786,10.);
#239=VECTOR('',#789,10.);
#240=VECTOR('',#790,10.);
#241=VECTOR('',#793,10.);
#242=VECTOR('',#794,10.);
#243=VECTOR('',#795,10.);
#244=VECTOR('',#798,10.);
#245=VECTOR('',#799,10.);
#246=VECTOR('',#802,10.);
#247=VECTOR('',#803,10.);
#248=VECTOR('',#804,10.);
#249=VECTOR('',#807,10.);
#250=VECTOR('',#808,10.);
#251=VECTOR('',#809,10.);
#252=VECTOR('',#812,10.);
#253=VECTOR('',#813,10.);
#254=VECTOR('',#814,10.);
#255=VECTOR('',#817,10.);
#256=VECTOR('',#818,10.);
#257=VECTOR('',#837,10.);
#258=VECTOR('',#838,10.);
#259=VECTOR('',#839,10.);
#260=VECTOR('',#840,10.);
#261=VECTOR('',#843,10.);
#262=VECTOR('',#844,10.);
#263=VECTOR('',#845,10.);
#264=VECTOR('',#846,10.);
#265=VECTOR('',#849,10.);
#266=VECTOR('',#850,10.);
#267=VECTOR('',#853,10.);
#268=VECTOR('',#856,10.);
#269=VECTOR('',#859,10.);
#270=VECTOR('',#860,10.);
#271=VECTOR('',#861,10.);
#272=VECTOR('',#862,10.);
#273=VECTOR('',#865,10.);
#274=VECTOR('',#866,10.);
#275=VECTOR('',#867,10.);
#276=VECTOR('',#868,10.);
#277=VECTOR('',#871,10.);
#278=VECTOR('',#872,10.);
#279=VECTOR('',#875,10.);
#280=VECTOR('',#878,10.);
#281=VECTOR('',#881,2.25);
#282=VECTOR('',#886,2.);
#283=VECTOR('',#891,2.25);
#284=VECTOR('',#896,2.);
#285=VECTOR('',#901,2.075);
#286=VECTOR('',#906,1.65);
#287=VECTOR('',#911,2.075);
#288=VECTOR('',#916,1.65);
#289=VECTOR('',#921,2.075);
#290=VECTOR('',#926,1.65);
#291=VECTOR('',#931,2.075);
#292=VECTOR('',#936,1.65);
#293=VECTOR('',#941,2.075);
#294=VECTOR('',#946,1.65);
#295=VECTOR('',#951,10.);
#296=VECTOR('',#952,10.);
#297=VECTOR('',#955,10.);
#298=VECTOR('',#956,10.);
#299=VECTOR('',#959,10.);
#300=VECTOR('',#960,10.);
#301=VECTOR('',#963,10.);
#302=VERTEX_POINT('',#968);
#303=VERTEX_POINT('',#969);
#304=VERTEX_POINT('',#971);
#305=VERTEX_POINT('',#973);
#306=VERTEX_POINT('',#977);
#307=VERTEX_POINT('',#979);
#308=VERTEX_POINT('',#981);
#309=VERTEX_POINT('',#985);
#310=VERTEX_POINT('',#989);
#311=VERTEX_POINT('',#991);
#312=VERTEX_POINT('',#995);
#313=VERTEX_POINT('',#999);
#314=VERTEX_POINT('',#1001);
#315=VERTEX_POINT('',#1005);
#316=VERTEX_POINT('',#1007);
#317=VERTEX_POINT('',#1011);
#318=VERTEX_POINT('',#1013);
#319=VERTEX_POINT('',#1020);
#320=VERTEX_POINT('',#1022);
#321=VERTEX_POINT('',#1024);
#322=VERTEX_POINT('',#1026);
#323=VERTEX_POINT('',#1028);
#324=VERTEX_POINT('',#1030);
#325=VERTEX_POINT('',#1032);
#326=VERTEX_POINT('',#1035);
#327=VERTEX_POINT('',#1036);
#328=VERTEX_POINT('',#1038);
#329=VERTEX_POINT('',#1040);
#330=VERTEX_POINT('',#1044);
#331=VERTEX_POINT('',#1045);
#332=VERTEX_POINT('',#1047);
#333=VERTEX_POINT('',#1049);
#334=VERTEX_POINT('',#1060);
#335=VERTEX_POINT('',#1061);
#336=VERTEX_POINT('',#1063);
#337=VERTEX_POINT('',#1065);
#338=VERTEX_POINT('',#1069);
#339=VERTEX_POINT('',#1070);
#340=VERTEX_POINT('',#1072);
#341=VERTEX_POINT('',#1074);
#342=VERTEX_POINT('',#1085);
#343=VERTEX_POINT('',#1089);
#344=VERTEX_POINT('',#1093);
#345=VERTEX_POINT('',#1097);
#346=VERTEX_POINT('',#1101);
#347=VERTEX_POINT('',#1105);
#348=VERTEX_POINT('',#1109);
#349=VERTEX_POINT('',#1113);
#350=VERTEX_POINT('',#1117);
#351=VERTEX_POINT('',#1121);
#352=VERTEX_POINT('',#1125);
#353=VERTEX_POINT('',#1129);
#354=VERTEX_POINT('',#1133);
#355=VERTEX_POINT('',#1137);
#356=VERTEX_POINT('',#1141);
#357=VERTEX_POINT('',#1145);
#358=VERTEX_POINT('',#1149);
#359=EDGE_CURVE('',#302,#303,#160,.T.);
#360=EDGE_CURVE('',#303,#304,#161,.T.);
#361=EDGE_CURVE('',#304,#305,#162,.T.);
#362=EDGE_CURVE('',#305,#302,#163,.T.);
#363=EDGE_CURVE('',#302,#306,#164,.T.);
#364=EDGE_CURVE('',#307,#306,#165,.T.);
#365=EDGE_CURVE('',#308,#307,#166,.T.);
#366=EDGE_CURVE('',#303,#308,#167,.T.);
#367=EDGE_CURVE('',#305,#309,#168,.T.);
#368=EDGE_CURVE('',#306,#309,#169,.T.);
#369=EDGE_CURVE('',#309,#310,#170,.T.);
#370=EDGE_CURVE('',#310,#311,#171,.T.);
#371=EDGE_CURVE('',#311,#306,#172,.T.);
#372=EDGE_CURVE('',#311,#312,#173,.T.);
#373=EDGE_CURVE('',#312,#307,#174,.T.);
#374=EDGE_CURVE('',#312,#313,#175,.T.);
#375=EDGE_CURVE('',#313,#314,#176,.T.);
#376=EDGE_CURVE('',#314,#307,#177,.T.);
#377=EDGE_CURVE('',#315,#314,#178,.T.);
#378=EDGE_CURVE('',#313,#316,#179,.T.);
#379=EDGE_CURVE('',#316,#315,#180,.T.);
#380=EDGE_CURVE('',#317,#315,#181,.T.);
#381=EDGE_CURVE('',#316,#318,#182,.T.);
#382=EDGE_CURVE('',#318,#317,#183,.T.);
#383=EDGE_CURVE('',#309,#317,#184,.T.);
#384=EDGE_CURVE('',#318,#310,#185,.T.);
#385=EDGE_CURVE('',#319,#319,#45,.T.);
#386=EDGE_CURVE('',#320,#320,#46,.T.);
#387=EDGE_CURVE('',#321,#321,#47,.T.);
#388=EDGE_CURVE('',#322,#322,#48,.T.);
#389=EDGE_CURVE('',#323,#323,#49,.T.);
#390=EDGE_CURVE('',#324,#324,#50,.T.);
#391=EDGE_CURVE('',#325,#325,#51,.T.);
#392=EDGE_CURVE('',#326,#327,#186,.T.);
#393=EDGE_CURVE('',#326,#328,#187,.T.);
#394=EDGE_CURVE('',#329,#328,#188,.T.);
#395=EDGE_CURVE('',#327,#329,#189,.T.);
#396=EDGE_CURVE('',#330,#331,#190,.T.);
#397=EDGE_CURVE('',#330,#332,#191,.T.);
#398=EDGE_CURVE('',#332,#333,#192,.T.);
#399=EDGE_CURVE('',#331,#333,#193,.T.);
#400=EDGE_CURVE('',#333,#328,#194,.T.);
#401=EDGE_CURVE('',#331,#326,#195,.T.);
#402=EDGE_CURVE('',#332,#329,#196,.T.);
#403=EDGE_CURVE('',#327,#330,#197,.T.);
#404=EDGE_CURVE('',#334,#335,#198,.T.);
#405=EDGE_CURVE('',#334,#336,#199,.T.);
#406=EDGE_CURVE('',#337,#336,#200,.T.);
#407=EDGE_CURVE('',#335,#337,#201,.T.);
#408=EDGE_CURVE('',#338,#339,#202,.T.);
#409=EDGE_CURVE('',#338,#340,#203,.T.);
#410=EDGE_CURVE('',#340,#341,#204,.T.);
#411=EDGE_CURVE('',#339,#341,#205,.T.);
#412=EDGE_CURVE('',#341,#336,#206,.T.);
#413=EDGE_CURVE('',#339,#334,#207,.T.);
#414=EDGE_CURVE('',#340,#337,#208,.T.);
#415=EDGE_CURVE('',#335,#338,#209,.T.);
#416=EDGE_CURVE('',#319,#342,#210,.T.);
#417=EDGE_CURVE('',#342,#342,#52,.T.);
#418=EDGE_CURVE('',#342,#343,#211,.T.);
#419=EDGE_CURVE('',#343,#343,#53,.T.);
#420=EDGE_CURVE('',#320,#344,#212,.T.);
#421=EDGE_CURVE('',#344,#344,#54,.T.);
#422=EDGE_CURVE('',#344,#345,#213,.T.);
#423=EDGE_CURVE('',#345,#345,#55,.T.);
#424=EDGE_CURVE('',#325,#346,#214,.T.);
#425=EDGE_CURVE('',#346,#346,#56,.T.);
#426=EDGE_CURVE('',#346,#347,#215,.T.);
#427=EDGE_CURVE('',#347,#347,#57,.T.);
#428=EDGE_CURVE('',#324,#348,#216,.T.);
#429=EDGE_CURVE('',#348,#348,#58,.T.);
#430=EDGE_CURVE('',#348,#349,#217,.T.);
#431=EDGE_CURVE('',#349,#349,#59,.T.);
#432=EDGE_CURVE('',#323,#350,#218,.T.);
#433=EDGE_CURVE('',#350,#350,#60,.T.);
#434=EDGE_CURVE('',#350,#351,#219,.T.);
#435=EDGE_CURVE('',#351,#351,#61,.T.);
#436=EDGE_CURVE('',#322,#352,#220,.T.);
#437=EDGE_CURVE('',#352,#352,#62,.T.);
#438=EDGE_CURVE('',#352,#353,#221,.T.);
#439=EDGE_CURVE('',#353,#353,#63,.T.);
#440=EDGE_CURVE('',#321,#354,#222,.T.);
#441=EDGE_CURVE('',#354,#354,#64,.T.);
#442=EDGE_CURVE('',#354,#355,#223,.T.);
#443=EDGE_CURVE('',#355,#355,#65,.T.);
#444=EDGE_CURVE('',#356,#314,#224,.T.);
#445=EDGE_CURVE('',#308,#356,#225,.T.);
#446=EDGE_CURVE('',#357,#315,#226,.T.);
#447=EDGE_CURVE('',#356,#357,#227,.T.);
#448=EDGE_CURVE('',#358,#317,#228,.T.);
#449=EDGE_CURVE('',#357,#358,#229,.T.);
#450=EDGE_CURVE('',#358,#304,#230,.T.);
#451=ORIENTED_EDGE('',*,*,#359,.T.);
#452=ORIENTED_EDGE('',*,*,#360,.T.);
#453=ORIENTED_EDGE('',*,*,#361,.T.);
#454=ORIENTED_EDGE('',*,*,#362,.T.);
#455=ORIENTED_EDGE('',*,*,#359,.F.);
#456=ORIENTED_EDGE('',*,*,#363,.T.);
#457=ORIENTED_EDGE('',*,*,#364,.F.);
#458=ORIENTED_EDGE('',*,*,#365,.F.);
#459=ORIENTED_EDGE('',*,*,#366,.F.);
#460=ORIENTED_EDGE('',*,*,#362,.F.);
#461=ORIENTED_EDGE('',*,*,#367,.T.);
#462=ORIENTED_EDGE('',*,*,#368,.F.);
#463=ORIENTED_EDGE('',*,*,#363,.F.);
#464=ORIENTED_EDGE('',*,*,#368,.T.);
#465=ORIENTED_EDGE('',*,*,#369,.T.);
#466=ORIENTED_EDGE('',*,*,#370,.T.);
#467=ORIENTED_EDGE('',*,*,#371,.T.);
#468=ORIENTED_EDGE('',*,*,#372,.T.);
#469=ORIENTED_EDGE('',*,*,#373,.T.);
#470=ORIENTED_EDGE('',*,*,#364,.T.);
#471=ORIENTED_EDGE('',*,*,#371,.F.);
#472=ORIENTED_EDGE('',*,*,#373,.F.);
#473=ORIENTED_EDGE('',*,*,#374,.T.);
#474=ORIENTED_EDGE('',*,*,#375,.T.);
#475=ORIENTED_EDGE('',*,*,#376,.T.);
#476=ORIENTED_EDGE('',*,*,#377,.T.);
#477=ORIENTED_EDGE('',*,*,#375,.F.);
#478=ORIENTED_EDGE('',*,*,#378,.T.);
#479=ORIENTED_EDGE('',*,*,#379,.T.);
#480=ORIENTED_EDGE('',*,*,#380,.T.);
#481=ORIENTED_EDGE('',*,*,#379,.F.);
#482=ORIENTED_EDGE('',*,*,#381,.T.);
#483=ORIENTED_EDGE('',*,*,#382,.T.);
#484=ORIENTED_EDGE('',*,*,#369,.F.);
#485=ORIENTED_EDGE('',*,*,#383,.T.);
#486=ORIENTED_EDGE('',*,*,#382,.F.);
#487=ORIENTED_EDGE('',*,*,#384,.T.);
#488=ORIENTED_EDGE('',*,*,#370,.F.);
#489=ORIENTED_EDGE('',*,*,#384,.F.);
#490=ORIENTED_EDGE('',*,*,#381,.F.);
#491=ORIENTED_EDGE('',*,*,#378,.F.);
#492=ORIENTED_EDGE('',*,*,#374,.F.);
#493=ORIENTED_EDGE('',*,*,#372,.F.);
#494=ORIENTED_EDGE('',*,*,#385,.T.);
#495=ORIENTED_EDGE('',*,*,#386,.T.);
#496=ORIENTED_EDGE('',*,*,#387,.T.);
#497=ORIENTED_EDGE('',*,*,#388,.T.);
#498=ORIENTED_EDGE('',*,*,#389,.T.);
#499=ORIENTED_EDGE('',*,*,#390,.T.);
#500=ORIENTED_EDGE('',*,*,#391,.T.);
#501=ORIENTED_EDGE('',*,*,#392,.F.);
#502=ORIENTED_EDGE('',*,*,#393,.T.);
#503=ORIENTED_EDGE('',*,*,#394,.F.);
#504=ORIENTED_EDGE('',*,*,#395,.F.);
#505=ORIENTED_EDGE('',*,*,#396,.F.);
#506=ORIENTED_EDGE('',*,*,#397,.T.);
#507=ORIENTED_EDGE('',*,*,#398,.T.);
#508=ORIENTED_EDGE('',*,*,#399,.F.);
#509=ORIENTED_EDGE('',*,*,#399,.T.);
#510=ORIENTED_EDGE('',*,*,#400,.T.);
#511=ORIENTED_EDGE('',*,*,#393,.F.);
#512=ORIENTED_EDGE('',*,*,#401,.F.);
#513=ORIENTED_EDGE('',*,*,#398,.F.);
#514=ORIENTED_EDGE('',*,*,#402,.T.);
#515=ORIENTED_EDGE('',*,*,#394,.T.);
#516=ORIENTED_EDGE('',*,*,#400,.F.);
#517=ORIENTED_EDGE('',*,*,#397,.F.);
#518=ORIENTED_EDGE('',*,*,#403,.F.);
#519=ORIENTED_EDGE('',*,*,#395,.T.);
#520=ORIENTED_EDGE('',*,*,#402,.F.);
#521=ORIENTED_EDGE('',*,*,#404,.F.);
#522=ORIENTED_EDGE('',*,*,#405,.T.);
#523=ORIENTED_EDGE('',*,*,#406,.F.);
#524=ORIENTED_EDGE('',*,*,#407,.F.);
#525=ORIENTED_EDGE('',*,*,#408,.F.);
#526=ORIENTED_EDGE('',*,*,#409,.T.);
#527=ORIENTED_EDGE('',*,*,#410,.T.);
#528=ORIENTED_EDGE('',*,*,#411,.F.);
#529=ORIENTED_EDGE('',*,*,#411,.T.);
#530=ORIENTED_EDGE('',*,*,#412,.T.);
#531=ORIENTED_EDGE('',*,*,#405,.F.);
#532=ORIENTED_EDGE('',*,*,#413,.F.);
#533=ORIENTED_EDGE('',*,*,#410,.F.);
#534=ORIENTED_EDGE('',*,*,#414,.T.);
#535=ORIENTED_EDGE('',*,*,#406,.T.);
#536=ORIENTED_EDGE('',*,*,#412,.F.);
#537=ORIENTED_EDGE('',*,*,#409,.F.);
#538=ORIENTED_EDGE('',*,*,#415,.F.);
#539=ORIENTED_EDGE('',*,*,#407,.T.);
#540=ORIENTED_EDGE('',*,*,#414,.F.);
#541=ORIENTED_EDGE('',*,*,#385,.F.);
#542=ORIENTED_EDGE('',*,*,#416,.T.);
#543=ORIENTED_EDGE('',*,*,#417,.T.);
#544=ORIENTED_EDGE('',*,*,#416,.F.);
#545=ORIENTED_EDGE('',*,*,#417,.F.);
#546=ORIENTED_EDGE('',*,*,#418,.T.);
#547=ORIENTED_EDGE('',*,*,#419,.F.);
#548=ORIENTED_EDGE('',*,*,#418,.F.);
#549=ORIENTED_EDGE('',*,*,#386,.F.);
#550=ORIENTED_EDGE('',*,*,#420,.T.);
#551=ORIENTED_EDGE('',*,*,#421,.T.);
#552=ORIENTED_EDGE('',*,*,#420,.F.);
#553=ORIENTED_EDGE('',*,*,#421,.F.);
#554=ORIENTED_EDGE('',*,*,#422,.T.);
#555=ORIENTED_EDGE('',*,*,#423,.F.);
#556=ORIENTED_EDGE('',*,*,#422,.F.);
#557=ORIENTED_EDGE('',*,*,#391,.F.);
#558=ORIENTED_EDGE('',*,*,#424,.T.);
#559=ORIENTED_EDGE('',*,*,#425,.T.);
#560=ORIENTED_EDGE('',*,*,#424,.F.);
#561=ORIENTED_EDGE('',*,*,#425,.F.);
#562=ORIENTED_EDGE('',*,*,#426,.T.);
#563=ORIENTED_EDGE('',*,*,#427,.F.);
#564=ORIENTED_EDGE('',*,*,#426,.F.);
#565=ORIENTED_EDGE('',*,*,#390,.F.);
#566=ORIENTED_EDGE('',*,*,#428,.T.);
#567=ORIENTED_EDGE('',*,*,#429,.T.);
#568=ORIENTED_EDGE('',*,*,#428,.F.);
#569=ORIENTED_EDGE('',*,*,#429,.F.);
#570=ORIENTED_EDGE('',*,*,#430,.T.);
#571=ORIENTED_EDGE('',*,*,#431,.F.);
#572=ORIENTED_EDGE('',*,*,#430,.F.);
#573=ORIENTED_EDGE('',*,*,#389,.F.);
#574=ORIENTED_EDGE('',*,*,#432,.T.);
#575=ORIENTED_EDGE('',*,*,#433,.T.);
#576=ORIENTED_EDGE('',*,*,#432,.F.);
#577=ORIENTED_EDGE('',*,*,#433,.F.);
#578=ORIENTED_EDGE('',*,*,#434,.T.);
#579=ORIENTED_EDGE('',*,*,#435,.F.);
#580=ORIENTED_EDGE('',*,*,#434,.F.);
#581=ORIENTED_EDGE('',*,*,#388,.F.);
#582=ORIENTED_EDGE('',*,*,#436,.T.);
#583=ORIENTED_EDGE('',*,*,#437,.T.);
#584=ORIENTED_EDGE('',*,*,#436,.F.);
#585=ORIENTED_EDGE('',*,*,#437,.F.);
#586=ORIENTED_EDGE('',*,*,#438,.T.);
#587=ORIENTED_EDGE('',*,*,#439,.F.);
#588=ORIENTED_EDGE('',*,*,#438,.F.);
#589=ORIENTED_EDGE('',*,*,#387,.F.);
#590=ORIENTED_EDGE('',*,*,#440,.T.);
#591=ORIENTED_EDGE('',*,*,#441,.T.);
#592=ORIENTED_EDGE('',*,*,#440,.F.);
#593=ORIENTED_EDGE('',*,*,#441,.F.);
#594=ORIENTED_EDGE('',*,*,#442,.T.);
#595=ORIENTED_EDGE('',*,*,#443,.F.);
#596=ORIENTED_EDGE('',*,*,#442,.F.);
#597=ORIENTED_EDGE('',*,*,#376,.F.);
#598=ORIENTED_EDGE('',*,*,#444,.F.);
#599=ORIENTED_EDGE('',*,*,#445,.F.);
#600=ORIENTED_EDGE('',*,*,#365,.T.);
#601=ORIENTED_EDGE('',*,*,#377,.F.);
#602=ORIENTED_EDGE('',*,*,#446,.F.);
#603=ORIENTED_EDGE('',*,*,#447,.F.);
#604=ORIENTED_EDGE('',*,*,#444,.T.);
#605=ORIENTED_EDGE('',*,*,#380,.F.);
#606=ORIENTED_EDGE('',*,*,#448,.F.);
#607=ORIENTED_EDGE('',*,*,#449,.F.);
#608=ORIENTED_EDGE('',*,*,#446,.T.);
#609=ORIENTED_EDGE('',*,*,#361,.F.);
#610=ORIENTED_EDGE('',*,*,#450,.F.);
#611=ORIENTED_EDGE('',*,*,#448,.T.);
#612=ORIENTED_EDGE('',*,*,#383,.F.);
#613=ORIENTED_EDGE('',*,*,#367,.F.);
#614=ORIENTED_EDGE('',*,*,#360,.F.);
#615=ORIENTED_EDGE('',*,*,#366,.T.);
#616=ORIENTED_EDGE('',*,*,#445,.T.);
#617=ORIENTED_EDGE('',*,*,#447,.T.);
#618=ORIENTED_EDGE('',*,*,#449,.T.);
#619=ORIENTED_EDGE('',*,*,#450,.T.);
#620=ORIENTED_EDGE('',*,*,#408,.T.);
#621=ORIENTED_EDGE('',*,*,#413,.T.);
#622=ORIENTED_EDGE('',*,*,#404,.T.);
#623=ORIENTED_EDGE('',*,*,#415,.T.);
#624=ORIENTED_EDGE('',*,*,#427,.T.);
#625=ORIENTED_EDGE('',*,*,#431,.T.);
#626=ORIENTED_EDGE('',*,*,#435,.T.);
#627=ORIENTED_EDGE('',*,*,#439,.T.);
#628=ORIENTED_EDGE('',*,*,#443,.T.);
#629=ORIENTED_EDGE('',*,*,#423,.T.);
#630=ORIENTED_EDGE('',*,*,#419,.T.);
#631=ORIENTED_EDGE('',*,*,#396,.T.);
#632=ORIENTED_EDGE('',*,*,#401,.T.);
#633=ORIENTED_EDGE('',*,*,#392,.T.);
#634=ORIENTED_EDGE('',*,*,#403,.T.);
#635=PLANE('',#713);
#636=PLANE('',#714);
#637=PLANE('',#715);
#638=PLANE('',#716);
#639=PLANE('',#717);
#640=PLANE('',#718);
#641=PLANE('',#719);
#642=PLANE('',#720);
#643=PLANE('',#721);
#644=PLANE('',#722);
#645=PLANE('',#730);
#646=PLANE('',#731);
#647=PLANE('',#732);
#648=PLANE('',#733);
#649=PLANE('',#734);
#650=PLANE('',#735);
#651=PLANE('',#736);
#652=PLANE('',#737);
#653=PLANE('',#738);
#654=PLANE('',#739);
#655=PLANE('',#768);
#656=PLANE('',#769);
#657=PLANE('',#770);
#658=PLANE('',#771);
#659=PLANE('',#772);
#660=ADVANCED_FACE('',(#66),#635,.T.);
#661=ADVANCED_FACE('',(#67),#636,.T.);
#662=ADVANCED_FACE('',(#68),#637,.T.);
#663=ADVANCED_FACE('',(#69),#638,.T.);
#664=ADVANCED_FACE('',(#70),#639,.T.);
#665=ADVANCED_FACE('',(#71),#640,.T.);
#666=ADVANCED_FACE('',(#72),#641,.T.);
#667=ADVANCED_FACE('',(#73),#642,.T.);
#668=ADVANCED_FACE('',(#74),#643,.T.);
#669=ADVANCED_FACE('',(#75,#29,#30,#31,#32,#33,#34,#35),#644,.T.);
#670=ADVANCED_FACE('',(#76),#645,.T.);
#671=ADVANCED_FACE('',(#77),#646,.F.);
#672=ADVANCED_FACE('',(#78),#647,.F.);
#673=ADVANCED_FACE('',(#79),#648,.F.);
#674=ADVANCED_FACE('',(#80),#649,.F.);
#675=ADVANCED_FACE('',(#81),#650,.T.);
#676=ADVANCED_FACE('',(#82),#651,.F.);
#677=ADVANCED_FACE('',(#83),#652,.F.);
#678=ADVANCED_FACE('',(#84),#653,.F.);
#679=ADVANCED_FACE('',(#85),#654,.F.);
#680=ADVANCED_FACE('',(#86),#22,.F.);
#681=ADVANCED_FACE('',(#87),#15,.F.);
#682=ADVANCED_FACE('',(#88),#23,.F.);
#683=ADVANCED_FACE('',(#89),#16,.F.);
#684=ADVANCED_FACE('',(#90),#24,.F.);
#685=ADVANCED_FACE('',(#91),#17,.F.);
#686=ADVANCED_FACE('',(#92),#25,.F.);
#687=ADVANCED_FACE('',(#93),#18,.F.);
#688=ADVANCED_FACE('',(#94),#26,.F.);
#689=ADVANCED_FACE('',(#95),#19,.F.);
#690=ADVANCED_FACE('',(#96),#27,.F.);
#691=ADVANCED_FACE('',(#97),#20,.F.);
#692=ADVANCED_FACE('',(#98),#28,.F.);
#693=ADVANCED_FACE('',(#99),#21,.F.);
#694=ADVANCED_FACE('',(#100),#655,.T.);
#695=ADVANCED_FACE('',(#101),#656,.T.);
#696=ADVANCED_FACE('',(#102),#657,.T.);
#697=ADVANCED_FACE('',(#103),#658,.T.);
#698=ADVANCED_FACE('',(#104,#36,#37,#38,#39,#40,#41,#42,#43,#44),#659,.F.);
#699=CLOSED_SHELL('',(#660,#661,#662,#663,#664,#665,#666,#667,#668,#669,
#670,#671,#672,#673,#674,#675,#676,#677,#678,#679,#680,#681,#682,#683,#684,
#685,#686,#687,#688,#689,#690,#691,#692,#693,#694,#695,#696,#697,#698));
#700=DERIVED_UNIT_ELEMENT(#702,1.);
#701=DERIVED_UNIT_ELEMENT(#1160,-3.);
#702=(
MASS_UNIT()
NAMED_UNIT(*)
SI_UNIT(.KILO.,.GRAM.)
);
#703=DERIVED_UNIT((#700,#701));
#704=MEASURE_REPRESENTATION_ITEM('density measure',
POSITIVE_RATIO_MEASURE(7850.),#703);
#705=PROPERTY_DEFINITION_REPRESENTATION(#710,#707);
#706=PROPERTY_DEFINITION_REPRESENTATION(#711,#708);
#707=REPRESENTATION('material name',(#709),#1157);
#708=REPRESENTATION('density',(#704),#1157);
#709=DESCRIPTIVE_REPRESENTATION_ITEM('Acero','Acero');
#710=PROPERTY_DEFINITION('material property','material name',#1167);
#711=PROPERTY_DEFINITION('material property','density of part',#1167);
#712=AXIS2_PLACEMENT_3D('',#966,#773,#774);
#713=AXIS2_PLACEMENT_3D('',#967,#775,#776);
#714=AXIS2_PLACEMENT_3D('',#976,#781,#782);
#715=AXIS2_PLACEMENT_3D('',#984,#787,#788);
#716=AXIS2_PLACEMENT_3D('',#988,#791,#792);
#717=AXIS2_PLACEMENT_3D('',#994,#796,#797);
#718=AXIS2_PLACEMENT_3D('',#998,#800,#801);
#719=AXIS2_PLACEMENT_3D('',#1004,#805,#806);
#720=AXIS2_PLACEMENT_3D('',#1010,#810,#811);
#721=AXIS2_PLACEMENT_3D('',#1016,#815,#816);
#722=AXIS2_PLACEMENT_3D('',#1019,#819,#820);
#723=AXIS2_PLACEMENT_3D('',#1021,#821,#822);
#724=AXIS2_PLACEMENT_3D('',#1023,#823,#824);
#725=AXIS2_PLACEMENT_3D('',#1025,#825,#826);
#726=AXIS2_PLACEMENT_3D('',#1027,#827,#828);
#727=AXIS2_PLACEMENT_3D('',#1029,#829,#830);
#728=AXIS2_PLACEMENT_3D('',#1031,#831,#832);
#729=AXIS2_PLACEMENT_3D('',#1033,#833,#834);
#730=AXIS2_PLACEMENT_3D('',#1034,#835,#836);
#731=AXIS2_PLACEMENT_3D('',#1043,#841,#842);
#732=AXIS2_PLACEMENT_3D('',#1052,#847,#848);
#733=AXIS2_PLACEMENT_3D('',#1055,#851,#852);
#734=AXIS2_PLACEMENT_3D('',#1057,#854,#855);
#735=AXIS2_PLACEMENT_3D('',#1059,#857,#858);
#736=AXIS2_PLACEMENT_3D('',#1068,#863,#864);
#737=AXIS2_PLACEMENT_3D('',#1077,#869,#870);
#738=AXIS2_PLACEMENT_3D('',#1080,#873,#874);
#739=AXIS2_PLACEMENT_3D('',#1082,#876,#877);
#740=AXIS2_PLACEMENT_3D('',#1084,#879,#880);
#741=AXIS2_PLACEMENT_3D('',#1087,#882,#883);
#742=AXIS2_PLACEMENT_3D('',#1088,#884,#885);
#743=AXIS2_PLACEMENT_3D('',#1091,#887,#888);
#744=AXIS2_PLACEMENT_3D('',#1092,#889,#890);
#745=AXIS2_PLACEMENT_3D('',#1095,#892,#893);
#746=AXIS2_PLACEMENT_3D('',#1096,#894,#895);
#747=AXIS2_PLACEMENT_3D('',#1099,#897,#898);
#748=AXIS2_PLACEMENT_3D('',#1100,#899,#900);
#749=AXIS2_PLACEMENT_3D('',#1103,#902,#903);
#750=AXIS2_PLACEMENT_3D('',#1104,#904,#905);
#751=AXIS2_PLACEMENT_3D('',#1107,#907,#908);
#752=AXIS2_PLACEMENT_3D('',#1108,#909,#910);
#753=AXIS2_PLACEMENT_3D('',#1111,#912,#913);
#754=AXIS2_PLACEMENT_3D('',#1112,#914,#915);
#755=AXIS2_PLACEMENT_3D('',#1115,#917,#918);
#756=AXIS2_PLACEMENT_3D('',#1116,#919,#920);
#757=AXIS2_PLACEMENT_3D('',#1119,#922,#923);
#758=AXIS2_PLACEMENT_3D('',#1120,#924,#925);
#759=AXIS2_PLACEMENT_3D('',#1123,#927,#928);
#760=AXIS2_PLACEMENT_3D('',#1124,#929,#930);
#761=AXIS2_PLACEMENT_3D('',#1127,#932,#933);
#762=AXIS2_PLACEMENT_3D('',#1128,#934,#935);
#763=AXIS2_PLACEMENT_3D('',#1131,#937,#938);
#764=AXIS2_PLACEMENT_3D('',#1132,#939,#940);
#765=AXIS2_PLACEMENT_3D('',#1135,#942,#943);
#766=AXIS2_PLACEMENT_3D('',#1136,#944,#945);
#767=AXIS2_PLACEMENT_3D('',#1139,#947,#948);
#768=AXIS2_PLACEMENT_3D('',#1140,#949,#950);
#769=AXIS2_PLACEMENT_3D('',#1144,#953,#954);
#770=AXIS2_PLACEMENT_3D('',#1148,#957,#958);
#771=AXIS2_PLACEMENT_3D('',#1152,#961,#962);
#772=AXIS2_PLACEMENT_3D('',#1154,#964,#965);
#773=DIRECTION('axis',(0.,0.,1.));
#774=DIRECTION('refdir',(1.,0.,0.));
#775=DIRECTION('center_axis',(-0.707106781186422,-7.16498584423299E-18,
0.707106781186673));
#776=DIRECTION('ref_axis',(-2.11911784769983E-16,-1.,-2.22044604925031E-16));
#777=DIRECTION('',(0.707106781186673,-3.21740257927004E-16,0.707106781186422));
#778=DIRECTION('',(1.25316179146402E-16,1.,1.35448999301481E-16));
#779=DIRECTION('',(-0.707106781186673,3.43094278008682E-16,-0.707106781186422));
#780=DIRECTION('',(-1.25316179146402E-16,-1.,-1.35448999301481E-16));
#781=DIRECTION('center_axis',(-2.32964831396754E-16,-1.,-2.22044604925031E-16));
#782=DIRECTION('ref_axis',(-1.,2.32964831396754E-16,2.22044604925E-16));
#783=DIRECTION('',(0.,2.22044604925031E-16,-1.));
#784=DIRECTION('',(-1.,2.32964831396754E-16,5.17285839489188E-32));
#785=DIRECTION('',(0.,2.22044604925031E-16,-1.));
#786=DIRECTION('',(1.,-2.32964831396754E-16,-2.22044604925E-16));
#787=DIRECTION('center_axis',(-1.,1.25316179146402E-16,2.78257814892773E-32));
#788=DIRECTION('ref_axis',(1.25316179146402E-16,1.,1.35448999301481E-16));
#789=DIRECTION('',(0.,2.22044604925031E-16,-1.));
#790=DIRECTION('',(1.25316179146402E-16,1.,2.22044604925031E-16));
#791=DIRECTION('center_axis',(-0.707106781186548,2.45621165935187E-16,-0.707106781186548));
#792=DIRECTION('ref_axis',(-1.25316179146402E-16,-1.,-2.22044604925031E-16));
#793=DIRECTION('',(0.577350269189588,-0.577350269189702,-0.577350269189588));
#794=DIRECTION('',(-1.25316179146402E-16,-1.,-2.22044604925031E-16));
#795=DIRECTION('',(-0.577350269189634,-0.577350269189609,0.577350269189634));
#796=DIRECTION('center_axis',(-1.64731012058626E-16,-0.707106781186547,
-0.707106781186548));
#797=DIRECTION('ref_axis',(1.,-2.32964831396754E-16,-5.17285839489188E-32));
#798=DIRECTION('',(1.,-2.32964831396754E-16,-5.17285839489188E-32));
#799=DIRECTION('',(0.577350269189694,-0.577350269189592,0.577350269189592));
#800=DIRECTION('center_axis',(0.707106781186485,3.62329028927272E-17,-0.70710678118661));
#801=DIRECTION('ref_axis',(1.70803542250024E-16,1.,2.22044604925031E-16));
#802=DIRECTION('',(1.70803542250024E-16,1.,2.22044604925031E-16));
#803=DIRECTION('',(0.577350269189656,0.577350269189668,0.577350269189553));
#804=DIRECTION('',(-1.70803542250024E-16,-1.,-2.22044604925031E-16));
#805=DIRECTION('center_axis',(-8.71576399210438E-33,0.707106781186477,-0.707106781186618));
#806=DIRECTION('ref_axis',(-1.,-1.23259516440783E-32,-2.73691106313441E-48));
#807=DIRECTION('',(1.,1.23259516440783E-32,2.73691106313441E-48));
#808=DIRECTION('',(-1.,-1.23259516440783E-32,-2.73691106313441E-48));
#809=DIRECTION('',(0.577350269189656,0.577350269189668,0.577350269189553));
#810=DIRECTION('center_axis',(0.707106781186485,-1.23862849518373E-15,-0.70710678118661));
#811=DIRECTION('ref_axis',(1.97372982155583E-15,1.,2.22044604925031E-16));
#812=DIRECTION('',(-1.97372982155583E-15,-1.,-2.22044604925031E-16));
#813=DIRECTION('',(1.97372982155583E-15,1.,2.22044604925031E-16));
#814=DIRECTION('',(0.577350269189656,0.577350269189667,0.577350269189554));
#815=DIRECTION('center_axis',(1.86085032140281E-16,0.707106781186478,-0.707106781186617));
#816=DIRECTION('ref_axis',(-1.,2.63163976207445E-16,5.84341411274824E-32));
#817=DIRECTION('',(1.,-2.63163976207444E-16,-5.84341411274823E-32));
#818=DIRECTION('',(-1.,2.63163976207444E-16,5.84341411274823E-32));
#819=DIRECTION('center_axis',(0.,2.22044604925031E-16,-1.));
#820=DIRECTION('ref_axis',(0.,1.,2.22044604925031E-16));
#821=DIRECTION('center_axis',(0.,-2.22044604925031E-16,1.));
#822=DIRECTION('ref_axis',(0.,1.,2.22044604925031E-16));
#823=DIRECTION('center_axis',(0.,-2.22044604925031E-16,1.));
#824=DIRECTION('ref_axis',(0.,1.,2.22044604925031E-16));
#825=DIRECTION('center_axis',(0.,-2.22044604925031E-16,1.));
#826=DIRECTION('ref_axis',(0.,1.,2.22044604925031E-16));
#827=DIRECTION('center_axis',(0.,-2.22044604925031E-16,1.));
#828=DIRECTION('ref_axis',(0.,1.,2.22044604925031E-16));
#829=DIRECTION('center_axis',(0.,-2.22044604925031E-16,1.));
#830=DIRECTION('ref_axis',(0.,1.,2.22044604925031E-16));
#831=DIRECTION('center_axis',(0.,-2.22044604925031E-16,1.));
#832=DIRECTION('ref_axis',(0.,1.,2.22044604925031E-16));
#833=DIRECTION('center_axis',(0.,-2.22044604925031E-16,1.));
#834=DIRECTION('ref_axis',(0.,1.,2.22044604925031E-16));
#835=DIRECTION('center_axis',(-1.,0.,0.));
#836=DIRECTION('ref_axis',(0.,-1.,-2.22044604925031E-16));
#837=DIRECTION('',(0.,1.,1.35448999301481E-16));
#838=DIRECTION('',(0.,-2.22044604925031E-16,1.));
#839=DIRECTION('',(0.,-1.,-2.22044604925031E-16));
#840=DIRECTION('',(0.,-2.22044604925031E-16,1.));
#841=DIRECTION('center_axis',(-1.,0.,0.));
#842=DIRECTION('ref_axis',(0.,-1.,-2.22044604925031E-16));
#843=DIRECTION('',(0.,-1.,-1.35448999301481E-16));
#844=DIRECTION('',(0.,-2.22044604925031E-16,1.));
#845=DIRECTION('',(0.,-1.,-2.22044604925031E-16));
#846=DIRECTION('',(0.,-2.22044604925031E-16,1.));
#847=DIRECTION('center_axis',(0.,1.,2.22044604925031E-16));
#848=DIRECTION('ref_axis',(-1.,0.,0.));
#849=DIRECTION('',(-1.,0.,0.));
#850=DIRECTION('',(-1.,-4.93038065763063E-32,2.22044604925E-16));
#851=DIRECTION('center_axis',(0.,2.22044604925031E-16,-1.));
#852=DIRECTION('ref_axis',(0.,1.,2.22044604925031E-16));
#853=DIRECTION('',(-1.,0.,0.));
#854=DIRECTION('center_axis',(0.,-1.,-2.22044604925031E-16));
#855=DIRECTION('ref_axis',(1.,0.,0.));
#856=DIRECTION('',(1.,4.93038065763063E-32,-2.22044604925E-16));
#857=DIRECTION('center_axis',(-1.,0.,0.));
#858=DIRECTION('ref_axis',(0.,-1.,-2.22044604925031E-16));
#859=DIRECTION('',(0.,1.,1.35448999301481E-16));
#860=DIRECTION('',(0.,-2.22044604925031E-16,1.));
#861=DIRECTION('',(0.,-1.,-2.22044604925031E-16));
#862=DIRECTION('',(0.,-2.22044604925031E-16,1.));
#863=DIRECTION('center_axis',(-1.,0.,0.));
#864=DIRECTION('ref_axis',(0.,-1.,-2.22044604925031E-16));
#865=DIRECTION('',(0.,-1.,-1.35448999301481E-16));
#866=DIRECTION('',(0.,-2.22044604925031E-16,1.));
#867=DIRECTION('',(0.,-1.,-2.22044604925031E-16));
#868=DIRECTION('',(0.,-2.22044604925031E-16,1.));
#869=DIRECTION('center_axis',(0.,1.,2.22044604925031E-16));
#870=DIRECTION('ref_axis',(-1.,0.,0.));
#871=DIRECTION('',(-1.,0.,0.));
#872=DIRECTION('',(-1.,-4.93038065763063E-32,2.22044604925E-16));
#873=DIRECTION('center_axis',(0.,2.22044604925031E-16,-1.));
#874=DIRECTION('ref_axis',(0.,1.,2.22044604925031E-16));
#875=DIRECTION('',(-1.,0.,0.));
#876=DIRECTION('center_axis',(0.,-1.,-2.22044604925031E-16));
#877=DIRECTION('ref_axis',(1.,0.,0.));
#878=DIRECTION('',(1.,4.93038065763063E-32,-2.22044604925E-16));
#879=DIRECTION('center_axis',(0.,2.22044604925031E-16,-1.));
#880=DIRECTION('ref_axis',(0.,1.,2.22044604925031E-16));
#881=DIRECTION('',(-8.65956056235493E-17,0.707106781186547,0.707106781186548));
#882=DIRECTION('center_axis',(0.,-2.22044604925031E-16,1.));
#883=DIRECTION('ref_axis',(0.,1.,2.22044604925031E-16));
#884=DIRECTION('center_axis',(0.,-2.22044604925031E-16,1.));
#885=DIRECTION('ref_axis',(0.,1.,2.22044604925031E-16));
#886=DIRECTION('',(0.,-2.22044604925031E-16,1.));
#887=DIRECTION('center_axis',(-2.22044604925E-16,1.35448999301481E-16,-1.));
#888=DIRECTION('ref_axis',(0.,1.,2.22044604925031E-16));
#889=DIRECTION('center_axis',(0.,2.22044604925031E-16,-1.));
#890=DIRECTION('ref_axis',(0.,1.,2.22044604925031E-16));
#891=DIRECTION('',(-8.65956056235493E-17,0.707106781186547,0.707106781186548));
#892=DIRECTION('center_axis',(0.,-2.22044604925031E-16,1.));
#893=DIRECTION('ref_axis',(0.,1.,2.22044604925031E-16));
#894=DIRECTION('center_axis',(0.,-2.22044604925031E-16,1.));
#895=DIRECTION('ref_axis',(0.,1.,2.22044604925031E-16));
#896=DIRECTION('',(0.,-2.22044604925031E-16,1.));
#897=DIRECTION('center_axis',(-2.22044604925E-16,1.35448999301481E-16,-1.));
#898=DIRECTION('ref_axis',(0.,1.,2.22044604925031E-16));
#899=DIRECTION('center_axis',(0.,2.22044604925031E-16,-1.));
#900=DIRECTION('ref_axis',(0.,1.,2.22044604925031E-16));
#901=DIRECTION('',(-8.65956056235493E-17,0.707106781186547,0.707106781186548));
#902=DIRECTION('center_axis',(0.,-2.22044604925031E-16,1.));
#903=DIRECTION('ref_axis',(0.,1.,2.22044604925031E-16));
#904=DIRECTION('center_axis',(0.,-2.22044604925031E-16,1.));
#905=DIRECTION('ref_axis',(0.,1.,2.22044604925031E-16));
#906=DIRECTION('',(0.,-2.22044604925031E-16,1.));
#907=DIRECTION('center_axis',(-2.22044604925E-16,1.35448999301481E-16,-1.));
#908=DIRECTION('ref_axis',(0.,1.,2.22044604925031E-16));
#909=DIRECTION('center_axis',(0.,2.22044604925031E-16,-1.));
#910=DIRECTION('ref_axis',(0.,1.,2.22044604925031E-16));
#911=DIRECTION('',(-8.65956056235493E-17,0.707106781186547,0.707106781186548));
#912=DIRECTION('center_axis',(0.,-2.22044604925031E-16,1.));
#913=DIRECTION('ref_axis',(0.,1.,2.22044604925031E-16));
#914=DIRECTION('center_axis',(0.,-2.22044604925031E-16,1.));
#915=DIRECTION('ref_axis',(0.,1.,2.22044604925031E-16));
#916=DIRECTION('',(0.,-2.22044604925031E-16,1.));
#917=DIRECTION('center_axis',(-2.22044604925E-16,1.35448999301481E-16,-1.));
#918=DIRECTION('ref_axis',(0.,1.,2.22044604925031E-16));
#919=DIRECTION('center_axis',(0.,2.22044604925031E-16,-1.));
#920=DIRECTION('ref_axis',(0.,1.,2.22044604925031E-16));
#921=DIRECTION('',(-8.65956056235493E-17,0.707106781186547,0.707106781186548));
#922=DIRECTION('center_axis',(0.,-2.22044604925031E-16,1.));
#923=DIRECTION('ref_axis',(0.,1.,2.22044604925031E-16));
#924=DIRECTION('center_axis',(0.,-2.22044604925031E-16,1.));
#925=DIRECTION('ref_axis',(0.,1.,2.22044604925031E-16));
#926=DIRECTION('',(0.,-2.22044604925031E-16,1.));
#927=DIRECTION('center_axis',(-2.22044604925E-16,1.35448999301481E-16,-1.));
#928=DIRECTION('ref_axis',(0.,1.,2.22044604925031E-16));
#929=DIRECTION('center_axis',(0.,2.22044604925031E-16,-1.));
#930=DIRECTION('ref_axis',(0.,1.,2.22044604925031E-16));
#931=DIRECTION('',(-8.65956056235493E-17,0.707106781186547,0.707106781186548));
#932=DIRECTION('center_axis',(0.,-2.22044604925031E-16,1.));
#933=DIRECTION('ref_axis',(0.,1.,2.22044604925031E-16));
#934=DIRECTION('center_axis',(0.,-2.22044604925031E-16,1.));
#935=DIRECTION('ref_axis',(0.,1.,2.22044604925031E-16));
#936=DIRECTION('',(0.,-2.22044604925031E-16,1.));
#937=DIRECTION('center_axis',(-2.22044604925E-16,1.35448999301481E-16,-1.));
#938=DIRECTION('ref_axis',(0.,1.,2.22044604925031E-16));
#939=DIRECTION('center_axis',(0.,2.22044604925031E-16,-1.));
#940=DIRECTION('ref_axis',(0.,1.,2.22044604925031E-16));
#941=DIRECTION('',(-8.65956056235493E-17,0.707106781186547,0.707106781186548));
#942=DIRECTION('center_axis',(0.,-2.22044604925031E-16,1.));
#943=DIRECTION('ref_axis',(0.,1.,2.22044604925031E-16));
#944=DIRECTION('center_axis',(0.,-2.22044604925031E-16,1.));
#945=DIRECTION('ref_axis',(0.,1.,2.22044604925031E-16));
#946=DIRECTION('',(0.,-2.22044604925031E-16,1.));
#947=DIRECTION('center_axis',(-2.22044604925E-16,1.35448999301481E-16,-1.));
#948=DIRECTION('ref_axis',(0.,1.,2.22044604925031E-16));
#949=DIRECTION('center_axis',(1.,-1.70803542250024E-16,-3.79260050587024E-32));
#950=DIRECTION('ref_axis',(-1.70803542250024E-16,-1.,-1.35448999301481E-16));
#951=DIRECTION('',(0.,2.22044604925031E-16,-1.));
#952=DIRECTION('',(1.70803542250024E-16,1.,1.35448999301481E-16));
#953=DIRECTION('center_axis',(-1.23259516440783E-32,1.,2.22044604925031E-16));
#954=DIRECTION('ref_axis',(1.,6.16297582203846E-32,-2.22044604925E-16));
#955=DIRECTION('',(0.,2.22044604925031E-16,-1.));
#956=DIRECTION('',(-1.,-6.16297582203846E-32,2.22044604925E-16));
#957=DIRECTION('center_axis',(1.,-1.97372982155583E-15,-4.38256058456117E-31));
#958=DIRECTION('ref_axis',(-1.97372982155583E-15,-1.,-1.35448999301481E-16));
#959=DIRECTION('',(0.,2.22044604925031E-16,-1.));
#960=DIRECTION('',(1.97372982155583E-15,1.,1.35448999301481E-16));
#961=DIRECTION('center_axis',(2.63163976207444E-16,1.,2.22044604925031E-16));
#962=DIRECTION('ref_axis',(1.,-2.63163976207444E-16,-2.22044604925E-16));
#963=DIRECTION('',(-1.,2.63163976207444E-16,2.22044604925E-16));
#964=DIRECTION('center_axis',(-2.22044604925E-16,1.35448999301481E-16,-1.));
#965=DIRECTION('ref_axis',(1.,6.16297582203846E-32,-2.22044604925E-16));
#966=CARTESIAN_POINT('',(0.,0.,0.));
#967=CARTESIAN_POINT('Origin',(-76.05,-35.4375,4.40000000000005));
#968=CARTESIAN_POINT('',(-76.25,-70.875,4.20000000000009));
#969=CARTESIAN_POINT('',(-75.85,-70.875,4.60000000000001));
#970=CARTESIAN_POINT('',(-37.9249999999865,-70.8750000000001,42.525));
#971=CARTESIAN_POINT('',(-75.85,70.8750000000001,4.59999999999994));
#972=CARTESIAN_POINT('',(-75.85,-35.4375,4.59999999999994));
#973=CARTESIAN_POINT('',(-76.25,70.8750000000001,4.20000000000009));
#974=CARTESIAN_POINT('',(-76.05,70.8750000000001,4.39999999999998));
#975=CARTESIAN_POINT('',(-76.25,-35.4375,4.20000000000009));
#976=CARTESIAN_POINT('Origin',(76.25,-70.8750000000001,4.60000000000001));
#977=CARTESIAN_POINT('',(-76.25,-70.875,0.399999999999991));
#978=CARTESIAN_POINT('',(-76.25,-70.875,4.60000000000001));
#979=CARTESIAN_POINT('',(76.25,-70.8750000000001,0.39999999999992));
#980=CARTESIAN_POINT('',(38.125,-70.8750000000001,0.399999999999991));
#981=CARTESIAN_POINT('',(76.25,-70.8750000000001,4.59999999999994));
#982=CARTESIAN_POINT('',(76.25,-70.8750000000001,4.59999999999994));
#983=CARTESIAN_POINT('',(-76.25,-70.875,4.60000000000001));
#984=CARTESIAN_POINT('Origin',(-76.25,-70.875,4.60000000000001));
#985=CARTESIAN_POINT('',(-76.25,70.8750000000001,0.39999999999992));
#986=CARTESIAN_POINT('',(-76.25,70.8750000000001,4.60000000000001));
#987=CARTESIAN_POINT('',(-76.25,-35.4375,0.399999999999991));
#988=CARTESIAN_POINT('Origin',(-76.05,-35.4375,0.200000000000031));
#989=CARTESIAN_POINT('',(-75.85,70.4750000000001,0.));
#990=CARTESIAN_POINT('',(-52.0437499999996,46.668749999995,-23.8062500000003));
#991=CARTESIAN_POINT('',(-75.85,-70.4750000000001,0.));
#992=CARTESIAN_POINT('',(-75.85,-35.4375,0.));
#993=CARTESIAN_POINT('',(-75.85,-70.4750000000001,0.));
#994=CARTESIAN_POINT('Origin',(38.125,-70.6750000000001,0.200000000000031));
#995=CARTESIAN_POINT('',(75.8500000000001,-70.4750000000001,0.));
#996=CARTESIAN_POINT('',(38.125,-70.4750000000001,0.));
#997=CARTESIAN_POINT('',(53.5437499999976,-48.1687500000016,-22.3062499999985));
#998=CARTESIAN_POINT('Origin',(76.05,26.4375,0.19999999999996));
#999=CARTESIAN_POINT('',(75.8500000000001,52.475,0.));
#1000=CARTESIAN_POINT('',(75.8500000000001,26.4375,0.));
#1001=CARTESIAN_POINT('',(76.25,52.875,0.39999999999992));
#1002=CARTESIAN_POINT('',(75.8500000000001,52.475,0.));
#1003=CARTESIAN_POINT('',(76.25,26.4375,0.39999999999992));
#1004=CARTESIAN_POINT('Origin',(29.375,52.675,0.19999999999996));
#1005=CARTESIAN_POINT('',(58.75,52.875,0.39999999999992));
#1006=CARTESIAN_POINT('',(29.375,52.875,0.39999999999992));
#1007=CARTESIAN_POINT('',(58.35,52.475,0.));
#1008=CARTESIAN_POINT('',(29.375,52.475,0.));
#1009=CARTESIAN_POINT('',(58.35,52.475,0.));
#1010=CARTESIAN_POINT('Origin',(58.5499999999999,35.4375,0.19999999999996));
#1011=CARTESIAN_POINT('',(58.75,70.875,0.39999999999992));
#1012=CARTESIAN_POINT('',(58.7499999999999,35.4375,0.39999999999992));
#1013=CARTESIAN_POINT('',(58.35,70.475,0.));
#1014=CARTESIAN_POINT('',(58.3499999999999,35.4375,0.));
#1015=CARTESIAN_POINT('',(58.35,70.475,0.));
#1016=CARTESIAN_POINT('Origin',(-38.125,70.675,0.19999999999996));
#1017=CARTESIAN_POINT('',(-38.125,70.8750000000001,0.39999999999992));
#1018=CARTESIAN_POINT('',(-38.125,70.4750000000001,0.));
#1019=CARTESIAN_POINT('Origin',(0.,0.,0.));
#1020=CARTESIAN_POINT('',(-26.25,-23.375,-9.71445146547012E-16));
#1021=CARTESIAN_POINT('Origin',(-26.25,-20.875,0.));
#1022=CARTESIAN_POINT('',(-51.25,-48.375,-6.24500451351651E-16));
#1023=CARTESIAN_POINT('Origin',(-51.25,-45.875,0.));
#1024=CARTESIAN_POINT('',(68.75,-11.25,-4.9960036108132E-15));
#1025=CARTESIAN_POINT('Origin',(68.75,-8.75000000000007,0.));
#1026=CARTESIAN_POINT('',(53.75,63.375,-4.9960036108132E-15));
#1027=CARTESIAN_POINT('Origin',(53.75,65.875,0.));
#1028=CARTESIAN_POINT('',(-8.75,63.3750000000001,-5.55111512312578E-15));
#1029=CARTESIAN_POINT('Origin',(-8.75,65.8750000000001,0.));
#1030=CARTESIAN_POINT('',(68.75,40.375,-4.9960036108132E-15));
#1031=CARTESIAN_POINT('Origin',(68.75,42.875,0.));
#1032=CARTESIAN_POINT('',(68.75,-63.375,-4.9960036108132E-15));
#1033=CARTESIAN_POINT('Origin',(68.75,-60.8750000000001,0.));
#1034=CARTESIAN_POINT('Origin',(65.85,-19.8125000000001,4.60000000000001));
#1035=CARTESIAN_POINT('',(65.85,-49.8125000000001,4.60000000000001));
#1036=CARTESIAN_POINT('',(65.85,-19.8125000000001,4.60000000000001));
#1037=CARTESIAN_POINT('',(65.85,-9.90625000000005,4.59999999999994));
#1038=CARTESIAN_POINT('',(65.85,-49.8125000000001,5.60000000000002));
#1039=CARTESIAN_POINT('',(65.85,-49.8125000000001,4.60000000000001));
#1040=CARTESIAN_POINT('',(65.85,-19.8125000000001,5.60000000000002));
#1041=CARTESIAN_POINT('',(65.85,-19.8125000000001,5.60000000000002));
#1042=CARTESIAN_POINT('',(65.85,-19.8125000000001,4.60000000000001));
#1043=CARTESIAN_POINT('Origin',(71.6499999999999,-19.8125000000001,4.60000000000001));
#1044=CARTESIAN_POINT('',(71.6499999999999,-19.8125000000001,4.60000000000001));
#1045=CARTESIAN_POINT('',(71.6499999999999,-49.8125000000001,4.60000000000001));
#1046=CARTESIAN_POINT('',(71.6499999999999,-9.90625000000005,4.59999999999994));
#1047=CARTESIAN_POINT('',(71.6499999999999,-19.8125000000001,5.60000000000002));
#1048=CARTESIAN_POINT('',(71.6499999999999,-19.8125000000001,4.60000000000001));
#1049=CARTESIAN_POINT('',(71.6499999999999,-49.8125000000001,5.60000000000002));
#1050=CARTESIAN_POINT('',(71.6499999999999,-19.8125000000001,5.60000000000002));
#1051=CARTESIAN_POINT('',(71.6499999999999,-49.8125000000001,4.60000000000001));
#1052=CARTESIAN_POINT('Origin',(68.75,-49.8125000000001,5.09999999999998));
#1053=CARTESIAN_POINT('',(68.75,-49.8125000000001,5.60000000000002));
#1054=CARTESIAN_POINT('',(34.375,-49.8125000000001,4.59999999999994));
#1055=CARTESIAN_POINT('Origin',(68.75,-34.8125000000001,5.60000000000002));
#1056=CARTESIAN_POINT('',(68.75,-19.8125000000001,5.60000000000002));
#1057=CARTESIAN_POINT('Origin',(68.75,-19.8125000000001,5.09999999999998));
#1058=CARTESIAN_POINT('',(34.375,-19.8125000000001,4.59999999999994));
#1059=CARTESIAN_POINT('Origin',(65.85,32.0624999999999,4.60000000000001));
#1060=CARTESIAN_POINT('',(65.85,2.06249999999994,4.60000000000001));
#1061=CARTESIAN_POINT('',(65.85,32.0624999999999,4.60000000000001));
#1062=CARTESIAN_POINT('',(65.85,16.03125,4.59999999999994));
#1063=CARTESIAN_POINT('',(65.85,2.06249999999994,5.60000000000002));
#1064=CARTESIAN_POINT('',(65.85,2.06249999999994,4.60000000000001));
#1065=CARTESIAN_POINT('',(65.85,32.0624999999999,5.60000000000002));
#1066=CARTESIAN_POINT('',(65.85,32.0624999999999,5.60000000000002));
#1067=CARTESIAN_POINT('',(65.85,32.0624999999999,4.60000000000001));
#1068=CARTESIAN_POINT('Origin',(71.6499999999999,32.0624999999999,4.60000000000001));
#1069=CARTESIAN_POINT('',(71.6499999999999,32.0624999999999,4.60000000000001));
#1070=CARTESIAN_POINT('',(71.6499999999999,2.06249999999994,4.60000000000001));
#1071=CARTESIAN_POINT('',(71.6499999999999,16.03125,4.59999999999994));
#1072=CARTESIAN_POINT('',(71.6499999999999,32.0624999999999,5.60000000000002));
#1073=CARTESIAN_POINT('',(71.6499999999999,32.0624999999999,4.60000000000001));
#1074=CARTESIAN_POINT('',(71.6499999999999,2.06249999999994,5.60000000000002));
#1075=CARTESIAN_POINT('',(71.6499999999999,32.0624999999999,5.60000000000002));
#1076=CARTESIAN_POINT('',(71.6499999999999,2.06249999999994,4.60000000000001));
#1077=CARTESIAN_POINT('Origin',(68.75,2.06249999999994,5.09999999999998));
#1078=CARTESIAN_POINT('',(68.75,2.06249999999994,5.60000000000002));
#1079=CARTESIAN_POINT('',(34.375,2.06249999999994,4.59999999999994));
#1080=CARTESIAN_POINT('Origin',(68.75,17.0624999999999,5.60000000000002));
#1081=CARTESIAN_POINT('',(68.75,32.0624999999999,5.60000000000002));
#1082=CARTESIAN_POINT('Origin',(68.75,32.0624999999999,5.09999999999998));
#1083=CARTESIAN_POINT('',(34.375,32.0624999999999,4.59999999999994));
#1084=CARTESIAN_POINT('Origin',(-26.25,-20.875,0.249999999999986));
#1085=CARTESIAN_POINT('',(-26.25,-22.875,0.499999999999979));
#1086=CARTESIAN_POINT('',(-26.25,-23.125,0.249999999999985));
#1087=CARTESIAN_POINT('Origin',(-26.25,-20.875,0.499999999999972));
#1088=CARTESIAN_POINT('Origin',(-26.25,-20.875,5.));
#1089=CARTESIAN_POINT('',(-26.25,-22.875,4.59999999999994));
#1090=CARTESIAN_POINT('',(-26.25,-22.875,5.));
#1091=CARTESIAN_POINT('Origin',(-26.25,-20.875,4.59999999999994));
#1092=CARTESIAN_POINT('Origin',(-51.25,-45.875,0.249999999999986));
#1093=CARTESIAN_POINT('',(-51.25,-47.875,0.499999999999977));
#1094=CARTESIAN_POINT('',(-51.25,-48.125,0.249999999999985));
#1095=CARTESIAN_POINT('Origin',(-51.25,-45.875,0.499999999999972));
#1096=CARTESIAN_POINT('Origin',(-51.25,-45.875,5.));
#1097=CARTESIAN_POINT('',(-51.25,-47.875,4.59999999999994));
#1098=CARTESIAN_POINT('',(-51.25,-47.875,5.));
#1099=CARTESIAN_POINT('Origin',(-51.25,-45.875,4.59999999999994));
#1100=CARTESIAN_POINT('Origin',(68.75,-60.8750000000001,0.424999999999969));
#1101=CARTESIAN_POINT('',(68.75,-62.5250000000001,0.849999999999953));
#1102=CARTESIAN_POINT('',(68.75,-62.9500000000001,0.424999999999968));
#1103=CARTESIAN_POINT('Origin',(68.75,-60.8750000000001,0.849999999999937));
#1104=CARTESIAN_POINT('Origin',(68.75,-60.8750000000001,5.));
#1105=CARTESIAN_POINT('',(68.75,-62.525,4.59999999999994));
#1106=CARTESIAN_POINT('',(68.75,-62.5250000000001,5.));
#1107=CARTESIAN_POINT('Origin',(68.75,-60.8750000000001,4.59999999999994));
#1108=CARTESIAN_POINT('Origin',(68.75,42.875,0.424999999999969));
#1109=CARTESIAN_POINT('',(68.75,41.225,0.849999999999953));
#1110=CARTESIAN_POINT('',(68.75,40.8,0.424999999999968));
#1111=CARTESIAN_POINT('Origin',(68.75,42.875,0.849999999999937));
#1112=CARTESIAN_POINT('Origin',(68.75,42.875,5.));
#1113=CARTESIAN_POINT('',(68.75,41.225,4.59999999999994));
#1114=CARTESIAN_POINT('',(68.75,41.225,5.));
#1115=CARTESIAN_POINT('Origin',(68.75,42.875,4.59999999999994));
#1116=CARTESIAN_POINT('Origin',(-8.75,65.8750000000001,0.424999999999969));
#1117=CARTESIAN_POINT('',(-8.75,64.2250000000001,0.849999999999953));
#1118=CARTESIAN_POINT('',(-8.75,63.8000000000001,0.424999999999968));
#1119=CARTESIAN_POINT('Origin',(-8.75,65.8750000000001,0.849999999999937));
#1120=CARTESIAN_POINT('Origin',(-8.75,65.8750000000001,5.));
#1121=CARTESIAN_POINT('',(-8.75,64.2250000000001,4.59999999999994));
#1122=CARTESIAN_POINT('',(-8.75,64.2250000000001,5.));
#1123=CARTESIAN_POINT('Origin',(-8.75,65.8750000000001,4.59999999999994));
#1124=CARTESIAN_POINT('Origin',(53.75,65.875,0.424999999999969));
#1125=CARTESIAN_POINT('',(53.75,64.225,0.849999999999953));
#1126=CARTESIAN_POINT('',(53.75,63.8,0.424999999999968));
#1127=CARTESIAN_POINT('Origin',(53.75,65.875,0.849999999999937));
#1128=CARTESIAN_POINT('Origin',(53.75,65.875,5.));
#1129=CARTESIAN_POINT('',(53.75,64.225,4.59999999999994));
#1130=CARTESIAN_POINT('',(53.75,64.225,5.));
#1131=CARTESIAN_POINT('Origin',(53.75,65.875,4.59999999999994));
#1132=CARTESIAN_POINT('Origin',(68.75,-8.75000000000007,0.424999999999969));
#1133=CARTESIAN_POINT('',(68.75,-10.4000000000001,0.849999999999953));
#1134=CARTESIAN_POINT('',(68.75,-10.8250000000001,0.424999999999968));
#1135=CARTESIAN_POINT('Origin',(68.75,-8.75000000000007,0.849999999999937));
#1136=CARTESIAN_POINT('Origin',(68.75,-8.75000000000007,5.));
#1137=CARTESIAN_POINT('',(68.75,-10.4000000000001,4.59999999999994));
#1138=CARTESIAN_POINT('',(68.75,-10.4000000000001,5.));
#1139=CARTESIAN_POINT('Origin',(68.75,-8.75000000000007,4.59999999999994));
#1140=CARTESIAN_POINT('Origin',(76.25,52.875,4.59999999999994));
#1141=CARTESIAN_POINT('',(76.25,52.875,4.59999999999994));
#1142=CARTESIAN_POINT('',(76.25,52.875,4.59999999999994));
#1143=CARTESIAN_POINT('',(76.25,-155.125,4.59999999999987));
#1144=CARTESIAN_POINT('Origin',(58.75,52.875,4.59999999999994));
#1145=CARTESIAN_POINT('',(58.75,52.875,4.59999999999994));
#1146=CARTESIAN_POINT('',(58.75,52.875,4.59999999999994));
#1147=CARTESIAN_POINT('',(76.25,52.875,4.59999999999994));
#1148=CARTESIAN_POINT('Origin',(58.75,70.875,4.59999999999994));
#1149=CARTESIAN_POINT('',(58.75,70.875,4.59999999999994));
#1150=CARTESIAN_POINT('',(58.75,70.875,4.59999999999994));
#1151=CARTESIAN_POINT('',(58.75,52.875,4.59999999999994));
#1152=CARTESIAN_POINT('Origin',(-76.25,70.8750000000001,4.59999999999994));
#1153=CARTESIAN_POINT('',(58.75,70.875,4.59999999999994));
#1154=CARTESIAN_POINT('Origin',(0.,0.,4.59999999999994));
#1155=UNCERTAINTY_MEASURE_WITH_UNIT(LENGTH_MEASURE(0.01),#1159,
'DISTANCE_ACCURACY_VALUE',
'Maximum model space distance between geometric entities at asserted c
onnectivities');
#1156=UNCERTAINTY_MEASURE_WITH_UNIT(LENGTH_MEASURE(0.01),#1159,
'DISTANCE_ACCURACY_VALUE',
'Maximum model space distance between geometric entities at asserted c
onnectivities');
#1157=(
GEOMETRIC_REPRESENTATION_CONTEXT(3)
GLOBAL_UNCERTAINTY_ASSIGNED_CONTEXT((#1155))
GLOBAL_UNIT_ASSIGNED_CONTEXT((#1159,#1161,#1162))
REPRESENTATION_CONTEXT('','3D')
);
#1158=(
GEOMETRIC_REPRESENTATION_CONTEXT(3)
GLOBAL_UNCERTAINTY_ASSIGNED_CONTEXT((#1156))
GLOBAL_UNIT_ASSIGNED_CONTEXT((#1159,#1161,#1162))
REPRESENTATION_CONTEXT('','3D')
);
#1159=(
LENGTH_UNIT()
NAMED_UNIT(*)
SI_UNIT(.MILLI.,.METRE.)
);
#1160=(
LENGTH_UNIT()
NAMED_UNIT(*)
SI_UNIT($,.METRE.)
);
#1161=(
NAMED_UNIT(*)
PLANE_ANGLE_UNIT()
SI_UNIT($,.RADIAN.)
);
#1162=(
NAMED_UNIT(*)
SI_UNIT($,.STERADIAN.)
SOLID_ANGLE_UNIT()
);
#1163=SHAPE_DEFINITION_REPRESENTATION(#1164,#1165);
#1164=PRODUCT_DEFINITION_SHAPE('',$,#1167);
#1165=SHAPE_REPRESENTATION('',(#712),#1157);
#1166=PRODUCT_DEFINITION_CONTEXT('part definition',#1171,'design');
#1167=PRODUCT_DEFINITION('MAIN','Proosa Mini - panels - export v2',#1168,
#1166);
#1168=PRODUCT_DEFINITION_FORMATION('',$,#1173);
#1169=PRODUCT_RELATED_PRODUCT_CATEGORY(
'Proosa Mini - panels - export v2','Proosa Mini - panels - export v2',(#1173));
#1170=APPLICATION_PROTOCOL_DEFINITION('international standard',
'automotive_design',2009,#1171);
#1171=APPLICATION_CONTEXT(
'Core Data for Automotive Mechanical Design Process');
#1172=PRODUCT_CONTEXT('part definition',#1171,'mechanical');
#1173=PRODUCT('MAIN','Proosa Mini - panels - export v2','FreeCAD Model',
(#1172));
#1174=PRESENTATION_STYLE_ASSIGNMENT((#1176));
#1175=PRESENTATION_STYLE_ASSIGNMENT((#1177));
#1176=SURFACE_STYLE_USAGE(.BOTH.,#1178);
#1177=SURFACE_STYLE_USAGE(.BOTH.,#1179);
#1178=SURFACE_SIDE_STYLE('',(#1180));
#1179=SURFACE_SIDE_STYLE('',(#1181));
#1180=SURFACE_STYLE_FILL_AREA(#1182);
#1181=SURFACE_STYLE_FILL_AREA(#1183);
#1182=FILL_AREA_STYLE('Acero - Satinado',(#1184));
#1183=FILL_AREA_STYLE('Opaque(82,82,82)',(#1185));
#1184=FILL_AREA_STYLE_COLOUR('Acero - Satinado',#1186);
#1185=FILL_AREA_STYLE_COLOUR('Opaque(82,82,82)',#1187);
#1186=COLOUR_RGB('Acero - Satinado',0.627450980392157,0.627450980392157,
0.627450980392157);
#1187=COLOUR_RGB('Opaque(82,82,82)',0.32156862745098,0.32156862745098,0.32156862745098);
ENDSEC;
END-ISO-10303-21;
