ISO-10303-21;
HEADER;
/* Generated by software containing ST-Developer
 * from STEP Tools, Inc. (www.steptools.com) 
 */

FILE_DESCRIPTION(
/* description */ ('FreeCAD Model'),
/* implementation_level */ '2;1');

FILE_NAME(
/* name */ 'bottom-panel-back-right.step',
/* time_stamp */ '2026-04-24T17:56:03+02:00',
/* author */ (''),
/* organization */ (''),
/* preprocessor_version */ 'ST-DEVELOPER v20.1',
/* originating_system */ 'Autodesk Translation Framework v15.8.0.0',
/* authorisation */ '');

FILE_SCHEMA (('AUTOMOTIVE_DESIGN { 1 0 10303 214 3 1 1 }'));
ENDSEC;

DATA;
#10=MECHANICAL_DESIGN_GEOMETRIC_PRESENTATION_REPRESENTATION('',(#13),#688);
#11=SHAPE_REPRESENTATION_RELATIONSHIP('SRR','None',#695,#12);
#12=ADVANCED_BREP_SHAPE_REPRESENTATION('',(#14),#687);
#13=STYLED_ITEM('',(#704),#14);
#14=MANIFOLD_SOLID_BREP('bottom-panel-back-right',#410);
#15=FACE_BOUND('',#75,.T.);
#16=FACE_BOUND('',#76,.T.);
#17=FACE_BOUND('',#88,.T.);
#18=FACE_BOUND('',#89,.T.);
#19=CYLINDRICAL_SURFACE('',#436,8.00000000000001);
#20=CYLINDRICAL_SURFACE('',#444,1.65);
#21=CYLINDRICAL_SURFACE('',#448,1.65);
#22=CIRCLE('',#430,8.4);
#23=CIRCLE('',#431,8.00000000000001);
#24=CIRCLE('',#437,8.00000000000001);
#25=CIRCLE('',#440,2.04999999999999);
#26=CIRCLE('',#441,2.04999999999999);
#27=CIRCLE('',#443,1.65);
#28=CIRCLE('',#445,1.65);
#29=CIRCLE('',#447,1.65);
#30=CIRCLE('',#449,1.65);
#31=CIRCLE('',#451,2.25);
#32=CIRCLE('',#453,2.25);
#33=CONICAL_SURFACE('',#429,8.2,0.785398163397429);
#34=CONICAL_SURFACE('',#442,1.85,0.785398163397437);
#35=CONICAL_SURFACE('',#446,1.85,0.785398163397437);
#36=CONICAL_SURFACE('',#450,1.95,0.785398163397448);
#37=CONICAL_SURFACE('',#452,1.95,0.785398163397448);
#38=FACE_OUTER_BOUND('',#62,.T.);
#39=FACE_OUTER_BOUND('',#63,.T.);
#40=FACE_OUTER_BOUND('',#64,.T.);
#41=FACE_OUTER_BOUND('',#65,.T.);
#42=FACE_OUTER_BOUND('',#66,.T.);
#43=FACE_OUTER_BOUND('',#67,.T.);
#44=FACE_OUTER_BOUND('',#68,.T.);
#45=FACE_OUTER_BOUND('',#69,.T.);
#46=FACE_OUTER_BOUND('',#70,.T.);
#47=FACE_OUTER_BOUND('',#71,.T.);
#48=FACE_OUTER_BOUND('',#72,.T.);
#49=FACE_OUTER_BOUND('',#73,.T.);
#50=FACE_OUTER_BOUND('',#74,.T.);
#51=FACE_OUTER_BOUND('',#77,.T.);
#52=FACE_OUTER_BOUND('',#78,.T.);
#53=FACE_OUTER_BOUND('',#79,.T.);
#54=FACE_OUTER_BOUND('',#80,.T.);
#55=FACE_OUTER_BOUND('',#81,.T.);
#56=FACE_OUTER_BOUND('',#82,.T.);
#57=FACE_OUTER_BOUND('',#83,.T.);
#58=FACE_OUTER_BOUND('',#84,.T.);
#59=FACE_OUTER_BOUND('',#85,.T.);
#60=FACE_OUTER_BOUND('',#86,.T.);
#61=FACE_OUTER_BOUND('',#87,.T.);
#62=EDGE_LOOP('',(#262,#263,#264,#265));
#63=EDGE_LOOP('',(#266,#267,#268,#269));
#64=EDGE_LOOP('',(#270,#271,#272,#273));
#65=EDGE_LOOP('',(#274,#275,#276,#277));
#66=EDGE_LOOP('',(#278,#279,#280,#281));
#67=EDGE_LOOP('',(#282,#283,#284,#285));
#68=EDGE_LOOP('',(#286,#287,#288,#289));
#69=EDGE_LOOP('',(#290,#291,#292,#293));
#70=EDGE_LOOP('',(#294,#295,#296,#297));
#71=EDGE_LOOP('',(#298,#299,#300,#301));
#72=EDGE_LOOP('',(#302,#303,#304,#305));
#73=EDGE_LOOP('',(#306,#307,#308,#309));
#74=EDGE_LOOP('',(#310,#311,#312,#313,#314,#315,#316,#317));
#75=EDGE_LOOP('',(#318));
#76=EDGE_LOOP('',(#319));
#77=EDGE_LOOP('',(#320,#321,#322,#323));
#78=EDGE_LOOP('',(#324,#325,#326,#327));
#79=EDGE_LOOP('',(#328,#329,#330,#331));
#80=EDGE_LOOP('',(#332,#333,#334,#335));
#81=EDGE_LOOP('',(#336,#337,#338,#339));
#82=EDGE_LOOP('',(#340,#341,#342,#343));
#83=EDGE_LOOP('',(#344,#345,#346,#347));
#84=EDGE_LOOP('',(#348,#349,#350,#351));
#85=EDGE_LOOP('',(#352,#353,#354,#355));
#86=EDGE_LOOP('',(#356,#357,#358,#359));
#87=EDGE_LOOP('',(#360,#361,#362,#363,#364,#365,#366,#367));
#88=EDGE_LOOP('',(#368));
#89=EDGE_LOOP('',(#369));
#90=LINE('',#578,#133);
#91=LINE('',#580,#134);
#92=LINE('',#582,#135);
#93=LINE('',#583,#136);
#94=LINE('',#586,#137);
#95=LINE('',#588,#138);
#96=LINE('',#589,#139);
#97=LINE('',#593,#140);
#98=LINE('',#595,#141);
#99=LINE('',#597,#142);
#100=LINE('',#598,#143);
#101=LINE('',#601,#144);
#102=LINE('',#603,#145);
#103=LINE('',#604,#146);
#104=LINE('',#607,#147);
#105=LINE('',#609,#148);
#106=LINE('',#610,#149);
#107=LINE('',#614,#150);
#108=LINE('',#618,#151);
#109=LINE('',#619,#152);
#110=LINE('',#621,#153);
#111=LINE('',#622,#154);
#112=LINE('',#625,#155);
#113=LINE('',#627,#156);
#114=LINE('',#628,#157);
#115=LINE('',#631,#158);
#116=LINE('',#632,#159);
#117=LINE('',#635,#160);
#118=LINE('',#639,#161);
#119=LINE('',#640,#162);
#120=LINE('',#648,#163);
#121=LINE('',#653,#164);
#122=LINE('',#656,#165);
#123=LINE('',#661,#166);
#124=LINE('',#665,#167);
#125=LINE('',#669,#168);
#126=LINE('',#672,#169);
#127=LINE('',#674,#170);
#128=LINE('',#675,#171);
#129=LINE('',#678,#172);
#130=LINE('',#679,#173);
#131=LINE('',#681,#174);
#132=LINE('',#683,#175);
#133=VECTOR('',#463,10.);
#134=VECTOR('',#464,10.);
#135=VECTOR('',#465,10.);
#136=VECTOR('',#466,10.);
#137=VECTOR('',#469,10.);
#138=VECTOR('',#470,10.);
#139=VECTOR('',#471,10.);
#140=VECTOR('',#474,10.);
#141=VECTOR('',#475,10.);
#142=VECTOR('',#476,10.);
#143=VECTOR('',#477,10.);
#144=VECTOR('',#480,10.);
#145=VECTOR('',#481,10.);
#146=VECTOR('',#482,10.);
#147=VECTOR('',#485,10.);
#148=VECTOR('',#486,10.);
#149=VECTOR('',#487,10.);
#150=VECTOR('',#490,10.);
#151=VECTOR('',#497,10.);
#152=VECTOR('',#498,10.);
#153=VECTOR('',#501,10.);
#154=VECTOR('',#502,10.);
#155=VECTOR('',#505,10.);
#156=VECTOR('',#506,10.);
#157=VECTOR('',#507,10.);
#158=VECTOR('',#510,10.);
#159=VECTOR('',#511,10.);
#160=VECTOR('',#514,10.);
#161=VECTOR('',#519,10.);
#162=VECTOR('',#520,10.);
#163=VECTOR('',#529,1.85);
#164=VECTOR('',#536,1.65);
#165=VECTOR('',#539,1.85);
#166=VECTOR('',#546,1.65);
#167=VECTOR('',#551,1.95);
#168=VECTOR('',#556,1.95);
#169=VECTOR('',#559,10.);
#170=VECTOR('',#560,10.);
#171=VECTOR('',#561,10.);
#172=VECTOR('',#564,10.);
#173=VECTOR('',#565,10.);
#174=VECTOR('',#568,10.);
#175=VECTOR('',#571,10.);
#176=VERTEX_POINT('',#576);
#177=VERTEX_POINT('',#577);
#178=VERTEX_POINT('',#579);
#179=VERTEX_POINT('',#581);
#180=VERTEX_POINT('',#585);
#181=VERTEX_POINT('',#587);
#182=VERTEX_POINT('',#591);
#183=VERTEX_POINT('',#592);
#184=VERTEX_POINT('',#594);
#185=VERTEX_POINT('',#596);
#186=VERTEX_POINT('',#600);
#187=VERTEX_POINT('',#602);
#188=VERTEX_POINT('',#606);
#189=VERTEX_POINT('',#608);
#190=VERTEX_POINT('',#612);
#191=VERTEX_POINT('',#613);
#192=VERTEX_POINT('',#624);
#193=VERTEX_POINT('',#626);
#194=VERTEX_POINT('',#630);
#195=VERTEX_POINT('',#634);
#196=VERTEX_POINT('',#638);
#197=VERTEX_POINT('',#642);
#198=VERTEX_POINT('',#644);
#199=VERTEX_POINT('',#647);
#200=VERTEX_POINT('',#651);
#201=VERTEX_POINT('',#655);
#202=VERTEX_POINT('',#659);
#203=VERTEX_POINT('',#663);
#204=VERTEX_POINT('',#667);
#205=VERTEX_POINT('',#671);
#206=VERTEX_POINT('',#673);
#207=VERTEX_POINT('',#677);
#208=EDGE_CURVE('',#176,#177,#90,.T.);
#209=EDGE_CURVE('',#177,#178,#91,.T.);
#210=EDGE_CURVE('',#178,#179,#92,.T.);
#211=EDGE_CURVE('',#176,#179,#93,.T.);
#212=EDGE_CURVE('',#177,#180,#94,.T.);
#213=EDGE_CURVE('',#180,#181,#95,.T.);
#214=EDGE_CURVE('',#181,#178,#96,.T.);
#215=EDGE_CURVE('',#182,#183,#97,.T.);
#216=EDGE_CURVE('',#183,#184,#98,.T.);
#217=EDGE_CURVE('',#184,#185,#99,.T.);
#218=EDGE_CURVE('',#185,#182,#100,.T.);
#219=EDGE_CURVE('',#185,#186,#101,.T.);
#220=EDGE_CURVE('',#186,#187,#102,.T.);
#221=EDGE_CURVE('',#187,#182,#103,.T.);
#222=EDGE_CURVE('',#188,#187,#104,.T.);
#223=EDGE_CURVE('',#186,#189,#105,.T.);
#224=EDGE_CURVE('',#189,#188,#106,.T.);
#225=EDGE_CURVE('',#190,#191,#107,.T.);
#226=EDGE_CURVE('',#191,#184,#22,.T.);
#227=EDGE_CURVE('',#183,#190,#23,.T.);
#228=EDGE_CURVE('',#180,#191,#108,.T.);
#229=EDGE_CURVE('',#190,#181,#109,.T.);
#230=EDGE_CURVE('',#179,#188,#110,.T.);
#231=EDGE_CURVE('',#189,#176,#111,.T.);
#232=EDGE_CURVE('',#192,#181,#112,.T.);
#233=EDGE_CURVE('',#193,#192,#113,.T.);
#234=EDGE_CURVE('',#193,#178,#114,.T.);
#235=EDGE_CURVE('',#194,#190,#115,.T.);
#236=EDGE_CURVE('',#194,#192,#116,.T.);
#237=EDGE_CURVE('',#195,#183,#117,.T.);
#238=EDGE_CURVE('',#195,#194,#24,.T.);
#239=EDGE_CURVE('',#196,#182,#118,.T.);
#240=EDGE_CURVE('',#196,#195,#119,.T.);
#241=EDGE_CURVE('',#197,#197,#25,.T.);
#242=EDGE_CURVE('',#198,#198,#26,.T.);
#243=EDGE_CURVE('',#197,#199,#120,.T.);
#244=EDGE_CURVE('',#199,#199,#27,.T.);
#245=EDGE_CURVE('',#200,#200,#28,.T.);
#246=EDGE_CURVE('',#200,#199,#121,.T.);
#247=EDGE_CURVE('',#198,#201,#122,.T.);
#248=EDGE_CURVE('',#201,#201,#29,.T.);
#249=EDGE_CURVE('',#202,#202,#30,.T.);
#250=EDGE_CURVE('',#202,#201,#123,.T.);
#251=EDGE_CURVE('',#203,#203,#31,.T.);
#252=EDGE_CURVE('',#203,#202,#124,.T.);
#253=EDGE_CURVE('',#204,#204,#32,.T.);
#254=EDGE_CURVE('',#204,#200,#125,.T.);
#255=EDGE_CURVE('',#205,#188,#126,.T.);
#256=EDGE_CURVE('',#205,#206,#127,.T.);
#257=EDGE_CURVE('',#206,#187,#128,.T.);
#258=EDGE_CURVE('',#207,#179,#129,.T.);
#259=EDGE_CURVE('',#205,#207,#130,.T.);
#260=EDGE_CURVE('',#207,#193,#131,.T.);
#261=EDGE_CURVE('',#196,#206,#132,.T.);
#262=ORIENTED_EDGE('',*,*,#208,.T.);
#263=ORIENTED_EDGE('',*,*,#209,.T.);
#264=ORIENTED_EDGE('',*,*,#210,.T.);
#265=ORIENTED_EDGE('',*,*,#211,.F.);
#266=ORIENTED_EDGE('',*,*,#212,.T.);
#267=ORIENTED_EDGE('',*,*,#213,.T.);
#268=ORIENTED_EDGE('',*,*,#214,.T.);
#269=ORIENTED_EDGE('',*,*,#209,.F.);
#270=ORIENTED_EDGE('',*,*,#215,.T.);
#271=ORIENTED_EDGE('',*,*,#216,.T.);
#272=ORIENTED_EDGE('',*,*,#217,.T.);
#273=ORIENTED_EDGE('',*,*,#218,.T.);
#274=ORIENTED_EDGE('',*,*,#219,.T.);
#275=ORIENTED_EDGE('',*,*,#220,.T.);
#276=ORIENTED_EDGE('',*,*,#221,.T.);
#277=ORIENTED_EDGE('',*,*,#218,.F.);
#278=ORIENTED_EDGE('',*,*,#222,.T.);
#279=ORIENTED_EDGE('',*,*,#220,.F.);
#280=ORIENTED_EDGE('',*,*,#223,.T.);
#281=ORIENTED_EDGE('',*,*,#224,.T.);
#282=ORIENTED_EDGE('',*,*,#225,.T.);
#283=ORIENTED_EDGE('',*,*,#226,.T.);
#284=ORIENTED_EDGE('',*,*,#216,.F.);
#285=ORIENTED_EDGE('',*,*,#227,.T.);
#286=ORIENTED_EDGE('',*,*,#228,.T.);
#287=ORIENTED_EDGE('',*,*,#225,.F.);
#288=ORIENTED_EDGE('',*,*,#229,.T.);
#289=ORIENTED_EDGE('',*,*,#213,.F.);
#290=ORIENTED_EDGE('',*,*,#230,.T.);
#291=ORIENTED_EDGE('',*,*,#224,.F.);
#292=ORIENTED_EDGE('',*,*,#231,.T.);
#293=ORIENTED_EDGE('',*,*,#211,.T.);
#294=ORIENTED_EDGE('',*,*,#214,.F.);
#295=ORIENTED_EDGE('',*,*,#232,.F.);
#296=ORIENTED_EDGE('',*,*,#233,.F.);
#297=ORIENTED_EDGE('',*,*,#234,.T.);
#298=ORIENTED_EDGE('',*,*,#229,.F.);
#299=ORIENTED_EDGE('',*,*,#235,.F.);
#300=ORIENTED_EDGE('',*,*,#236,.T.);
#301=ORIENTED_EDGE('',*,*,#232,.T.);
#302=ORIENTED_EDGE('',*,*,#227,.F.);
#303=ORIENTED_EDGE('',*,*,#237,.F.);
#304=ORIENTED_EDGE('',*,*,#238,.T.);
#305=ORIENTED_EDGE('',*,*,#235,.T.);
#306=ORIENTED_EDGE('',*,*,#215,.F.);
#307=ORIENTED_EDGE('',*,*,#239,.F.);
#308=ORIENTED_EDGE('',*,*,#240,.T.);
#309=ORIENTED_EDGE('',*,*,#237,.T.);
#310=ORIENTED_EDGE('',*,*,#217,.F.);
#311=ORIENTED_EDGE('',*,*,#226,.F.);
#312=ORIENTED_EDGE('',*,*,#228,.F.);
#313=ORIENTED_EDGE('',*,*,#212,.F.);
#314=ORIENTED_EDGE('',*,*,#208,.F.);
#315=ORIENTED_EDGE('',*,*,#231,.F.);
#316=ORIENTED_EDGE('',*,*,#223,.F.);
#317=ORIENTED_EDGE('',*,*,#219,.F.);
#318=ORIENTED_EDGE('',*,*,#241,.F.);
#319=ORIENTED_EDGE('',*,*,#242,.F.);
#320=ORIENTED_EDGE('',*,*,#241,.T.);
#321=ORIENTED_EDGE('',*,*,#243,.T.);
#322=ORIENTED_EDGE('',*,*,#244,.T.);
#323=ORIENTED_EDGE('',*,*,#243,.F.);
#324=ORIENTED_EDGE('',*,*,#245,.F.);
#325=ORIENTED_EDGE('',*,*,#246,.T.);
#326=ORIENTED_EDGE('',*,*,#244,.F.);
#327=ORIENTED_EDGE('',*,*,#246,.F.);
#328=ORIENTED_EDGE('',*,*,#242,.T.);
#329=ORIENTED_EDGE('',*,*,#247,.T.);
#330=ORIENTED_EDGE('',*,*,#248,.T.);
#331=ORIENTED_EDGE('',*,*,#247,.F.);
#332=ORIENTED_EDGE('',*,*,#249,.F.);
#333=ORIENTED_EDGE('',*,*,#250,.T.);
#334=ORIENTED_EDGE('',*,*,#248,.F.);
#335=ORIENTED_EDGE('',*,*,#250,.F.);
#336=ORIENTED_EDGE('',*,*,#251,.F.);
#337=ORIENTED_EDGE('',*,*,#252,.T.);
#338=ORIENTED_EDGE('',*,*,#249,.T.);
#339=ORIENTED_EDGE('',*,*,#252,.F.);
#340=ORIENTED_EDGE('',*,*,#253,.F.);
#341=ORIENTED_EDGE('',*,*,#254,.T.);
#342=ORIENTED_EDGE('',*,*,#245,.T.);
#343=ORIENTED_EDGE('',*,*,#254,.F.);
#344=ORIENTED_EDGE('',*,*,#222,.F.);
#345=ORIENTED_EDGE('',*,*,#255,.F.);
#346=ORIENTED_EDGE('',*,*,#256,.T.);
#347=ORIENTED_EDGE('',*,*,#257,.T.);
#348=ORIENTED_EDGE('',*,*,#230,.F.);
#349=ORIENTED_EDGE('',*,*,#258,.F.);
#350=ORIENTED_EDGE('',*,*,#259,.F.);
#351=ORIENTED_EDGE('',*,*,#255,.T.);
#352=ORIENTED_EDGE('',*,*,#210,.F.);
#353=ORIENTED_EDGE('',*,*,#234,.F.);
#354=ORIENTED_EDGE('',*,*,#260,.F.);
#355=ORIENTED_EDGE('',*,*,#258,.T.);
#356=ORIENTED_EDGE('',*,*,#221,.F.);
#357=ORIENTED_EDGE('',*,*,#257,.F.);
#358=ORIENTED_EDGE('',*,*,#261,.F.);
#359=ORIENTED_EDGE('',*,*,#239,.T.);
#360=ORIENTED_EDGE('',*,*,#261,.T.);
#361=ORIENTED_EDGE('',*,*,#256,.F.);
#362=ORIENTED_EDGE('',*,*,#259,.T.);
#363=ORIENTED_EDGE('',*,*,#260,.T.);
#364=ORIENTED_EDGE('',*,*,#233,.T.);
#365=ORIENTED_EDGE('',*,*,#236,.F.);
#366=ORIENTED_EDGE('',*,*,#238,.F.);
#367=ORIENTED_EDGE('',*,*,#240,.F.);
#368=ORIENTED_EDGE('',*,*,#251,.T.);
#369=ORIENTED_EDGE('',*,*,#253,.T.);
#370=PLANE('',#424);
#371=PLANE('',#425);
#372=PLANE('',#426);
#373=PLANE('',#427);
#374=PLANE('',#428);
#375=PLANE('',#432);
#376=PLANE('',#433);
#377=PLANE('',#434);
#378=PLANE('',#435);
#379=PLANE('',#438);
#380=PLANE('',#439);
#381=PLANE('',#454);
#382=PLANE('',#455);
#383=PLANE('',#456);
#384=PLANE('',#457);
#385=PLANE('',#458);
#386=ADVANCED_FACE('',(#38),#370,.T.);
#387=ADVANCED_FACE('',(#39),#371,.T.);
#388=ADVANCED_FACE('',(#40),#372,.T.);
#389=ADVANCED_FACE('',(#41),#373,.T.);
#390=ADVANCED_FACE('',(#42),#374,.T.);
#391=ADVANCED_FACE('',(#43),#33,.F.);
#392=ADVANCED_FACE('',(#44),#375,.T.);
#393=ADVANCED_FACE('',(#45),#376,.T.);
#394=ADVANCED_FACE('',(#46),#377,.T.);
#395=ADVANCED_FACE('',(#47),#378,.T.);
#396=ADVANCED_FACE('',(#48),#19,.F.);
#397=ADVANCED_FACE('',(#49),#379,.T.);
#398=ADVANCED_FACE('',(#50,#15,#16),#380,.F.);
#399=ADVANCED_FACE('',(#51),#34,.F.);
#400=ADVANCED_FACE('',(#52),#20,.F.);
#401=ADVANCED_FACE('',(#53),#35,.F.);
#402=ADVANCED_FACE('',(#54),#21,.F.);
#403=ADVANCED_FACE('',(#55),#36,.F.);
#404=ADVANCED_FACE('',(#56),#37,.F.);
#405=ADVANCED_FACE('',(#57),#381,.T.);
#406=ADVANCED_FACE('',(#58),#382,.T.);
#407=ADVANCED_FACE('',(#59),#383,.T.);
#408=ADVANCED_FACE('',(#60),#384,.T.);
#409=ADVANCED_FACE('',(#61,#17,#18),#385,.T.);
#410=CLOSED_SHELL('',(#386,#387,#388,#389,#390,#391,#392,#393,#394,#395,
#396,#397,#398,#399,#400,#401,#402,#403,#404,#405,#406,#407,#408,#409));
#411=DERIVED_UNIT_ELEMENT(#413,1.);
#412=DERIVED_UNIT_ELEMENT(#690,-3.);
#413=(
MASS_UNIT()
NAMED_UNIT(*)
SI_UNIT(.KILO.,.GRAM.)
);
#414=DERIVED_UNIT((#411,#412));
#415=MEASURE_REPRESENTATION_ITEM('density measure',
POSITIVE_RATIO_MEASURE(7850.),#414);
#416=PROPERTY_DEFINITION_REPRESENTATION(#421,#418);
#417=PROPERTY_DEFINITION_REPRESENTATION(#422,#419);
#418=REPRESENTATION('material name',(#420),#687);
#419=REPRESENTATION('density',(#415),#687);
#420=DESCRIPTIVE_REPRESENTATION_ITEM('Acero','Acero');
#421=PROPERTY_DEFINITION('material property','material name',#697);
#422=PROPERTY_DEFINITION('material property','density of part',#697);
#423=AXIS2_PLACEMENT_3D('',#574,#459,#460);
#424=AXIS2_PLACEMENT_3D('',#575,#461,#462);
#425=AXIS2_PLACEMENT_3D('',#584,#467,#468);
#426=AXIS2_PLACEMENT_3D('',#590,#472,#473);
#427=AXIS2_PLACEMENT_3D('',#599,#478,#479);
#428=AXIS2_PLACEMENT_3D('',#605,#483,#484);
#429=AXIS2_PLACEMENT_3D('',#611,#488,#489);
#430=AXIS2_PLACEMENT_3D('',#615,#491,#492);
#431=AXIS2_PLACEMENT_3D('',#616,#493,#494);
#432=AXIS2_PLACEMENT_3D('',#617,#495,#496);
#433=AXIS2_PLACEMENT_3D('',#620,#499,#500);
#434=AXIS2_PLACEMENT_3D('',#623,#503,#504);
#435=AXIS2_PLACEMENT_3D('',#629,#508,#509);
#436=AXIS2_PLACEMENT_3D('',#633,#512,#513);
#437=AXIS2_PLACEMENT_3D('',#636,#515,#516);
#438=AXIS2_PLACEMENT_3D('',#637,#517,#518);
#439=AXIS2_PLACEMENT_3D('',#641,#521,#522);
#440=AXIS2_PLACEMENT_3D('',#643,#523,#524);
#441=AXIS2_PLACEMENT_3D('',#645,#525,#526);
#442=AXIS2_PLACEMENT_3D('',#646,#527,#528);
#443=AXIS2_PLACEMENT_3D('',#649,#530,#531);
#444=AXIS2_PLACEMENT_3D('',#650,#532,#533);
#445=AXIS2_PLACEMENT_3D('',#652,#534,#535);
#446=AXIS2_PLACEMENT_3D('',#654,#537,#538);
#447=AXIS2_PLACEMENT_3D('',#657,#540,#541);
#448=AXIS2_PLACEMENT_3D('',#658,#542,#543);
#449=AXIS2_PLACEMENT_3D('',#660,#544,#545);
#450=AXIS2_PLACEMENT_3D('',#662,#547,#548);
#451=AXIS2_PLACEMENT_3D('',#664,#549,#550);
#452=AXIS2_PLACEMENT_3D('',#666,#552,#553);
#453=AXIS2_PLACEMENT_3D('',#668,#554,#555);
#454=AXIS2_PLACEMENT_3D('',#670,#557,#558);
#455=AXIS2_PLACEMENT_3D('',#676,#562,#563);
#456=AXIS2_PLACEMENT_3D('',#680,#566,#567);
#457=AXIS2_PLACEMENT_3D('',#682,#569,#570);
#458=AXIS2_PLACEMENT_3D('',#684,#572,#573);
#459=DIRECTION('axis',(0.,0.,1.));
#460=DIRECTION('refdir',(1.,0.,0.));
#461=DIRECTION('center_axis',(0.,0.707106781186553,0.707106781186542));
#462=DIRECTION('ref_axis',(1.,0.,0.));
#463=DIRECTION('',(1.,0.,0.));
#464=DIRECTION('',(0.577350269189623,0.577350269189623,-0.577350269189632));
#465=DIRECTION('',(-1.,0.,0.));
#466=DIRECTION('',(-0.577350269189623,0.577350269189623,-0.577350269189632));
#467=DIRECTION('center_axis',(0.707106781186554,8.15693679736372E-17,0.707106781186541));
#468=DIRECTION('ref_axis',(0.707106781186541,0.,-0.707106781186554));
#469=DIRECTION('',(-1.06688098462478E-16,-1.,2.22044604925E-16));
#470=DIRECTION('',(0.577350269189622,-0.577350269189622,-0.577350269189633));
#471=DIRECTION('',(1.06688098462478E-16,1.,-2.22044604925E-16));
#472=DIRECTION('center_axis',(0.,0.707106781186555,0.70710678118654));
#473=DIRECTION('ref_axis',(1.,0.,0.));
#474=DIRECTION('',(-1.,0.,0.));
#475=DIRECTION('',(0.,-0.70710678118654,0.707106781186555));
#476=DIRECTION('',(1.,0.,0.));
#477=DIRECTION('',(0.577350269189622,0.577350269189622,-0.577350269189634));
#478=DIRECTION('center_axis',(0.707106781186554,8.15693679736372E-17,0.707106781186541));
#479=DIRECTION('ref_axis',(0.707106781186541,0.,-0.707106781186554));
#480=DIRECTION('',(-1.06688098462478E-16,-1.,2.22044604925E-16));
#481=DIRECTION('',(0.577350269189622,-0.577350269189622,-0.577350269189633));
#482=DIRECTION('',(1.06688098462478E-16,1.,-2.22044604925E-16));
#483=DIRECTION('center_axis',(0.,-0.707106781186557,0.707106781186538));
#484=DIRECTION('ref_axis',(1.,0.,0.));
#485=DIRECTION('',(1.,0.,0.));
#486=DIRECTION('',(-1.,0.,0.));
#487=DIRECTION('',(-0.577350269189622,-0.577350269189622,-0.577350269189634));
#488=DIRECTION('center_axis',(0.,0.,1.));
#489=DIRECTION('ref_axis',(-1.,0.,0.));
#490=DIRECTION('',(0.,0.707106781186534,0.707106781186561));
#491=DIRECTION('center_axis',(0.,2.22044604925E-16,1.));
#492=DIRECTION('ref_axis',(-1.,0.,0.));
#493=DIRECTION('center_axis',(0.,-2.22044604925E-16,-1.));
#494=DIRECTION('ref_axis',(-1.,0.,0.));
#495=DIRECTION('center_axis',(0.,-0.707106781186557,0.707106781186538));
#496=DIRECTION('ref_axis',(1.,0.,0.));
#497=DIRECTION('',(-1.,0.,0.));
#498=DIRECTION('',(1.,0.,0.));
#499=DIRECTION('center_axis',(-0.707106781186555,2.3244912376307E-16,0.70710678118654));
#500=DIRECTION('ref_axis',(0.70710678118654,0.,0.707106781186555));
#501=DIRECTION('',(-1.06688098462478E-16,-1.,2.22044604925E-16));
#502=DIRECTION('',(1.06688098462478E-16,1.,-2.22044604925E-16));
#503=DIRECTION('center_axis',(1.,-1.06688098462478E-16,0.));
#504=DIRECTION('ref_axis',(1.06688098462478E-16,1.,-2.22044604925E-16));
#505=DIRECTION('',(0.,0.,1.));
#506=DIRECTION('',(-1.06688098462478E-16,-1.,2.22044604925E-16));
#507=DIRECTION('',(0.,0.,1.));
#508=DIRECTION('center_axis',(0.,-1.,0.));
#509=DIRECTION('ref_axis',(1.,0.,0.));
#510=DIRECTION('',(0.,0.,1.));
#511=DIRECTION('',(1.,0.,0.));
#512=DIRECTION('center_axis',(0.,0.,1.));
#513=DIRECTION('ref_axis',(-1.,1.22464679914735E-16,0.));
#514=DIRECTION('',(0.,0.,1.));
#515=DIRECTION('center_axis',(0.,-2.22044604925E-16,-1.));
#516=DIRECTION('ref_axis',(1.,0.,0.));
#517=DIRECTION('center_axis',(0.,1.,0.));
#518=DIRECTION('ref_axis',(-1.,0.,0.));
#519=DIRECTION('',(0.,0.,1.));
#520=DIRECTION('',(-1.,0.,0.));
#521=DIRECTION('center_axis',(0.,-2.22044604925E-16,-1.));
#522=DIRECTION('ref_axis',(1.,0.,0.));
#523=DIRECTION('center_axis',(0.,2.22044604925E-16,1.));
#524=DIRECTION('ref_axis',(-1.,0.,0.));
#525=DIRECTION('center_axis',(0.,2.22044604925E-16,1.));
#526=DIRECTION('ref_axis',(-1.,0.,0.));
#527=DIRECTION('center_axis',(0.,0.,1.));
#528=DIRECTION('ref_axis',(-1.,0.,0.));
#529=DIRECTION('',(-0.70710678118654,-8.65956056235484E-17,-0.707106781186555));
#530=DIRECTION('center_axis',(0.,-2.22044604925E-16,-1.));
#531=DIRECTION('ref_axis',(-1.,0.,0.));
#532=DIRECTION('center_axis',(0.,2.22044604925E-16,1.));
#533=DIRECTION('ref_axis',(-1.,0.,0.));
#534=DIRECTION('center_axis',(0.,2.22044604925E-16,1.));
#535=DIRECTION('ref_axis',(-1.,0.,0.));
#536=DIRECTION('',(0.,2.22044604925E-16,1.));
#537=DIRECTION('center_axis',(0.,0.,1.));
#538=DIRECTION('ref_axis',(-1.,0.,0.));
#539=DIRECTION('',(-0.70710678118654,-8.65956056235484E-17,-0.707106781186555));
#540=DIRECTION('center_axis',(0.,-2.22044604925E-16,-1.));
#541=DIRECTION('ref_axis',(-1.,0.,0.));
#542=DIRECTION('center_axis',(0.,2.22044604925E-16,1.));
#543=DIRECTION('ref_axis',(-1.,0.,0.));
#544=DIRECTION('center_axis',(0.,2.22044604925E-16,1.));
#545=DIRECTION('ref_axis',(-1.,0.,0.));
#546=DIRECTION('',(0.,2.22044604925E-16,1.));
#547=DIRECTION('center_axis',(0.,-2.22044604925E-16,-1.));
#548=DIRECTION('ref_axis',(-1.,0.,0.));
#549=DIRECTION('center_axis',(0.,2.22044604925E-16,1.));
#550=DIRECTION('ref_axis',(-1.,0.,0.));
#551=DIRECTION('',(-0.707106781186547,7.04136402448061E-17,0.707106781186548));
#552=DIRECTION('center_axis',(0.,-2.22044604925E-16,-1.));
#553=DIRECTION('ref_axis',(-1.,0.,0.));
#554=DIRECTION('center_axis',(0.,2.22044604925E-16,1.));
#555=DIRECTION('ref_axis',(-1.,0.,0.));
#556=DIRECTION('',(-0.707106781186547,7.04136402448061E-17,0.707106781186548));
#557=DIRECTION('center_axis',(0.,-1.,0.));
#558=DIRECTION('ref_axis',(1.,0.,0.));
#559=DIRECTION('',(0.,0.,1.));
#560=DIRECTION('',(1.,0.,0.));
#561=DIRECTION('',(0.,0.,1.));
#562=DIRECTION('center_axis',(-1.,1.06688098462478E-16,0.));
#563=DIRECTION('ref_axis',(-1.06688098462478E-16,-1.,2.22044604925E-16));
#564=DIRECTION('',(0.,0.,1.));
#565=DIRECTION('',(1.06688098462478E-16,1.,-2.22044604925E-16));
#566=DIRECTION('center_axis',(0.,1.,0.));
#567=DIRECTION('ref_axis',(-1.,0.,0.));
#568=DIRECTION('',(1.,0.,0.));
#569=DIRECTION('center_axis',(1.,-1.06688098462478E-16,0.));
#570=DIRECTION('ref_axis',(1.06688098462478E-16,1.,-2.22044604925E-16));
#571=DIRECTION('',(-1.06688098462478E-16,-1.,2.22044604925E-16));
#572=DIRECTION('center_axis',(0.,-2.22044604925E-16,-1.));
#573=DIRECTION('ref_axis',(1.,0.,0.));
#574=CARTESIAN_POINT('',(0.,0.,0.));
#575=CARTESIAN_POINT('Origin',(33.6875,82.925,2.79999999999998));
#576=CARTESIAN_POINT('',(-66.975,82.725,2.99999999999998));
#577=CARTESIAN_POINT('',(66.975,82.725,2.99999999999998));
#578=CARTESIAN_POINT('',(33.6875,82.725,2.99999999999998));
#579=CARTESIAN_POINT('',(67.375,83.125,2.59999999999998));
#580=CARTESIAN_POINT('',(66.975,82.725,2.99999999999998));
#581=CARTESIAN_POINT('',(-67.375,83.125,2.59999999999998));
#582=CARTESIAN_POINT('',(33.6875,83.125,2.59999999999998));
#583=CARTESIAN_POINT('',(-66.975,82.725,2.99999999999998));
#584=CARTESIAN_POINT('Origin',(67.175,-11.9374999999999,2.8));
#585=CARTESIAN_POINT('',(66.975,-23.4749999999999,3.00000000000001));
#586=CARTESIAN_POINT('',(66.975,-11.9374999999999,3.));
#587=CARTESIAN_POINT('',(67.375,-23.8749999999999,2.60000000000001));
#588=CARTESIAN_POINT('',(66.975,-23.4749999999999,3.00000000000001));
#589=CARTESIAN_POINT('',(67.375,-11.9374999999999,2.6));
#590=CARTESIAN_POINT('Origin',(33.6875,-40.0749999999999,2.80000000000001));
#591=CARTESIAN_POINT('',(67.375,-39.8749999999999,2.60000000000001));
#592=CARTESIAN_POINT('',(51.375,-39.8749999999999,2.60000000000001));
#593=CARTESIAN_POINT('',(33.6875,-39.8749999999999,2.60000000000001));
#594=CARTESIAN_POINT('',(51.375,-40.2749999999999,3.00000000000001));
#595=CARTESIAN_POINT('',(51.375,-39.8749999999999,2.60000000000001));
#596=CARTESIAN_POINT('',(66.975,-40.2749999999999,3.00000000000001));
#597=CARTESIAN_POINT('',(33.6875,-40.2749999999999,3.00000000000001));
#598=CARTESIAN_POINT('',(66.975,-40.2749999999999,3.00000000000001));
#599=CARTESIAN_POINT('Origin',(67.175,-41.5625,2.80000000000001));
#600=CARTESIAN_POINT('',(66.975,-82.725,3.00000000000002));
#601=CARTESIAN_POINT('',(66.975,-41.5625,3.00000000000001));
#602=CARTESIAN_POINT('',(67.375,-83.125,2.60000000000002));
#603=CARTESIAN_POINT('',(66.975,-82.725,3.00000000000002));
#604=CARTESIAN_POINT('',(67.375,-41.5625,2.60000000000001));
#605=CARTESIAN_POINT('Origin',(-33.6875,-82.925,2.80000000000002));
#606=CARTESIAN_POINT('',(-67.375,-83.125,2.60000000000002));
#607=CARTESIAN_POINT('',(-33.6875,-83.125,2.60000000000002));
#608=CARTESIAN_POINT('',(-66.975,-82.725,3.00000000000002));
#609=CARTESIAN_POINT('',(-33.6875,-82.725,3.00000000000002));
#610=CARTESIAN_POINT('',(-66.975,-82.725,3.00000000000002));
#611=CARTESIAN_POINT('Origin',(51.375,-31.8749999999999,2.8));
#612=CARTESIAN_POINT('',(51.375,-23.8749999999999,2.6));
#613=CARTESIAN_POINT('',(51.375,-23.4749999999999,3.));
#614=CARTESIAN_POINT('',(51.375,-23.8749999999999,2.6));
#615=CARTESIAN_POINT('Origin',(51.375,-31.8749999999999,3.00000000000001));
#616=CARTESIAN_POINT('Origin',(51.375,-31.8749999999999,2.6));
#617=CARTESIAN_POINT('Origin',(25.6875,-23.6749999999999,2.8));
#618=CARTESIAN_POINT('',(25.6875,-23.4749999999999,3.00000000000001));
#619=CARTESIAN_POINT('',(25.6875,-23.8749999999999,2.6));
#620=CARTESIAN_POINT('Origin',(-67.175,41.5625,2.79999999999999));
#621=CARTESIAN_POINT('',(-67.375,41.5625,2.59999999999999));
#622=CARTESIAN_POINT('',(-66.975,41.5625,2.99999999999999));
#623=CARTESIAN_POINT('Origin',(67.375,-23.8749999999999,6.66133814775094E-15));
#624=CARTESIAN_POINT('',(67.375,-23.8749999999999,4.44089209850063E-15));
#625=CARTESIAN_POINT('',(67.375,-23.8749999999999,4.44089209850063E-15));
#626=CARTESIAN_POINT('',(67.375,83.125,-1.77635683940025E-14));
#627=CARTESIAN_POINT('',(67.375,83.125,-1.77635683940025E-14));
#628=CARTESIAN_POINT('',(67.375,83.125,-1.77635683940025E-14));
#629=CARTESIAN_POINT('Origin',(51.375,-23.8749999999999,4.44089209850063E-15));
#630=CARTESIAN_POINT('',(51.375,-23.8749999999999,4.44089209850063E-15));
#631=CARTESIAN_POINT('',(51.375,-23.8749999999999,4.44089209850063E-15));
#632=CARTESIAN_POINT('',(51.375,-23.8749999999999,4.44089209850063E-15));
#633=CARTESIAN_POINT('Origin',(51.375,-31.8749999999999,6.66133814775094E-15));
#634=CARTESIAN_POINT('',(51.375,-39.8749999999999,8.88178419700125E-15));
#635=CARTESIAN_POINT('',(51.375,-39.8749999999999,8.88178419700125E-15));
#636=CARTESIAN_POINT('Origin',(51.375,-31.8749999999999,6.66133814775094E-15));
#637=CARTESIAN_POINT('Origin',(67.375,-39.8749999999999,8.88178419700125E-15));
#638=CARTESIAN_POINT('',(67.375,-39.8749999999999,8.88178419700125E-15));
#639=CARTESIAN_POINT('',(67.375,-39.8749999999999,8.88178419700125E-15));
#640=CARTESIAN_POINT('',(67.375,-39.8749999999999,8.88178419700125E-15));
#641=CARTESIAN_POINT('Origin',(0.,0.,3.));
#642=CARTESIAN_POINT('',(64.325,-60.875,3.00000000000001));
#643=CARTESIAN_POINT('Origin',(62.275,-60.875,3.00000000000001));
#644=CARTESIAN_POINT('',(-40.825,-78.3749999999999,3.00000000000002));
#645=CARTESIAN_POINT('Origin',(-42.875,-78.3749999999999,3.00000000000002));
#646=CARTESIAN_POINT('Origin',(62.275,-60.875,2.80000000000001));
#647=CARTESIAN_POINT('',(63.925,-60.875,2.60000000000001));
#648=CARTESIAN_POINT('',(64.125,-60.875,2.80000000000001));
#649=CARTESIAN_POINT('Origin',(62.275,-60.875,2.60000000000001));
#650=CARTESIAN_POINT('Origin',(62.275,-60.875,5.00000000000002));
#651=CARTESIAN_POINT('',(63.925,-60.875,0.600000000000016));
#652=CARTESIAN_POINT('Origin',(62.275,-60.875,0.600000000000016));
#653=CARTESIAN_POINT('',(63.925,-60.875,5.00000000000002));
#654=CARTESIAN_POINT('Origin',(-42.875,-78.3749999999999,2.80000000000002));
#655=CARTESIAN_POINT('',(-41.225,-78.3749999999999,2.60000000000002));
#656=CARTESIAN_POINT('',(-41.025,-78.3749999999999,2.80000000000002));
#657=CARTESIAN_POINT('Origin',(-42.875,-78.3749999999999,2.60000000000002));
#658=CARTESIAN_POINT('Origin',(-42.875,-78.3749999999999,5.00000000000002));
#659=CARTESIAN_POINT('',(-41.225,-78.3749999999999,0.600000000000018));
#660=CARTESIAN_POINT('Origin',(-42.875,-78.3749999999999,0.600000000000018));
#661=CARTESIAN_POINT('',(-41.225,-78.3749999999999,5.00000000000002));
#662=CARTESIAN_POINT('Origin',(-42.875,-78.3749999999999,0.300000000000018));
#663=CARTESIAN_POINT('',(-40.625,-78.3749999999999,1.9671764217577E-14));
#664=CARTESIAN_POINT('Origin',(-42.875,-78.3749999999999,1.77635683940025E-14));
#665=CARTESIAN_POINT('',(-40.925,-78.3749999999999,0.300000000000018));
#666=CARTESIAN_POINT('Origin',(62.275,-60.875,0.300000000000016));
#667=CARTESIAN_POINT('',(64.525,-60.875,1.19348975147204E-14));
#668=CARTESIAN_POINT('Origin',(62.275,-60.875,1.33226762955019E-14));
#669=CARTESIAN_POINT('',(64.225,-60.875,0.300000000000016));
#670=CARTESIAN_POINT('Origin',(-67.375,-83.125,1.77635683940025E-14));
#671=CARTESIAN_POINT('',(-67.375,-83.125,1.77635683940025E-14));
#672=CARTESIAN_POINT('',(-67.375,-83.125,1.77635683940025E-14));
#673=CARTESIAN_POINT('',(67.375,-83.125,1.77635683940025E-14));
#674=CARTESIAN_POINT('',(-67.625,-83.125,1.77635683940025E-14));
#675=CARTESIAN_POINT('',(67.375,-83.125,1.77635683940025E-14));
#676=CARTESIAN_POINT('Origin',(-67.375,83.125,-1.77635683940025E-14));
#677=CARTESIAN_POINT('',(-67.375,83.125,-1.77635683940025E-14));
#678=CARTESIAN_POINT('',(-67.375,83.125,-1.77635683940025E-14));
#679=CARTESIAN_POINT('',(-67.375,-249.875,5.55111512312578E-14));
#680=CARTESIAN_POINT('Origin',(67.375,83.125,-1.77635683940025E-14));
#681=CARTESIAN_POINT('',(-67.625,83.125,-1.77635683940025E-14));
#682=CARTESIAN_POINT('Origin',(67.375,-83.125,1.99840144432528E-14));
#683=CARTESIAN_POINT('',(67.375,83.125,-1.77635683940025E-14));
#684=CARTESIAN_POINT('Origin',(0.,0.,0.));
#685=UNCERTAINTY_MEASURE_WITH_UNIT(LENGTH_MEASURE(0.01),#689,
'DISTANCE_ACCURACY_VALUE',
'Maximum model space distance between geometric entities at asserted c
onnectivities');
#686=UNCERTAINTY_MEASURE_WITH_UNIT(LENGTH_MEASURE(0.01),#689,
'DISTANCE_ACCURACY_VALUE',
'Maximum model space distance between geometric entities at asserted c
onnectivities');
#687=(
GEOMETRIC_REPRESENTATION_CONTEXT(3)
GLOBAL_UNCERTAINTY_ASSIGNED_CONTEXT((#685))
GLOBAL_UNIT_ASSIGNED_CONTEXT((#689,#691,#692))
REPRESENTATION_CONTEXT('','3D')
);
#688=(
GEOMETRIC_REPRESENTATION_CONTEXT(3)
GLOBAL_UNCERTAINTY_ASSIGNED_CONTEXT((#686))
GLOBAL_UNIT_ASSIGNED_CONTEXT((#689,#691,#692))
REPRESENTATION_CONTEXT('','3D')
);
#689=(
LENGTH_UNIT()
NAMED_UNIT(*)
SI_UNIT(.MILLI.,.METRE.)
);
#690=(
LENGTH_UNIT()
NAMED_UNIT(*)
SI_UNIT($,.METRE.)
);
#691=(
NAMED_UNIT(*)
PLANE_ANGLE_UNIT()
SI_UNIT($,.RADIAN.)
);
#692=(
NAMED_UNIT(*)
SI_UNIT($,.STERADIAN.)
SOLID_ANGLE_UNIT()
);
#693=SHAPE_DEFINITION_REPRESENTATION(#694,#695);
#694=PRODUCT_DEFINITION_SHAPE('',$,#697);
#695=SHAPE_REPRESENTATION('',(#423),#687);
#696=PRODUCT_DEFINITION_CONTEXT('part definition',#701,'design');
#697=PRODUCT_DEFINITION('MAIN','Proosa Mini - panels - export v2',#698,
#696);
#698=PRODUCT_DEFINITION_FORMATION('',$,#703);
#699=PRODUCT_RELATED_PRODUCT_CATEGORY(
'Proosa Mini - panels - export v2','Proosa Mini - panels - export v2',(#703));
#700=APPLICATION_PROTOCOL_DEFINITION('international standard',
'automotive_design',2009,#701);
#701=APPLICATION_CONTEXT(
'Core Data for Automotive Mechanical Design Process');
#702=PRODUCT_CONTEXT('part definition',#701,'mechanical');
#703=PRODUCT('MAIN','Proosa Mini - panels - export v2','FreeCAD Model',
(#702));
#704=PRESENTATION_STYLE_ASSIGNMENT((#706));
#705=PRESENTATION_STYLE_ASSIGNMENT((#707));
#706=SURFACE_STYLE_USAGE(.BOTH.,#708);
#707=SURFACE_STYLE_USAGE(.BOTH.,#709);
#708=SURFACE_SIDE_STYLE('',(#710));
#709=SURFACE_SIDE_STYLE('',(#711));
#710=SURFACE_STYLE_FILL_AREA(#712);
#711=SURFACE_STYLE_FILL_AREA(#713);
#712=FILL_AREA_STYLE('Acero - Satinado',(#714));
#713=FILL_AREA_STYLE('Opaque(82,82,82)',(#715));
#714=FILL_AREA_STYLE_COLOUR('Acero - Satinado',#716);
#715=FILL_AREA_STYLE_COLOUR('Opaque(82,82,82)',#717);
#716=COLOUR_RGB('Acero - Satinado',0.627450980392157,0.627450980392157,
0.627450980392157);
#717=COLOUR_RGB('Opaque(82,82,82)',0.32156862745098,0.32156862745098,0.32156862745098);
ENDSEC;
END-ISO-10303-21;
