ISO-10303-21;
HEADER;
/* Generated by software containing ST-Developer
 * from STEP Tools, Inc. (www.steptools.com) 
 */

FILE_DESCRIPTION(
/* description */ ('FreeCAD Model'),
/* implementation_level */ '2;1');

FILE_NAME(
/* name */ 'bottom-panel-front-left.step',
/* time_stamp */ '2026-04-24T17:55:56+02:00',
/* author */ (''),
/* organization */ (''),
/* preprocessor_version */ 'ST-DEVELOPER v20.1',
/* originating_system */ 'Autodesk Translation Framework v15.8.0.0',
/* authorisation */ '');

FILE_SCHEMA (('AUTOMOTIVE_DESIGN { 1 0 10303 214 3 1 1 }'));
ENDSEC;

DATA;
#10=MECHANICAL_DESIGN_GEOMETRIC_PRESENTATION_REPRESENTATION('',(#13),#1008);
#11=SHAPE_REPRESENTATION_RELATIONSHIP('SRR','None',#1015,#12);
#12=ADVANCED_BREP_SHAPE_REPRESENTATION('',(#14),#1007);
#13=STYLED_ITEM('',(#1024),#14);
#14=MANIFOLD_SOLID_BREP('bottom-panel-front-left',#602);
#15=FACE_BOUND('',#106,.T.);
#16=FACE_BOUND('',#107,.T.);
#17=FACE_BOUND('',#108,.T.);
#18=FACE_BOUND('',#125,.T.);
#19=FACE_BOUND('',#126,.T.);
#20=FACE_BOUND('',#127,.T.);
#21=CYLINDRICAL_SURFACE('',#632,8.);
#22=CYLINDRICAL_SURFACE('',#637,11.);
#23=CYLINDRICAL_SURFACE('',#646,1.65);
#24=CYLINDRICAL_SURFACE('',#650,1.65);
#25=CYLINDRICAL_SURFACE('',#654,1.65);
#26=CIRCLE('',#622,8.4);
#27=CIRCLE('',#623,8.);
#28=CIRCLE('',#628,11.4);
#29=CIRCLE('',#629,11.);
#30=CIRCLE('',#633,8.);
#31=CIRCLE('',#638,11.);
#32=CIRCLE('',#641,2.05);
#33=CIRCLE('',#642,2.04999999999999);
#34=CIRCLE('',#643,2.04999999999999);
#35=CIRCLE('',#645,1.65);
#36=CIRCLE('',#647,1.65);
#37=CIRCLE('',#649,1.65);
#38=CIRCLE('',#651,1.65);
#39=CIRCLE('',#653,1.65);
#40=CIRCLE('',#655,1.65);
#41=CIRCLE('',#657,2.25);
#42=CIRCLE('',#659,2.25);
#43=CIRCLE('',#661,2.25);
#44=CONICAL_SURFACE('',#621,8.2,0.785398163397443);
#45=CONICAL_SURFACE('',#627,11.2,0.785398163397462);
#46=CONICAL_SURFACE('',#644,1.85,0.785398163397448);
#47=CONICAL_SURFACE('',#648,1.85,0.785398163397437);
#48=CONICAL_SURFACE('',#652,1.85,0.785398163397437);
#49=CONICAL_SURFACE('',#656,1.95,0.785398163397448);
#50=CONICAL_SURFACE('',#658,1.95,0.785398163397448);
#51=CONICAL_SURFACE('',#660,1.95,0.785398163397448);
#52=FACE_OUTER_BOUND('',#87,.T.);
#53=FACE_OUTER_BOUND('',#88,.T.);
#54=FACE_OUTER_BOUND('',#89,.T.);
#55=FACE_OUTER_BOUND('',#90,.T.);
#56=FACE_OUTER_BOUND('',#91,.T.);
#57=FACE_OUTER_BOUND('',#92,.T.);
#58=FACE_OUTER_BOUND('',#93,.T.);
#59=FACE_OUTER_BOUND('',#94,.T.);
#60=FACE_OUTER_BOUND('',#95,.T.);
#61=FACE_OUTER_BOUND('',#96,.T.);
#62=FACE_OUTER_BOUND('',#97,.T.);
#63=FACE_OUTER_BOUND('',#98,.T.);
#64=FACE_OUTER_BOUND('',#99,.T.);
#65=FACE_OUTER_BOUND('',#100,.T.);
#66=FACE_OUTER_BOUND('',#101,.T.);
#67=FACE_OUTER_BOUND('',#102,.T.);
#68=FACE_OUTER_BOUND('',#103,.T.);
#69=FACE_OUTER_BOUND('',#104,.T.);
#70=FACE_OUTER_BOUND('',#105,.T.);
#71=FACE_OUTER_BOUND('',#109,.T.);
#72=FACE_OUTER_BOUND('',#110,.T.);
#73=FACE_OUTER_BOUND('',#111,.T.);
#74=FACE_OUTER_BOUND('',#112,.T.);
#75=FACE_OUTER_BOUND('',#113,.T.);
#76=FACE_OUTER_BOUND('',#114,.T.);
#77=FACE_OUTER_BOUND('',#115,.T.);
#78=FACE_OUTER_BOUND('',#116,.T.);
#79=FACE_OUTER_BOUND('',#117,.T.);
#80=FACE_OUTER_BOUND('',#118,.T.);
#81=FACE_OUTER_BOUND('',#119,.T.);
#82=FACE_OUTER_BOUND('',#120,.T.);
#83=FACE_OUTER_BOUND('',#121,.T.);
#84=FACE_OUTER_BOUND('',#122,.T.);
#85=FACE_OUTER_BOUND('',#123,.T.);
#86=FACE_OUTER_BOUND('',#124,.T.);
#87=EDGE_LOOP('',(#383,#384,#385,#386));
#88=EDGE_LOOP('',(#387,#388,#389,#390));
#89=EDGE_LOOP('',(#391,#392,#393,#394));
#90=EDGE_LOOP('',(#395,#396,#397,#398));
#91=EDGE_LOOP('',(#399,#400,#401,#402));
#92=EDGE_LOOP('',(#403,#404,#405,#406));
#93=EDGE_LOOP('',(#407,#408,#409,#410));
#94=EDGE_LOOP('',(#411,#412,#413,#414));
#95=EDGE_LOOP('',(#415,#416,#417,#418));
#96=EDGE_LOOP('',(#419,#420,#421,#422));
#97=EDGE_LOOP('',(#423,#424,#425,#426));
#98=EDGE_LOOP('',(#427,#428,#429,#430));
#99=EDGE_LOOP('',(#431,#432,#433,#434));
#100=EDGE_LOOP('',(#435,#436,#437,#438));
#101=EDGE_LOOP('',(#439,#440,#441,#442));
#102=EDGE_LOOP('',(#443,#444,#445,#446));
#103=EDGE_LOOP('',(#447,#448,#449,#450));
#104=EDGE_LOOP('',(#451,#452,#453,#454));
#105=EDGE_LOOP('',(#455,#456,#457,#458,#459,#460,#461,#462,#463,#464,#465,
#466));
#106=EDGE_LOOP('',(#467));
#107=EDGE_LOOP('',(#468));
#108=EDGE_LOOP('',(#469));
#109=EDGE_LOOP('',(#470,#471,#472,#473));
#110=EDGE_LOOP('',(#474,#475,#476,#477));
#111=EDGE_LOOP('',(#478,#479,#480,#481));
#112=EDGE_LOOP('',(#482,#483,#484,#485));
#113=EDGE_LOOP('',(#486,#487,#488,#489));
#114=EDGE_LOOP('',(#490,#491,#492,#493));
#115=EDGE_LOOP('',(#494,#495,#496,#497));
#116=EDGE_LOOP('',(#498,#499,#500,#501));
#117=EDGE_LOOP('',(#502,#503,#504,#505));
#118=EDGE_LOOP('',(#506,#507,#508,#509));
#119=EDGE_LOOP('',(#510,#511,#512,#513));
#120=EDGE_LOOP('',(#514,#515,#516,#517));
#121=EDGE_LOOP('',(#518,#519,#520,#521));
#122=EDGE_LOOP('',(#522,#523,#524,#525));
#123=EDGE_LOOP('',(#526,#527,#528,#529));
#124=EDGE_LOOP('',(#530,#531,#532,#533,#534,#535,#536,#537,#538,#539,#540,
#541));
#125=EDGE_LOOP('',(#542));
#126=EDGE_LOOP('',(#543));
#127=EDGE_LOOP('',(#544));
#128=LINE('',#844,#191);
#129=LINE('',#846,#192);
#130=LINE('',#848,#193);
#131=LINE('',#849,#194);
#132=LINE('',#852,#195);
#133=LINE('',#854,#196);
#134=LINE('',#855,#197);
#135=LINE('',#858,#198);
#136=LINE('',#860,#199);
#137=LINE('',#861,#200);
#138=LINE('',#864,#201);
#139=LINE('',#866,#202);
#140=LINE('',#867,#203);
#141=LINE('',#871,#204);
#142=LINE('',#873,#205);
#143=LINE('',#875,#206);
#144=LINE('',#876,#207);
#145=LINE('',#880,#208);
#146=LINE('',#884,#209);
#147=LINE('',#885,#210);
#148=LINE('',#888,#211);
#149=LINE('',#890,#212);
#150=LINE('',#891,#213);
#151=LINE('',#895,#214);
#152=LINE('',#897,#215);
#153=LINE('',#899,#216);
#154=LINE('',#900,#217);
#155=LINE('',#904,#218);
#156=LINE('',#908,#219);
#157=LINE('',#909,#220);
#158=LINE('',#911,#221);
#159=LINE('',#912,#222);
#160=LINE('',#915,#223);
#161=LINE('',#918,#224);
#162=LINE('',#921,#225);
#163=LINE('',#922,#226);
#164=LINE('',#925,#227);
#165=LINE('',#926,#228);
#166=LINE('',#929,#229);
#167=LINE('',#930,#230);
#168=LINE('',#933,#231);
#169=LINE('',#937,#232);
#170=LINE('',#938,#233);
#171=LINE('',#948,#234);
#172=LINE('',#953,#235);
#173=LINE('',#956,#236);
#174=LINE('',#961,#237);
#175=LINE('',#964,#238);
#176=LINE('',#969,#239);
#177=LINE('',#973,#240);
#178=LINE('',#977,#241);
#179=LINE('',#981,#242);
#180=LINE('',#984,#243);
#181=LINE('',#985,#244);
#182=LINE('',#988,#245);
#183=LINE('',#989,#246);
#184=LINE('',#992,#247);
#185=LINE('',#993,#248);
#186=LINE('',#996,#249);
#187=LINE('',#997,#250);
#188=LINE('',#1000,#251);
#189=LINE('',#1001,#252);
#190=LINE('',#1003,#253);
#191=VECTOR('',#673,10.);
#192=VECTOR('',#674,10.);
#193=VECTOR('',#675,10.);
#194=VECTOR('',#676,10.);
#195=VECTOR('',#679,10.);
#196=VECTOR('',#680,10.);
#197=VECTOR('',#681,10.);
#198=VECTOR('',#684,10.);
#199=VECTOR('',#685,10.);
#200=VECTOR('',#686,10.);
#201=VECTOR('',#689,10.);
#202=VECTOR('',#690,10.);
#203=VECTOR('',#691,10.);
#204=VECTOR('',#694,10.);
#205=VECTOR('',#695,10.);
#206=VECTOR('',#696,10.);
#207=VECTOR('',#697,10.);
#208=VECTOR('',#700,10.);
#209=VECTOR('',#707,10.);
#210=VECTOR('',#708,10.);
#211=VECTOR('',#711,10.);
#212=VECTOR('',#712,10.);
#213=VECTOR('',#713,10.);
#214=VECTOR('',#716,10.);
#215=VECTOR('',#717,10.);
#216=VECTOR('',#718,10.);
#217=VECTOR('',#719,10.);
#218=VECTOR('',#722,10.);
#219=VECTOR('',#729,10.);
#220=VECTOR('',#730,10.);
#221=VECTOR('',#733,10.);
#222=VECTOR('',#734,10.);
#223=VECTOR('',#737,10.);
#224=VECTOR('',#740,10.);
#225=VECTOR('',#743,10.);
#226=VECTOR('',#744,10.);
#227=VECTOR('',#747,10.);
#228=VECTOR('',#748,10.);
#229=VECTOR('',#751,10.);
#230=VECTOR('',#752,10.);
#231=VECTOR('',#755,10.);
#232=VECTOR('',#760,10.);
#233=VECTOR('',#761,10.);
#234=VECTOR('',#772,1.85);
#235=VECTOR('',#779,1.65);
#236=VECTOR('',#782,1.85);
#237=VECTOR('',#789,1.65);
#238=VECTOR('',#792,1.85);
#239=VECTOR('',#799,1.65);
#240=VECTOR('',#804,1.95);
#241=VECTOR('',#809,1.95);
#242=VECTOR('',#814,1.95);
#243=VECTOR('',#817,10.);
#244=VECTOR('',#818,10.);
#245=VECTOR('',#821,10.);
#246=VECTOR('',#822,10.);
#247=VECTOR('',#825,10.);
#248=VECTOR('',#826,10.);
#249=VECTOR('',#829,10.);
#250=VECTOR('',#830,10.);
#251=VECTOR('',#833,10.);
#252=VECTOR('',#834,10.);
#253=VECTOR('',#837,10.);
#254=VERTEX_POINT('',#842);
#255=VERTEX_POINT('',#843);
#256=VERTEX_POINT('',#845);
#257=VERTEX_POINT('',#847);
#258=VERTEX_POINT('',#851);
#259=VERTEX_POINT('',#853);
#260=VERTEX_POINT('',#857);
#261=VERTEX_POINT('',#859);
#262=VERTEX_POINT('',#863);
#263=VERTEX_POINT('',#865);
#264=VERTEX_POINT('',#869);
#265=VERTEX_POINT('',#870);
#266=VERTEX_POINT('',#872);
#267=VERTEX_POINT('',#874);
#268=VERTEX_POINT('',#878);
#269=VERTEX_POINT('',#879);
#270=VERTEX_POINT('',#887);
#271=VERTEX_POINT('',#889);
#272=VERTEX_POINT('',#893);
#273=VERTEX_POINT('',#894);
#274=VERTEX_POINT('',#896);
#275=VERTEX_POINT('',#898);
#276=VERTEX_POINT('',#902);
#277=VERTEX_POINT('',#903);
#278=VERTEX_POINT('',#914);
#279=VERTEX_POINT('',#916);
#280=VERTEX_POINT('',#920);
#281=VERTEX_POINT('',#924);
#282=VERTEX_POINT('',#928);
#283=VERTEX_POINT('',#932);
#284=VERTEX_POINT('',#936);
#285=VERTEX_POINT('',#940);
#286=VERTEX_POINT('',#942);
#287=VERTEX_POINT('',#944);
#288=VERTEX_POINT('',#947);
#289=VERTEX_POINT('',#951);
#290=VERTEX_POINT('',#955);
#291=VERTEX_POINT('',#959);
#292=VERTEX_POINT('',#963);
#293=VERTEX_POINT('',#967);
#294=VERTEX_POINT('',#971);
#295=VERTEX_POINT('',#975);
#296=VERTEX_POINT('',#979);
#297=VERTEX_POINT('',#983);
#298=VERTEX_POINT('',#987);
#299=VERTEX_POINT('',#991);
#300=VERTEX_POINT('',#995);
#301=VERTEX_POINT('',#999);
#302=EDGE_CURVE('',#254,#255,#128,.T.);
#303=EDGE_CURVE('',#255,#256,#129,.T.);
#304=EDGE_CURVE('',#256,#257,#130,.T.);
#305=EDGE_CURVE('',#254,#257,#131,.T.);
#306=EDGE_CURVE('',#255,#258,#132,.T.);
#307=EDGE_CURVE('',#258,#259,#133,.T.);
#308=EDGE_CURVE('',#259,#256,#134,.T.);
#309=EDGE_CURVE('',#258,#260,#135,.T.);
#310=EDGE_CURVE('',#260,#261,#136,.T.);
#311=EDGE_CURVE('',#261,#259,#137,.T.);
#312=EDGE_CURVE('',#260,#262,#138,.T.);
#313=EDGE_CURVE('',#262,#263,#139,.T.);
#314=EDGE_CURVE('',#263,#261,#140,.T.);
#315=EDGE_CURVE('',#264,#265,#141,.T.);
#316=EDGE_CURVE('',#265,#266,#142,.T.);
#317=EDGE_CURVE('',#266,#267,#143,.T.);
#318=EDGE_CURVE('',#267,#264,#144,.T.);
#319=EDGE_CURVE('',#268,#269,#145,.T.);
#320=EDGE_CURVE('',#269,#266,#26,.T.);
#321=EDGE_CURVE('',#265,#268,#27,.T.);
#322=EDGE_CURVE('',#262,#269,#146,.T.);
#323=EDGE_CURVE('',#268,#263,#147,.T.);
#324=EDGE_CURVE('',#270,#264,#148,.T.);
#325=EDGE_CURVE('',#267,#271,#149,.T.);
#326=EDGE_CURVE('',#271,#270,#150,.T.);
#327=EDGE_CURVE('',#272,#273,#151,.T.);
#328=EDGE_CURVE('',#273,#274,#152,.T.);
#329=EDGE_CURVE('',#274,#275,#153,.T.);
#330=EDGE_CURVE('',#275,#272,#154,.T.);
#331=EDGE_CURVE('',#276,#277,#155,.T.);
#332=EDGE_CURVE('',#277,#274,#28,.T.);
#333=EDGE_CURVE('',#273,#276,#29,.T.);
#334=EDGE_CURVE('',#271,#277,#156,.T.);
#335=EDGE_CURVE('',#276,#270,#157,.T.);
#336=EDGE_CURVE('',#257,#272,#158,.T.);
#337=EDGE_CURVE('',#275,#254,#159,.T.);
#338=EDGE_CURVE('',#278,#265,#160,.T.);
#339=EDGE_CURVE('',#278,#279,#30,.T.);
#340=EDGE_CURVE('',#279,#268,#161,.T.);
#341=EDGE_CURVE('',#280,#264,#162,.T.);
#342=EDGE_CURVE('',#278,#280,#163,.T.);
#343=EDGE_CURVE('',#281,#270,#164,.T.);
#344=EDGE_CURVE('',#281,#280,#165,.T.);
#345=EDGE_CURVE('',#282,#276,#166,.T.);
#346=EDGE_CURVE('',#281,#282,#167,.T.);
#347=EDGE_CURVE('',#283,#273,#168,.T.);
#348=EDGE_CURVE('',#283,#282,#31,.T.);
#349=EDGE_CURVE('',#284,#272,#169,.T.);
#350=EDGE_CURVE('',#284,#283,#170,.T.);
#351=EDGE_CURVE('',#285,#285,#32,.T.);
#352=EDGE_CURVE('',#286,#286,#33,.T.);
#353=EDGE_CURVE('',#287,#287,#34,.T.);
#354=EDGE_CURVE('',#285,#288,#171,.T.);
#355=EDGE_CURVE('',#288,#288,#35,.T.);
#356=EDGE_CURVE('',#289,#289,#36,.T.);
#357=EDGE_CURVE('',#289,#288,#172,.T.);
#358=EDGE_CURVE('',#287,#290,#173,.T.);
#359=EDGE_CURVE('',#290,#290,#37,.T.);
#360=EDGE_CURVE('',#291,#291,#38,.T.);
#361=EDGE_CURVE('',#291,#290,#174,.T.);
#362=EDGE_CURVE('',#286,#292,#175,.T.);
#363=EDGE_CURVE('',#292,#292,#39,.T.);
#364=EDGE_CURVE('',#293,#293,#40,.T.);
#365=EDGE_CURVE('',#293,#292,#176,.T.);
#366=EDGE_CURVE('',#294,#294,#41,.T.);
#367=EDGE_CURVE('',#294,#293,#177,.T.);
#368=EDGE_CURVE('',#295,#295,#42,.T.);
#369=EDGE_CURVE('',#295,#291,#178,.T.);
#370=EDGE_CURVE('',#296,#296,#43,.T.);
#371=EDGE_CURVE('',#296,#289,#179,.T.);
#372=EDGE_CURVE('',#297,#257,#180,.T.);
#373=EDGE_CURVE('',#297,#284,#181,.T.);
#374=EDGE_CURVE('',#298,#256,#182,.T.);
#375=EDGE_CURVE('',#297,#298,#183,.T.);
#376=EDGE_CURVE('',#299,#259,#184,.T.);
#377=EDGE_CURVE('',#299,#298,#185,.T.);
#378=EDGE_CURVE('',#300,#261,#186,.T.);
#379=EDGE_CURVE('',#300,#299,#187,.T.);
#380=EDGE_CURVE('',#301,#263,#188,.T.);
#381=EDGE_CURVE('',#301,#300,#189,.T.);
#382=EDGE_CURVE('',#301,#279,#190,.T.);
#383=ORIENTED_EDGE('',*,*,#302,.T.);
#384=ORIENTED_EDGE('',*,*,#303,.T.);
#385=ORIENTED_EDGE('',*,*,#304,.T.);
#386=ORIENTED_EDGE('',*,*,#305,.F.);
#387=ORIENTED_EDGE('',*,*,#306,.T.);
#388=ORIENTED_EDGE('',*,*,#307,.T.);
#389=ORIENTED_EDGE('',*,*,#308,.T.);
#390=ORIENTED_EDGE('',*,*,#303,.F.);
#391=ORIENTED_EDGE('',*,*,#309,.T.);
#392=ORIENTED_EDGE('',*,*,#310,.T.);
#393=ORIENTED_EDGE('',*,*,#311,.T.);
#394=ORIENTED_EDGE('',*,*,#307,.F.);
#395=ORIENTED_EDGE('',*,*,#312,.T.);
#396=ORIENTED_EDGE('',*,*,#313,.T.);
#397=ORIENTED_EDGE('',*,*,#314,.T.);
#398=ORIENTED_EDGE('',*,*,#310,.F.);
#399=ORIENTED_EDGE('',*,*,#315,.T.);
#400=ORIENTED_EDGE('',*,*,#316,.T.);
#401=ORIENTED_EDGE('',*,*,#317,.T.);
#402=ORIENTED_EDGE('',*,*,#318,.T.);
#403=ORIENTED_EDGE('',*,*,#319,.T.);
#404=ORIENTED_EDGE('',*,*,#320,.T.);
#405=ORIENTED_EDGE('',*,*,#316,.F.);
#406=ORIENTED_EDGE('',*,*,#321,.T.);
#407=ORIENTED_EDGE('',*,*,#322,.T.);
#408=ORIENTED_EDGE('',*,*,#319,.F.);
#409=ORIENTED_EDGE('',*,*,#323,.T.);
#410=ORIENTED_EDGE('',*,*,#313,.F.);
#411=ORIENTED_EDGE('',*,*,#324,.T.);
#412=ORIENTED_EDGE('',*,*,#318,.F.);
#413=ORIENTED_EDGE('',*,*,#325,.T.);
#414=ORIENTED_EDGE('',*,*,#326,.T.);
#415=ORIENTED_EDGE('',*,*,#327,.T.);
#416=ORIENTED_EDGE('',*,*,#328,.T.);
#417=ORIENTED_EDGE('',*,*,#329,.T.);
#418=ORIENTED_EDGE('',*,*,#330,.T.);
#419=ORIENTED_EDGE('',*,*,#331,.T.);
#420=ORIENTED_EDGE('',*,*,#332,.T.);
#421=ORIENTED_EDGE('',*,*,#328,.F.);
#422=ORIENTED_EDGE('',*,*,#333,.T.);
#423=ORIENTED_EDGE('',*,*,#334,.T.);
#424=ORIENTED_EDGE('',*,*,#331,.F.);
#425=ORIENTED_EDGE('',*,*,#335,.T.);
#426=ORIENTED_EDGE('',*,*,#326,.F.);
#427=ORIENTED_EDGE('',*,*,#336,.T.);
#428=ORIENTED_EDGE('',*,*,#330,.F.);
#429=ORIENTED_EDGE('',*,*,#337,.T.);
#430=ORIENTED_EDGE('',*,*,#305,.T.);
#431=ORIENTED_EDGE('',*,*,#321,.F.);
#432=ORIENTED_EDGE('',*,*,#338,.F.);
#433=ORIENTED_EDGE('',*,*,#339,.T.);
#434=ORIENTED_EDGE('',*,*,#340,.T.);
#435=ORIENTED_EDGE('',*,*,#315,.F.);
#436=ORIENTED_EDGE('',*,*,#341,.F.);
#437=ORIENTED_EDGE('',*,*,#342,.F.);
#438=ORIENTED_EDGE('',*,*,#338,.T.);
#439=ORIENTED_EDGE('',*,*,#324,.F.);
#440=ORIENTED_EDGE('',*,*,#343,.F.);
#441=ORIENTED_EDGE('',*,*,#344,.T.);
#442=ORIENTED_EDGE('',*,*,#341,.T.);
#443=ORIENTED_EDGE('',*,*,#335,.F.);
#444=ORIENTED_EDGE('',*,*,#345,.F.);
#445=ORIENTED_EDGE('',*,*,#346,.F.);
#446=ORIENTED_EDGE('',*,*,#343,.T.);
#447=ORIENTED_EDGE('',*,*,#333,.F.);
#448=ORIENTED_EDGE('',*,*,#347,.F.);
#449=ORIENTED_EDGE('',*,*,#348,.T.);
#450=ORIENTED_EDGE('',*,*,#345,.T.);
#451=ORIENTED_EDGE('',*,*,#327,.F.);
#452=ORIENTED_EDGE('',*,*,#349,.F.);
#453=ORIENTED_EDGE('',*,*,#350,.T.);
#454=ORIENTED_EDGE('',*,*,#347,.T.);
#455=ORIENTED_EDGE('',*,*,#329,.F.);
#456=ORIENTED_EDGE('',*,*,#332,.F.);
#457=ORIENTED_EDGE('',*,*,#334,.F.);
#458=ORIENTED_EDGE('',*,*,#325,.F.);
#459=ORIENTED_EDGE('',*,*,#317,.F.);
#460=ORIENTED_EDGE('',*,*,#320,.F.);
#461=ORIENTED_EDGE('',*,*,#322,.F.);
#462=ORIENTED_EDGE('',*,*,#312,.F.);
#463=ORIENTED_EDGE('',*,*,#309,.F.);
#464=ORIENTED_EDGE('',*,*,#306,.F.);
#465=ORIENTED_EDGE('',*,*,#302,.F.);
#466=ORIENTED_EDGE('',*,*,#337,.F.);
#467=ORIENTED_EDGE('',*,*,#351,.F.);
#468=ORIENTED_EDGE('',*,*,#352,.F.);
#469=ORIENTED_EDGE('',*,*,#353,.F.);
#470=ORIENTED_EDGE('',*,*,#351,.T.);
#471=ORIENTED_EDGE('',*,*,#354,.T.);
#472=ORIENTED_EDGE('',*,*,#355,.T.);
#473=ORIENTED_EDGE('',*,*,#354,.F.);
#474=ORIENTED_EDGE('',*,*,#356,.F.);
#475=ORIENTED_EDGE('',*,*,#357,.T.);
#476=ORIENTED_EDGE('',*,*,#355,.F.);
#477=ORIENTED_EDGE('',*,*,#357,.F.);
#478=ORIENTED_EDGE('',*,*,#353,.T.);
#479=ORIENTED_EDGE('',*,*,#358,.T.);
#480=ORIENTED_EDGE('',*,*,#359,.T.);
#481=ORIENTED_EDGE('',*,*,#358,.F.);
#482=ORIENTED_EDGE('',*,*,#360,.F.);
#483=ORIENTED_EDGE('',*,*,#361,.T.);
#484=ORIENTED_EDGE('',*,*,#359,.F.);
#485=ORIENTED_EDGE('',*,*,#361,.F.);
#486=ORIENTED_EDGE('',*,*,#352,.T.);
#487=ORIENTED_EDGE('',*,*,#362,.T.);
#488=ORIENTED_EDGE('',*,*,#363,.T.);
#489=ORIENTED_EDGE('',*,*,#362,.F.);
#490=ORIENTED_EDGE('',*,*,#364,.F.);
#491=ORIENTED_EDGE('',*,*,#365,.T.);
#492=ORIENTED_EDGE('',*,*,#363,.F.);
#493=ORIENTED_EDGE('',*,*,#365,.F.);
#494=ORIENTED_EDGE('',*,*,#366,.F.);
#495=ORIENTED_EDGE('',*,*,#367,.T.);
#496=ORIENTED_EDGE('',*,*,#364,.T.);
#497=ORIENTED_EDGE('',*,*,#367,.F.);
#498=ORIENTED_EDGE('',*,*,#368,.F.);
#499=ORIENTED_EDGE('',*,*,#369,.T.);
#500=ORIENTED_EDGE('',*,*,#360,.T.);
#501=ORIENTED_EDGE('',*,*,#369,.F.);
#502=ORIENTED_EDGE('',*,*,#370,.F.);
#503=ORIENTED_EDGE('',*,*,#371,.T.);
#504=ORIENTED_EDGE('',*,*,#356,.T.);
#505=ORIENTED_EDGE('',*,*,#371,.F.);
#506=ORIENTED_EDGE('',*,*,#336,.F.);
#507=ORIENTED_EDGE('',*,*,#372,.F.);
#508=ORIENTED_EDGE('',*,*,#373,.T.);
#509=ORIENTED_EDGE('',*,*,#349,.T.);
#510=ORIENTED_EDGE('',*,*,#304,.F.);
#511=ORIENTED_EDGE('',*,*,#374,.F.);
#512=ORIENTED_EDGE('',*,*,#375,.F.);
#513=ORIENTED_EDGE('',*,*,#372,.T.);
#514=ORIENTED_EDGE('',*,*,#308,.F.);
#515=ORIENTED_EDGE('',*,*,#376,.F.);
#516=ORIENTED_EDGE('',*,*,#377,.T.);
#517=ORIENTED_EDGE('',*,*,#374,.T.);
#518=ORIENTED_EDGE('',*,*,#311,.F.);
#519=ORIENTED_EDGE('',*,*,#378,.F.);
#520=ORIENTED_EDGE('',*,*,#379,.T.);
#521=ORIENTED_EDGE('',*,*,#376,.T.);
#522=ORIENTED_EDGE('',*,*,#314,.F.);
#523=ORIENTED_EDGE('',*,*,#380,.F.);
#524=ORIENTED_EDGE('',*,*,#381,.T.);
#525=ORIENTED_EDGE('',*,*,#378,.T.);
#526=ORIENTED_EDGE('',*,*,#323,.F.);
#527=ORIENTED_EDGE('',*,*,#340,.F.);
#528=ORIENTED_EDGE('',*,*,#382,.F.);
#529=ORIENTED_EDGE('',*,*,#380,.T.);
#530=ORIENTED_EDGE('',*,*,#382,.T.);
#531=ORIENTED_EDGE('',*,*,#339,.F.);
#532=ORIENTED_EDGE('',*,*,#342,.T.);
#533=ORIENTED_EDGE('',*,*,#344,.F.);
#534=ORIENTED_EDGE('',*,*,#346,.T.);
#535=ORIENTED_EDGE('',*,*,#348,.F.);
#536=ORIENTED_EDGE('',*,*,#350,.F.);
#537=ORIENTED_EDGE('',*,*,#373,.F.);
#538=ORIENTED_EDGE('',*,*,#375,.T.);
#539=ORIENTED_EDGE('',*,*,#377,.F.);
#540=ORIENTED_EDGE('',*,*,#379,.F.);
#541=ORIENTED_EDGE('',*,*,#381,.F.);
#542=ORIENTED_EDGE('',*,*,#366,.T.);
#543=ORIENTED_EDGE('',*,*,#368,.T.);
#544=ORIENTED_EDGE('',*,*,#370,.T.);
#545=PLANE('',#616);
#546=PLANE('',#617);
#547=PLANE('',#618);
#548=PLANE('',#619);
#549=PLANE('',#620);
#550=PLANE('',#624);
#551=PLANE('',#625);
#552=PLANE('',#626);
#553=PLANE('',#630);
#554=PLANE('',#631);
#555=PLANE('',#634);
#556=PLANE('',#635);
#557=PLANE('',#636);
#558=PLANE('',#639);
#559=PLANE('',#640);
#560=PLANE('',#662);
#561=PLANE('',#663);
#562=PLANE('',#664);
#563=PLANE('',#665);
#564=PLANE('',#666);
#565=PLANE('',#667);
#566=PLANE('',#668);
#567=ADVANCED_FACE('',(#52),#545,.T.);
#568=ADVANCED_FACE('',(#53),#546,.T.);
#569=ADVANCED_FACE('',(#54),#547,.T.);
#570=ADVANCED_FACE('',(#55),#548,.T.);
#571=ADVANCED_FACE('',(#56),#549,.T.);
#572=ADVANCED_FACE('',(#57),#44,.F.);
#573=ADVANCED_FACE('',(#58),#550,.T.);
#574=ADVANCED_FACE('',(#59),#551,.T.);
#575=ADVANCED_FACE('',(#60),#552,.T.);
#576=ADVANCED_FACE('',(#61),#45,.F.);
#577=ADVANCED_FACE('',(#62),#553,.T.);
#578=ADVANCED_FACE('',(#63),#554,.T.);
#579=ADVANCED_FACE('',(#64),#21,.F.);
#580=ADVANCED_FACE('',(#65),#555,.T.);
#581=ADVANCED_FACE('',(#66),#556,.T.);
#582=ADVANCED_FACE('',(#67),#557,.T.);
#583=ADVANCED_FACE('',(#68),#22,.F.);
#584=ADVANCED_FACE('',(#69),#558,.T.);
#585=ADVANCED_FACE('',(#70,#15,#16,#17),#559,.F.);
#586=ADVANCED_FACE('',(#71),#46,.F.);
#587=ADVANCED_FACE('',(#72),#23,.F.);
#588=ADVANCED_FACE('',(#73),#47,.F.);
#589=ADVANCED_FACE('',(#74),#24,.F.);
#590=ADVANCED_FACE('',(#75),#48,.F.);
#591=ADVANCED_FACE('',(#76),#25,.F.);
#592=ADVANCED_FACE('',(#77),#49,.F.);
#593=ADVANCED_FACE('',(#78),#50,.F.);
#594=ADVANCED_FACE('',(#79),#51,.F.);
#595=ADVANCED_FACE('',(#80),#560,.T.);
#596=ADVANCED_FACE('',(#81),#561,.T.);
#597=ADVANCED_FACE('',(#82),#562,.T.);
#598=ADVANCED_FACE('',(#83),#563,.T.);
#599=ADVANCED_FACE('',(#84),#564,.T.);
#600=ADVANCED_FACE('',(#85),#565,.T.);
#601=ADVANCED_FACE('',(#86,#18,#19,#20),#566,.T.);
#602=CLOSED_SHELL('',(#567,#568,#569,#570,#571,#572,#573,#574,#575,#576,
#577,#578,#579,#580,#581,#582,#583,#584,#585,#586,#587,#588,#589,#590,#591,
#592,#593,#594,#595,#596,#597,#598,#599,#600,#601));
#603=DERIVED_UNIT_ELEMENT(#605,1.);
#604=DERIVED_UNIT_ELEMENT(#1010,-3.);
#605=(
MASS_UNIT()
NAMED_UNIT(*)
SI_UNIT(.KILO.,.GRAM.)
);
#606=DERIVED_UNIT((#603,#604));
#607=MEASURE_REPRESENTATION_ITEM('density measure',
POSITIVE_RATIO_MEASURE(7850.),#606);
#608=PROPERTY_DEFINITION_REPRESENTATION(#613,#610);
#609=PROPERTY_DEFINITION_REPRESENTATION(#614,#611);
#610=REPRESENTATION('material name',(#612),#1007);
#611=REPRESENTATION('density',(#607),#1007);
#612=DESCRIPTIVE_REPRESENTATION_ITEM('Acero','Acero');
#613=PROPERTY_DEFINITION('material property','material name',#1017);
#614=PROPERTY_DEFINITION('material property','density of part',#1017);
#615=AXIS2_PLACEMENT_3D('',#840,#669,#670);
#616=AXIS2_PLACEMENT_3D('',#841,#671,#672);
#617=AXIS2_PLACEMENT_3D('',#850,#677,#678);
#618=AXIS2_PLACEMENT_3D('',#856,#682,#683);
#619=AXIS2_PLACEMENT_3D('',#862,#687,#688);
#620=AXIS2_PLACEMENT_3D('',#868,#692,#693);
#621=AXIS2_PLACEMENT_3D('',#877,#698,#699);
#622=AXIS2_PLACEMENT_3D('',#881,#701,#702);
#623=AXIS2_PLACEMENT_3D('',#882,#703,#704);
#624=AXIS2_PLACEMENT_3D('',#883,#705,#706);
#625=AXIS2_PLACEMENT_3D('',#886,#709,#710);
#626=AXIS2_PLACEMENT_3D('',#892,#714,#715);
#627=AXIS2_PLACEMENT_3D('',#901,#720,#721);
#628=AXIS2_PLACEMENT_3D('',#905,#723,#724);
#629=AXIS2_PLACEMENT_3D('',#906,#725,#726);
#630=AXIS2_PLACEMENT_3D('',#907,#727,#728);
#631=AXIS2_PLACEMENT_3D('',#910,#731,#732);
#632=AXIS2_PLACEMENT_3D('',#913,#735,#736);
#633=AXIS2_PLACEMENT_3D('',#917,#738,#739);
#634=AXIS2_PLACEMENT_3D('',#919,#741,#742);
#635=AXIS2_PLACEMENT_3D('',#923,#745,#746);
#636=AXIS2_PLACEMENT_3D('',#927,#749,#750);
#637=AXIS2_PLACEMENT_3D('',#931,#753,#754);
#638=AXIS2_PLACEMENT_3D('',#934,#756,#757);
#639=AXIS2_PLACEMENT_3D('',#935,#758,#759);
#640=AXIS2_PLACEMENT_3D('',#939,#762,#763);
#641=AXIS2_PLACEMENT_3D('',#941,#764,#765);
#642=AXIS2_PLACEMENT_3D('',#943,#766,#767);
#643=AXIS2_PLACEMENT_3D('',#945,#768,#769);
#644=AXIS2_PLACEMENT_3D('',#946,#770,#771);
#645=AXIS2_PLACEMENT_3D('',#949,#773,#774);
#646=AXIS2_PLACEMENT_3D('',#950,#775,#776);
#647=AXIS2_PLACEMENT_3D('',#952,#777,#778);
#648=AXIS2_PLACEMENT_3D('',#954,#780,#781);
#649=AXIS2_PLACEMENT_3D('',#957,#783,#784);
#650=AXIS2_PLACEMENT_3D('',#958,#785,#786);
#651=AXIS2_PLACEMENT_3D('',#960,#787,#788);
#652=AXIS2_PLACEMENT_3D('',#962,#790,#791);
#653=AXIS2_PLACEMENT_3D('',#965,#793,#794);
#654=AXIS2_PLACEMENT_3D('',#966,#795,#796);
#655=AXIS2_PLACEMENT_3D('',#968,#797,#798);
#656=AXIS2_PLACEMENT_3D('',#970,#800,#801);
#657=AXIS2_PLACEMENT_3D('',#972,#802,#803);
#658=AXIS2_PLACEMENT_3D('',#974,#805,#806);
#659=AXIS2_PLACEMENT_3D('',#976,#807,#808);
#660=AXIS2_PLACEMENT_3D('',#978,#810,#811);
#661=AXIS2_PLACEMENT_3D('',#980,#812,#813);
#662=AXIS2_PLACEMENT_3D('',#982,#815,#816);
#663=AXIS2_PLACEMENT_3D('',#986,#819,#820);
#664=AXIS2_PLACEMENT_3D('',#990,#823,#824);
#665=AXIS2_PLACEMENT_3D('',#994,#827,#828);
#666=AXIS2_PLACEMENT_3D('',#998,#831,#832);
#667=AXIS2_PLACEMENT_3D('',#1002,#835,#836);
#668=AXIS2_PLACEMENT_3D('',#1004,#838,#839);
#669=DIRECTION('axis',(0.,0.,1.));
#670=DIRECTION('refdir',(1.,0.,0.));
#671=DIRECTION('center_axis',(0.,0.707106781186555,0.70710678118654));
#672=DIRECTION('ref_axis',(1.,0.,0.));
#673=DIRECTION('',(1.,0.,0.));
#674=DIRECTION('',(0.577350269189622,0.577350269189622,-0.577350269189634));
#675=DIRECTION('',(-1.,0.,0.));
#676=DIRECTION('',(-0.577350269189622,0.577350269189622,-0.577350269189633));
#677=DIRECTION('center_axis',(0.707106781186556,1.57009245868353E-16,0.707106781186539));
#678=DIRECTION('ref_axis',(0.707106781186539,0.,-0.707106781186556));
#679=DIRECTION('',(0.,-1.,2.22044604925E-16));
#680=DIRECTION('',(0.577350269189634,-0.577350269189621,-0.577350269189623));
#681=DIRECTION('',(0.,1.,-2.22044604925E-16));
#682=DIRECTION('center_axis',(0.,-0.707106781186549,0.707106781186546));
#683=DIRECTION('ref_axis',(1.,0.,0.));
#684=DIRECTION('',(-1.,0.,0.));
#685=DIRECTION('',(-0.577350269189626,-0.577350269189626,-0.577350269189626));
#686=DIRECTION('',(1.,0.,0.));
#687=DIRECTION('center_axis',(-0.707106781186548,1.57009245868355E-16,0.707106781186548));
#688=DIRECTION('ref_axis',(0.707106781186548,0.,0.707106781186548));
#689=DIRECTION('',(0.,1.,-2.22044604925E-16));
#690=DIRECTION('',(-0.57735026918963,0.577350269189617,-0.57735026918963));
#691=DIRECTION('',(0.,-1.,2.22044604925E-16));
#692=DIRECTION('center_axis',(0.,-0.707106781186555,0.70710678118654));
#693=DIRECTION('ref_axis',(1.,0.,0.));
#694=DIRECTION('',(1.,0.,0.));
#695=DIRECTION('',(0.,0.70710678118654,0.707106781186555));
#696=DIRECTION('',(-1.,0.,0.));
#697=DIRECTION('',(-0.577350269189631,-0.577350269189618,-0.577350269189629));
#698=DIRECTION('center_axis',(0.,0.,1.));
#699=DIRECTION('ref_axis',(1.,0.,0.));
#700=DIRECTION('',(0.,-0.707106781186536,0.707106781186559));
#701=DIRECTION('center_axis',(0.,2.22044604925E-16,1.));
#702=DIRECTION('ref_axis',(1.,0.,0.));
#703=DIRECTION('center_axis',(0.,-2.22044604925E-16,-1.));
#704=DIRECTION('ref_axis',(1.,0.,0.));
#705=DIRECTION('center_axis',(0.,0.707106781186557,0.707106781186538));
#706=DIRECTION('ref_axis',(1.,0.,0.));
#707=DIRECTION('',(1.,0.,0.));
#708=DIRECTION('',(-1.,0.,0.));
#709=DIRECTION('center_axis',(-0.707106781186547,1.57009245868356E-16,0.707106781186548));
#710=DIRECTION('ref_axis',(0.707106781186548,0.,0.707106781186547));
#711=DIRECTION('',(0.,-1.,2.22044604925E-16));
#712=DIRECTION('',(0.,1.,-2.22044604925E-16));
#713=DIRECTION('',(-0.577350269189631,0.577350269189618,-0.577350269189629));
#714=DIRECTION('center_axis',(0.,-0.707106781186555,0.70710678118654));
#715=DIRECTION('ref_axis',(1.,0.,0.));
#716=DIRECTION('',(1.,0.,0.));
#717=DIRECTION('',(0.,0.70710678118654,0.707106781186555));
#718=DIRECTION('',(-1.,0.,0.));
#719=DIRECTION('',(-0.577350269189632,-0.577350269189616,-0.57735026918963));
#720=DIRECTION('center_axis',(0.,0.,1.));
#721=DIRECTION('ref_axis',(1.,0.,0.));
#722=DIRECTION('',(0.,-0.707106781186565,0.70710678118653));
#723=DIRECTION('center_axis',(0.,2.22044604925E-16,1.));
#724=DIRECTION('ref_axis',(1.,0.,0.));
#725=DIRECTION('center_axis',(0.,-2.22044604925E-16,-1.));
#726=DIRECTION('ref_axis',(1.,0.,0.));
#727=DIRECTION('center_axis',(0.,0.707106781186556,0.707106781186539));
#728=DIRECTION('ref_axis',(1.,0.,0.));
#729=DIRECTION('',(1.,0.,0.));
#730=DIRECTION('',(-1.,0.,0.));
#731=DIRECTION('center_axis',(-0.707106781186548,1.57009245868355E-16,0.707106781186548));
#732=DIRECTION('ref_axis',(0.707106781186548,0.,0.707106781186548));
#733=DIRECTION('',(0.,-1.,2.22044604925E-16));
#734=DIRECTION('',(0.,1.,-2.22044604925E-16));
#735=DIRECTION('center_axis',(0.,0.,1.));
#736=DIRECTION('ref_axis',(1.,0.,0.));
#737=DIRECTION('',(0.,0.,1.));
#738=DIRECTION('center_axis',(0.,-2.22044604925E-16,-1.));
#739=DIRECTION('ref_axis',(1.,0.,0.));
#740=DIRECTION('',(0.,0.,1.));
#741=DIRECTION('center_axis',(0.,-1.,0.));
#742=DIRECTION('ref_axis',(1.,0.,0.));
#743=DIRECTION('',(0.,0.,1.));
#744=DIRECTION('',(-1.,0.,0.));
#745=DIRECTION('center_axis',(-1.,0.,0.));
#746=DIRECTION('ref_axis',(0.,-1.,2.22044604925E-16));
#747=DIRECTION('',(0.,0.,1.));
#748=DIRECTION('',(0.,-1.,2.22044604925E-16));
#749=DIRECTION('center_axis',(0.,1.,0.));
#750=DIRECTION('ref_axis',(-1.,0.,0.));
#751=DIRECTION('',(0.,0.,1.));
#752=DIRECTION('',(1.,0.,0.));
#753=DIRECTION('center_axis',(0.,0.,1.));
#754=DIRECTION('ref_axis',(1.,0.,0.));
#755=DIRECTION('',(0.,0.,1.));
#756=DIRECTION('center_axis',(0.,-2.22044604925E-16,-1.));
#757=DIRECTION('ref_axis',(1.,0.,0.));
#758=DIRECTION('center_axis',(0.,-1.,0.));
#759=DIRECTION('ref_axis',(1.,0.,0.));
#760=DIRECTION('',(0.,0.,1.));
#761=DIRECTION('',(1.,0.,0.));
#762=DIRECTION('center_axis',(0.,-2.22044604925E-16,-1.));
#763=DIRECTION('ref_axis',(1.,0.,0.));
#764=DIRECTION('center_axis',(0.,2.22044604925E-16,1.));
#765=DIRECTION('ref_axis',(-1.,0.,0.));
#766=DIRECTION('center_axis',(0.,2.22044604925E-16,1.));
#767=DIRECTION('ref_axis',(-1.,0.,0.));
#768=DIRECTION('center_axis',(0.,2.22044604925E-16,1.));
#769=DIRECTION('ref_axis',(-1.,0.,0.));
#770=DIRECTION('center_axis',(0.,0.,1.));
#771=DIRECTION('ref_axis',(-1.,0.,0.));
#772=DIRECTION('',(-0.707106781186548,-8.65956056235493E-17,-0.707106781186548));
#773=DIRECTION('center_axis',(0.,-2.22044604925E-16,-1.));
#774=DIRECTION('ref_axis',(-1.,0.,0.));
#775=DIRECTION('center_axis',(0.,2.22044604925E-16,1.));
#776=DIRECTION('ref_axis',(-1.,0.,0.));
#777=DIRECTION('center_axis',(0.,2.22044604925E-16,1.));
#778=DIRECTION('ref_axis',(-1.,0.,0.));
#779=DIRECTION('',(0.,2.22044604925E-16,1.));
#780=DIRECTION('center_axis',(0.,0.,1.));
#781=DIRECTION('ref_axis',(-1.,0.,0.));
#782=DIRECTION('',(-0.70710678118654,-8.65956056235484E-17,-0.707106781186555));
#783=DIRECTION('center_axis',(0.,-2.22044604925E-16,-1.));
#784=DIRECTION('ref_axis',(-1.,0.,0.));
#785=DIRECTION('center_axis',(0.,2.22044604925E-16,1.));
#786=DIRECTION('ref_axis',(-1.,0.,0.));
#787=DIRECTION('center_axis',(0.,2.22044604925E-16,1.));
#788=DIRECTION('ref_axis',(-1.,0.,0.));
#789=DIRECTION('',(0.,2.22044604925E-16,1.));
#790=DIRECTION('center_axis',(0.,0.,1.));
#791=DIRECTION('ref_axis',(-1.,0.,0.));
#792=DIRECTION('',(-0.70710678118654,-8.65956056235484E-17,-0.707106781186555));
#793=DIRECTION('center_axis',(0.,-2.22044604925E-16,-1.));
#794=DIRECTION('ref_axis',(-1.,0.,0.));
#795=DIRECTION('center_axis',(0.,2.22044604925E-16,1.));
#796=DIRECTION('ref_axis',(-1.,0.,0.));
#797=DIRECTION('center_axis',(0.,2.22044604925E-16,1.));
#798=DIRECTION('ref_axis',(-1.,0.,0.));
#799=DIRECTION('',(0.,2.22044604925E-16,1.));
#800=DIRECTION('center_axis',(0.,-2.22044604925E-16,-1.));
#801=DIRECTION('ref_axis',(-1.,0.,0.));
#802=DIRECTION('center_axis',(0.,2.22044604925E-16,1.));
#803=DIRECTION('ref_axis',(-1.,0.,0.));
#804=DIRECTION('',(-0.707106781186547,7.04136402448061E-17,0.707106781186548));
#805=DIRECTION('center_axis',(0.,-2.22044604925E-16,-1.));
#806=DIRECTION('ref_axis',(-1.,0.,0.));
#807=DIRECTION('center_axis',(0.,2.22044604925E-16,1.));
#808=DIRECTION('ref_axis',(-1.,0.,0.));
#809=DIRECTION('',(-0.707106781186547,7.04136402448061E-17,0.707106781186548));
#810=DIRECTION('center_axis',(0.,-2.22044604925E-16,-1.));
#811=DIRECTION('ref_axis',(-1.,0.,0.));
#812=DIRECTION('center_axis',(0.,2.22044604925E-16,1.));
#813=DIRECTION('ref_axis',(-1.,0.,0.));
#814=DIRECTION('',(-0.707106781186547,7.04136402448061E-17,0.707106781186548));
#815=DIRECTION('center_axis',(-1.,0.,0.));
#816=DIRECTION('ref_axis',(0.,-1.,2.22044604925E-16));
#817=DIRECTION('',(0.,0.,1.));
#818=DIRECTION('',(0.,-1.,2.22044604925E-16));
#819=DIRECTION('center_axis',(0.,1.,0.));
#820=DIRECTION('ref_axis',(-1.,0.,0.));
#821=DIRECTION('',(0.,0.,1.));
#822=DIRECTION('',(1.,0.,0.));
#823=DIRECTION('center_axis',(1.,0.,0.));
#824=DIRECTION('ref_axis',(0.,1.,-2.22044604925E-16));
#825=DIRECTION('',(0.,0.,1.));
#826=DIRECTION('',(0.,1.,-2.22044604925E-16));
#827=DIRECTION('center_axis',(0.,-1.,0.));
#828=DIRECTION('ref_axis',(1.,0.,0.));
#829=DIRECTION('',(0.,0.,1.));
#830=DIRECTION('',(1.,0.,0.));
#831=DIRECTION('center_axis',(-1.,0.,0.));
#832=DIRECTION('ref_axis',(0.,-1.,2.22044604925E-16));
#833=DIRECTION('',(0.,0.,1.));
#834=DIRECTION('',(0.,-1.,2.22044604925E-16));
#835=DIRECTION('center_axis',(0.,1.,0.));
#836=DIRECTION('ref_axis',(-1.,0.,0.));
#837=DIRECTION('',(1.,0.,0.));
#838=DIRECTION('center_axis',(0.,-2.22044604925E-16,-1.));
#839=DIRECTION('ref_axis',(1.,0.,0.));
#840=CARTESIAN_POINT('',(0.,0.,0.));
#841=CARTESIAN_POINT('Origin',(33.6875,82.925,2.79999999999998));
#842=CARTESIAN_POINT('',(-66.975,82.725,2.99999999999998));
#843=CARTESIAN_POINT('',(66.975,82.725,2.99999999999998));
#844=CARTESIAN_POINT('',(33.6875,82.725,2.99999999999998));
#845=CARTESIAN_POINT('',(67.375,83.125,2.59999999999998));
#846=CARTESIAN_POINT('',(66.975,82.725,2.99999999999998));
#847=CARTESIAN_POINT('',(-67.375,83.125,2.59999999999998));
#848=CARTESIAN_POINT('',(33.6875,83.125,2.59999999999998));
#849=CARTESIAN_POINT('',(-66.975,82.725,2.99999999999998));
#850=CARTESIAN_POINT('Origin',(67.175,-41.5625,2.80000000000001));
#851=CARTESIAN_POINT('',(66.975,-82.725,3.00000000000002));
#852=CARTESIAN_POINT('',(66.975,-41.5625,3.00000000000001));
#853=CARTESIAN_POINT('',(67.375,-83.125,2.60000000000002));
#854=CARTESIAN_POINT('',(66.975,-82.725,3.00000000000002));
#855=CARTESIAN_POINT('',(67.375,-41.5625,2.60000000000001));
#856=CARTESIAN_POINT('Origin',(-33.6875,-82.925,2.80000000000002));
#857=CARTESIAN_POINT('',(-66.975,-82.725,3.00000000000002));
#858=CARTESIAN_POINT('',(-33.6875,-82.725,3.00000000000002));
#859=CARTESIAN_POINT('',(-67.375,-83.125,2.60000000000002));
#860=CARTESIAN_POINT('',(-66.975,-82.725,3.00000000000002));
#861=CARTESIAN_POINT('',(-33.6875,-83.125,2.60000000000002));
#862=CARTESIAN_POINT('Origin',(-67.175,-13.8125,2.8));
#863=CARTESIAN_POINT('',(-66.975,-28.025,3.00000000000001));
#864=CARTESIAN_POINT('',(-66.975,-13.8125,3.));
#865=CARTESIAN_POINT('',(-67.375,-27.625,2.60000000000001));
#866=CARTESIAN_POINT('',(-66.975,-28.025,3.00000000000001));
#867=CARTESIAN_POINT('',(-67.375,-13.8125,2.6));
#868=CARTESIAN_POINT('Origin',(-33.6875,-11.425,2.8));
#869=CARTESIAN_POINT('',(-67.375,-11.625,2.6));
#870=CARTESIAN_POINT('',(-51.375,-11.625,2.6));
#871=CARTESIAN_POINT('',(-33.6875,-11.625,2.6));
#872=CARTESIAN_POINT('',(-51.375,-11.225,3.));
#873=CARTESIAN_POINT('',(-51.375,-11.625,2.6));
#874=CARTESIAN_POINT('',(-66.975,-11.225,3.));
#875=CARTESIAN_POINT('',(-33.6875,-11.225,3.));
#876=CARTESIAN_POINT('',(-66.975,-11.225,3.));
#877=CARTESIAN_POINT('Origin',(-51.375,-19.625,2.8));
#878=CARTESIAN_POINT('',(-51.375,-27.625,2.6));
#879=CARTESIAN_POINT('',(-51.375,-28.025,3.00000000000001));
#880=CARTESIAN_POINT('',(-51.375,-27.625,2.6));
#881=CARTESIAN_POINT('Origin',(-51.375,-19.625,3.));
#882=CARTESIAN_POINT('Origin',(-51.375,-19.625,2.6));
#883=CARTESIAN_POINT('Origin',(-25.6875,-27.825,2.80000000000001));
#884=CARTESIAN_POINT('',(-25.6875,-28.025,3.00000000000001));
#885=CARTESIAN_POINT('',(-25.6875,-27.625,2.6));
#886=CARTESIAN_POINT('Origin',(-67.175,22.9375,2.8));
#887=CARTESIAN_POINT('',(-67.375,45.875,2.59999999999999));
#888=CARTESIAN_POINT('',(-67.375,22.9375,2.6));
#889=CARTESIAN_POINT('',(-66.975,45.475,2.99999999999999));
#890=CARTESIAN_POINT('',(-66.975,22.9375,2.99999999999999));
#891=CARTESIAN_POINT('',(-66.975,45.475,2.99999999999999));
#892=CARTESIAN_POINT('Origin',(-33.6875,68.075,2.79999999999998));
#893=CARTESIAN_POINT('',(-67.375,67.875,2.59999999999998));
#894=CARTESIAN_POINT('',(-52.375,67.875,2.59999999999998));
#895=CARTESIAN_POINT('',(-33.6875,67.875,2.59999999999998));
#896=CARTESIAN_POINT('',(-52.375,68.2749999999999,2.99999999999998));
#897=CARTESIAN_POINT('',(-52.375,67.875,2.59999999999998));
#898=CARTESIAN_POINT('',(-66.975,68.2749999999999,2.99999999999999));
#899=CARTESIAN_POINT('',(-33.6875,68.2749999999999,2.99999999999998));
#900=CARTESIAN_POINT('',(-66.975,68.2749999999999,2.99999999999999));
#901=CARTESIAN_POINT('Origin',(-52.375,56.875,2.79999999999999));
#902=CARTESIAN_POINT('',(-52.375,45.875,2.6));
#903=CARTESIAN_POINT('',(-52.375,45.475,2.99999999999999));
#904=CARTESIAN_POINT('',(-52.375,45.875,2.6));
#905=CARTESIAN_POINT('Origin',(-52.375,56.875,2.99999999999999));
#906=CARTESIAN_POINT('Origin',(-52.375,56.875,2.6));
#907=CARTESIAN_POINT('Origin',(-26.1875,45.675,2.79999999999999));
#908=CARTESIAN_POINT('',(-26.1875,45.475,2.99999999999999));
#909=CARTESIAN_POINT('',(-26.1875,45.875,2.59999999999999));
#910=CARTESIAN_POINT('Origin',(-67.175,41.5625,2.79999999999999));
#911=CARTESIAN_POINT('',(-67.375,41.5625,2.59999999999999));
#912=CARTESIAN_POINT('',(-66.975,41.5625,2.99999999999999));
#913=CARTESIAN_POINT('Origin',(-51.375,-19.625,4.44089209850063E-15));
#914=CARTESIAN_POINT('',(-51.375,-11.625,2.22044604925031E-15));
#915=CARTESIAN_POINT('',(-51.375,-11.625,2.22044604925031E-15));
#916=CARTESIAN_POINT('',(-51.375,-27.625,4.44089209850063E-15));
#917=CARTESIAN_POINT('Origin',(-51.375,-19.625,4.44089209850063E-15));
#918=CARTESIAN_POINT('',(-51.375,-27.625,4.44089209850063E-15));
#919=CARTESIAN_POINT('Origin',(-67.375,-11.625,2.22044604925031E-15));
#920=CARTESIAN_POINT('',(-67.375,-11.625,2.22044604925031E-15));
#921=CARTESIAN_POINT('',(-67.375,-11.625,2.22044604925031E-15));
#922=CARTESIAN_POINT('',(-51.375,-11.625,2.22044604925031E-15));
#923=CARTESIAN_POINT('Origin',(-67.375,45.875,-1.11022302462516E-14));
#924=CARTESIAN_POINT('',(-67.375,45.875,-1.11022302462516E-14));
#925=CARTESIAN_POINT('',(-67.375,45.875,-1.11022302462516E-14));
#926=CARTESIAN_POINT('',(-67.375,249.875,-5.55111512312578E-14));
#927=CARTESIAN_POINT('Origin',(-52.375,45.875,-1.11022302462516E-14));
#928=CARTESIAN_POINT('',(-52.375,45.875,-1.11022302462516E-14));
#929=CARTESIAN_POINT('',(-52.375,45.875,-1.11022302462516E-14));
#930=CARTESIAN_POINT('',(-67.375,45.875,-1.11022302462516E-14));
#931=CARTESIAN_POINT('Origin',(-52.375,56.875,-1.33226762955019E-14));
#932=CARTESIAN_POINT('',(-52.375,67.875,-1.55431223447522E-14));
#933=CARTESIAN_POINT('',(-52.375,67.875,-1.55431223447522E-14));
#934=CARTESIAN_POINT('Origin',(-52.375,56.875,-1.33226762955019E-14));
#935=CARTESIAN_POINT('Origin',(-67.375,67.875,-1.55431223447522E-14));
#936=CARTESIAN_POINT('',(-67.375,67.875,-1.55431223447522E-14));
#937=CARTESIAN_POINT('',(-67.375,67.875,-1.55431223447522E-14));
#938=CARTESIAN_POINT('',(-67.375,67.875,-1.55431223447522E-14));
#939=CARTESIAN_POINT('Origin',(-1.77635683940025E-14,0.,3.));
#940=CARTESIAN_POINT('',(-60.325,16.875,3.));
#941=CARTESIAN_POINT('Origin',(-62.375,16.875,3.));
#942=CARTESIAN_POINT('',(44.925,78.375,2.99999999999998));
#943=CARTESIAN_POINT('Origin',(42.875,78.375,2.99999999999998));
#944=CARTESIAN_POINT('',(29.675,-78.125,3.00000000000002));
#945=CARTESIAN_POINT('Origin',(27.625,-78.125,3.00000000000002));
#946=CARTESIAN_POINT('Origin',(-62.375,16.875,2.8));
#947=CARTESIAN_POINT('',(-60.725,16.875,2.6));
#948=CARTESIAN_POINT('',(-60.525,16.875,2.8));
#949=CARTESIAN_POINT('Origin',(-62.375,16.875,2.6));
#950=CARTESIAN_POINT('Origin',(-62.375,16.875,5.));
#951=CARTESIAN_POINT('',(-60.725,16.875,0.599999999999998));
#952=CARTESIAN_POINT('Origin',(-62.375,16.875,0.599999999999998));
#953=CARTESIAN_POINT('',(-60.725,16.875,5.));
#954=CARTESIAN_POINT('Origin',(27.625,-78.125,2.80000000000002));
#955=CARTESIAN_POINT('',(29.275,-78.125,2.60000000000002));
#956=CARTESIAN_POINT('',(29.475,-78.125,2.80000000000002));
#957=CARTESIAN_POINT('Origin',(27.625,-78.125,2.60000000000002));
#958=CARTESIAN_POINT('Origin',(27.625,-78.125,5.00000000000002));
#959=CARTESIAN_POINT('',(29.275,-78.125,0.600000000000018));
#960=CARTESIAN_POINT('Origin',(27.625,-78.125,0.600000000000018));
#961=CARTESIAN_POINT('',(29.275,-78.125,5.00000000000002));
#962=CARTESIAN_POINT('Origin',(42.875,78.375,2.79999999999998));
#963=CARTESIAN_POINT('',(44.525,78.375,2.59999999999998));
#964=CARTESIAN_POINT('',(44.725,78.375,2.79999999999998));
#965=CARTESIAN_POINT('Origin',(42.875,78.375,2.59999999999998));
#966=CARTESIAN_POINT('Origin',(42.875,78.375,4.99999999999998));
#967=CARTESIAN_POINT('',(44.525,78.375,0.599999999999983));
#968=CARTESIAN_POINT('Origin',(42.875,78.375,0.599999999999983));
#969=CARTESIAN_POINT('',(44.525,78.375,4.99999999999998));
#970=CARTESIAN_POINT('Origin',(42.875,78.375,0.299999999999983));
#971=CARTESIAN_POINT('',(45.125,78.375,-1.5855372570428E-14));
#972=CARTESIAN_POINT('Origin',(42.875,78.375,-1.77635683940025E-14));
#973=CARTESIAN_POINT('',(44.825,78.375,0.299999999999983));
#974=CARTESIAN_POINT('Origin',(27.625,-78.125,0.300000000000018));
#975=CARTESIAN_POINT('',(29.875,-78.125,1.66186508998578E-14));
#976=CARTESIAN_POINT('Origin',(27.625,-78.125,1.77635683940025E-14));
#977=CARTESIAN_POINT('',(29.575,-78.125,0.300000000000018));
#978=CARTESIAN_POINT('Origin',(-62.375,16.875,0.299999999999998));
#979=CARTESIAN_POINT('',(-60.125,16.875,-5.82867087928207E-15));
#980=CARTESIAN_POINT('Origin',(-62.375,16.875,-4.44089209850063E-15));
#981=CARTESIAN_POINT('',(-60.425,16.875,0.299999999999998));
#982=CARTESIAN_POINT('Origin',(-67.375,83.125,-1.77635683940025E-14));
#983=CARTESIAN_POINT('',(-67.375,83.125,-1.99840144432528E-14));
#984=CARTESIAN_POINT('',(-67.375,83.125,-1.99840144432528E-14));
#985=CARTESIAN_POINT('',(-67.375,249.875,-5.55111512312578E-14));
#986=CARTESIAN_POINT('Origin',(67.375,83.125,-1.99840144432528E-14));
#987=CARTESIAN_POINT('',(67.375,83.125,-1.99840144432528E-14));
#988=CARTESIAN_POINT('',(67.375,83.125,-1.99840144432528E-14));
#989=CARTESIAN_POINT('',(-67.375,83.125,-1.99840144432528E-14));
#990=CARTESIAN_POINT('Origin',(67.375,-83.125,1.77635683940025E-14));
#991=CARTESIAN_POINT('',(67.375,-83.125,1.77635683940025E-14));
#992=CARTESIAN_POINT('',(67.375,-83.125,1.77635683940025E-14));
#993=CARTESIAN_POINT('',(67.375,-83.125,1.77635683940025E-14));
#994=CARTESIAN_POINT('Origin',(-67.375,-83.125,1.77635683940025E-14));
#995=CARTESIAN_POINT('',(-67.375,-83.125,1.77635683940025E-14));
#996=CARTESIAN_POINT('',(-67.375,-83.125,1.77635683940025E-14));
#997=CARTESIAN_POINT('',(-67.375,-83.125,1.77635683940025E-14));
#998=CARTESIAN_POINT('Origin',(-67.375,-27.625,6.66133814775094E-15));
#999=CARTESIAN_POINT('',(-67.375,-27.625,4.44089209850063E-15));
#1000=CARTESIAN_POINT('',(-67.375,-27.625,4.44089209850063E-15));
#1001=CARTESIAN_POINT('',(-67.375,249.875,-5.55111512312578E-14));
#1002=CARTESIAN_POINT('Origin',(-51.375,-27.625,4.44089209850063E-15));
#1003=CARTESIAN_POINT('',(-67.375,-27.625,4.44089209850063E-15));
#1004=CARTESIAN_POINT('Origin',(-1.77635683940025E-14,0.,0.));
#1005=UNCERTAINTY_MEASURE_WITH_UNIT(LENGTH_MEASURE(0.01),#1009,
'DISTANCE_ACCURACY_VALUE',
'Maximum model space distance between geometric entities at asserted c
onnectivities');
#1006=UNCERTAINTY_MEASURE_WITH_UNIT(LENGTH_MEASURE(0.01),#1009,
'DISTANCE_ACCURACY_VALUE',
'Maximum model space distance between geometric entities at asserted c
onnectivities');
#1007=(
GEOMETRIC_REPRESENTATION_CONTEXT(3)
GLOBAL_UNCERTAINTY_ASSIGNED_CONTEXT((#1005))
GLOBAL_UNIT_ASSIGNED_CONTEXT((#1009,#1011,#1012))
REPRESENTATION_CONTEXT('','3D')
);
#1008=(
GEOMETRIC_REPRESENTATION_CONTEXT(3)
GLOBAL_UNCERTAINTY_ASSIGNED_CONTEXT((#1006))
GLOBAL_UNIT_ASSIGNED_CONTEXT((#1009,#1011,#1012))
REPRESENTATION_CONTEXT('','3D')
);
#1009=(
LENGTH_UNIT()
NAMED_UNIT(*)
SI_UNIT(.MILLI.,.METRE.)
);
#1010=(
LENGTH_UNIT()
NAMED_UNIT(*)
SI_UNIT($,.METRE.)
);
#1011=(
NAMED_UNIT(*)
PLANE_ANGLE_UNIT()
SI_UNIT($,.RADIAN.)
);
#1012=(
NAMED_UNIT(*)
SI_UNIT($,.STERADIAN.)
SOLID_ANGLE_UNIT()
);
#1013=SHAPE_DEFINITION_REPRESENTATION(#1014,#1015);
#1014=PRODUCT_DEFINITION_SHAPE('',$,#1017);
#1015=SHAPE_REPRESENTATION('',(#615),#1007);
#1016=PRODUCT_DEFINITION_CONTEXT('part definition',#1021,'design');
#1017=PRODUCT_DEFINITION('MAIN','Proosa Mini - panels - export v2',#1018,
#1016);
#1018=PRODUCT_DEFINITION_FORMATION('',$,#1023);
#1019=PRODUCT_RELATED_PRODUCT_CATEGORY(
'Proosa Mini - panels - export v2','Proosa Mini - panels - export v2',(#1023));
#1020=APPLICATION_PROTOCOL_DEFINITION('international standard',
'automotive_design',2009,#1021);
#1021=APPLICATION_CONTEXT(
'Core Data for Automotive Mechanical Design Process');
#1022=PRODUCT_CONTEXT('part definition',#1021,'mechanical');
#1023=PRODUCT('MAIN','Proosa Mini - panels - export v2','FreeCAD Model',
(#1022));
#1024=PRESENTATION_STYLE_ASSIGNMENT((#1026));
#1025=PRESENTATION_STYLE_ASSIGNMENT((#1027));
#1026=SURFACE_STYLE_USAGE(.BOTH.,#1028);
#1027=SURFACE_STYLE_USAGE(.BOTH.,#1029);
#1028=SURFACE_SIDE_STYLE('',(#1030));
#1029=SURFACE_SIDE_STYLE('',(#1031));
#1030=SURFACE_STYLE_FILL_AREA(#1032);
#1031=SURFACE_STYLE_FILL_AREA(#1033);
#1032=FILL_AREA_STYLE('Acero - Satinado',(#1034));
#1033=FILL_AREA_STYLE('Opaque(82,82,82)',(#1035));
#1034=FILL_AREA_STYLE_COLOUR('Acero - Satinado',#1036);
#1035=FILL_AREA_STYLE_COLOUR('Opaque(82,82,82)',#1037);
#1036=COLOUR_RGB('Acero - Satinado',0.627450980392157,0.627450980392157,
0.627450980392157);
#1037=COLOUR_RGB('Opaque(82,82,82)',0.32156862745098,0.32156862745098,0.32156862745098);
ENDSEC;
END-ISO-10303-21;
