ISO-10303-21;
HEADER;
/* Generated by software containing ST-Developer
 * from STEP Tools, Inc. (www.steptools.com) 
 */

FILE_DESCRIPTION(
/* description */ ('FreeCAD Model'),
/* implementation_level */ '2;1');

FILE_NAME(
/* name */ 'cable-panel-back-cover.step',
/* time_stamp */ '2026-04-24T17:54:35+02:00',
/* author */ (''),
/* organization */ (''),
/* preprocessor_version */ 'ST-DEVELOPER v20.1',
/* originating_system */ 'Autodesk Translation Framework v15.8.0.0',
/* authorisation */ '');

FILE_SCHEMA (('AUTOMOTIVE_DESIGN { 1 0 10303 214 3 1 1 }'));
ENDSEC;

DATA;
#10=MECHANICAL_DESIGN_GEOMETRIC_PRESENTATION_REPRESENTATION('',(#13),#1329);
#11=SHAPE_REPRESENTATION_RELATIONSHIP('SRR','None',#1336,#12);
#12=ADVANCED_BREP_SHAPE_REPRESENTATION('',(#14),#1328);
#13=STYLED_ITEM('',(#1345),#14);
#14=MANIFOLD_SOLID_BREP('Back-panel-cover-mini',#791);
#15=FACE_BOUND('',#138,.T.);
#16=FACE_BOUND('',#139,.T.);
#17=FACE_BOUND('',#140,.T.);
#18=FACE_BOUND('',#141,.T.);
#19=FACE_BOUND('',#142,.T.);
#20=FACE_BOUND('',#143,.T.);
#21=FACE_BOUND('',#176,.T.);
#22=FACE_BOUND('',#177,.T.);
#23=FACE_BOUND('',#178,.T.);
#24=FACE_BOUND('',#179,.T.);
#25=FACE_BOUND('',#180,.T.);
#26=FACE_BOUND('',#181,.T.);
#27=FACE_BOUND('',#182,.T.);
#28=FACE_BOUND('',#183,.T.);
#29=FACE_BOUND('',#184,.T.);
#30=CYLINDRICAL_SURFACE('',#821,1.);
#31=CYLINDRICAL_SURFACE('',#824,1.);
#32=CYLINDRICAL_SURFACE('',#834,1.);
#33=CYLINDRICAL_SURFACE('',#837,1.);
#34=CYLINDRICAL_SURFACE('',#855,2.65);
#35=CYLINDRICAL_SURFACE('',#859,2.65);
#36=CYLINDRICAL_SURFACE('',#863,2.65);
#37=CYLINDRICAL_SURFACE('',#867,2.65);
#38=CYLINDRICAL_SURFACE('',#871,1.65);
#39=CYLINDRICAL_SURFACE('',#875,1.65);
#40=CIRCLE('',#807,1.);
#41=CIRCLE('',#808,0.599999999999961);
#42=CIRCLE('',#811,1.);
#43=CIRCLE('',#812,0.600000000000011);
#44=CIRCLE('',#815,1.);
#45=CIRCLE('',#816,0.600000000000011);
#46=CIRCLE('',#819,1.);
#47=CIRCLE('',#820,0.599999999999973);
#48=CIRCLE('',#822,1.);
#49=CIRCLE('',#825,1.);
#50=CIRCLE('',#828,3.05000000000003);
#51=CIRCLE('',#829,3.05000000000003);
#52=CIRCLE('',#830,3.05000000000003);
#53=CIRCLE('',#831,3.05000000000003);
#54=CIRCLE('',#832,2.05000000000003);
#55=CIRCLE('',#833,2.05000000000003);
#56=CIRCLE('',#835,1.);
#57=CIRCLE('',#838,1.);
#58=CIRCLE('',#856,2.65);
#59=CIRCLE('',#857,2.65);
#60=CIRCLE('',#860,2.65);
#61=CIRCLE('',#861,2.65);
#62=CIRCLE('',#864,2.65);
#63=CIRCLE('',#865,2.65);
#64=CIRCLE('',#868,2.65);
#65=CIRCLE('',#869,2.65);
#66=CIRCLE('',#872,1.65);
#67=CIRCLE('',#873,1.65);
#68=CIRCLE('',#876,1.65);
#69=CIRCLE('',#877,1.65);
#70=CONICAL_SURFACE('',#806,0.79999999999998,0.785398163397508);
#71=CONICAL_SURFACE('',#810,0.800000000000005,0.785398163397445);
#72=CONICAL_SURFACE('',#814,0.800000000000005,0.785398163397446);
#73=CONICAL_SURFACE('',#818,0.799999999999986,0.785398163397492);
#74=CONICAL_SURFACE('',#858,2.85,0.785398163397448);
#75=CONICAL_SURFACE('',#862,2.85,0.785398163397448);
#76=CONICAL_SURFACE('',#866,2.85,0.785398163397448);
#77=CONICAL_SURFACE('',#870,2.85,0.785398163397448);
#78=CONICAL_SURFACE('',#874,1.85,0.785398163397448);
#79=CONICAL_SURFACE('',#878,1.85,0.785398163397448);
#80=FACE_OUTER_BOUND('',#125,.T.);
#81=FACE_OUTER_BOUND('',#126,.T.);
#82=FACE_OUTER_BOUND('',#127,.T.);
#83=FACE_OUTER_BOUND('',#128,.T.);
#84=FACE_OUTER_BOUND('',#129,.T.);
#85=FACE_OUTER_BOUND('',#130,.T.);
#86=FACE_OUTER_BOUND('',#131,.T.);
#87=FACE_OUTER_BOUND('',#132,.T.);
#88=FACE_OUTER_BOUND('',#133,.T.);
#89=FACE_OUTER_BOUND('',#134,.T.);
#90=FACE_OUTER_BOUND('',#135,.T.);
#91=FACE_OUTER_BOUND('',#136,.T.);
#92=FACE_OUTER_BOUND('',#137,.T.);
#93=FACE_OUTER_BOUND('',#144,.T.);
#94=FACE_OUTER_BOUND('',#145,.T.);
#95=FACE_OUTER_BOUND('',#146,.T.);
#96=FACE_OUTER_BOUND('',#147,.T.);
#97=FACE_OUTER_BOUND('',#148,.T.);
#98=FACE_OUTER_BOUND('',#149,.T.);
#99=FACE_OUTER_BOUND('',#150,.T.);
#100=FACE_OUTER_BOUND('',#151,.T.);
#101=FACE_OUTER_BOUND('',#152,.T.);
#102=FACE_OUTER_BOUND('',#153,.T.);
#103=FACE_OUTER_BOUND('',#154,.T.);
#104=FACE_OUTER_BOUND('',#155,.T.);
#105=FACE_OUTER_BOUND('',#156,.T.);
#106=FACE_OUTER_BOUND('',#157,.T.);
#107=FACE_OUTER_BOUND('',#158,.T.);
#108=FACE_OUTER_BOUND('',#159,.T.);
#109=FACE_OUTER_BOUND('',#160,.T.);
#110=FACE_OUTER_BOUND('',#161,.T.);
#111=FACE_OUTER_BOUND('',#162,.T.);
#112=FACE_OUTER_BOUND('',#163,.T.);
#113=FACE_OUTER_BOUND('',#164,.T.);
#114=FACE_OUTER_BOUND('',#165,.T.);
#115=FACE_OUTER_BOUND('',#166,.T.);
#116=FACE_OUTER_BOUND('',#167,.T.);
#117=FACE_OUTER_BOUND('',#168,.T.);
#118=FACE_OUTER_BOUND('',#169,.T.);
#119=FACE_OUTER_BOUND('',#170,.T.);
#120=FACE_OUTER_BOUND('',#171,.T.);
#121=FACE_OUTER_BOUND('',#172,.T.);
#122=FACE_OUTER_BOUND('',#173,.T.);
#123=FACE_OUTER_BOUND('',#174,.T.);
#124=FACE_OUTER_BOUND('',#175,.T.);
#125=EDGE_LOOP('',(#509,#510,#511,#512));
#126=EDGE_LOOP('',(#513,#514,#515,#516));
#127=EDGE_LOOP('',(#517,#518,#519,#520));
#128=EDGE_LOOP('',(#521,#522,#523,#524));
#129=EDGE_LOOP('',(#525,#526,#527,#528));
#130=EDGE_LOOP('',(#529,#530,#531,#532));
#131=EDGE_LOOP('',(#533,#534,#535,#536));
#132=EDGE_LOOP('',(#537,#538,#539,#540));
#133=EDGE_LOOP('',(#541,#542,#543,#544));
#134=EDGE_LOOP('',(#545,#546,#547,#548));
#135=EDGE_LOOP('',(#549,#550,#551,#552));
#136=EDGE_LOOP('',(#553,#554,#555,#556));
#137=EDGE_LOOP('',(#557,#558,#559,#560,#561,#562,#563,#564));
#138=EDGE_LOOP('',(#565));
#139=EDGE_LOOP('',(#566));
#140=EDGE_LOOP('',(#567));
#141=EDGE_LOOP('',(#568));
#142=EDGE_LOOP('',(#569));
#143=EDGE_LOOP('',(#570));
#144=EDGE_LOOP('',(#571,#572,#573,#574));
#145=EDGE_LOOP('',(#575,#576,#577,#578));
#146=EDGE_LOOP('',(#579,#580,#581,#582));
#147=EDGE_LOOP('',(#583,#584,#585,#586));
#148=EDGE_LOOP('',(#587,#588,#589,#590));
#149=EDGE_LOOP('',(#591,#592,#593,#594));
#150=EDGE_LOOP('',(#595,#596,#597,#598));
#151=EDGE_LOOP('',(#599,#600,#601,#602));
#152=EDGE_LOOP('',(#603,#604,#605,#606));
#153=EDGE_LOOP('',(#607,#608,#609,#610));
#154=EDGE_LOOP('',(#611,#612,#613,#614));
#155=EDGE_LOOP('',(#615,#616,#617,#618));
#156=EDGE_LOOP('',(#619,#620,#621,#622));
#157=EDGE_LOOP('',(#623,#624,#625,#626));
#158=EDGE_LOOP('',(#627,#628,#629,#630));
#159=EDGE_LOOP('',(#631,#632,#633,#634));
#160=EDGE_LOOP('',(#635,#636,#637,#638));
#161=EDGE_LOOP('',(#639,#640,#641,#642));
#162=EDGE_LOOP('',(#643,#644,#645,#646));
#163=EDGE_LOOP('',(#647,#648,#649,#650));
#164=EDGE_LOOP('',(#651,#652,#653,#654));
#165=EDGE_LOOP('',(#655,#656,#657,#658));
#166=EDGE_LOOP('',(#659,#660,#661,#662));
#167=EDGE_LOOP('',(#663,#664,#665,#666));
#168=EDGE_LOOP('',(#667,#668,#669,#670));
#169=EDGE_LOOP('',(#671,#672,#673,#674));
#170=EDGE_LOOP('',(#675,#676,#677,#678));
#171=EDGE_LOOP('',(#679,#680,#681,#682));
#172=EDGE_LOOP('',(#683,#684,#685,#686));
#173=EDGE_LOOP('',(#687,#688,#689,#690));
#174=EDGE_LOOP('',(#691,#692,#693,#694));
#175=EDGE_LOOP('',(#695,#696,#697,#698,#699,#700,#701,#702));
#176=EDGE_LOOP('',(#703,#704,#705,#706));
#177=EDGE_LOOP('',(#707,#708,#709,#710));
#178=EDGE_LOOP('',(#711,#712,#713,#714));
#179=EDGE_LOOP('',(#715));
#180=EDGE_LOOP('',(#716));
#181=EDGE_LOOP('',(#717));
#182=EDGE_LOOP('',(#718));
#183=EDGE_LOOP('',(#719));
#184=EDGE_LOOP('',(#720));
#185=LINE('',#1112,#261);
#186=LINE('',#1114,#262);
#187=LINE('',#1116,#263);
#188=LINE('',#1117,#264);
#189=LINE('',#1122,#265);
#190=LINE('',#1127,#266);
#191=LINE('',#1128,#267);
#192=LINE('',#1129,#268);
#193=LINE('',#1134,#269);
#194=LINE('',#1139,#270);
#195=LINE('',#1140,#271);
#196=LINE('',#1141,#272);
#197=LINE('',#1146,#273);
#198=LINE('',#1150,#274);
#199=LINE('',#1152,#275);
#200=LINE('',#1153,#276);
#201=LINE('',#1159,#277);
#202=LINE('',#1162,#278);
#203=LINE('',#1165,#279);
#204=LINE('',#1166,#280);
#205=LINE('',#1169,#281);
#206=LINE('',#1173,#282);
#207=LINE('',#1174,#283);
#208=LINE('',#1190,#284);
#209=LINE('',#1194,#285);
#210=LINE('',#1195,#286);
#211=LINE('',#1198,#287);
#212=LINE('',#1201,#288);
#213=LINE('',#1205,#289);
#214=LINE('',#1207,#290);
#215=LINE('',#1209,#291);
#216=LINE('',#1210,#292);
#217=LINE('',#1214,#293);
#218=LINE('',#1215,#294);
#219=LINE('',#1216,#295);
#220=LINE('',#1219,#296);
#221=LINE('',#1220,#297);
#222=LINE('',#1223,#298);
#223=LINE('',#1224,#299);
#224=LINE('',#1226,#300);
#225=LINE('',#1230,#301);
#226=LINE('',#1232,#302);
#227=LINE('',#1234,#303);
#228=LINE('',#1235,#304);
#229=LINE('',#1239,#305);
#230=LINE('',#1240,#306);
#231=LINE('',#1241,#307);
#232=LINE('',#1244,#308);
#233=LINE('',#1245,#309);
#234=LINE('',#1248,#310);
#235=LINE('',#1249,#311);
#236=LINE('',#1251,#312);
#237=LINE('',#1255,#313);
#238=LINE('',#1257,#314);
#239=LINE('',#1259,#315);
#240=LINE('',#1260,#316);
#241=LINE('',#1264,#317);
#242=LINE('',#1265,#318);
#243=LINE('',#1266,#319);
#244=LINE('',#1269,#320);
#245=LINE('',#1270,#321);
#246=LINE('',#1273,#322);
#247=LINE('',#1274,#323);
#248=LINE('',#1276,#324);
#249=LINE('',#1281,#325);
#250=LINE('',#1284,#326);
#251=LINE('',#1289,#327);
#252=LINE('',#1292,#328);
#253=LINE('',#1297,#329);
#254=LINE('',#1300,#330);
#255=LINE('',#1305,#331);
#256=LINE('',#1308,#332);
#257=LINE('',#1313,#333);
#258=LINE('',#1316,#334);
#259=LINE('',#1321,#335);
#260=LINE('',#1324,#336);
#261=VECTOR('',#884,10.);
#262=VECTOR('',#885,10.);
#263=VECTOR('',#886,10.);
#264=VECTOR('',#887,10.);
#265=VECTOR('',#892,10.);
#266=VECTOR('',#897,10.);
#267=VECTOR('',#898,10.);
#268=VECTOR('',#899,10.);
#269=VECTOR('',#904,10.);
#270=VECTOR('',#909,10.);
#271=VECTOR('',#910,10.);
#272=VECTOR('',#911,10.);
#273=VECTOR('',#916,10.);
#274=VECTOR('',#921,10.);
#275=VECTOR('',#922,10.);
#276=VECTOR('',#923,10.);
#277=VECTOR('',#932,10.);
#278=VECTOR('',#935,10.);
#279=VECTOR('',#938,10.);
#280=VECTOR('',#939,10.);
#281=VECTOR('',#942,10.);
#282=VECTOR('',#947,10.);
#283=VECTOR('',#948,10.);
#284=VECTOR('',#965,10.);
#285=VECTOR('',#970,10.);
#286=VECTOR('',#971,10.);
#287=VECTOR('',#974,10.);
#288=VECTOR('',#979,10.);
#289=VECTOR('',#982,10.);
#290=VECTOR('',#983,10.);
#291=VECTOR('',#984,10.);
#292=VECTOR('',#985,10.);
#293=VECTOR('',#988,10.);
#294=VECTOR('',#989,10.);
#295=VECTOR('',#990,10.);
#296=VECTOR('',#993,10.);
#297=VECTOR('',#994,10.);
#298=VECTOR('',#997,10.);
#299=VECTOR('',#998,10.);
#300=VECTOR('',#1001,10.);
#301=VECTOR('',#1004,10.);
#302=VECTOR('',#1005,10.);
#303=VECTOR('',#1006,10.);
#304=VECTOR('',#1007,10.);
#305=VECTOR('',#1010,10.);
#306=VECTOR('',#1011,10.);
#307=VECTOR('',#1012,10.);
#308=VECTOR('',#1015,10.);
#309=VECTOR('',#1016,10.);
#310=VECTOR('',#1019,10.);
#311=VECTOR('',#1020,10.);
#312=VECTOR('',#1023,10.);
#313=VECTOR('',#1026,10.);
#314=VECTOR('',#1027,10.);
#315=VECTOR('',#1028,10.);
#316=VECTOR('',#1029,10.);
#317=VECTOR('',#1032,10.);
#318=VECTOR('',#1033,10.);
#319=VECTOR('',#1034,10.);
#320=VECTOR('',#1037,10.);
#321=VECTOR('',#1038,10.);
#322=VECTOR('',#1041,10.);
#323=VECTOR('',#1042,10.);
#324=VECTOR('',#1045,10.);
#325=VECTOR('',#1050,2.65);
#326=VECTOR('',#1055,2.85);
#327=VECTOR('',#1060,2.65);
#328=VECTOR('',#1065,2.85);
#329=VECTOR('',#1070,2.65);
#330=VECTOR('',#1075,2.85);
#331=VECTOR('',#1080,2.65);
#332=VECTOR('',#1085,2.85);
#333=VECTOR('',#1090,1.65);
#334=VECTOR('',#1095,1.85);
#335=VECTOR('',#1100,1.65);
#336=VECTOR('',#1105,1.85);
#337=VERTEX_POINT('',#1110);
#338=VERTEX_POINT('',#1111);
#339=VERTEX_POINT('',#1113);
#340=VERTEX_POINT('',#1115);
#341=VERTEX_POINT('',#1119);
#342=VERTEX_POINT('',#1121);
#343=VERTEX_POINT('',#1125);
#344=VERTEX_POINT('',#1126);
#345=VERTEX_POINT('',#1131);
#346=VERTEX_POINT('',#1133);
#347=VERTEX_POINT('',#1137);
#348=VERTEX_POINT('',#1138);
#349=VERTEX_POINT('',#1143);
#350=VERTEX_POINT('',#1145);
#351=VERTEX_POINT('',#1149);
#352=VERTEX_POINT('',#1151);
#353=VERTEX_POINT('',#1158);
#354=VERTEX_POINT('',#1160);
#355=VERTEX_POINT('',#1164);
#356=VERTEX_POINT('',#1168);
#357=VERTEX_POINT('',#1172);
#358=VERTEX_POINT('',#1176);
#359=VERTEX_POINT('',#1178);
#360=VERTEX_POINT('',#1180);
#361=VERTEX_POINT('',#1182);
#362=VERTEX_POINT('',#1184);
#363=VERTEX_POINT('',#1186);
#364=VERTEX_POINT('',#1189);
#365=VERTEX_POINT('',#1193);
#366=VERTEX_POINT('',#1197);
#367=VERTEX_POINT('',#1203);
#368=VERTEX_POINT('',#1204);
#369=VERTEX_POINT('',#1206);
#370=VERTEX_POINT('',#1208);
#371=VERTEX_POINT('',#1212);
#372=VERTEX_POINT('',#1213);
#373=VERTEX_POINT('',#1218);
#374=VERTEX_POINT('',#1222);
#375=VERTEX_POINT('',#1228);
#376=VERTEX_POINT('',#1229);
#377=VERTEX_POINT('',#1231);
#378=VERTEX_POINT('',#1233);
#379=VERTEX_POINT('',#1237);
#380=VERTEX_POINT('',#1238);
#381=VERTEX_POINT('',#1243);
#382=VERTEX_POINT('',#1247);
#383=VERTEX_POINT('',#1253);
#384=VERTEX_POINT('',#1254);
#385=VERTEX_POINT('',#1256);
#386=VERTEX_POINT('',#1258);
#387=VERTEX_POINT('',#1262);
#388=VERTEX_POINT('',#1263);
#389=VERTEX_POINT('',#1268);
#390=VERTEX_POINT('',#1272);
#391=VERTEX_POINT('',#1278);
#392=VERTEX_POINT('',#1280);
#393=VERTEX_POINT('',#1286);
#394=VERTEX_POINT('',#1288);
#395=VERTEX_POINT('',#1294);
#396=VERTEX_POINT('',#1296);
#397=VERTEX_POINT('',#1302);
#398=VERTEX_POINT('',#1304);
#399=VERTEX_POINT('',#1310);
#400=VERTEX_POINT('',#1312);
#401=VERTEX_POINT('',#1318);
#402=VERTEX_POINT('',#1320);
#403=EDGE_CURVE('',#337,#338,#185,.T.);
#404=EDGE_CURVE('',#338,#339,#186,.T.);
#405=EDGE_CURVE('',#339,#340,#187,.T.);
#406=EDGE_CURVE('',#340,#337,#188,.T.);
#407=EDGE_CURVE('',#337,#341,#40,.T.);
#408=EDGE_CURVE('',#341,#342,#189,.T.);
#409=EDGE_CURVE('',#342,#338,#41,.T.);
#410=EDGE_CURVE('',#343,#344,#190,.T.);
#411=EDGE_CURVE('',#344,#342,#191,.T.);
#412=EDGE_CURVE('',#341,#343,#192,.T.);
#413=EDGE_CURVE('',#343,#345,#42,.T.);
#414=EDGE_CURVE('',#345,#346,#193,.T.);
#415=EDGE_CURVE('',#346,#344,#43,.T.);
#416=EDGE_CURVE('',#347,#348,#194,.T.);
#417=EDGE_CURVE('',#348,#346,#195,.T.);
#418=EDGE_CURVE('',#345,#347,#196,.T.);
#419=EDGE_CURVE('',#347,#349,#44,.T.);
#420=EDGE_CURVE('',#349,#350,#197,.T.);
#421=EDGE_CURVE('',#350,#348,#45,.T.);
#422=EDGE_CURVE('',#349,#351,#198,.T.);
#423=EDGE_CURVE('',#351,#352,#199,.T.);
#424=EDGE_CURVE('',#352,#350,#200,.T.);
#425=EDGE_CURVE('',#351,#340,#46,.T.);
#426=EDGE_CURVE('',#339,#352,#47,.T.);
#427=EDGE_CURVE('',#343,#353,#201,.T.);
#428=EDGE_CURVE('',#353,#354,#48,.T.);
#429=EDGE_CURVE('',#354,#345,#202,.T.);
#430=EDGE_CURVE('',#355,#341,#203,.T.);
#431=EDGE_CURVE('',#353,#355,#204,.T.);
#432=EDGE_CURVE('',#337,#356,#205,.T.);
#433=EDGE_CURVE('',#356,#355,#49,.T.);
#434=EDGE_CURVE('',#357,#340,#206,.T.);
#435=EDGE_CURVE('',#356,#357,#207,.T.);
#436=EDGE_CURVE('',#358,#358,#50,.T.);
#437=EDGE_CURVE('',#359,#359,#51,.T.);
#438=EDGE_CURVE('',#360,#360,#52,.T.);
#439=EDGE_CURVE('',#361,#361,#53,.T.);
#440=EDGE_CURVE('',#362,#362,#54,.T.);
#441=EDGE_CURVE('',#363,#363,#55,.T.);
#442=EDGE_CURVE('',#351,#364,#208,.T.);
#443=EDGE_CURVE('',#364,#357,#56,.T.);
#444=EDGE_CURVE('',#365,#349,#209,.T.);
#445=EDGE_CURVE('',#365,#364,#210,.T.);
#446=EDGE_CURVE('',#347,#366,#211,.T.);
#447=EDGE_CURVE('',#366,#365,#57,.T.);
#448=EDGE_CURVE('',#354,#366,#212,.T.);
#449=EDGE_CURVE('',#367,#368,#213,.T.);
#450=EDGE_CURVE('',#368,#369,#214,.T.);
#451=EDGE_CURVE('',#369,#370,#215,.T.);
#452=EDGE_CURVE('',#370,#367,#216,.T.);
#453=EDGE_CURVE('',#371,#372,#217,.T.);
#454=EDGE_CURVE('',#371,#368,#218,.T.);
#455=EDGE_CURVE('',#372,#367,#219,.T.);
#456=EDGE_CURVE('',#373,#371,#220,.T.);
#457=EDGE_CURVE('',#373,#369,#221,.T.);
#458=EDGE_CURVE('',#374,#373,#222,.T.);
#459=EDGE_CURVE('',#374,#370,#223,.T.);
#460=EDGE_CURVE('',#372,#374,#224,.T.);
#461=EDGE_CURVE('',#375,#376,#225,.T.);
#462=EDGE_CURVE('',#376,#377,#226,.T.);
#463=EDGE_CURVE('',#377,#378,#227,.T.);
#464=EDGE_CURVE('',#378,#375,#228,.T.);
#465=EDGE_CURVE('',#379,#380,#229,.T.);
#466=EDGE_CURVE('',#379,#376,#230,.T.);
#467=EDGE_CURVE('',#380,#375,#231,.T.);
#468=EDGE_CURVE('',#381,#379,#232,.T.);
#469=EDGE_CURVE('',#381,#377,#233,.T.);
#470=EDGE_CURVE('',#382,#381,#234,.T.);
#471=EDGE_CURVE('',#382,#378,#235,.T.);
#472=EDGE_CURVE('',#380,#382,#236,.T.);
#473=EDGE_CURVE('',#383,#384,#237,.T.);
#474=EDGE_CURVE('',#384,#385,#238,.T.);
#475=EDGE_CURVE('',#385,#386,#239,.T.);
#476=EDGE_CURVE('',#386,#383,#240,.T.);
#477=EDGE_CURVE('',#387,#388,#241,.T.);
#478=EDGE_CURVE('',#387,#384,#242,.T.);
#479=EDGE_CURVE('',#388,#383,#243,.T.);
#480=EDGE_CURVE('',#389,#387,#244,.T.);
#481=EDGE_CURVE('',#389,#385,#245,.T.);
#482=EDGE_CURVE('',#390,#389,#246,.T.);
#483=EDGE_CURVE('',#390,#386,#247,.T.);
#484=EDGE_CURVE('',#388,#390,#248,.T.);
#485=EDGE_CURVE('',#391,#391,#58,.T.);
#486=EDGE_CURVE('',#391,#392,#249,.T.);
#487=EDGE_CURVE('',#392,#392,#59,.T.);
#488=EDGE_CURVE('',#358,#391,#250,.T.);
#489=EDGE_CURVE('',#393,#393,#60,.T.);
#490=EDGE_CURVE('',#393,#394,#251,.T.);
#491=EDGE_CURVE('',#394,#394,#61,.T.);
#492=EDGE_CURVE('',#359,#393,#252,.T.);
#493=EDGE_CURVE('',#395,#395,#62,.T.);
#494=EDGE_CURVE('',#395,#396,#253,.T.);
#495=EDGE_CURVE('',#396,#396,#63,.T.);
#496=EDGE_CURVE('',#360,#395,#254,.T.);
#497=EDGE_CURVE('',#397,#397,#64,.T.);
#498=EDGE_CURVE('',#397,#398,#255,.T.);
#499=EDGE_CURVE('',#398,#398,#65,.T.);
#500=EDGE_CURVE('',#361,#397,#256,.T.);
#501=EDGE_CURVE('',#399,#399,#66,.T.);
#502=EDGE_CURVE('',#399,#400,#257,.T.);
#503=EDGE_CURVE('',#400,#400,#67,.T.);
#504=EDGE_CURVE('',#362,#399,#258,.T.);
#505=EDGE_CURVE('',#401,#401,#68,.T.);
#506=EDGE_CURVE('',#401,#402,#259,.T.);
#507=EDGE_CURVE('',#402,#402,#69,.T.);
#508=EDGE_CURVE('',#363,#401,#260,.T.);
#509=ORIENTED_EDGE('',*,*,#403,.T.);
#510=ORIENTED_EDGE('',*,*,#404,.T.);
#511=ORIENTED_EDGE('',*,*,#405,.T.);
#512=ORIENTED_EDGE('',*,*,#406,.T.);
#513=ORIENTED_EDGE('',*,*,#403,.F.);
#514=ORIENTED_EDGE('',*,*,#407,.T.);
#515=ORIENTED_EDGE('',*,*,#408,.T.);
#516=ORIENTED_EDGE('',*,*,#409,.T.);
#517=ORIENTED_EDGE('',*,*,#410,.T.);
#518=ORIENTED_EDGE('',*,*,#411,.T.);
#519=ORIENTED_EDGE('',*,*,#408,.F.);
#520=ORIENTED_EDGE('',*,*,#412,.T.);
#521=ORIENTED_EDGE('',*,*,#410,.F.);
#522=ORIENTED_EDGE('',*,*,#413,.T.);
#523=ORIENTED_EDGE('',*,*,#414,.T.);
#524=ORIENTED_EDGE('',*,*,#415,.T.);
#525=ORIENTED_EDGE('',*,*,#416,.T.);
#526=ORIENTED_EDGE('',*,*,#417,.T.);
#527=ORIENTED_EDGE('',*,*,#414,.F.);
#528=ORIENTED_EDGE('',*,*,#418,.T.);
#529=ORIENTED_EDGE('',*,*,#416,.F.);
#530=ORIENTED_EDGE('',*,*,#419,.T.);
#531=ORIENTED_EDGE('',*,*,#420,.T.);
#532=ORIENTED_EDGE('',*,*,#421,.T.);
#533=ORIENTED_EDGE('',*,*,#420,.F.);
#534=ORIENTED_EDGE('',*,*,#422,.T.);
#535=ORIENTED_EDGE('',*,*,#423,.T.);
#536=ORIENTED_EDGE('',*,*,#424,.T.);
#537=ORIENTED_EDGE('',*,*,#423,.F.);
#538=ORIENTED_EDGE('',*,*,#425,.T.);
#539=ORIENTED_EDGE('',*,*,#405,.F.);
#540=ORIENTED_EDGE('',*,*,#426,.T.);
#541=ORIENTED_EDGE('',*,*,#413,.F.);
#542=ORIENTED_EDGE('',*,*,#427,.T.);
#543=ORIENTED_EDGE('',*,*,#428,.T.);
#544=ORIENTED_EDGE('',*,*,#429,.T.);
#545=ORIENTED_EDGE('',*,*,#412,.F.);
#546=ORIENTED_EDGE('',*,*,#430,.F.);
#547=ORIENTED_EDGE('',*,*,#431,.F.);
#548=ORIENTED_EDGE('',*,*,#427,.F.);
#549=ORIENTED_EDGE('',*,*,#407,.F.);
#550=ORIENTED_EDGE('',*,*,#432,.T.);
#551=ORIENTED_EDGE('',*,*,#433,.T.);
#552=ORIENTED_EDGE('',*,*,#430,.T.);
#553=ORIENTED_EDGE('',*,*,#406,.F.);
#554=ORIENTED_EDGE('',*,*,#434,.F.);
#555=ORIENTED_EDGE('',*,*,#435,.F.);
#556=ORIENTED_EDGE('',*,*,#432,.F.);
#557=ORIENTED_EDGE('',*,*,#404,.F.);
#558=ORIENTED_EDGE('',*,*,#409,.F.);
#559=ORIENTED_EDGE('',*,*,#411,.F.);
#560=ORIENTED_EDGE('',*,*,#415,.F.);
#561=ORIENTED_EDGE('',*,*,#417,.F.);
#562=ORIENTED_EDGE('',*,*,#421,.F.);
#563=ORIENTED_EDGE('',*,*,#424,.F.);
#564=ORIENTED_EDGE('',*,*,#426,.F.);
#565=ORIENTED_EDGE('',*,*,#436,.T.);
#566=ORIENTED_EDGE('',*,*,#437,.T.);
#567=ORIENTED_EDGE('',*,*,#438,.T.);
#568=ORIENTED_EDGE('',*,*,#439,.T.);
#569=ORIENTED_EDGE('',*,*,#440,.T.);
#570=ORIENTED_EDGE('',*,*,#441,.T.);
#571=ORIENTED_EDGE('',*,*,#425,.F.);
#572=ORIENTED_EDGE('',*,*,#442,.T.);
#573=ORIENTED_EDGE('',*,*,#443,.T.);
#574=ORIENTED_EDGE('',*,*,#434,.T.);
#575=ORIENTED_EDGE('',*,*,#422,.F.);
#576=ORIENTED_EDGE('',*,*,#444,.F.);
#577=ORIENTED_EDGE('',*,*,#445,.T.);
#578=ORIENTED_EDGE('',*,*,#442,.F.);
#579=ORIENTED_EDGE('',*,*,#419,.F.);
#580=ORIENTED_EDGE('',*,*,#446,.T.);
#581=ORIENTED_EDGE('',*,*,#447,.T.);
#582=ORIENTED_EDGE('',*,*,#444,.T.);
#583=ORIENTED_EDGE('',*,*,#418,.F.);
#584=ORIENTED_EDGE('',*,*,#429,.F.);
#585=ORIENTED_EDGE('',*,*,#448,.T.);
#586=ORIENTED_EDGE('',*,*,#446,.F.);
#587=ORIENTED_EDGE('',*,*,#449,.T.);
#588=ORIENTED_EDGE('',*,*,#450,.T.);
#589=ORIENTED_EDGE('',*,*,#451,.T.);
#590=ORIENTED_EDGE('',*,*,#452,.T.);
#591=ORIENTED_EDGE('',*,*,#453,.F.);
#592=ORIENTED_EDGE('',*,*,#454,.T.);
#593=ORIENTED_EDGE('',*,*,#449,.F.);
#594=ORIENTED_EDGE('',*,*,#455,.F.);
#595=ORIENTED_EDGE('',*,*,#456,.F.);
#596=ORIENTED_EDGE('',*,*,#457,.T.);
#597=ORIENTED_EDGE('',*,*,#450,.F.);
#598=ORIENTED_EDGE('',*,*,#454,.F.);
#599=ORIENTED_EDGE('',*,*,#458,.F.);
#600=ORIENTED_EDGE('',*,*,#459,.T.);
#601=ORIENTED_EDGE('',*,*,#451,.F.);
#602=ORIENTED_EDGE('',*,*,#457,.F.);
#603=ORIENTED_EDGE('',*,*,#460,.F.);
#604=ORIENTED_EDGE('',*,*,#455,.T.);
#605=ORIENTED_EDGE('',*,*,#452,.F.);
#606=ORIENTED_EDGE('',*,*,#459,.F.);
#607=ORIENTED_EDGE('',*,*,#461,.T.);
#608=ORIENTED_EDGE('',*,*,#462,.T.);
#609=ORIENTED_EDGE('',*,*,#463,.T.);
#610=ORIENTED_EDGE('',*,*,#464,.T.);
#611=ORIENTED_EDGE('',*,*,#465,.F.);
#612=ORIENTED_EDGE('',*,*,#466,.T.);
#613=ORIENTED_EDGE('',*,*,#461,.F.);
#614=ORIENTED_EDGE('',*,*,#467,.F.);
#615=ORIENTED_EDGE('',*,*,#468,.F.);
#616=ORIENTED_EDGE('',*,*,#469,.T.);
#617=ORIENTED_EDGE('',*,*,#462,.F.);
#618=ORIENTED_EDGE('',*,*,#466,.F.);
#619=ORIENTED_EDGE('',*,*,#470,.F.);
#620=ORIENTED_EDGE('',*,*,#471,.T.);
#621=ORIENTED_EDGE('',*,*,#463,.F.);
#622=ORIENTED_EDGE('',*,*,#469,.F.);
#623=ORIENTED_EDGE('',*,*,#472,.F.);
#624=ORIENTED_EDGE('',*,*,#467,.T.);
#625=ORIENTED_EDGE('',*,*,#464,.F.);
#626=ORIENTED_EDGE('',*,*,#471,.F.);
#627=ORIENTED_EDGE('',*,*,#473,.T.);
#628=ORIENTED_EDGE('',*,*,#474,.T.);
#629=ORIENTED_EDGE('',*,*,#475,.T.);
#630=ORIENTED_EDGE('',*,*,#476,.T.);
#631=ORIENTED_EDGE('',*,*,#477,.F.);
#632=ORIENTED_EDGE('',*,*,#478,.T.);
#633=ORIENTED_EDGE('',*,*,#473,.F.);
#634=ORIENTED_EDGE('',*,*,#479,.F.);
#635=ORIENTED_EDGE('',*,*,#480,.F.);
#636=ORIENTED_EDGE('',*,*,#481,.T.);
#637=ORIENTED_EDGE('',*,*,#474,.F.);
#638=ORIENTED_EDGE('',*,*,#478,.F.);
#639=ORIENTED_EDGE('',*,*,#482,.F.);
#640=ORIENTED_EDGE('',*,*,#483,.T.);
#641=ORIENTED_EDGE('',*,*,#475,.F.);
#642=ORIENTED_EDGE('',*,*,#481,.F.);
#643=ORIENTED_EDGE('',*,*,#484,.F.);
#644=ORIENTED_EDGE('',*,*,#479,.T.);
#645=ORIENTED_EDGE('',*,*,#476,.F.);
#646=ORIENTED_EDGE('',*,*,#483,.F.);
#647=ORIENTED_EDGE('',*,*,#485,.F.);
#648=ORIENTED_EDGE('',*,*,#486,.T.);
#649=ORIENTED_EDGE('',*,*,#487,.F.);
#650=ORIENTED_EDGE('',*,*,#486,.F.);
#651=ORIENTED_EDGE('',*,*,#436,.F.);
#652=ORIENTED_EDGE('',*,*,#488,.T.);
#653=ORIENTED_EDGE('',*,*,#485,.T.);
#654=ORIENTED_EDGE('',*,*,#488,.F.);
#655=ORIENTED_EDGE('',*,*,#489,.F.);
#656=ORIENTED_EDGE('',*,*,#490,.T.);
#657=ORIENTED_EDGE('',*,*,#491,.F.);
#658=ORIENTED_EDGE('',*,*,#490,.F.);
#659=ORIENTED_EDGE('',*,*,#437,.F.);
#660=ORIENTED_EDGE('',*,*,#492,.T.);
#661=ORIENTED_EDGE('',*,*,#489,.T.);
#662=ORIENTED_EDGE('',*,*,#492,.F.);
#663=ORIENTED_EDGE('',*,*,#493,.F.);
#664=ORIENTED_EDGE('',*,*,#494,.T.);
#665=ORIENTED_EDGE('',*,*,#495,.F.);
#666=ORIENTED_EDGE('',*,*,#494,.F.);
#667=ORIENTED_EDGE('',*,*,#438,.F.);
#668=ORIENTED_EDGE('',*,*,#496,.T.);
#669=ORIENTED_EDGE('',*,*,#493,.T.);
#670=ORIENTED_EDGE('',*,*,#496,.F.);
#671=ORIENTED_EDGE('',*,*,#497,.F.);
#672=ORIENTED_EDGE('',*,*,#498,.T.);
#673=ORIENTED_EDGE('',*,*,#499,.F.);
#674=ORIENTED_EDGE('',*,*,#498,.F.);
#675=ORIENTED_EDGE('',*,*,#439,.F.);
#676=ORIENTED_EDGE('',*,*,#500,.T.);
#677=ORIENTED_EDGE('',*,*,#497,.T.);
#678=ORIENTED_EDGE('',*,*,#500,.F.);
#679=ORIENTED_EDGE('',*,*,#501,.F.);
#680=ORIENTED_EDGE('',*,*,#502,.T.);
#681=ORIENTED_EDGE('',*,*,#503,.F.);
#682=ORIENTED_EDGE('',*,*,#502,.F.);
#683=ORIENTED_EDGE('',*,*,#440,.F.);
#684=ORIENTED_EDGE('',*,*,#504,.T.);
#685=ORIENTED_EDGE('',*,*,#501,.T.);
#686=ORIENTED_EDGE('',*,*,#504,.F.);
#687=ORIENTED_EDGE('',*,*,#505,.F.);
#688=ORIENTED_EDGE('',*,*,#506,.T.);
#689=ORIENTED_EDGE('',*,*,#507,.F.);
#690=ORIENTED_EDGE('',*,*,#506,.F.);
#691=ORIENTED_EDGE('',*,*,#441,.F.);
#692=ORIENTED_EDGE('',*,*,#508,.T.);
#693=ORIENTED_EDGE('',*,*,#505,.T.);
#694=ORIENTED_EDGE('',*,*,#508,.F.);
#695=ORIENTED_EDGE('',*,*,#443,.F.);
#696=ORIENTED_EDGE('',*,*,#445,.F.);
#697=ORIENTED_EDGE('',*,*,#447,.F.);
#698=ORIENTED_EDGE('',*,*,#448,.F.);
#699=ORIENTED_EDGE('',*,*,#428,.F.);
#700=ORIENTED_EDGE('',*,*,#431,.T.);
#701=ORIENTED_EDGE('',*,*,#433,.F.);
#702=ORIENTED_EDGE('',*,*,#435,.T.);
#703=ORIENTED_EDGE('',*,*,#460,.T.);
#704=ORIENTED_EDGE('',*,*,#458,.T.);
#705=ORIENTED_EDGE('',*,*,#456,.T.);
#706=ORIENTED_EDGE('',*,*,#453,.T.);
#707=ORIENTED_EDGE('',*,*,#472,.T.);
#708=ORIENTED_EDGE('',*,*,#470,.T.);
#709=ORIENTED_EDGE('',*,*,#468,.T.);
#710=ORIENTED_EDGE('',*,*,#465,.T.);
#711=ORIENTED_EDGE('',*,*,#484,.T.);
#712=ORIENTED_EDGE('',*,*,#482,.T.);
#713=ORIENTED_EDGE('',*,*,#480,.T.);
#714=ORIENTED_EDGE('',*,*,#477,.T.);
#715=ORIENTED_EDGE('',*,*,#487,.T.);
#716=ORIENTED_EDGE('',*,*,#491,.T.);
#717=ORIENTED_EDGE('',*,*,#495,.T.);
#718=ORIENTED_EDGE('',*,*,#499,.T.);
#719=ORIENTED_EDGE('',*,*,#503,.T.);
#720=ORIENTED_EDGE('',*,*,#507,.T.);
#721=PLANE('',#805);
#722=PLANE('',#809);
#723=PLANE('',#813);
#724=PLANE('',#817);
#725=PLANE('',#823);
#726=PLANE('',#826);
#727=PLANE('',#827);
#728=PLANE('',#836);
#729=PLANE('',#839);
#730=PLANE('',#840);
#731=PLANE('',#841);
#732=PLANE('',#842);
#733=PLANE('',#843);
#734=PLANE('',#844);
#735=PLANE('',#845);
#736=PLANE('',#846);
#737=PLANE('',#847);
#738=PLANE('',#848);
#739=PLANE('',#849);
#740=PLANE('',#850);
#741=PLANE('',#851);
#742=PLANE('',#852);
#743=PLANE('',#853);
#744=PLANE('',#854);
#745=PLANE('',#879);
#746=ADVANCED_FACE('',(#80),#721,.T.);
#747=ADVANCED_FACE('',(#81),#70,.T.);
#748=ADVANCED_FACE('',(#82),#722,.T.);
#749=ADVANCED_FACE('',(#83),#71,.T.);
#750=ADVANCED_FACE('',(#84),#723,.T.);
#751=ADVANCED_FACE('',(#85),#72,.T.);
#752=ADVANCED_FACE('',(#86),#724,.T.);
#753=ADVANCED_FACE('',(#87),#73,.T.);
#754=ADVANCED_FACE('',(#88),#30,.T.);
#755=ADVANCED_FACE('',(#89),#725,.T.);
#756=ADVANCED_FACE('',(#90),#31,.T.);
#757=ADVANCED_FACE('',(#91),#726,.T.);
#758=ADVANCED_FACE('',(#92,#15,#16,#17,#18,#19,#20),#727,.T.);
#759=ADVANCED_FACE('',(#93),#32,.T.);
#760=ADVANCED_FACE('',(#94),#728,.T.);
#761=ADVANCED_FACE('',(#95),#33,.T.);
#762=ADVANCED_FACE('',(#96),#729,.T.);
#763=ADVANCED_FACE('',(#97),#730,.T.);
#764=ADVANCED_FACE('',(#98),#731,.T.);
#765=ADVANCED_FACE('',(#99),#732,.T.);
#766=ADVANCED_FACE('',(#100),#733,.T.);
#767=ADVANCED_FACE('',(#101),#734,.T.);
#768=ADVANCED_FACE('',(#102),#735,.T.);
#769=ADVANCED_FACE('',(#103),#736,.T.);
#770=ADVANCED_FACE('',(#104),#737,.T.);
#771=ADVANCED_FACE('',(#105),#738,.T.);
#772=ADVANCED_FACE('',(#106),#739,.T.);
#773=ADVANCED_FACE('',(#107),#740,.T.);
#774=ADVANCED_FACE('',(#108),#741,.T.);
#775=ADVANCED_FACE('',(#109),#742,.T.);
#776=ADVANCED_FACE('',(#110),#743,.T.);
#777=ADVANCED_FACE('',(#111),#744,.T.);
#778=ADVANCED_FACE('',(#112),#34,.F.);
#779=ADVANCED_FACE('',(#113),#74,.F.);
#780=ADVANCED_FACE('',(#114),#35,.F.);
#781=ADVANCED_FACE('',(#115),#75,.F.);
#782=ADVANCED_FACE('',(#116),#36,.F.);
#783=ADVANCED_FACE('',(#117),#76,.F.);
#784=ADVANCED_FACE('',(#118),#37,.F.);
#785=ADVANCED_FACE('',(#119),#77,.F.);
#786=ADVANCED_FACE('',(#120),#38,.F.);
#787=ADVANCED_FACE('',(#121),#78,.F.);
#788=ADVANCED_FACE('',(#122),#39,.F.);
#789=ADVANCED_FACE('',(#123),#79,.F.);
#790=ADVANCED_FACE('',(#124,#21,#22,#23,#24,#25,#26,#27,#28,#29),#745,.F.);
#791=CLOSED_SHELL('',(#746,#747,#748,#749,#750,#751,#752,#753,#754,#755,
#756,#757,#758,#759,#760,#761,#762,#763,#764,#765,#766,#767,#768,#769,#770,
#771,#772,#773,#774,#775,#776,#777,#778,#779,#780,#781,#782,#783,#784,#785,
#786,#787,#788,#789,#790));
#792=DERIVED_UNIT_ELEMENT(#794,1.);
#793=DERIVED_UNIT_ELEMENT(#1331,-3.);
#794=(
MASS_UNIT()
NAMED_UNIT(*)
SI_UNIT(.KILO.,.GRAM.)
);
#795=DERIVED_UNIT((#792,#793));
#796=MEASURE_REPRESENTATION_ITEM('density measure',
POSITIVE_RATIO_MEASURE(7850.),#795);
#797=PROPERTY_DEFINITION_REPRESENTATION(#802,#799);
#798=PROPERTY_DEFINITION_REPRESENTATION(#803,#800);
#799=REPRESENTATION('material name',(#801),#1328);
#800=REPRESENTATION('density',(#796),#1328);
#801=DESCRIPTIVE_REPRESENTATION_ITEM('Acero','Acero');
#802=PROPERTY_DEFINITION('material property','material name',#1338);
#803=PROPERTY_DEFINITION('material property','density of part',#1338);
#804=AXIS2_PLACEMENT_3D('',#1108,#880,#881);
#805=AXIS2_PLACEMENT_3D('',#1109,#882,#883);
#806=AXIS2_PLACEMENT_3D('',#1118,#888,#889);
#807=AXIS2_PLACEMENT_3D('',#1120,#890,#891);
#808=AXIS2_PLACEMENT_3D('',#1123,#893,#894);
#809=AXIS2_PLACEMENT_3D('',#1124,#895,#896);
#810=AXIS2_PLACEMENT_3D('',#1130,#900,#901);
#811=AXIS2_PLACEMENT_3D('',#1132,#902,#903);
#812=AXIS2_PLACEMENT_3D('',#1135,#905,#906);
#813=AXIS2_PLACEMENT_3D('',#1136,#907,#908);
#814=AXIS2_PLACEMENT_3D('',#1142,#912,#913);
#815=AXIS2_PLACEMENT_3D('',#1144,#914,#915);
#816=AXIS2_PLACEMENT_3D('',#1147,#917,#918);
#817=AXIS2_PLACEMENT_3D('',#1148,#919,#920);
#818=AXIS2_PLACEMENT_3D('',#1154,#924,#925);
#819=AXIS2_PLACEMENT_3D('',#1155,#926,#927);
#820=AXIS2_PLACEMENT_3D('',#1156,#928,#929);
#821=AXIS2_PLACEMENT_3D('',#1157,#930,#931);
#822=AXIS2_PLACEMENT_3D('',#1161,#933,#934);
#823=AXIS2_PLACEMENT_3D('',#1163,#936,#937);
#824=AXIS2_PLACEMENT_3D('',#1167,#940,#941);
#825=AXIS2_PLACEMENT_3D('',#1170,#943,#944);
#826=AXIS2_PLACEMENT_3D('',#1171,#945,#946);
#827=AXIS2_PLACEMENT_3D('',#1175,#949,#950);
#828=AXIS2_PLACEMENT_3D('',#1177,#951,#952);
#829=AXIS2_PLACEMENT_3D('',#1179,#953,#954);
#830=AXIS2_PLACEMENT_3D('',#1181,#955,#956);
#831=AXIS2_PLACEMENT_3D('',#1183,#957,#958);
#832=AXIS2_PLACEMENT_3D('',#1185,#959,#960);
#833=AXIS2_PLACEMENT_3D('',#1187,#961,#962);
#834=AXIS2_PLACEMENT_3D('',#1188,#963,#964);
#835=AXIS2_PLACEMENT_3D('',#1191,#966,#967);
#836=AXIS2_PLACEMENT_3D('',#1192,#968,#969);
#837=AXIS2_PLACEMENT_3D('',#1196,#972,#973);
#838=AXIS2_PLACEMENT_3D('',#1199,#975,#976);
#839=AXIS2_PLACEMENT_3D('',#1200,#977,#978);
#840=AXIS2_PLACEMENT_3D('',#1202,#980,#981);
#841=AXIS2_PLACEMENT_3D('',#1211,#986,#987);
#842=AXIS2_PLACEMENT_3D('',#1217,#991,#992);
#843=AXIS2_PLACEMENT_3D('',#1221,#995,#996);
#844=AXIS2_PLACEMENT_3D('',#1225,#999,#1000);
#845=AXIS2_PLACEMENT_3D('',#1227,#1002,#1003);
#846=AXIS2_PLACEMENT_3D('',#1236,#1008,#1009);
#847=AXIS2_PLACEMENT_3D('',#1242,#1013,#1014);
#848=AXIS2_PLACEMENT_3D('',#1246,#1017,#1018);
#849=AXIS2_PLACEMENT_3D('',#1250,#1021,#1022);
#850=AXIS2_PLACEMENT_3D('',#1252,#1024,#1025);
#851=AXIS2_PLACEMENT_3D('',#1261,#1030,#1031);
#852=AXIS2_PLACEMENT_3D('',#1267,#1035,#1036);
#853=AXIS2_PLACEMENT_3D('',#1271,#1039,#1040);
#854=AXIS2_PLACEMENT_3D('',#1275,#1043,#1044);
#855=AXIS2_PLACEMENT_3D('',#1277,#1046,#1047);
#856=AXIS2_PLACEMENT_3D('',#1279,#1048,#1049);
#857=AXIS2_PLACEMENT_3D('',#1282,#1051,#1052);
#858=AXIS2_PLACEMENT_3D('',#1283,#1053,#1054);
#859=AXIS2_PLACEMENT_3D('',#1285,#1056,#1057);
#860=AXIS2_PLACEMENT_3D('',#1287,#1058,#1059);
#861=AXIS2_PLACEMENT_3D('',#1290,#1061,#1062);
#862=AXIS2_PLACEMENT_3D('',#1291,#1063,#1064);
#863=AXIS2_PLACEMENT_3D('',#1293,#1066,#1067);
#864=AXIS2_PLACEMENT_3D('',#1295,#1068,#1069);
#865=AXIS2_PLACEMENT_3D('',#1298,#1071,#1072);
#866=AXIS2_PLACEMENT_3D('',#1299,#1073,#1074);
#867=AXIS2_PLACEMENT_3D('',#1301,#1076,#1077);
#868=AXIS2_PLACEMENT_3D('',#1303,#1078,#1079);
#869=AXIS2_PLACEMENT_3D('',#1306,#1081,#1082);
#870=AXIS2_PLACEMENT_3D('',#1307,#1083,#1084);
#871=AXIS2_PLACEMENT_3D('',#1309,#1086,#1087);
#872=AXIS2_PLACEMENT_3D('',#1311,#1088,#1089);
#873=AXIS2_PLACEMENT_3D('',#1314,#1091,#1092);
#874=AXIS2_PLACEMENT_3D('',#1315,#1093,#1094);
#875=AXIS2_PLACEMENT_3D('',#1317,#1096,#1097);
#876=AXIS2_PLACEMENT_3D('',#1319,#1098,#1099);
#877=AXIS2_PLACEMENT_3D('',#1322,#1101,#1102);
#878=AXIS2_PLACEMENT_3D('',#1323,#1103,#1104);
#879=AXIS2_PLACEMENT_3D('',#1325,#1106,#1107);
#880=DIRECTION('axis',(0.,0.,1.));
#881=DIRECTION('refdir',(1.,0.,0.));
#882=DIRECTION('center_axis',(0.,0.707106781186547,-0.707106781186548));
#883=DIRECTION('ref_axis',(1.,0.,0.));
#884=DIRECTION('',(0.,-0.707106781186548,-0.707106781186547));
#885=DIRECTION('',(-1.,0.,0.));
#886=DIRECTION('',(0.,0.707106781186548,0.707106781186547));
#887=DIRECTION('',(1.,0.,0.));
#888=DIRECTION('center_axis',(0.,2.22044604925031E-16,1.));
#889=DIRECTION('ref_axis',(0.707106781186573,0.707106781186522,-1.57009245868372E-16));
#890=DIRECTION('center_axis',(0.,-2.22044604925031E-16,-1.));
#891=DIRECTION('ref_axis',(0.707106781186573,0.707106781186522,-1.57009245868372E-16));
#892=DIRECTION('',(-0.707106781186579,-1.57009245868371E-16,-0.707106781186516));
#893=DIRECTION('center_axis',(0.,2.22044604925031E-16,1.));
#894=DIRECTION('ref_axis',(0.707106781186573,0.707106781186522,-1.57009245868372E-16));
#895=DIRECTION('center_axis',(0.707106781186548,-1.57009245868377E-16,-0.707106781186548));
#896=DIRECTION('ref_axis',(-6.07716335728627E-64,-1.,2.22044604925031E-16));
#897=DIRECTION('',(-0.707106781186548,-1.57009245868377E-16,-0.707106781186548));
#898=DIRECTION('',(6.07716335728627E-64,1.,-2.22044604925031E-16));
#899=DIRECTION('',(-6.07716335728627E-64,-1.,2.22044604925031E-16));
#900=DIRECTION('center_axis',(0.,2.22044604925031E-16,1.));
#901=DIRECTION('ref_axis',(0.707106781186547,-0.707106781186547,1.57009245868377E-16));
#902=DIRECTION('center_axis',(0.,-2.22044604925031E-16,-1.));
#903=DIRECTION('ref_axis',(0.707106781186548,-0.707106781186548,1.57009245868377E-16));
#904=DIRECTION('',(0.,0.707106781186547,-0.707106781186548));
#905=DIRECTION('center_axis',(0.,2.22044604925031E-16,1.));
#906=DIRECTION('ref_axis',(0.707106781186548,-0.707106781186548,1.57009245868377E-16));
#907=DIRECTION('center_axis',(0.,-0.707106781186924,-0.707106781186171));
#908=DIRECTION('ref_axis',(-1.,0.,0.));
#909=DIRECTION('',(0.,0.707106781186171,-0.707106781186924));
#910=DIRECTION('',(1.,0.,0.));
#911=DIRECTION('',(-1.,0.,0.));
#912=DIRECTION('center_axis',(0.,2.22044604925031E-16,1.));
#913=DIRECTION('ref_axis',(-0.707106781186535,-0.70710678118656,1.5700924586838E-16));
#914=DIRECTION('center_axis',(0.,-2.22044604925031E-16,-1.));
#915=DIRECTION('ref_axis',(-0.707106781186535,-0.70710678118656,1.5700924586838E-16));
#916=DIRECTION('',(0.707106781186532,-1.57009245868381E-16,-0.707106781186563));
#917=DIRECTION('center_axis',(0.,2.22044604925031E-16,1.));
#918=DIRECTION('ref_axis',(-0.707106781186535,-0.70710678118656,1.5700924586838E-16));
#919=DIRECTION('center_axis',(-0.707106781186548,-4.71027737605132E-16,
-0.707106781186548));
#920=DIRECTION('ref_axis',(-4.44089209850062E-16,1.,-2.22044604925031E-16));
#921=DIRECTION('',(-4.44089209850062E-16,1.,-2.22044604925031E-16));
#922=DIRECTION('',(0.707106781186548,-1.57009245868377E-16,-0.707106781186548));
#923=DIRECTION('',(4.44089209850062E-16,-1.,2.22044604925031E-16));
#924=DIRECTION('center_axis',(0.,2.22044604925031E-16,1.));
#925=DIRECTION('ref_axis',(-0.707106781186522,0.707106781186572,-1.57009245868383E-16));
#926=DIRECTION('center_axis',(0.,-2.22044604925031E-16,-1.));
#927=DIRECTION('ref_axis',(-0.707106781186523,0.707106781186573,-1.57009245868383E-16));
#928=DIRECTION('center_axis',(0.,2.22044604925031E-16,1.));
#929=DIRECTION('ref_axis',(-0.707106781186522,0.707106781186573,-1.57009245868383E-16));
#930=DIRECTION('center_axis',(0.,-2.22044604925031E-16,-1.));
#931=DIRECTION('ref_axis',(0.707106781186548,-0.707106781186548,1.57009245868377E-16));
#932=DIRECTION('',(0.,2.22044604925031E-16,1.));
#933=DIRECTION('center_axis',(-4.93038065763132E-32,-2.22044604925031E-16,
-1.));
#934=DIRECTION('ref_axis',(0.707106781186548,-0.707106781186548,1.57009245868377E-16));
#935=DIRECTION('',(0.,-2.22044604925031E-16,-1.));
#936=DIRECTION('center_axis',(1.,-6.07716335728627E-64,1.34940133673351E-79));
#937=DIRECTION('ref_axis',(-6.07716335728627E-64,-1.,2.22044604925031E-16));
#938=DIRECTION('',(0.,-2.22044604925031E-16,-1.));
#939=DIRECTION('',(6.07716335728627E-64,1.,-2.22044604925031E-16));
#940=DIRECTION('center_axis',(0.,-2.22044604925031E-16,-1.));
#941=DIRECTION('ref_axis',(0.707106781186573,0.707106781186522,-1.57009245868372E-16));
#942=DIRECTION('',(0.,2.22044604925031E-16,1.));
#943=DIRECTION('center_axis',(-4.93038065763132E-32,-2.22044604925031E-16,
-1.));
#944=DIRECTION('ref_axis',(0.707106781186573,0.707106781186522,-1.57009245868372E-16));
#945=DIRECTION('center_axis',(0.,1.,-2.22044604925031E-16));
#946=DIRECTION('ref_axis',(1.,-1.09476442525376E-47,-4.93038065763132E-32));
#947=DIRECTION('',(6.12323399573677E-17,-2.22044604925031E-16,-1.));
#948=DIRECTION('',(-1.,1.09476442525376E-47,4.93038065763132E-32));
#949=DIRECTION('center_axis',(0.,-2.22044604925031E-16,-1.));
#950=DIRECTION('ref_axis',(0.,1.,-2.22044604925031E-16));
#951=DIRECTION('center_axis',(0.,2.22044604925031E-16,1.));
#952=DIRECTION('ref_axis',(0.,1.,-2.22044604925031E-16));
#953=DIRECTION('center_axis',(0.,2.22044604925031E-16,1.));
#954=DIRECTION('ref_axis',(0.,1.,-2.22044604925031E-16));
#955=DIRECTION('center_axis',(0.,2.22044604925031E-16,1.));
#956=DIRECTION('ref_axis',(0.,1.,-2.22044604925031E-16));
#957=DIRECTION('center_axis',(0.,2.22044604925031E-16,1.));
#958=DIRECTION('ref_axis',(0.,1.,-2.22044604925031E-16));
#959=DIRECTION('center_axis',(0.,2.22044604925031E-16,1.));
#960=DIRECTION('ref_axis',(0.,1.,-2.22044604925031E-16));
#961=DIRECTION('center_axis',(0.,2.22044604925031E-16,1.));
#962=DIRECTION('ref_axis',(0.,1.,-2.22044604925031E-16));
#963=DIRECTION('center_axis',(6.12323399573677E-17,-2.22044604925031E-16,
-1.));
#964=DIRECTION('ref_axis',(-0.707106781186523,0.707106781186573,-1.57009245868383E-16));
#965=DIRECTION('',(-6.12323399573677E-17,2.22044604925031E-16,1.));
#966=DIRECTION('center_axis',(-4.93038065763132E-32,-2.22044604925031E-16,
-1.));
#967=DIRECTION('ref_axis',(-0.707106781186523,0.707106781186573,-1.57009245868383E-16));
#968=DIRECTION('center_axis',(-1.,-4.44089209850062E-16,-6.12323399573676E-17));
#969=DIRECTION('ref_axis',(-4.44089209850062E-16,1.,-2.22044604925031E-16));
#970=DIRECTION('',(6.12323399573677E-17,-2.22044604925031E-16,-1.));
#971=DIRECTION('',(-4.44089209850062E-16,1.,-2.22044604925031E-16));
#972=DIRECTION('center_axis',(-6.12323399573677E-17,2.22044604925031E-16,
1.));
#973=DIRECTION('ref_axis',(-0.707106781186535,-0.70710678118656,1.5700924586838E-16));
#974=DIRECTION('',(-6.12323399573677E-17,2.22044604925031E-16,1.));
#975=DIRECTION('center_axis',(-4.93038065763132E-32,-2.22044604925031E-16,
-1.));
#976=DIRECTION('ref_axis',(-0.707106781186535,-0.70710678118656,1.5700924586838E-16));
#977=DIRECTION('center_axis',(0.,-1.,2.22044604925031E-16));
#978=DIRECTION('ref_axis',(-1.,1.09476442525376E-47,4.93038065763132E-32));
#979=DIRECTION('',(-1.,1.09476442525376E-47,4.93038065763132E-32));
#980=DIRECTION('center_axis',(0.,2.22044604925031E-16,1.));
#981=DIRECTION('ref_axis',(0.,-1.,2.22044604925031E-16));
#982=DIRECTION('',(-6.07716335728627E-64,-1.,2.22044604925031E-16));
#983=DIRECTION('',(1.,-1.09476442525376E-47,-4.93038065763132E-32));
#984=DIRECTION('',(-8.88178419700124E-16,1.,-2.22044604925031E-16));
#985=DIRECTION('',(-1.,-1.22507368234501E-14,2.76951382457983E-30));
#986=DIRECTION('center_axis',(-1.,6.07716335728627E-64,-1.34940133673351E-79));
#987=DIRECTION('ref_axis',(-6.07716335728627E-64,-1.,2.22044604925031E-16));
#988=DIRECTION('',(6.07716335728627E-64,1.,-2.22044604925031E-16));
#989=DIRECTION('',(0.,2.22044604925031E-16,1.));
#990=DIRECTION('',(0.,2.22044604925031E-16,1.));
#991=DIRECTION('center_axis',(0.,-1.,2.22044604925031E-16));
#992=DIRECTION('ref_axis',(1.,-1.09476442525376E-47,-4.93038065763132E-32));
#993=DIRECTION('',(-1.,1.09476442525376E-47,4.93038065763132E-32));
#994=DIRECTION('',(0.,2.22044604925031E-16,1.));
#995=DIRECTION('center_axis',(1.,8.88178419700124E-16,-1.97215226305253E-31));
#996=DIRECTION('ref_axis',(-8.88178419700124E-16,1.,-2.22044604925031E-16));
#997=DIRECTION('',(8.88178419700124E-16,-1.,2.22044604925031E-16));
#998=DIRECTION('',(0.,2.22044604925031E-16,1.));
#999=DIRECTION('center_axis',(-1.22507368234501E-14,1.,-2.22044604925031E-16));
#1000=DIRECTION('ref_axis',(-1.,-1.22507368234501E-14,2.76951382457983E-30));
#1001=DIRECTION('',(1.,1.22507368234501E-14,-2.76951382457983E-30));
#1002=DIRECTION('center_axis',(0.,2.22044604925031E-16,1.));
#1003=DIRECTION('ref_axis',(0.,-1.,2.22044604925031E-16));
#1004=DIRECTION('',(-1.,1.09476442525376E-47,4.93038065763132E-32));
#1005=DIRECTION('',(-6.07716335728627E-64,-1.,2.22044604925031E-16));
#1006=DIRECTION('',(1.,-1.09476442525376E-47,-4.93038065763132E-32));
#1007=DIRECTION('',(6.07716335728627E-64,1.,-2.22044604925031E-16));
#1008=DIRECTION('center_axis',(0.,1.,-2.22044604925031E-16));
#1009=DIRECTION('ref_axis',(-1.,1.09476442525376E-47,4.93038065763132E-32));
#1010=DIRECTION('',(1.,-1.09476442525376E-47,-4.93038065763132E-32));
#1011=DIRECTION('',(0.,2.22044604925031E-16,1.));
#1012=DIRECTION('',(0.,2.22044604925031E-16,1.));
#1013=DIRECTION('center_axis',(-1.,6.07716335728627E-64,-1.34940133673351E-79));
#1014=DIRECTION('ref_axis',(-6.07716335728627E-64,-1.,2.22044604925031E-16));
#1015=DIRECTION('',(6.07716335728627E-64,1.,-2.22044604925031E-16));
#1016=DIRECTION('',(0.,2.22044604925031E-16,1.));
#1017=DIRECTION('center_axis',(0.,-1.,2.22044604925031E-16));
#1018=DIRECTION('ref_axis',(1.,-1.09476442525376E-47,-4.93038065763132E-32));
#1019=DIRECTION('',(-1.,1.09476442525376E-47,4.93038065763132E-32));
#1020=DIRECTION('',(0.,2.22044604925031E-16,1.));
#1021=DIRECTION('center_axis',(1.,-6.07716335728627E-64,1.34940133673351E-79));
#1022=DIRECTION('ref_axis',(6.07716335728627E-64,1.,-2.22044604925031E-16));
#1023=DIRECTION('',(-6.07716335728627E-64,-1.,2.22044604925031E-16));
#1024=DIRECTION('center_axis',(0.,2.22044604925031E-16,1.));
#1025=DIRECTION('ref_axis',(0.,-1.,2.22044604925031E-16));
#1026=DIRECTION('',(-6.07716335728627E-64,-1.,2.22044604925031E-16));
#1027=DIRECTION('',(1.,-1.09476442525376E-47,-4.93038065763132E-32));
#1028=DIRECTION('',(6.07716335728627E-64,1.,-2.22044604925031E-16));
#1029=DIRECTION('',(-1.,1.09476442525376E-47,4.93038065763132E-32));
#1030=DIRECTION('center_axis',(-1.,6.07716335728627E-64,-1.34940133673351E-79));
#1031=DIRECTION('ref_axis',(-6.07716335728627E-64,-1.,2.22044604925031E-16));
#1032=DIRECTION('',(6.07716335728627E-64,1.,-2.22044604925031E-16));
#1033=DIRECTION('',(0.,2.22044604925031E-16,1.));
#1034=DIRECTION('',(0.,2.22044604925031E-16,1.));
#1035=DIRECTION('center_axis',(0.,-1.,2.22044604925031E-16));
#1036=DIRECTION('ref_axis',(1.,-1.09476442525376E-47,-4.93038065763132E-32));
#1037=DIRECTION('',(-1.,1.09476442525376E-47,4.93038065763132E-32));
#1038=DIRECTION('',(0.,2.22044604925031E-16,1.));
#1039=DIRECTION('center_axis',(1.,-6.07716335728627E-64,1.34940133673351E-79));
#1040=DIRECTION('ref_axis',(6.07716335728627E-64,1.,-2.22044604925031E-16));
#1041=DIRECTION('',(-6.07716335728627E-64,-1.,2.22044604925031E-16));
#1042=DIRECTION('',(0.,2.22044604925031E-16,1.));
#1043=DIRECTION('center_axis',(0.,1.,-2.22044604925031E-16));
#1044=DIRECTION('ref_axis',(-1.,1.09476442525376E-47,4.93038065763132E-32));
#1045=DIRECTION('',(1.,-1.09476442525376E-47,-4.93038065763132E-32));
#1046=DIRECTION('center_axis',(0.,2.22044604925031E-16,1.));
#1047=DIRECTION('ref_axis',(0.,1.,-2.22044604925031E-16));
#1048=DIRECTION('center_axis',(0.,2.22044604925031E-16,1.));
#1049=DIRECTION('ref_axis',(0.,1.,-2.22044604925031E-16));
#1050=DIRECTION('',(0.,2.22044604925031E-16,1.));
#1051=DIRECTION('center_axis',(-4.93038065763132E-32,-2.22044604925031E-16,
-1.));
#1052=DIRECTION('ref_axis',(0.,1.,-2.22044604925031E-16));
#1053=DIRECTION('center_axis',(0.,-2.22044604925031E-16,-1.));
#1054=DIRECTION('ref_axis',(0.,1.,-2.22044604925031E-16));
#1055=DIRECTION('',(-8.65956056235493E-17,0.707106781186548,0.707106781186547));
#1056=DIRECTION('center_axis',(0.,2.22044604925031E-16,1.));
#1057=DIRECTION('ref_axis',(0.,1.,-2.22044604925031E-16));
#1058=DIRECTION('center_axis',(0.,2.22044604925031E-16,1.));
#1059=DIRECTION('ref_axis',(0.,1.,-2.22044604925031E-16));
#1060=DIRECTION('',(0.,2.22044604925031E-16,1.));
#1061=DIRECTION('center_axis',(-4.93038065763132E-32,-2.22044604925031E-16,
-1.));
#1062=DIRECTION('ref_axis',(0.,1.,-2.22044604925031E-16));
#1063=DIRECTION('center_axis',(0.,-2.22044604925031E-16,-1.));
#1064=DIRECTION('ref_axis',(0.,1.,-2.22044604925031E-16));
#1065=DIRECTION('',(-8.65956056235493E-17,0.707106781186548,0.707106781186547));
#1066=DIRECTION('center_axis',(0.,2.22044604925031E-16,1.));
#1067=DIRECTION('ref_axis',(0.,1.,-2.22044604925031E-16));
#1068=DIRECTION('center_axis',(0.,2.22044604925031E-16,1.));
#1069=DIRECTION('ref_axis',(0.,1.,-2.22044604925031E-16));
#1070=DIRECTION('',(0.,2.22044604925031E-16,1.));
#1071=DIRECTION('center_axis',(-4.93038065763132E-32,-2.22044604925031E-16,
-1.));
#1072=DIRECTION('ref_axis',(0.,1.,-2.22044604925031E-16));
#1073=DIRECTION('center_axis',(0.,-2.22044604925031E-16,-1.));
#1074=DIRECTION('ref_axis',(0.,1.,-2.22044604925031E-16));
#1075=DIRECTION('',(-8.65956056235493E-17,0.707106781186548,0.707106781186547));
#1076=DIRECTION('center_axis',(0.,2.22044604925031E-16,1.));
#1077=DIRECTION('ref_axis',(0.,1.,-2.22044604925031E-16));
#1078=DIRECTION('center_axis',(0.,2.22044604925031E-16,1.));
#1079=DIRECTION('ref_axis',(0.,1.,-2.22044604925031E-16));
#1080=DIRECTION('',(0.,2.22044604925031E-16,1.));
#1081=DIRECTION('center_axis',(-4.93038065763132E-32,-2.22044604925031E-16,
-1.));
#1082=DIRECTION('ref_axis',(0.,1.,-2.22044604925031E-16));
#1083=DIRECTION('center_axis',(0.,-2.22044604925031E-16,-1.));
#1084=DIRECTION('ref_axis',(0.,1.,-2.22044604925031E-16));
#1085=DIRECTION('',(-8.65956056235493E-17,0.707106781186548,0.707106781186547));
#1086=DIRECTION('center_axis',(0.,2.22044604925031E-16,1.));
#1087=DIRECTION('ref_axis',(0.,1.,-2.22044604925031E-16));
#1088=DIRECTION('center_axis',(0.,2.22044604925031E-16,1.));
#1089=DIRECTION('ref_axis',(0.,1.,-2.22044604925031E-16));
#1090=DIRECTION('',(0.,2.22044604925031E-16,1.));
#1091=DIRECTION('center_axis',(-4.93038065763132E-32,-2.22044604925031E-16,
-1.));
#1092=DIRECTION('ref_axis',(0.,1.,-2.22044604925031E-16));
#1093=DIRECTION('center_axis',(0.,-2.22044604925031E-16,-1.));
#1094=DIRECTION('ref_axis',(0.,1.,-2.22044604925031E-16));
#1095=DIRECTION('',(-8.65956056235493E-17,0.707106781186547,0.707106781186547));
#1096=DIRECTION('center_axis',(0.,2.22044604925031E-16,1.));
#1097=DIRECTION('ref_axis',(0.,1.,-2.22044604925031E-16));
#1098=DIRECTION('center_axis',(0.,2.22044604925031E-16,1.));
#1099=DIRECTION('ref_axis',(0.,1.,-2.22044604925031E-16));
#1100=DIRECTION('',(0.,2.22044604925031E-16,1.));
#1101=DIRECTION('center_axis',(-4.93038065763132E-32,-2.22044604925031E-16,
-1.));
#1102=DIRECTION('ref_axis',(0.,1.,-2.22044604925031E-16));
#1103=DIRECTION('center_axis',(0.,-2.22044604925031E-16,-1.));
#1104=DIRECTION('ref_axis',(0.,1.,-2.22044604925031E-16));
#1105=DIRECTION('',(-8.65956056235493E-17,0.707106781186548,0.707106781186548));
#1106=DIRECTION('center_axis',(-4.93038065763132E-32,-2.22044604925031E-16,
-1.));
#1107=DIRECTION('ref_axis',(-1.,1.09476442525376E-47,4.93038065763132E-32));
#1108=CARTESIAN_POINT('',(0.,0.,0.));
#1109=CARTESIAN_POINT('Origin',(-155.,39.7999999999999,0.200000000000031));
#1110=CARTESIAN_POINT('',(76.5,39.9999999999999,0.399999999999991));
#1111=CARTESIAN_POINT('',(76.5,39.5999999999999,0.));
#1112=CARTESIAN_POINT('',(76.5,39.9999999999999,0.399999999999991));
#1113=CARTESIAN_POINT('',(-76.5,39.5999999999999,0.));
#1114=CARTESIAN_POINT('',(-155.,39.5999999999999,0.));
#1115=CARTESIAN_POINT('',(-76.5,39.9999999999999,0.399999999999991));
#1116=CARTESIAN_POINT('',(-76.5,39.5999999999999,0.));
#1117=CARTESIAN_POINT('',(-155.,39.9999999999999,0.399999999999991));
#1118=CARTESIAN_POINT('Origin',(76.5,38.9999999999999,0.200000000000031));
#1119=CARTESIAN_POINT('',(77.5,38.9999999999999,0.399999999999991));
#1120=CARTESIAN_POINT('Origin',(76.5,38.9999999999999,0.399999999999991));
#1121=CARTESIAN_POINT('',(77.1,38.9999999999999,0.));
#1122=CARTESIAN_POINT('',(77.5,38.9999999999999,0.399999999999991));
#1123=CARTESIAN_POINT('Origin',(76.5,38.9999999999999,0.));
#1124=CARTESIAN_POINT('Origin',(77.3,19.9999999999999,0.200000000000031));
#1125=CARTESIAN_POINT('',(77.5,-38.9999999999998,0.399999999999991));
#1126=CARTESIAN_POINT('',(77.1,-38.9999999999998,0.));
#1127=CARTESIAN_POINT('',(77.5,-38.9999999999998,0.399999999999991));
#1128=CARTESIAN_POINT('',(77.1,19.9999999999999,0.));
#1129=CARTESIAN_POINT('',(77.5,19.9999999999999,0.399999999999991));
#1130=CARTESIAN_POINT('Origin',(76.5,-38.9999999999998,0.200000000000031));
#1131=CARTESIAN_POINT('',(76.5,-39.9999999999999,0.399999999999991));
#1132=CARTESIAN_POINT('Origin',(76.5,-38.9999999999998,0.399999999999991));
#1133=CARTESIAN_POINT('',(76.5,-39.5999999999999,0.));
#1134=CARTESIAN_POINT('',(76.5,-39.9999999999999,0.399999999999991));
#1135=CARTESIAN_POINT('Origin',(76.5,-38.9999999999998,0.));
#1136=CARTESIAN_POINT('Origin',(0.,-39.7999999999999,0.200000000000173));
#1137=CARTESIAN_POINT('',(-76.5,-39.9999999999999,0.400000000000418));
#1138=CARTESIAN_POINT('',(-76.5,-39.5999999999999,0.));
#1139=CARTESIAN_POINT('',(-76.5,-39.9999999999999,0.400000000000418));
#1140=CARTESIAN_POINT('',(0.,-39.5999999999999,0.));
#1141=CARTESIAN_POINT('',(0.,-39.9999999999999,0.400000000000418));
#1142=CARTESIAN_POINT('Origin',(-76.5,-38.9999999999998,0.200000000000031));
#1143=CARTESIAN_POINT('',(-77.5,-38.9999999999998,0.399999999999991));
#1144=CARTESIAN_POINT('Origin',(-76.5,-38.9999999999998,0.399999999999991));
#1145=CARTESIAN_POINT('',(-77.1,-38.9999999999998,0.));
#1146=CARTESIAN_POINT('',(-77.5,-38.9999999999998,0.399999999999991));
#1147=CARTESIAN_POINT('Origin',(-76.5,-38.9999999999998,0.));
#1148=CARTESIAN_POINT('Origin',(-77.3,0.,0.200000000000031));
#1149=CARTESIAN_POINT('',(-77.5,38.9999999999998,0.399999999999991));
#1150=CARTESIAN_POINT('',(-77.5,0.,0.399999999999991));
#1151=CARTESIAN_POINT('',(-77.1000000000001,38.9999999999998,0.));
#1152=CARTESIAN_POINT('',(-77.5,38.9999999999998,0.399999999999991));
#1153=CARTESIAN_POINT('',(-77.1,0.,0.));
#1154=CARTESIAN_POINT('Origin',(-76.5,38.9999999999998,0.200000000000031));
#1155=CARTESIAN_POINT('Origin',(-76.5,38.9999999999998,0.399999999999991));
#1156=CARTESIAN_POINT('Origin',(-76.5,38.9999999999998,0.));
#1157=CARTESIAN_POINT('Origin',(76.5,-38.9999999999998,4.0000000000002));
#1158=CARTESIAN_POINT('',(77.5,-38.9999999999998,3.99999999999999));
#1159=CARTESIAN_POINT('',(77.5,-38.9999999999998,4.0000000000002));
#1160=CARTESIAN_POINT('',(76.5,-39.9999999999999,4.00000000000041));
#1161=CARTESIAN_POINT('Origin',(76.5,-38.9999999999998,3.99999999999999));
#1162=CARTESIAN_POINT('',(76.5,-39.9999999999999,4.0000000000002));
#1163=CARTESIAN_POINT('Origin',(77.5,39.9999999999999,3.99999999999999));
#1164=CARTESIAN_POINT('',(77.5,38.9999999999999,3.99999999999999));
#1165=CARTESIAN_POINT('',(77.5,38.9999999999999,3.99999999999999));
#1166=CARTESIAN_POINT('',(77.5,-39.9999999999999,3.99999999999999));
#1167=CARTESIAN_POINT('Origin',(76.5,38.9999999999999,3.99999999999999));
#1168=CARTESIAN_POINT('',(76.5,39.9999999999999,3.99999999999999));
#1169=CARTESIAN_POINT('',(76.5,39.9999999999999,3.99999999999999));
#1170=CARTESIAN_POINT('Origin',(76.5,38.9999999999999,3.99999999999999));
#1171=CARTESIAN_POINT('Origin',(-232.5,39.9999999999999,3.99999999999999));
#1172=CARTESIAN_POINT('',(-76.5,39.9999999999999,3.99999999999999));
#1173=CARTESIAN_POINT('',(-76.5,39.9999999999999,3.24999999999996));
#1174=CARTESIAN_POINT('',(77.5,39.9999999999999,3.99999999999999));
#1175=CARTESIAN_POINT('Origin',(-77.5,0.,0.));
#1176=CARTESIAN_POINT('',(67.5,-33.0499999999999,6.93889390390723E-17));
#1177=CARTESIAN_POINT('Origin',(67.5,-29.9999999999999,0.));
#1178=CARTESIAN_POINT('',(67.5,26.9500000000003,6.93889390390723E-17));
#1179=CARTESIAN_POINT('Origin',(67.5,30.0000000000003,0.));
#1180=CARTESIAN_POINT('',(-67.5,26.9500000000002,6.93889390390723E-17));
#1181=CARTESIAN_POINT('Origin',(-67.5,30.0000000000002,0.));
#1182=CARTESIAN_POINT('',(-10.,26.9500000000002,6.93889390390723E-17));
#1183=CARTESIAN_POINT('Origin',(-10.,30.0000000000002,0.));
#1184=CARTESIAN_POINT('',(-71.5,-37.0499999999999,1.38777878078145E-16));
#1185=CARTESIAN_POINT('Origin',(-71.5,-34.9999999999999,0.));
#1186=CARTESIAN_POINT('',(-40.25,-37.0499999999999,1.38777878078145E-16));
#1187=CARTESIAN_POINT('Origin',(-40.25,-34.9999999999999,0.));
#1188=CARTESIAN_POINT('Origin',(-76.5,38.9999999999998,3.24999999999996));
#1189=CARTESIAN_POINT('',(-77.5000000000001,38.9999999999998,3.99999999999999));
#1190=CARTESIAN_POINT('',(-77.5,38.9999999999998,3.24999999999996));
#1191=CARTESIAN_POINT('Origin',(-76.5,38.9999999999998,3.99999999999999));
#1192=CARTESIAN_POINT('Origin',(-77.5,0.,2.5));
#1193=CARTESIAN_POINT('',(-77.5,-38.9999999999998,3.99999999999999));
#1194=CARTESIAN_POINT('',(-77.5,-38.9999999999998,3.25000000000024));
#1195=CARTESIAN_POINT('',(-77.5,0.,3.99999999999999));
#1196=CARTESIAN_POINT('Origin',(-76.5,-38.9999999999998,3.25000000000024));
#1197=CARTESIAN_POINT('',(-76.5,-39.9999999999999,4.00000000000041));
#1198=CARTESIAN_POINT('',(-76.5,-39.9999999999999,3.25000000000024));
#1199=CARTESIAN_POINT('Origin',(-76.5,-38.9999999999998,3.99999999999999));
#1200=CARTESIAN_POINT('Origin',(77.5,-39.9999999999999,4.00000000000041));
#1201=CARTESIAN_POINT('',(-38.25,-39.9999999999999,4.00000000000041));
#1202=CARTESIAN_POINT('Origin',(67.5,-4.99999999999972,5.));
#1203=CARTESIAN_POINT('',(64.6,15.0000000000002,5.));
#1204=CARTESIAN_POINT('',(64.6,-24.9999999999998,5.));
#1205=CARTESIAN_POINT('',(64.6,-24.9999999999998,5.));
#1206=CARTESIAN_POINT('',(70.4,-24.9999999999998,5.));
#1207=CARTESIAN_POINT('',(70.4,-24.9999999999998,5.));
#1208=CARTESIAN_POINT('',(70.3999999999999,15.0000000000003,5.));
#1209=CARTESIAN_POINT('',(70.3999999999999,15.0000000000003,5.));
#1210=CARTESIAN_POINT('',(64.6,15.0000000000002,5.));
#1211=CARTESIAN_POINT('Origin',(64.6,15.0000000000002,3.99999999999999));
#1212=CARTESIAN_POINT('',(64.6,-24.9999999999998,3.99999999999999));
#1213=CARTESIAN_POINT('',(64.6,15.0000000000002,3.99999999999999));
#1214=CARTESIAN_POINT('',(64.6,7.50000000000007,3.99999999999999));
#1215=CARTESIAN_POINT('',(64.6,-24.9999999999998,3.99999999999999));
#1216=CARTESIAN_POINT('',(64.6,15.0000000000002,3.99999999999999));
#1217=CARTESIAN_POINT('Origin',(64.6,-24.9999999999998,3.99999999999999));
#1218=CARTESIAN_POINT('',(70.4,-24.9999999999998,3.99999999999999));
#1219=CARTESIAN_POINT('',(-6.45000000000003,-24.9999999999997,3.99999999999999));
#1220=CARTESIAN_POINT('',(70.4,-24.9999999999998,3.99999999999999));
#1221=CARTESIAN_POINT('Origin',(70.4,-24.9999999999998,3.99999999999999));
#1222=CARTESIAN_POINT('',(70.3999999999999,15.0000000000003,3.99999999999999));
#1223=CARTESIAN_POINT('',(70.3999999999999,-12.4999999999999,3.99999999999999));
#1224=CARTESIAN_POINT('',(70.3999999999999,15.0000000000003,3.99999999999999));
#1225=CARTESIAN_POINT('Origin',(70.3999999999999,15.0000000000003,3.99999999999999));
#1226=CARTESIAN_POINT('',(-3.55000000000015,14.9999999999994,3.99999999999999));
#1227=CARTESIAN_POINT('Origin',(-42.5,30.0000000000002,5.));
#1228=CARTESIAN_POINT('',(-22.5,32.9000000000002,5.));
#1229=CARTESIAN_POINT('',(-62.5,32.9000000000002,5.));
#1230=CARTESIAN_POINT('',(-22.5,32.9000000000002,5.));
#1231=CARTESIAN_POINT('',(-62.5,27.1000000000002,5.));
#1232=CARTESIAN_POINT('',(-62.5,32.9000000000002,5.));
#1233=CARTESIAN_POINT('',(-22.5,27.1000000000002,5.));
#1234=CARTESIAN_POINT('',(-62.5,27.1000000000002,5.));
#1235=CARTESIAN_POINT('',(-22.5,27.1000000000002,5.));
#1236=CARTESIAN_POINT('Origin',(-22.5,32.9000000000002,3.99999999999999));
#1237=CARTESIAN_POINT('',(-62.5,32.9000000000002,3.99999999999999));
#1238=CARTESIAN_POINT('',(-22.5,32.9000000000002,3.99999999999999));
#1239=CARTESIAN_POINT('',(-50.,32.9000000000002,3.99999999999999));
#1240=CARTESIAN_POINT('',(-62.5,32.9000000000002,3.99999999999999));
#1241=CARTESIAN_POINT('',(-22.5,32.9000000000002,3.99999999999999));
#1242=CARTESIAN_POINT('Origin',(-62.5,32.9000000000002,3.99999999999999));
#1243=CARTESIAN_POINT('',(-62.5,27.1000000000002,3.99999999999999));
#1244=CARTESIAN_POINT('',(-62.5,16.4500000000001,3.99999999999999));
#1245=CARTESIAN_POINT('',(-62.5,27.1000000000002,3.99999999999999));
#1246=CARTESIAN_POINT('Origin',(-62.5,27.1000000000002,3.99999999999999));
#1247=CARTESIAN_POINT('',(-22.5,27.1000000000002,3.99999999999999));
#1248=CARTESIAN_POINT('',(-70.,27.1000000000002,3.99999999999999));
#1249=CARTESIAN_POINT('',(-22.5,27.1000000000002,3.99999999999999));
#1250=CARTESIAN_POINT('Origin',(-22.5,27.1000000000002,3.99999999999999));
#1251=CARTESIAN_POINT('',(-22.5,13.5500000000001,3.99999999999999));
#1252=CARTESIAN_POINT('Origin',(22.5,30.0000000000002,5.));
#1253=CARTESIAN_POINT('',(2.5,32.9000000000002,5.));
#1254=CARTESIAN_POINT('',(2.5,27.1000000000002,5.));
#1255=CARTESIAN_POINT('',(2.5,27.1000000000002,5.));
#1256=CARTESIAN_POINT('',(42.5,27.1000000000002,5.));
#1257=CARTESIAN_POINT('',(42.5,27.1000000000002,5.));
#1258=CARTESIAN_POINT('',(42.5,32.9000000000002,5.));
#1259=CARTESIAN_POINT('',(42.5,32.9000000000002,5.));
#1260=CARTESIAN_POINT('',(2.5,32.9000000000002,5.));
#1261=CARTESIAN_POINT('Origin',(2.5,32.9000000000002,3.99999999999999));
#1262=CARTESIAN_POINT('',(2.5,27.1000000000002,3.99999999999999));
#1263=CARTESIAN_POINT('',(2.5,32.9000000000002,3.99999999999999));
#1264=CARTESIAN_POINT('',(2.5,16.4500000000001,3.99999999999999));
#1265=CARTESIAN_POINT('',(2.5,27.1000000000002,3.99999999999999));
#1266=CARTESIAN_POINT('',(2.5,32.9000000000002,3.99999999999999));
#1267=CARTESIAN_POINT('Origin',(2.5,27.1000000000002,3.99999999999999));
#1268=CARTESIAN_POINT('',(42.5,27.1000000000002,3.99999999999999));
#1269=CARTESIAN_POINT('',(-37.5,27.1000000000002,3.99999999999999));
#1270=CARTESIAN_POINT('',(42.5,27.1000000000002,3.99999999999999));
#1271=CARTESIAN_POINT('Origin',(42.5,27.1000000000002,3.99999999999999));
#1272=CARTESIAN_POINT('',(42.5,32.9000000000002,3.99999999999999));
#1273=CARTESIAN_POINT('',(42.5,13.5500000000001,3.99999999999999));
#1274=CARTESIAN_POINT('',(42.5,32.9000000000002,3.99999999999999));
#1275=CARTESIAN_POINT('Origin',(42.5,32.9000000000002,3.99999999999999));
#1276=CARTESIAN_POINT('',(-17.5,32.9000000000002,3.99999999999999));
#1277=CARTESIAN_POINT('Origin',(67.5,-29.9999999999999,7.99999999999997));
#1278=CARTESIAN_POINT('',(67.5,-32.6499999999999,0.400000000000063));
#1279=CARTESIAN_POINT('Origin',(67.5,-29.9999999999999,0.400000000000063));
#1280=CARTESIAN_POINT('',(67.5,-32.6499999999999,3.99999999999999));
#1281=CARTESIAN_POINT('',(67.5,-32.6499999999999,7.99999999999997));
#1282=CARTESIAN_POINT('Origin',(67.5,-29.9999999999999,3.99999999999999));
#1283=CARTESIAN_POINT('Origin',(67.5,-29.9999999999999,0.200000000000031));
#1284=CARTESIAN_POINT('',(67.5,-32.8499999999999,0.200000000000032));
#1285=CARTESIAN_POINT('Origin',(67.5,30.0000000000003,7.99999999999997));
#1286=CARTESIAN_POINT('',(67.5,27.3500000000003,0.400000000000063));
#1287=CARTESIAN_POINT('Origin',(67.5,30.0000000000003,0.400000000000063));
#1288=CARTESIAN_POINT('',(67.5,27.3500000000003,3.99999999999999));
#1289=CARTESIAN_POINT('',(67.5,27.3500000000003,7.99999999999997));
#1290=CARTESIAN_POINT('Origin',(67.5,30.0000000000003,3.99999999999999));
#1291=CARTESIAN_POINT('Origin',(67.5,30.0000000000003,0.200000000000031));
#1292=CARTESIAN_POINT('',(67.5,27.1500000000003,0.200000000000032));
#1293=CARTESIAN_POINT('Origin',(-67.5,30.0000000000002,7.99999999999997));
#1294=CARTESIAN_POINT('',(-67.5,27.3500000000002,0.400000000000063));
#1295=CARTESIAN_POINT('Origin',(-67.5,30.0000000000002,0.400000000000063));
#1296=CARTESIAN_POINT('',(-67.5,27.3500000000002,3.99999999999999));
#1297=CARTESIAN_POINT('',(-67.5,27.3500000000002,7.99999999999997));
#1298=CARTESIAN_POINT('Origin',(-67.5,30.0000000000002,3.99999999999999));
#1299=CARTESIAN_POINT('Origin',(-67.5,30.0000000000002,0.200000000000031));
#1300=CARTESIAN_POINT('',(-67.5,27.1500000000002,0.200000000000032));
#1301=CARTESIAN_POINT('Origin',(-10.,30.0000000000002,7.99999999999997));
#1302=CARTESIAN_POINT('',(-10.,27.3500000000002,0.400000000000063));
#1303=CARTESIAN_POINT('Origin',(-10.,30.0000000000002,0.400000000000063));
#1304=CARTESIAN_POINT('',(-10.,27.3500000000002,3.99999999999999));
#1305=CARTESIAN_POINT('',(-10.,27.3500000000002,7.99999999999997));
#1306=CARTESIAN_POINT('Origin',(-10.,30.0000000000002,3.99999999999999));
#1307=CARTESIAN_POINT('Origin',(-10.,30.0000000000002,0.200000000000031));
#1308=CARTESIAN_POINT('',(-10.,27.1500000000002,0.200000000000032));
#1309=CARTESIAN_POINT('Origin',(-71.5,-34.9999999999999,7.99999999999997));
#1310=CARTESIAN_POINT('',(-71.5,-36.6499999999999,0.400000000000063));
#1311=CARTESIAN_POINT('Origin',(-71.5,-34.9999999999999,0.400000000000063));
#1312=CARTESIAN_POINT('',(-71.5,-36.6499999999998,3.99999999999999));
#1313=CARTESIAN_POINT('',(-71.5,-36.6499999999999,7.99999999999997));
#1314=CARTESIAN_POINT('Origin',(-71.5,-34.9999999999999,3.99999999999999));
#1315=CARTESIAN_POINT('Origin',(-71.5,-34.9999999999999,0.200000000000031));
#1316=CARTESIAN_POINT('',(-71.5,-36.8499999999999,0.200000000000032));
#1317=CARTESIAN_POINT('Origin',(-40.25,-34.9999999999999,7.99999999999997));
#1318=CARTESIAN_POINT('',(-40.25,-36.6499999999999,0.400000000000063));
#1319=CARTESIAN_POINT('Origin',(-40.25,-34.9999999999999,0.400000000000063));
#1320=CARTESIAN_POINT('',(-40.25,-36.6499999999998,3.99999999999999));
#1321=CARTESIAN_POINT('',(-40.25,-36.6499999999999,7.99999999999997));
#1322=CARTESIAN_POINT('Origin',(-40.25,-34.9999999999999,3.99999999999999));
#1323=CARTESIAN_POINT('Origin',(-40.25,-34.9999999999999,0.200000000000031));
#1324=CARTESIAN_POINT('',(-40.25,-36.8499999999999,0.200000000000032));
#1325=CARTESIAN_POINT('Origin',(-77.5,0.,3.99999999999999));
#1326=UNCERTAINTY_MEASURE_WITH_UNIT(LENGTH_MEASURE(0.01),#1330,
'DISTANCE_ACCURACY_VALUE',
'Maximum model space distance between geometric entities at asserted c
onnectivities');
#1327=UNCERTAINTY_MEASURE_WITH_UNIT(LENGTH_MEASURE(0.01),#1330,
'DISTANCE_ACCURACY_VALUE',
'Maximum model space distance between geometric entities at asserted c
onnectivities');
#1328=(
GEOMETRIC_REPRESENTATION_CONTEXT(3)
GLOBAL_UNCERTAINTY_ASSIGNED_CONTEXT((#1326))
GLOBAL_UNIT_ASSIGNED_CONTEXT((#1330,#1332,#1333))
REPRESENTATION_CONTEXT('','3D')
);
#1329=(
GEOMETRIC_REPRESENTATION_CONTEXT(3)
GLOBAL_UNCERTAINTY_ASSIGNED_CONTEXT((#1327))
GLOBAL_UNIT_ASSIGNED_CONTEXT((#1330,#1332,#1333))
REPRESENTATION_CONTEXT('','3D')
);
#1330=(
LENGTH_UNIT()
NAMED_UNIT(*)
SI_UNIT(.MILLI.,.METRE.)
);
#1331=(
LENGTH_UNIT()
NAMED_UNIT(*)
SI_UNIT($,.METRE.)
);
#1332=(
NAMED_UNIT(*)
PLANE_ANGLE_UNIT()
SI_UNIT($,.RADIAN.)
);
#1333=(
NAMED_UNIT(*)
SI_UNIT($,.STERADIAN.)
SOLID_ANGLE_UNIT()
);
#1334=SHAPE_DEFINITION_REPRESENTATION(#1335,#1336);
#1335=PRODUCT_DEFINITION_SHAPE('',$,#1338);
#1336=SHAPE_REPRESENTATION('',(#804),#1328);
#1337=PRODUCT_DEFINITION_CONTEXT('part definition',#1342,'design');
#1338=PRODUCT_DEFINITION('MAIN','Proosa Mini - panels - export v2',#1339,
#1337);
#1339=PRODUCT_DEFINITION_FORMATION('',$,#1344);
#1340=PRODUCT_RELATED_PRODUCT_CATEGORY(
'Proosa Mini - panels - export v2','Proosa Mini - panels - export v2',(#1344));
#1341=APPLICATION_PROTOCOL_DEFINITION('international standard',
'automotive_design',2009,#1342);
#1342=APPLICATION_CONTEXT(
'Core Data for Automotive Mechanical Design Process');
#1343=PRODUCT_CONTEXT('part definition',#1342,'mechanical');
#1344=PRODUCT('MAIN','Proosa Mini - panels - export v2','FreeCAD Model',
(#1343));
#1345=PRESENTATION_STYLE_ASSIGNMENT((#1347));
#1346=PRESENTATION_STYLE_ASSIGNMENT((#1348));
#1347=SURFACE_STYLE_USAGE(.BOTH.,#1349);
#1348=SURFACE_STYLE_USAGE(.BOTH.,#1350);
#1349=SURFACE_SIDE_STYLE('',(#1351));
#1350=SURFACE_SIDE_STYLE('',(#1352));
#1351=SURFACE_STYLE_FILL_AREA(#1353);
#1352=SURFACE_STYLE_FILL_AREA(#1354);
#1353=FILL_AREA_STYLE('Acero - Satinado',(#1355));
#1354=FILL_AREA_STYLE('Opaque(82,82,82)',(#1356));
#1355=FILL_AREA_STYLE_COLOUR('Acero - Satinado',#1357);
#1356=FILL_AREA_STYLE_COLOUR('Opaque(82,82,82)',#1358);
#1357=COLOUR_RGB('Acero - Satinado',0.627450980392157,0.627450980392157,
0.627450980392157);
#1358=COLOUR_RGB('Opaque(82,82,82)',0.32156862745098,0.32156862745098,0.32156862745098);
ENDSEC;
END-ISO-10303-21;
