ISO-10303-21;
HEADER;
/* Generated by software containing ST-Developer
 * from STEP Tools, Inc. (www.steptools.com) 
 */

FILE_DESCRIPTION(
/* description */ ('FreeCAD Model'),
/* implementation_level */ '2;1');

FILE_NAME(
/* name */ 'y-cover-body.step',
/* time_stamp */ '2026-04-24T17:56:19+02:00',
/* author */ (''),
/* organization */ (''),
/* preprocessor_version */ 'ST-DEVELOPER v20.1',
/* originating_system */ 'Autodesk Translation Framework v15.8.0.0',
/* authorisation */ '');

FILE_SCHEMA (('AUTOMOTIVE_DESIGN { 1 0 10303 214 3 1 1 }'));
ENDSEC;

DATA;
#10=MECHANICAL_DESIGN_GEOMETRIC_PRESENTATION_REPRESENTATION('',(#13),#1817);
#11=SHAPE_REPRESENTATION_RELATIONSHIP('SRR','None',#1824,#12);
#12=ADVANCED_BREP_SHAPE_REPRESENTATION('',(#14),#1816);
#13=STYLED_ITEM('',(#1834),#14);
#14=MANIFOLD_SOLID_BREP('Y-cover-body',#1069);
#15=FACE_BOUND('',#190,.T.);
#16=FACE_BOUND('',#191,.T.);
#17=FACE_BOUND('',#193,.T.);
#18=FACE_BOUND('',#195,.T.);
#19=FACE_BOUND('',#203,.T.);
#20=FACE_BOUND('',#204,.T.);
#21=FACE_BOUND('',#209,.T.);
#22=FACE_BOUND('',#210,.T.);
#23=FACE_BOUND('',#214,.T.);
#24=FACE_BOUND('',#215,.T.);
#25=FACE_BOUND('',#241,.T.);
#26=FACE_BOUND('',#243,.T.);
#27=FACE_BOUND('',#246,.T.);
#28=FACE_BOUND('',#247,.T.);
#29=FACE_BOUND('',#252,.T.);
#30=FACE_BOUND('',#253,.T.);
#31=ELLIPSE('',#1094,5.622668682591,3.25);
#32=ELLIPSE('',#1112,6.132087735837,3.25);
#33=ELLIPSE('',#1133,6.132087735837,3.25);
#34=ELLIPSE('',#1140,5.622668682591,3.25);
#35=CYLINDRICAL_SURFACE('',#1089,1.65);
#36=CYLINDRICAL_SURFACE('',#1093,3.25);
#37=CYLINDRICAL_SURFACE('',#1107,1.65);
#38=CYLINDRICAL_SURFACE('',#1111,3.25);
#39=CYLINDRICAL_SURFACE('',#1126,2.);
#40=CYLINDRICAL_SURFACE('',#1128,2.);
#41=CYLINDRICAL_SURFACE('',#1134,3.);
#42=CYLINDRICAL_SURFACE('',#1137,3.);
#43=CYLINDRICAL_SURFACE('',#1141,0.5);
#44=CYLINDRICAL_SURFACE('',#1170,2.);
#45=CYLINDRICAL_SURFACE('',#1172,2.);
#46=CYLINDRICAL_SURFACE('',#1174,1.65);
#47=CYLINDRICAL_SURFACE('',#1177,3.25);
#48=CYLINDRICAL_SURFACE('',#1179,1.65);
#49=CYLINDRICAL_SURFACE('',#1182,3.25);
#50=CYLINDRICAL_SURFACE('',#1188,1.);
#51=CIRCLE('',#1086,0.5);
#52=CIRCLE('',#1087,0.1);
#53=CIRCLE('',#1090,1.65);
#54=CIRCLE('',#1091,1.65);
#55=CIRCLE('',#1095,3.25);
#56=CIRCLE('',#1098,3.);
#57=CIRCLE('',#1099,2.6);
#58=CIRCLE('',#1104,3.);
#59=CIRCLE('',#1105,2.6);
#60=CIRCLE('',#1108,1.65);
#61=CIRCLE('',#1109,1.65);
#62=CIRCLE('',#1113,3.25);
#63=CIRCLE('',#1115,1.);
#64=CIRCLE('',#1116,0.6);
#65=CIRCLE('',#1118,2.4);
#66=CIRCLE('',#1119,2.4);
#67=CIRCLE('',#1123,2.);
#68=CIRCLE('',#1125,2.);
#69=CIRCLE('',#1127,2.);
#70=CIRCLE('',#1129,2.);
#71=CIRCLE('',#1135,3.);
#72=CIRCLE('',#1138,3.);
#73=CIRCLE('',#1142,0.5);
#74=CIRCLE('',#1145,0.6);
#75=CIRCLE('',#1146,2.6);
#76=CIRCLE('',#1147,2.6);
#77=CIRCLE('',#1148,0.1);
#78=CIRCLE('',#1149,2.4);
#79=CIRCLE('',#1150,2.4);
#80=CIRCLE('',#1165,1.);
#81=CIRCLE('',#1167,2.);
#82=CIRCLE('',#1169,2.);
#83=CIRCLE('',#1171,2.);
#84=CIRCLE('',#1173,2.);
#85=CIRCLE('',#1175,1.65);
#86=CIRCLE('',#1176,1.65);
#87=CIRCLE('',#1178,3.25);
#88=CIRCLE('',#1180,1.65);
#89=CIRCLE('',#1181,1.65);
#90=CIRCLE('',#1183,3.25);
#91=CONICAL_SURFACE('',#1085,0.5,0.785398163397);
#92=CONICAL_SURFACE('',#1097,3.,0.785398163397);
#93=CONICAL_SURFACE('',#1103,3.,0.785398163397);
#94=CONICAL_SURFACE('',#1114,1.,0.785398163397);
#95=CONICAL_SURFACE('',#1122,2.,0.785398163397);
#96=CONICAL_SURFACE('',#1124,2.,0.785398163397);
#97=CONICAL_SURFACE('',#1153,0.5,0.785398163397);
#98=CONICAL_SURFACE('',#1157,3.,0.785398163397);
#99=CONICAL_SURFACE('',#1161,3.,0.785398163397);
#100=CONICAL_SURFACE('',#1164,1.,0.785398163397);
#101=CONICAL_SURFACE('',#1166,2.,0.785398163397);
#102=CONICAL_SURFACE('',#1168,2.,0.785398163397);
#103=FACE_OUTER_BOUND('',#171,.T.);
#104=FACE_OUTER_BOUND('',#172,.T.);
#105=FACE_OUTER_BOUND('',#173,.T.);
#106=FACE_OUTER_BOUND('',#174,.T.);
#107=FACE_OUTER_BOUND('',#175,.T.);
#108=FACE_OUTER_BOUND('',#176,.T.);
#109=FACE_OUTER_BOUND('',#177,.T.);
#110=FACE_OUTER_BOUND('',#178,.T.);
#111=FACE_OUTER_BOUND('',#179,.T.);
#112=FACE_OUTER_BOUND('',#180,.T.);
#113=FACE_OUTER_BOUND('',#181,.T.);
#114=FACE_OUTER_BOUND('',#182,.T.);
#115=FACE_OUTER_BOUND('',#183,.T.);
#116=FACE_OUTER_BOUND('',#184,.T.);
#117=FACE_OUTER_BOUND('',#185,.T.);
#118=FACE_OUTER_BOUND('',#186,.T.);
#119=FACE_OUTER_BOUND('',#187,.T.);
#120=FACE_OUTER_BOUND('',#188,.T.);
#121=FACE_OUTER_BOUND('',#189,.T.);
#122=FACE_OUTER_BOUND('',#192,.T.);
#123=FACE_OUTER_BOUND('',#194,.T.);
#124=FACE_OUTER_BOUND('',#196,.T.);
#125=FACE_OUTER_BOUND('',#197,.T.);
#126=FACE_OUTER_BOUND('',#198,.T.);
#127=FACE_OUTER_BOUND('',#199,.T.);
#128=FACE_OUTER_BOUND('',#200,.T.);
#129=FACE_OUTER_BOUND('',#201,.T.);
#130=FACE_OUTER_BOUND('',#202,.T.);
#131=FACE_OUTER_BOUND('',#205,.T.);
#132=FACE_OUTER_BOUND('',#206,.T.);
#133=FACE_OUTER_BOUND('',#207,.T.);
#134=FACE_OUTER_BOUND('',#208,.T.);
#135=FACE_OUTER_BOUND('',#211,.T.);
#136=FACE_OUTER_BOUND('',#212,.T.);
#137=FACE_OUTER_BOUND('',#213,.T.);
#138=FACE_OUTER_BOUND('',#216,.T.);
#139=FACE_OUTER_BOUND('',#217,.T.);
#140=FACE_OUTER_BOUND('',#218,.T.);
#141=FACE_OUTER_BOUND('',#219,.T.);
#142=FACE_OUTER_BOUND('',#220,.T.);
#143=FACE_OUTER_BOUND('',#221,.T.);
#144=FACE_OUTER_BOUND('',#222,.T.);
#145=FACE_OUTER_BOUND('',#223,.T.);
#146=FACE_OUTER_BOUND('',#224,.T.);
#147=FACE_OUTER_BOUND('',#225,.T.);
#148=FACE_OUTER_BOUND('',#226,.T.);
#149=FACE_OUTER_BOUND('',#227,.T.);
#150=FACE_OUTER_BOUND('',#228,.T.);
#151=FACE_OUTER_BOUND('',#229,.T.);
#152=FACE_OUTER_BOUND('',#230,.T.);
#153=FACE_OUTER_BOUND('',#231,.T.);
#154=FACE_OUTER_BOUND('',#232,.T.);
#155=FACE_OUTER_BOUND('',#233,.T.);
#156=FACE_OUTER_BOUND('',#234,.T.);
#157=FACE_OUTER_BOUND('',#235,.T.);
#158=FACE_OUTER_BOUND('',#236,.T.);
#159=FACE_OUTER_BOUND('',#237,.T.);
#160=FACE_OUTER_BOUND('',#238,.T.);
#161=FACE_OUTER_BOUND('',#239,.T.);
#162=FACE_OUTER_BOUND('',#240,.T.);
#163=FACE_OUTER_BOUND('',#242,.T.);
#164=FACE_OUTER_BOUND('',#244,.T.);
#165=FACE_OUTER_BOUND('',#245,.T.);
#166=FACE_OUTER_BOUND('',#248,.T.);
#167=FACE_OUTER_BOUND('',#249,.T.);
#168=FACE_OUTER_BOUND('',#250,.T.);
#169=FACE_OUTER_BOUND('',#251,.T.);
#170=FACE_OUTER_BOUND('',#254,.T.);
#171=EDGE_LOOP('',(#677,#678,#679,#680));
#172=EDGE_LOOP('',(#681,#682,#683,#684));
#173=EDGE_LOOP('',(#685,#686,#687,#688));
#174=EDGE_LOOP('',(#689,#690,#691,#692));
#175=EDGE_LOOP('',(#693,#694,#695,#696));
#176=EDGE_LOOP('',(#697,#698,#699,#700));
#177=EDGE_LOOP('',(#701,#702,#703,#704));
#178=EDGE_LOOP('',(#705,#706,#707,#708));
#179=EDGE_LOOP('',(#709,#710,#711,#712));
#180=EDGE_LOOP('',(#713,#714,#715,#716));
#181=EDGE_LOOP('',(#717,#718,#719,#720));
#182=EDGE_LOOP('',(#721,#722,#723,#724));
#183=EDGE_LOOP('',(#725,#726,#727,#728));
#184=EDGE_LOOP('',(#729,#730,#731,#732));
#185=EDGE_LOOP('',(#733,#734,#735,#736));
#186=EDGE_LOOP('',(#737,#738,#739,#740));
#187=EDGE_LOOP('',(#741,#742,#743,#744));
#188=EDGE_LOOP('',(#745,#746,#747,#748));
#189=EDGE_LOOP('',(#749,#750,#751,#752,#753,#754,#755,#756,#757,#758,#759,
#760,#761,#762));
#190=EDGE_LOOP('',(#763));
#191=EDGE_LOOP('',(#764));
#192=EDGE_LOOP('',(#765));
#193=EDGE_LOOP('',(#766));
#194=EDGE_LOOP('',(#767));
#195=EDGE_LOOP('',(#768));
#196=EDGE_LOOP('',(#769,#770,#771,#772));
#197=EDGE_LOOP('',(#773,#774,#775,#776));
#198=EDGE_LOOP('',(#777,#778,#779,#780));
#199=EDGE_LOOP('',(#781,#782,#783,#784));
#200=EDGE_LOOP('',(#785));
#201=EDGE_LOOP('',(#786));
#202=EDGE_LOOP('',(#787,#788,#789,#790));
#203=EDGE_LOOP('',(#791));
#204=EDGE_LOOP('',(#792));
#205=EDGE_LOOP('',(#793,#794,#795,#796));
#206=EDGE_LOOP('',(#797,#798,#799,#800));
#207=EDGE_LOOP('',(#801,#802,#803,#804));
#208=EDGE_LOOP('',(#805,#806,#807,#808));
#209=EDGE_LOOP('',(#809));
#210=EDGE_LOOP('',(#810));
#211=EDGE_LOOP('',(#811,#812,#813,#814));
#212=EDGE_LOOP('',(#815,#816,#817,#818));
#213=EDGE_LOOP('',(#819,#820,#821,#822,#823,#824,#825,#826,#827,#828,#829,
#830,#831,#832));
#214=EDGE_LOOP('',(#833));
#215=EDGE_LOOP('',(#834));
#216=EDGE_LOOP('',(#835,#836,#837,#838));
#217=EDGE_LOOP('',(#839,#840,#841,#842));
#218=EDGE_LOOP('',(#843,#844,#845,#846));
#219=EDGE_LOOP('',(#847,#848,#849,#850));
#220=EDGE_LOOP('',(#851,#852,#853,#854));
#221=EDGE_LOOP('',(#855,#856,#857,#858));
#222=EDGE_LOOP('',(#859,#860,#861,#862));
#223=EDGE_LOOP('',(#863,#864,#865,#866));
#224=EDGE_LOOP('',(#867,#868,#869,#870));
#225=EDGE_LOOP('',(#871,#872,#873,#874));
#226=EDGE_LOOP('',(#875,#876,#877,#878));
#227=EDGE_LOOP('',(#879,#880,#881,#882));
#228=EDGE_LOOP('',(#883,#884,#885,#886));
#229=EDGE_LOOP('',(#887,#888,#889,#890));
#230=EDGE_LOOP('',(#891,#892,#893,#894));
#231=EDGE_LOOP('',(#895,#896,#897,#898));
#232=EDGE_LOOP('',(#899,#900,#901,#902));
#233=EDGE_LOOP('',(#903,#904,#905,#906));
#234=EDGE_LOOP('',(#907,#908,#909,#910));
#235=EDGE_LOOP('',(#911,#912,#913,#914));
#236=EDGE_LOOP('',(#915,#916,#917,#918));
#237=EDGE_LOOP('',(#919,#920,#921,#922));
#238=EDGE_LOOP('',(#923));
#239=EDGE_LOOP('',(#924));
#240=EDGE_LOOP('',(#925));
#241=EDGE_LOOP('',(#926));
#242=EDGE_LOOP('',(#927));
#243=EDGE_LOOP('',(#928));
#244=EDGE_LOOP('',(#929,#930,#931,#932));
#245=EDGE_LOOP('',(#933,#934,#935,#936));
#246=EDGE_LOOP('',(#937));
#247=EDGE_LOOP('',(#938));
#248=EDGE_LOOP('',(#939,#940,#941,#942));
#249=EDGE_LOOP('',(#943,#944,#945,#946));
#250=EDGE_LOOP('',(#947,#948,#949,#950));
#251=EDGE_LOOP('',(#951,#952,#953,#954));
#252=EDGE_LOOP('',(#955));
#253=EDGE_LOOP('',(#956));
#254=EDGE_LOOP('',(#957,#958,#959,#960));
#255=LINE('',#1523,#353);
#256=LINE('',#1525,#354);
#257=LINE('',#1527,#355);
#258=LINE('',#1528,#356);
#259=LINE('',#1532,#357);
#260=LINE('',#1533,#358);
#261=LINE('',#1534,#359);
#262=LINE('',#1539,#360);
#263=LINE('',#1544,#361);
#264=LINE('',#1545,#362);
#265=LINE('',#1546,#363);
#266=LINE('',#1551,#364);
#267=LINE('',#1555,#365);
#268=LINE('',#1557,#366);
#269=LINE('',#1558,#367);
#270=LINE('',#1563,#368);
#271=LINE('',#1568,#369);
#272=LINE('',#1569,#370);
#273=LINE('',#1570,#371);
#274=LINE('',#1575,#372);
#275=LINE('',#1580,#373);
#276=LINE('',#1581,#374);
#277=LINE('',#1582,#375);
#278=LINE('',#1585,#376);
#279=LINE('',#1587,#377);
#280=LINE('',#1588,#378);
#281=LINE('',#1592,#379);
#282=LINE('',#1593,#380);
#283=LINE('',#1594,#381);
#284=LINE('',#1599,#382);
#285=LINE('',#1604,#383);
#286=LINE('',#1605,#384);
#287=LINE('',#1606,#385);
#288=LINE('',#1611,#386);
#289=LINE('',#1615,#387);
#290=LINE('',#1617,#388);
#291=LINE('',#1618,#389);
#292=LINE('',#1623,#390);
#293=LINE('',#1638,#391);
#294=LINE('',#1642,#392);
#295=LINE('',#1646,#393);
#296=LINE('',#1650,#394);
#297=LINE('',#1655,#395);
#298=LINE('',#1657,#396);
#299=LINE('',#1658,#397);
#300=LINE('',#1663,#398);
#301=LINE('',#1667,#399);
#302=LINE('',#1668,#400);
#303=LINE('',#1671,#401);
#304=LINE('',#1675,#402);
#305=LINE('',#1676,#403);
#306=LINE('',#1681,#404);
#307=LINE('',#1685,#405);
#308=LINE('',#1686,#406);
#309=LINE('',#1690,#407);
#310=LINE('',#1692,#408);
#311=LINE('',#1694,#409);
#312=LINE('',#1696,#410);
#313=LINE('',#1698,#411);
#314=LINE('',#1700,#412);
#315=LINE('',#1702,#413);
#316=LINE('',#1706,#414);
#317=LINE('',#1710,#415);
#318=LINE('',#1714,#416);
#319=LINE('',#1721,#417);
#320=LINE('',#1722,#418);
#321=LINE('',#1725,#419);
#322=LINE('',#1726,#420);
#323=LINE('',#1728,#421);
#324=LINE('',#1731,#422);
#325=LINE('',#1732,#423);
#326=LINE('',#1734,#424);
#327=LINE('',#1737,#425);
#328=LINE('',#1738,#426);
#329=LINE('',#1740,#427);
#330=LINE('',#1743,#428);
#331=LINE('',#1744,#429);
#332=LINE('',#1746,#430);
#333=LINE('',#1749,#431);
#334=LINE('',#1750,#432);
#335=LINE('',#1752,#433);
#336=LINE('',#1755,#434);
#337=LINE('',#1756,#435);
#338=LINE('',#1758,#436);
#339=LINE('',#1764,#437);
#340=LINE('',#1768,#438);
#341=LINE('',#1772,#439);
#342=LINE('',#1776,#440);
#343=LINE('',#1781,#441);
#344=LINE('',#1785,#442);
#345=LINE('',#1791,#443);
#346=LINE('',#1795,#444);
#347=LINE('',#1802,#445);
#348=LINE('',#1804,#446);
#349=LINE('',#1806,#447);
#350=LINE('',#1808,#448);
#351=LINE('',#1810,#449);
#352=LINE('',#1812,#450);
#353=VECTOR('',#1199,1.00000000000065);
#354=VECTOR('',#1200,1.);
#355=VECTOR('',#1201,1.00000000000064);
#356=VECTOR('',#1202,1.);
#357=VECTOR('',#1205,1.00000000000065);
#358=VECTOR('',#1206,1.);
#359=VECTOR('',#1207,1.);
#360=VECTOR('',#1212,1.00000000000012);
#361=VECTOR('',#1217,1.00000000000065);
#362=VECTOR('',#1218,1.);
#363=VECTOR('',#1219,1.);
#364=VECTOR('',#1224,1.65);
#365=VECTOR('',#1229,1.00000000000009);
#366=VECTOR('',#1230,1.00000000000012);
#367=VECTOR('',#1231,1.00000000000009);
#368=VECTOR('',#1236,3.25);
#369=VECTOR('',#1241,1.00000000000065);
#370=VECTOR('',#1242,1.);
#371=VECTOR('',#1243,1.);
#372=VECTOR('',#1248,1.00000000000064);
#373=VECTOR('',#1253,1.00000000000065);
#374=VECTOR('',#1254,1.);
#375=VECTOR('',#1255,1.);
#376=VECTOR('',#1258,1.);
#377=VECTOR('',#1259,1.00000000000064);
#378=VECTOR('',#1260,1.);
#379=VECTOR('',#1263,1.00000000000065);
#380=VECTOR('',#1264,1.);
#381=VECTOR('',#1265,1.);
#382=VECTOR('',#1270,1.00000000000053);
#383=VECTOR('',#1275,1.00000000000064);
#384=VECTOR('',#1276,1.);
#385=VECTOR('',#1277,1.);
#386=VECTOR('',#1282,1.65);
#387=VECTOR('',#1287,0.99999999999983);
#388=VECTOR('',#1288,1.00000000000053);
#389=VECTOR('',#1289,0.99999999999983);
#390=VECTOR('',#1294,3.25);
#391=VECTOR('',#1317,2.);
#392=VECTOR('',#1322,2.);
#393=VECTOR('',#1327,2.);
#394=VECTOR('',#1332,2.);
#395=VECTOR('',#1339,1.);
#396=VECTOR('',#1340,0.99999999999983);
#397=VECTOR('',#1341,1.);
#398=VECTOR('',#1346,1.);
#399=VECTOR('',#1351,1.);
#400=VECTOR('',#1352,1.);
#401=VECTOR('',#1355,1.);
#402=VECTOR('',#1360,1.);
#403=VECTOR('',#1361,1.00000000000009);
#404=VECTOR('',#1366,1.);
#405=VECTOR('',#1371,1.);
#406=VECTOR('',#1372,1.);
#407=VECTOR('',#1375,1.);
#408=VECTOR('',#1376,1.);
#409=VECTOR('',#1377,1.);
#410=VECTOR('',#1378,1.);
#411=VECTOR('',#1379,1.);
#412=VECTOR('',#1380,1.);
#413=VECTOR('',#1381,1.);
#414=VECTOR('',#1384,0.99999999999983);
#415=VECTOR('',#1387,1.);
#416=VECTOR('',#1390,1.00000000000009);
#417=VECTOR('',#1399,1.00000000000065);
#418=VECTOR('',#1400,1.00000000000064);
#419=VECTOR('',#1403,1.);
#420=VECTOR('',#1404,1.00000000000065);
#421=VECTOR('',#1407,1.00000000000012);
#422=VECTOR('',#1410,1.00000000000065);
#423=VECTOR('',#1411,1.);
#424=VECTOR('',#1414,1.00000000000012);
#425=VECTOR('',#1417,1.00000000000065);
#426=VECTOR('',#1418,1.);
#427=VECTOR('',#1421,1.00000000000064);
#428=VECTOR('',#1424,1.00000000000065);
#429=VECTOR('',#1425,1.);
#430=VECTOR('',#1428,1.00000000000064);
#431=VECTOR('',#1431,1.00000000000065);
#432=VECTOR('',#1432,1.);
#433=VECTOR('',#1435,1.00000000000053);
#434=VECTOR('',#1438,1.00000000000064);
#435=VECTOR('',#1439,1.);
#436=VECTOR('',#1442,1.00000000000053);
#437=VECTOR('',#1451,2.);
#438=VECTOR('',#1456,2.);
#439=VECTOR('',#1461,2.);
#440=VECTOR('',#1466,2.);
#441=VECTOR('',#1471,1.65);
#442=VECTOR('',#1476,3.25);
#443=VECTOR('',#1483,1.65);
#444=VECTOR('',#1488,3.25);
#445=VECTOR('',#1501,1.);
#446=VECTOR('',#1504,1.);
#447=VECTOR('',#1507,1.);
#448=VECTOR('',#1510,1.);
#449=VECTOR('',#1513,1.);
#450=VECTOR('',#1516,1.);
#451=VERTEX_POINT('',#1521);
#452=VERTEX_POINT('',#1522);
#453=VERTEX_POINT('',#1524);
#454=VERTEX_POINT('',#1526);
#455=VERTEX_POINT('',#1530);
#456=VERTEX_POINT('',#1531);
#457=VERTEX_POINT('',#1536);
#458=VERTEX_POINT('',#1538);
#459=VERTEX_POINT('',#1542);
#460=VERTEX_POINT('',#1543);
#461=VERTEX_POINT('',#1548);
#462=VERTEX_POINT('',#1550);
#463=VERTEX_POINT('',#1554);
#464=VERTEX_POINT('',#1556);
#465=VERTEX_POINT('',#1560);
#466=VERTEX_POINT('',#1562);
#467=VERTEX_POINT('',#1566);
#468=VERTEX_POINT('',#1567);
#469=VERTEX_POINT('',#1572);
#470=VERTEX_POINT('',#1574);
#471=VERTEX_POINT('',#1578);
#472=VERTEX_POINT('',#1579);
#473=VERTEX_POINT('',#1584);
#474=VERTEX_POINT('',#1586);
#475=VERTEX_POINT('',#1590);
#476=VERTEX_POINT('',#1591);
#477=VERTEX_POINT('',#1596);
#478=VERTEX_POINT('',#1598);
#479=VERTEX_POINT('',#1602);
#480=VERTEX_POINT('',#1603);
#481=VERTEX_POINT('',#1608);
#482=VERTEX_POINT('',#1610);
#483=VERTEX_POINT('',#1614);
#484=VERTEX_POINT('',#1616);
#485=VERTEX_POINT('',#1620);
#486=VERTEX_POINT('',#1622);
#487=VERTEX_POINT('',#1629);
#488=VERTEX_POINT('',#1631);
#489=VERTEX_POINT('',#1636);
#490=VERTEX_POINT('',#1640);
#491=VERTEX_POINT('',#1644);
#492=VERTEX_POINT('',#1648);
#493=VERTEX_POINT('',#1654);
#494=VERTEX_POINT('',#1656);
#495=VERTEX_POINT('',#1659);
#496=VERTEX_POINT('',#1662);
#497=VERTEX_POINT('',#1666);
#498=VERTEX_POINT('',#1670);
#499=VERTEX_POINT('',#1674);
#500=VERTEX_POINT('',#1677);
#501=VERTEX_POINT('',#1680);
#502=VERTEX_POINT('',#1684);
#503=VERTEX_POINT('',#1688);
#504=VERTEX_POINT('',#1689);
#505=VERTEX_POINT('',#1691);
#506=VERTEX_POINT('',#1693);
#507=VERTEX_POINT('',#1695);
#508=VERTEX_POINT('',#1697);
#509=VERTEX_POINT('',#1699);
#510=VERTEX_POINT('',#1701);
#511=VERTEX_POINT('',#1703);
#512=VERTEX_POINT('',#1705);
#513=VERTEX_POINT('',#1707);
#514=VERTEX_POINT('',#1709);
#515=VERTEX_POINT('',#1711);
#516=VERTEX_POINT('',#1713);
#517=VERTEX_POINT('',#1716);
#518=VERTEX_POINT('',#1718);
#519=VERTEX_POINT('',#1724);
#520=VERTEX_POINT('',#1730);
#521=VERTEX_POINT('',#1736);
#522=VERTEX_POINT('',#1742);
#523=VERTEX_POINT('',#1748);
#524=VERTEX_POINT('',#1754);
#525=VERTEX_POINT('',#1762);
#526=VERTEX_POINT('',#1766);
#527=VERTEX_POINT('',#1770);
#528=VERTEX_POINT('',#1774);
#529=VERTEX_POINT('',#1778);
#530=VERTEX_POINT('',#1780);
#531=VERTEX_POINT('',#1784);
#532=VERTEX_POINT('',#1788);
#533=VERTEX_POINT('',#1790);
#534=VERTEX_POINT('',#1794);
#535=EDGE_CURVE('',#451,#452,#255,.T.);
#536=EDGE_CURVE('',#451,#453,#256,.T.);
#537=EDGE_CURVE('',#453,#454,#257,.T.);
#538=EDGE_CURVE('',#452,#454,#258,.T.);
#539=EDGE_CURVE('',#455,#456,#259,.T.);
#540=EDGE_CURVE('',#455,#451,#260,.T.);
#541=EDGE_CURVE('',#456,#452,#261,.T.);
#542=EDGE_CURVE('',#453,#457,#51,.T.);
#543=EDGE_CURVE('',#457,#458,#262,.T.);
#544=EDGE_CURVE('',#454,#458,#52,.T.);
#545=EDGE_CURVE('',#459,#460,#263,.T.);
#546=EDGE_CURVE('',#459,#455,#264,.T.);
#547=EDGE_CURVE('',#460,#456,#265,.T.);
#548=EDGE_CURVE('',#461,#461,#53,.T.);
#549=EDGE_CURVE('',#461,#462,#266,.T.);
#550=EDGE_CURVE('',#462,#462,#54,.T.);
#551=EDGE_CURVE('',#457,#463,#267,.T.);
#552=EDGE_CURVE('',#463,#464,#268,.T.);
#553=EDGE_CURVE('',#458,#464,#269,.T.);
#554=EDGE_CURVE('',#465,#465,#31,.T.);
#555=EDGE_CURVE('',#465,#466,#270,.T.);
#556=EDGE_CURVE('',#466,#466,#55,.T.);
#557=EDGE_CURVE('',#467,#468,#271,.T.);
#558=EDGE_CURVE('',#467,#459,#272,.T.);
#559=EDGE_CURVE('',#468,#460,#273,.T.);
#560=EDGE_CURVE('',#463,#469,#56,.T.);
#561=EDGE_CURVE('',#469,#470,#274,.T.);
#562=EDGE_CURVE('',#464,#470,#57,.T.);
#563=EDGE_CURVE('',#471,#472,#275,.T.);
#564=EDGE_CURVE('',#471,#467,#276,.T.);
#565=EDGE_CURVE('',#472,#468,#277,.T.);
#566=EDGE_CURVE('',#469,#473,#278,.T.);
#567=EDGE_CURVE('',#473,#474,#279,.T.);
#568=EDGE_CURVE('',#470,#474,#280,.T.);
#569=EDGE_CURVE('',#475,#476,#281,.T.);
#570=EDGE_CURVE('',#475,#471,#282,.T.);
#571=EDGE_CURVE('',#476,#472,#283,.T.);
#572=EDGE_CURVE('',#473,#477,#58,.T.);
#573=EDGE_CURVE('',#477,#478,#284,.T.);
#574=EDGE_CURVE('',#474,#478,#59,.T.);
#575=EDGE_CURVE('',#479,#480,#285,.T.);
#576=EDGE_CURVE('',#479,#475,#286,.T.);
#577=EDGE_CURVE('',#480,#476,#287,.T.);
#578=EDGE_CURVE('',#481,#481,#60,.T.);
#579=EDGE_CURVE('',#481,#482,#288,.T.);
#580=EDGE_CURVE('',#482,#482,#61,.T.);
#581=EDGE_CURVE('',#477,#483,#289,.T.);
#582=EDGE_CURVE('',#483,#484,#290,.T.);
#583=EDGE_CURVE('',#478,#484,#291,.T.);
#584=EDGE_CURVE('',#485,#485,#32,.T.);
#585=EDGE_CURVE('',#485,#486,#292,.T.);
#586=EDGE_CURVE('',#486,#486,#62,.T.);
#587=EDGE_CURVE('',#483,#479,#63,.T.);
#588=EDGE_CURVE('',#484,#480,#64,.T.);
#589=EDGE_CURVE('',#487,#487,#65,.T.);
#590=EDGE_CURVE('',#488,#488,#66,.T.);
#591=EDGE_CURVE('',#489,#489,#67,.T.);
#592=EDGE_CURVE('',#489,#487,#293,.T.);
#593=EDGE_CURVE('',#490,#490,#68,.T.);
#594=EDGE_CURVE('',#490,#488,#294,.T.);
#595=EDGE_CURVE('',#491,#491,#69,.T.);
#596=EDGE_CURVE('',#491,#489,#295,.T.);
#597=EDGE_CURVE('',#492,#492,#70,.T.);
#598=EDGE_CURVE('',#492,#490,#296,.T.);
#599=EDGE_CURVE('',#493,#477,#297,.T.);
#600=EDGE_CURVE('',#493,#494,#298,.T.);
#601=EDGE_CURVE('',#494,#483,#299,.T.);
#602=EDGE_CURVE('',#495,#495,#33,.T.);
#603=EDGE_CURVE('',#496,#473,#300,.T.);
#604=EDGE_CURVE('',#496,#493,#71,.T.);
#605=EDGE_CURVE('',#497,#469,#301,.T.);
#606=EDGE_CURVE('',#497,#496,#302,.T.);
#607=EDGE_CURVE('',#498,#463,#303,.T.);
#608=EDGE_CURVE('',#498,#497,#72,.T.);
#609=EDGE_CURVE('',#457,#499,#304,.T.);
#610=EDGE_CURVE('',#499,#498,#305,.T.);
#611=EDGE_CURVE('',#500,#500,#34,.T.);
#612=EDGE_CURVE('',#453,#501,#306,.T.);
#613=EDGE_CURVE('',#501,#499,#73,.T.);
#614=EDGE_CURVE('',#502,#451,#307,.T.);
#615=EDGE_CURVE('',#502,#501,#308,.T.);
#616=EDGE_CURVE('',#503,#504,#309,.T.);
#617=EDGE_CURVE('',#503,#505,#310,.T.);
#618=EDGE_CURVE('',#506,#505,#311,.T.);
#619=EDGE_CURVE('',#507,#506,#312,.T.);
#620=EDGE_CURVE('',#508,#507,#313,.T.);
#621=EDGE_CURVE('',#509,#508,#314,.T.);
#622=EDGE_CURVE('',#510,#509,#315,.T.);
#623=EDGE_CURVE('',#511,#510,#74,.T.);
#624=EDGE_CURVE('',#512,#511,#316,.T.);
#625=EDGE_CURVE('',#513,#512,#75,.T.);
#626=EDGE_CURVE('',#514,#513,#317,.T.);
#627=EDGE_CURVE('',#515,#514,#76,.T.);
#628=EDGE_CURVE('',#516,#515,#318,.T.);
#629=EDGE_CURVE('',#504,#516,#77,.T.);
#630=EDGE_CURVE('',#517,#517,#78,.T.);
#631=EDGE_CURVE('',#518,#518,#79,.T.);
#632=EDGE_CURVE('',#503,#502,#319,.T.);
#633=EDGE_CURVE('',#504,#501,#320,.T.);
#634=EDGE_CURVE('',#502,#519,#321,.T.);
#635=EDGE_CURVE('',#505,#519,#322,.T.);
#636=EDGE_CURVE('',#516,#499,#323,.T.);
#637=EDGE_CURVE('',#506,#520,#324,.T.);
#638=EDGE_CURVE('',#520,#519,#325,.T.);
#639=EDGE_CURVE('',#515,#498,#326,.T.);
#640=EDGE_CURVE('',#507,#521,#327,.T.);
#641=EDGE_CURVE('',#521,#520,#328,.T.);
#642=EDGE_CURVE('',#514,#497,#329,.T.);
#643=EDGE_CURVE('',#508,#522,#330,.T.);
#644=EDGE_CURVE('',#522,#521,#331,.T.);
#645=EDGE_CURVE('',#513,#496,#332,.T.);
#646=EDGE_CURVE('',#509,#523,#333,.T.);
#647=EDGE_CURVE('',#523,#522,#334,.T.);
#648=EDGE_CURVE('',#512,#493,#335,.T.);
#649=EDGE_CURVE('',#510,#524,#336,.T.);
#650=EDGE_CURVE('',#524,#523,#337,.T.);
#651=EDGE_CURVE('',#511,#494,#338,.T.);
#652=EDGE_CURVE('',#494,#524,#80,.T.);
#653=EDGE_CURVE('',#525,#525,#81,.T.);
#654=EDGE_CURVE('',#525,#517,#339,.T.);
#655=EDGE_CURVE('',#526,#526,#82,.T.);
#656=EDGE_CURVE('',#526,#518,#340,.T.);
#657=EDGE_CURVE('',#527,#527,#83,.T.);
#658=EDGE_CURVE('',#527,#525,#341,.T.);
#659=EDGE_CURVE('',#528,#528,#84,.T.);
#660=EDGE_CURVE('',#528,#526,#342,.T.);
#661=EDGE_CURVE('',#529,#529,#85,.T.);
#662=EDGE_CURVE('',#529,#530,#343,.T.);
#663=EDGE_CURVE('',#530,#530,#86,.T.);
#664=EDGE_CURVE('',#500,#531,#344,.T.);
#665=EDGE_CURVE('',#531,#531,#87,.T.);
#666=EDGE_CURVE('',#532,#532,#88,.T.);
#667=EDGE_CURVE('',#532,#533,#345,.T.);
#668=EDGE_CURVE('',#533,#533,#89,.T.);
#669=EDGE_CURVE('',#495,#534,#346,.T.);
#670=EDGE_CURVE('',#534,#534,#90,.T.);
#671=EDGE_CURVE('',#524,#479,#347,.T.);
#672=EDGE_CURVE('',#523,#475,#348,.T.);
#673=EDGE_CURVE('',#522,#471,#349,.T.);
#674=EDGE_CURVE('',#521,#467,#350,.T.);
#675=EDGE_CURVE('',#520,#459,#351,.T.);
#676=EDGE_CURVE('',#519,#455,#352,.T.);
#677=ORIENTED_EDGE('',*,*,#535,.F.);
#678=ORIENTED_EDGE('',*,*,#536,.T.);
#679=ORIENTED_EDGE('',*,*,#537,.T.);
#680=ORIENTED_EDGE('',*,*,#538,.F.);
#681=ORIENTED_EDGE('',*,*,#539,.F.);
#682=ORIENTED_EDGE('',*,*,#540,.T.);
#683=ORIENTED_EDGE('',*,*,#535,.T.);
#684=ORIENTED_EDGE('',*,*,#541,.F.);
#685=ORIENTED_EDGE('',*,*,#537,.F.);
#686=ORIENTED_EDGE('',*,*,#542,.T.);
#687=ORIENTED_EDGE('',*,*,#543,.T.);
#688=ORIENTED_EDGE('',*,*,#544,.F.);
#689=ORIENTED_EDGE('',*,*,#545,.F.);
#690=ORIENTED_EDGE('',*,*,#546,.T.);
#691=ORIENTED_EDGE('',*,*,#539,.T.);
#692=ORIENTED_EDGE('',*,*,#547,.F.);
#693=ORIENTED_EDGE('',*,*,#548,.T.);
#694=ORIENTED_EDGE('',*,*,#549,.T.);
#695=ORIENTED_EDGE('',*,*,#550,.F.);
#696=ORIENTED_EDGE('',*,*,#549,.F.);
#697=ORIENTED_EDGE('',*,*,#543,.F.);
#698=ORIENTED_EDGE('',*,*,#551,.T.);
#699=ORIENTED_EDGE('',*,*,#552,.T.);
#700=ORIENTED_EDGE('',*,*,#553,.F.);
#701=ORIENTED_EDGE('',*,*,#554,.F.);
#702=ORIENTED_EDGE('',*,*,#555,.T.);
#703=ORIENTED_EDGE('',*,*,#556,.F.);
#704=ORIENTED_EDGE('',*,*,#555,.F.);
#705=ORIENTED_EDGE('',*,*,#557,.F.);
#706=ORIENTED_EDGE('',*,*,#558,.T.);
#707=ORIENTED_EDGE('',*,*,#545,.T.);
#708=ORIENTED_EDGE('',*,*,#559,.F.);
#709=ORIENTED_EDGE('',*,*,#552,.F.);
#710=ORIENTED_EDGE('',*,*,#560,.T.);
#711=ORIENTED_EDGE('',*,*,#561,.T.);
#712=ORIENTED_EDGE('',*,*,#562,.F.);
#713=ORIENTED_EDGE('',*,*,#563,.F.);
#714=ORIENTED_EDGE('',*,*,#564,.T.);
#715=ORIENTED_EDGE('',*,*,#557,.T.);
#716=ORIENTED_EDGE('',*,*,#565,.F.);
#717=ORIENTED_EDGE('',*,*,#561,.F.);
#718=ORIENTED_EDGE('',*,*,#566,.T.);
#719=ORIENTED_EDGE('',*,*,#567,.T.);
#720=ORIENTED_EDGE('',*,*,#568,.F.);
#721=ORIENTED_EDGE('',*,*,#569,.F.);
#722=ORIENTED_EDGE('',*,*,#570,.T.);
#723=ORIENTED_EDGE('',*,*,#563,.T.);
#724=ORIENTED_EDGE('',*,*,#571,.F.);
#725=ORIENTED_EDGE('',*,*,#567,.F.);
#726=ORIENTED_EDGE('',*,*,#572,.T.);
#727=ORIENTED_EDGE('',*,*,#573,.T.);
#728=ORIENTED_EDGE('',*,*,#574,.F.);
#729=ORIENTED_EDGE('',*,*,#575,.F.);
#730=ORIENTED_EDGE('',*,*,#576,.T.);
#731=ORIENTED_EDGE('',*,*,#569,.T.);
#732=ORIENTED_EDGE('',*,*,#577,.F.);
#733=ORIENTED_EDGE('',*,*,#578,.T.);
#734=ORIENTED_EDGE('',*,*,#579,.T.);
#735=ORIENTED_EDGE('',*,*,#580,.F.);
#736=ORIENTED_EDGE('',*,*,#579,.F.);
#737=ORIENTED_EDGE('',*,*,#573,.F.);
#738=ORIENTED_EDGE('',*,*,#581,.T.);
#739=ORIENTED_EDGE('',*,*,#582,.T.);
#740=ORIENTED_EDGE('',*,*,#583,.F.);
#741=ORIENTED_EDGE('',*,*,#584,.F.);
#742=ORIENTED_EDGE('',*,*,#585,.T.);
#743=ORIENTED_EDGE('',*,*,#586,.F.);
#744=ORIENTED_EDGE('',*,*,#585,.F.);
#745=ORIENTED_EDGE('',*,*,#582,.F.);
#746=ORIENTED_EDGE('',*,*,#587,.T.);
#747=ORIENTED_EDGE('',*,*,#575,.T.);
#748=ORIENTED_EDGE('',*,*,#588,.F.);
#749=ORIENTED_EDGE('',*,*,#538,.T.);
#750=ORIENTED_EDGE('',*,*,#544,.T.);
#751=ORIENTED_EDGE('',*,*,#553,.T.);
#752=ORIENTED_EDGE('',*,*,#562,.T.);
#753=ORIENTED_EDGE('',*,*,#568,.T.);
#754=ORIENTED_EDGE('',*,*,#574,.T.);
#755=ORIENTED_EDGE('',*,*,#583,.T.);
#756=ORIENTED_EDGE('',*,*,#588,.T.);
#757=ORIENTED_EDGE('',*,*,#577,.T.);
#758=ORIENTED_EDGE('',*,*,#571,.T.);
#759=ORIENTED_EDGE('',*,*,#565,.T.);
#760=ORIENTED_EDGE('',*,*,#559,.T.);
#761=ORIENTED_EDGE('',*,*,#547,.T.);
#762=ORIENTED_EDGE('',*,*,#541,.T.);
#763=ORIENTED_EDGE('',*,*,#589,.T.);
#764=ORIENTED_EDGE('',*,*,#590,.T.);
#765=ORIENTED_EDGE('',*,*,#556,.T.);
#766=ORIENTED_EDGE('',*,*,#548,.F.);
#767=ORIENTED_EDGE('',*,*,#586,.T.);
#768=ORIENTED_EDGE('',*,*,#578,.F.);
#769=ORIENTED_EDGE('',*,*,#591,.T.);
#770=ORIENTED_EDGE('',*,*,#592,.T.);
#771=ORIENTED_EDGE('',*,*,#589,.F.);
#772=ORIENTED_EDGE('',*,*,#592,.F.);
#773=ORIENTED_EDGE('',*,*,#593,.T.);
#774=ORIENTED_EDGE('',*,*,#594,.T.);
#775=ORIENTED_EDGE('',*,*,#590,.F.);
#776=ORIENTED_EDGE('',*,*,#594,.F.);
#777=ORIENTED_EDGE('',*,*,#595,.T.);
#778=ORIENTED_EDGE('',*,*,#596,.T.);
#779=ORIENTED_EDGE('',*,*,#591,.F.);
#780=ORIENTED_EDGE('',*,*,#596,.F.);
#781=ORIENTED_EDGE('',*,*,#597,.T.);
#782=ORIENTED_EDGE('',*,*,#598,.T.);
#783=ORIENTED_EDGE('',*,*,#593,.F.);
#784=ORIENTED_EDGE('',*,*,#598,.F.);
#785=ORIENTED_EDGE('',*,*,#595,.F.);
#786=ORIENTED_EDGE('',*,*,#597,.F.);
#787=ORIENTED_EDGE('',*,*,#599,.F.);
#788=ORIENTED_EDGE('',*,*,#600,.T.);
#789=ORIENTED_EDGE('',*,*,#601,.T.);
#790=ORIENTED_EDGE('',*,*,#581,.F.);
#791=ORIENTED_EDGE('',*,*,#584,.T.);
#792=ORIENTED_EDGE('',*,*,#602,.T.);
#793=ORIENTED_EDGE('',*,*,#603,.F.);
#794=ORIENTED_EDGE('',*,*,#604,.T.);
#795=ORIENTED_EDGE('',*,*,#599,.T.);
#796=ORIENTED_EDGE('',*,*,#572,.F.);
#797=ORIENTED_EDGE('',*,*,#605,.F.);
#798=ORIENTED_EDGE('',*,*,#606,.T.);
#799=ORIENTED_EDGE('',*,*,#603,.T.);
#800=ORIENTED_EDGE('',*,*,#566,.F.);
#801=ORIENTED_EDGE('',*,*,#607,.F.);
#802=ORIENTED_EDGE('',*,*,#608,.T.);
#803=ORIENTED_EDGE('',*,*,#605,.T.);
#804=ORIENTED_EDGE('',*,*,#560,.F.);
#805=ORIENTED_EDGE('',*,*,#609,.T.);
#806=ORIENTED_EDGE('',*,*,#610,.T.);
#807=ORIENTED_EDGE('',*,*,#607,.T.);
#808=ORIENTED_EDGE('',*,*,#551,.F.);
#809=ORIENTED_EDGE('',*,*,#554,.T.);
#810=ORIENTED_EDGE('',*,*,#611,.T.);
#811=ORIENTED_EDGE('',*,*,#612,.T.);
#812=ORIENTED_EDGE('',*,*,#613,.T.);
#813=ORIENTED_EDGE('',*,*,#609,.F.);
#814=ORIENTED_EDGE('',*,*,#542,.F.);
#815=ORIENTED_EDGE('',*,*,#614,.F.);
#816=ORIENTED_EDGE('',*,*,#615,.T.);
#817=ORIENTED_EDGE('',*,*,#612,.F.);
#818=ORIENTED_EDGE('',*,*,#536,.F.);
#819=ORIENTED_EDGE('',*,*,#616,.F.);
#820=ORIENTED_EDGE('',*,*,#617,.T.);
#821=ORIENTED_EDGE('',*,*,#618,.F.);
#822=ORIENTED_EDGE('',*,*,#619,.F.);
#823=ORIENTED_EDGE('',*,*,#620,.F.);
#824=ORIENTED_EDGE('',*,*,#621,.F.);
#825=ORIENTED_EDGE('',*,*,#622,.F.);
#826=ORIENTED_EDGE('',*,*,#623,.F.);
#827=ORIENTED_EDGE('',*,*,#624,.F.);
#828=ORIENTED_EDGE('',*,*,#625,.F.);
#829=ORIENTED_EDGE('',*,*,#626,.F.);
#830=ORIENTED_EDGE('',*,*,#627,.F.);
#831=ORIENTED_EDGE('',*,*,#628,.F.);
#832=ORIENTED_EDGE('',*,*,#629,.F.);
#833=ORIENTED_EDGE('',*,*,#630,.F.);
#834=ORIENTED_EDGE('',*,*,#631,.F.);
#835=ORIENTED_EDGE('',*,*,#632,.F.);
#836=ORIENTED_EDGE('',*,*,#616,.T.);
#837=ORIENTED_EDGE('',*,*,#633,.T.);
#838=ORIENTED_EDGE('',*,*,#615,.F.);
#839=ORIENTED_EDGE('',*,*,#632,.T.);
#840=ORIENTED_EDGE('',*,*,#634,.T.);
#841=ORIENTED_EDGE('',*,*,#635,.F.);
#842=ORIENTED_EDGE('',*,*,#617,.F.);
#843=ORIENTED_EDGE('',*,*,#633,.F.);
#844=ORIENTED_EDGE('',*,*,#629,.T.);
#845=ORIENTED_EDGE('',*,*,#636,.T.);
#846=ORIENTED_EDGE('',*,*,#613,.F.);
#847=ORIENTED_EDGE('',*,*,#637,.F.);
#848=ORIENTED_EDGE('',*,*,#618,.T.);
#849=ORIENTED_EDGE('',*,*,#635,.T.);
#850=ORIENTED_EDGE('',*,*,#638,.F.);
#851=ORIENTED_EDGE('',*,*,#636,.F.);
#852=ORIENTED_EDGE('',*,*,#628,.T.);
#853=ORIENTED_EDGE('',*,*,#639,.T.);
#854=ORIENTED_EDGE('',*,*,#610,.F.);
#855=ORIENTED_EDGE('',*,*,#640,.F.);
#856=ORIENTED_EDGE('',*,*,#619,.T.);
#857=ORIENTED_EDGE('',*,*,#637,.T.);
#858=ORIENTED_EDGE('',*,*,#641,.F.);
#859=ORIENTED_EDGE('',*,*,#639,.F.);
#860=ORIENTED_EDGE('',*,*,#627,.T.);
#861=ORIENTED_EDGE('',*,*,#642,.T.);
#862=ORIENTED_EDGE('',*,*,#608,.F.);
#863=ORIENTED_EDGE('',*,*,#643,.F.);
#864=ORIENTED_EDGE('',*,*,#620,.T.);
#865=ORIENTED_EDGE('',*,*,#640,.T.);
#866=ORIENTED_EDGE('',*,*,#644,.F.);
#867=ORIENTED_EDGE('',*,*,#642,.F.);
#868=ORIENTED_EDGE('',*,*,#626,.T.);
#869=ORIENTED_EDGE('',*,*,#645,.T.);
#870=ORIENTED_EDGE('',*,*,#606,.F.);
#871=ORIENTED_EDGE('',*,*,#646,.F.);
#872=ORIENTED_EDGE('',*,*,#621,.T.);
#873=ORIENTED_EDGE('',*,*,#643,.T.);
#874=ORIENTED_EDGE('',*,*,#647,.F.);
#875=ORIENTED_EDGE('',*,*,#645,.F.);
#876=ORIENTED_EDGE('',*,*,#625,.T.);
#877=ORIENTED_EDGE('',*,*,#648,.T.);
#878=ORIENTED_EDGE('',*,*,#604,.F.);
#879=ORIENTED_EDGE('',*,*,#649,.F.);
#880=ORIENTED_EDGE('',*,*,#622,.T.);
#881=ORIENTED_EDGE('',*,*,#646,.T.);
#882=ORIENTED_EDGE('',*,*,#650,.F.);
#883=ORIENTED_EDGE('',*,*,#648,.F.);
#884=ORIENTED_EDGE('',*,*,#624,.T.);
#885=ORIENTED_EDGE('',*,*,#651,.T.);
#886=ORIENTED_EDGE('',*,*,#600,.F.);
#887=ORIENTED_EDGE('',*,*,#651,.F.);
#888=ORIENTED_EDGE('',*,*,#623,.T.);
#889=ORIENTED_EDGE('',*,*,#649,.T.);
#890=ORIENTED_EDGE('',*,*,#652,.F.);
#891=ORIENTED_EDGE('',*,*,#653,.F.);
#892=ORIENTED_EDGE('',*,*,#654,.T.);
#893=ORIENTED_EDGE('',*,*,#630,.T.);
#894=ORIENTED_EDGE('',*,*,#654,.F.);
#895=ORIENTED_EDGE('',*,*,#655,.F.);
#896=ORIENTED_EDGE('',*,*,#656,.T.);
#897=ORIENTED_EDGE('',*,*,#631,.T.);
#898=ORIENTED_EDGE('',*,*,#656,.F.);
#899=ORIENTED_EDGE('',*,*,#657,.F.);
#900=ORIENTED_EDGE('',*,*,#658,.T.);
#901=ORIENTED_EDGE('',*,*,#653,.T.);
#902=ORIENTED_EDGE('',*,*,#658,.F.);
#903=ORIENTED_EDGE('',*,*,#659,.F.);
#904=ORIENTED_EDGE('',*,*,#660,.T.);
#905=ORIENTED_EDGE('',*,*,#655,.T.);
#906=ORIENTED_EDGE('',*,*,#660,.F.);
#907=ORIENTED_EDGE('',*,*,#661,.T.);
#908=ORIENTED_EDGE('',*,*,#662,.T.);
#909=ORIENTED_EDGE('',*,*,#663,.F.);
#910=ORIENTED_EDGE('',*,*,#662,.F.);
#911=ORIENTED_EDGE('',*,*,#611,.F.);
#912=ORIENTED_EDGE('',*,*,#664,.T.);
#913=ORIENTED_EDGE('',*,*,#665,.F.);
#914=ORIENTED_EDGE('',*,*,#664,.F.);
#915=ORIENTED_EDGE('',*,*,#666,.T.);
#916=ORIENTED_EDGE('',*,*,#667,.T.);
#917=ORIENTED_EDGE('',*,*,#668,.F.);
#918=ORIENTED_EDGE('',*,*,#667,.F.);
#919=ORIENTED_EDGE('',*,*,#602,.F.);
#920=ORIENTED_EDGE('',*,*,#669,.T.);
#921=ORIENTED_EDGE('',*,*,#670,.F.);
#922=ORIENTED_EDGE('',*,*,#669,.F.);
#923=ORIENTED_EDGE('',*,*,#657,.T.);
#924=ORIENTED_EDGE('',*,*,#659,.T.);
#925=ORIENTED_EDGE('',*,*,#665,.T.);
#926=ORIENTED_EDGE('',*,*,#661,.F.);
#927=ORIENTED_EDGE('',*,*,#670,.T.);
#928=ORIENTED_EDGE('',*,*,#666,.F.);
#929=ORIENTED_EDGE('',*,*,#601,.F.);
#930=ORIENTED_EDGE('',*,*,#652,.T.);
#931=ORIENTED_EDGE('',*,*,#671,.T.);
#932=ORIENTED_EDGE('',*,*,#587,.F.);
#933=ORIENTED_EDGE('',*,*,#671,.F.);
#934=ORIENTED_EDGE('',*,*,#650,.T.);
#935=ORIENTED_EDGE('',*,*,#672,.T.);
#936=ORIENTED_EDGE('',*,*,#576,.F.);
#937=ORIENTED_EDGE('',*,*,#580,.T.);
#938=ORIENTED_EDGE('',*,*,#668,.T.);
#939=ORIENTED_EDGE('',*,*,#672,.F.);
#940=ORIENTED_EDGE('',*,*,#647,.T.);
#941=ORIENTED_EDGE('',*,*,#673,.T.);
#942=ORIENTED_EDGE('',*,*,#570,.F.);
#943=ORIENTED_EDGE('',*,*,#673,.F.);
#944=ORIENTED_EDGE('',*,*,#644,.T.);
#945=ORIENTED_EDGE('',*,*,#674,.T.);
#946=ORIENTED_EDGE('',*,*,#564,.F.);
#947=ORIENTED_EDGE('',*,*,#674,.F.);
#948=ORIENTED_EDGE('',*,*,#641,.T.);
#949=ORIENTED_EDGE('',*,*,#675,.T.);
#950=ORIENTED_EDGE('',*,*,#558,.F.);
#951=ORIENTED_EDGE('',*,*,#675,.F.);
#952=ORIENTED_EDGE('',*,*,#638,.T.);
#953=ORIENTED_EDGE('',*,*,#676,.T.);
#954=ORIENTED_EDGE('',*,*,#546,.F.);
#955=ORIENTED_EDGE('',*,*,#550,.T.);
#956=ORIENTED_EDGE('',*,*,#663,.T.);
#957=ORIENTED_EDGE('',*,*,#676,.F.);
#958=ORIENTED_EDGE('',*,*,#634,.F.);
#959=ORIENTED_EDGE('',*,*,#614,.T.);
#960=ORIENTED_EDGE('',*,*,#540,.F.);
#961=PLANE('',#1083);
#962=PLANE('',#1084);
#963=PLANE('',#1088);
#964=PLANE('',#1092);
#965=PLANE('',#1096);
#966=PLANE('',#1100);
#967=PLANE('',#1101);
#968=PLANE('',#1102);
#969=PLANE('',#1106);
#970=PLANE('',#1110);
#971=PLANE('',#1117);
#972=PLANE('',#1120);
#973=PLANE('',#1121);
#974=PLANE('',#1130);
#975=PLANE('',#1131);
#976=PLANE('',#1132);
#977=PLANE('',#1136);
#978=PLANE('',#1139);
#979=PLANE('',#1143);
#980=PLANE('',#1144);
#981=PLANE('',#1151);
#982=PLANE('',#1152);
#983=PLANE('',#1154);
#984=PLANE('',#1155);
#985=PLANE('',#1156);
#986=PLANE('',#1158);
#987=PLANE('',#1159);
#988=PLANE('',#1160);
#989=PLANE('',#1162);
#990=PLANE('',#1163);
#991=PLANE('',#1184);
#992=PLANE('',#1185);
#993=PLANE('',#1186);
#994=PLANE('',#1187);
#995=PLANE('',#1189);
#996=PLANE('',#1190);
#997=PLANE('',#1191);
#998=PLANE('',#1192);
#999=PLANE('',#1193);
#1000=PLANE('',#1194);
#1001=ADVANCED_FACE('',(#103),#961,.F.);
#1002=ADVANCED_FACE('',(#104),#962,.F.);
#1003=ADVANCED_FACE('',(#105),#91,.T.);
#1004=ADVANCED_FACE('',(#106),#963,.T.);
#1005=ADVANCED_FACE('',(#107),#35,.F.);
#1006=ADVANCED_FACE('',(#108),#964,.T.);
#1007=ADVANCED_FACE('',(#109),#36,.F.);
#1008=ADVANCED_FACE('',(#110),#965,.T.);
#1009=ADVANCED_FACE('',(#111),#92,.T.);
#1010=ADVANCED_FACE('',(#112),#966,.T.);
#1011=ADVANCED_FACE('',(#113),#967,.T.);
#1012=ADVANCED_FACE('',(#114),#968,.T.);
#1013=ADVANCED_FACE('',(#115),#93,.T.);
#1014=ADVANCED_FACE('',(#116),#969,.T.);
#1015=ADVANCED_FACE('',(#117),#37,.F.);
#1016=ADVANCED_FACE('',(#118),#970,.T.);
#1017=ADVANCED_FACE('',(#119),#38,.F.);
#1018=ADVANCED_FACE('',(#120),#94,.T.);
#1019=ADVANCED_FACE('',(#121,#15,#16),#971,.T.);
#1020=ADVANCED_FACE('',(#122,#17),#972,.F.);
#1021=ADVANCED_FACE('',(#123,#18),#973,.F.);
#1022=ADVANCED_FACE('',(#124),#95,.F.);
#1023=ADVANCED_FACE('',(#125),#96,.F.);
#1024=ADVANCED_FACE('',(#126),#39,.F.);
#1025=ADVANCED_FACE('',(#127),#40,.F.);
#1026=ADVANCED_FACE('',(#128),#974,.T.);
#1027=ADVANCED_FACE('',(#129),#975,.T.);
#1028=ADVANCED_FACE('',(#130,#19,#20),#976,.T.);
#1029=ADVANCED_FACE('',(#131),#41,.T.);
#1030=ADVANCED_FACE('',(#132),#977,.T.);
#1031=ADVANCED_FACE('',(#133),#42,.T.);
#1032=ADVANCED_FACE('',(#134,#21,#22),#978,.T.);
#1033=ADVANCED_FACE('',(#135),#43,.T.);
#1034=ADVANCED_FACE('',(#136),#979,.F.);
#1035=ADVANCED_FACE('',(#137,#23,#24),#980,.F.);
#1036=ADVANCED_FACE('',(#138),#981,.T.);
#1037=ADVANCED_FACE('',(#139),#982,.T.);
#1038=ADVANCED_FACE('',(#140),#97,.T.);
#1039=ADVANCED_FACE('',(#141),#983,.F.);
#1040=ADVANCED_FACE('',(#142),#984,.F.);
#1041=ADVANCED_FACE('',(#143),#985,.F.);
#1042=ADVANCED_FACE('',(#144),#98,.T.);
#1043=ADVANCED_FACE('',(#145),#986,.F.);
#1044=ADVANCED_FACE('',(#146),#987,.F.);
#1045=ADVANCED_FACE('',(#147),#988,.F.);
#1046=ADVANCED_FACE('',(#148),#99,.T.);
#1047=ADVANCED_FACE('',(#149),#989,.F.);
#1048=ADVANCED_FACE('',(#150),#990,.F.);
#1049=ADVANCED_FACE('',(#151),#100,.T.);
#1050=ADVANCED_FACE('',(#152),#101,.F.);
#1051=ADVANCED_FACE('',(#153),#102,.F.);
#1052=ADVANCED_FACE('',(#154),#44,.F.);
#1053=ADVANCED_FACE('',(#155),#45,.F.);
#1054=ADVANCED_FACE('',(#156),#46,.F.);
#1055=ADVANCED_FACE('',(#157),#47,.F.);
#1056=ADVANCED_FACE('',(#158),#48,.F.);
#1057=ADVANCED_FACE('',(#159),#49,.F.);
#1058=ADVANCED_FACE('',(#160),#991,.T.);
#1059=ADVANCED_FACE('',(#161),#992,.T.);
#1060=ADVANCED_FACE('',(#162,#25),#993,.F.);
#1061=ADVANCED_FACE('',(#163,#26),#994,.F.);
#1062=ADVANCED_FACE('',(#164),#50,.T.);
#1063=ADVANCED_FACE('',(#165,#27,#28),#995,.T.);
#1064=ADVANCED_FACE('',(#166),#996,.T.);
#1065=ADVANCED_FACE('',(#167),#997,.T.);
#1066=ADVANCED_FACE('',(#168),#998,.T.);
#1067=ADVANCED_FACE('',(#169,#29,#30),#999,.T.);
#1068=ADVANCED_FACE('',(#170),#1000,.F.);
#1069=CLOSED_SHELL('',(#1001,#1002,#1003,#1004,#1005,#1006,#1007,#1008,
#1009,#1010,#1011,#1012,#1013,#1014,#1015,#1016,#1017,#1018,#1019,#1020,
#1021,#1022,#1023,#1024,#1025,#1026,#1027,#1028,#1029,#1030,#1031,#1032,
#1033,#1034,#1035,#1036,#1037,#1038,#1039,#1040,#1041,#1042,#1043,#1044,
#1045,#1046,#1047,#1048,#1049,#1050,#1051,#1052,#1053,#1054,#1055,#1056,
#1057,#1058,#1059,#1060,#1061,#1062,#1063,#1064,#1065,#1066,#1067,#1068));
#1070=DERIVED_UNIT_ELEMENT(#1072,1.);
#1071=DERIVED_UNIT_ELEMENT(#1819,-3.);
#1072=(
MASS_UNIT()
NAMED_UNIT(*)
SI_UNIT(.KILO.,.GRAM.)
);
#1073=DERIVED_UNIT((#1070,#1071));
#1074=MEASURE_REPRESENTATION_ITEM('density measure',
POSITIVE_RATIO_MEASURE(7850.),#1073);
#1075=PROPERTY_DEFINITION_REPRESENTATION(#1080,#1077);
#1076=PROPERTY_DEFINITION_REPRESENTATION(#1081,#1078);
#1077=REPRESENTATION('material name',(#1079),#1816);
#1078=REPRESENTATION('density',(#1074),#1816);
#1079=DESCRIPTIVE_REPRESENTATION_ITEM('Acero','Acero');
#1080=PROPERTY_DEFINITION('material property','material name',#1826);
#1081=PROPERTY_DEFINITION('material property','density of part',#1826);
#1082=AXIS2_PLACEMENT_3D('',#1519,#1195,#1196);
#1083=AXIS2_PLACEMENT_3D('',#1520,#1197,#1198);
#1084=AXIS2_PLACEMENT_3D('',#1529,#1203,#1204);
#1085=AXIS2_PLACEMENT_3D('',#1535,#1208,#1209);
#1086=AXIS2_PLACEMENT_3D('',#1537,#1210,#1211);
#1087=AXIS2_PLACEMENT_3D('',#1540,#1213,#1214);
#1088=AXIS2_PLACEMENT_3D('',#1541,#1215,#1216);
#1089=AXIS2_PLACEMENT_3D('',#1547,#1220,#1221);
#1090=AXIS2_PLACEMENT_3D('',#1549,#1222,#1223);
#1091=AXIS2_PLACEMENT_3D('',#1552,#1225,#1226);
#1092=AXIS2_PLACEMENT_3D('',#1553,#1227,#1228);
#1093=AXIS2_PLACEMENT_3D('',#1559,#1232,#1233);
#1094=AXIS2_PLACEMENT_3D('',#1561,#1234,#1235);
#1095=AXIS2_PLACEMENT_3D('',#1564,#1237,#1238);
#1096=AXIS2_PLACEMENT_3D('',#1565,#1239,#1240);
#1097=AXIS2_PLACEMENT_3D('',#1571,#1244,#1245);
#1098=AXIS2_PLACEMENT_3D('',#1573,#1246,#1247);
#1099=AXIS2_PLACEMENT_3D('',#1576,#1249,#1250);
#1100=AXIS2_PLACEMENT_3D('',#1577,#1251,#1252);
#1101=AXIS2_PLACEMENT_3D('',#1583,#1256,#1257);
#1102=AXIS2_PLACEMENT_3D('',#1589,#1261,#1262);
#1103=AXIS2_PLACEMENT_3D('',#1595,#1266,#1267);
#1104=AXIS2_PLACEMENT_3D('',#1597,#1268,#1269);
#1105=AXIS2_PLACEMENT_3D('',#1600,#1271,#1272);
#1106=AXIS2_PLACEMENT_3D('',#1601,#1273,#1274);
#1107=AXIS2_PLACEMENT_3D('',#1607,#1278,#1279);
#1108=AXIS2_PLACEMENT_3D('',#1609,#1280,#1281);
#1109=AXIS2_PLACEMENT_3D('',#1612,#1283,#1284);
#1110=AXIS2_PLACEMENT_3D('',#1613,#1285,#1286);
#1111=AXIS2_PLACEMENT_3D('',#1619,#1290,#1291);
#1112=AXIS2_PLACEMENT_3D('',#1621,#1292,#1293);
#1113=AXIS2_PLACEMENT_3D('',#1624,#1295,#1296);
#1114=AXIS2_PLACEMENT_3D('',#1625,#1297,#1298);
#1115=AXIS2_PLACEMENT_3D('',#1626,#1299,#1300);
#1116=AXIS2_PLACEMENT_3D('',#1627,#1301,#1302);
#1117=AXIS2_PLACEMENT_3D('',#1628,#1303,#1304);
#1118=AXIS2_PLACEMENT_3D('',#1630,#1305,#1306);
#1119=AXIS2_PLACEMENT_3D('',#1632,#1307,#1308);
#1120=AXIS2_PLACEMENT_3D('',#1633,#1309,#1310);
#1121=AXIS2_PLACEMENT_3D('',#1634,#1311,#1312);
#1122=AXIS2_PLACEMENT_3D('',#1635,#1313,#1314);
#1123=AXIS2_PLACEMENT_3D('',#1637,#1315,#1316);
#1124=AXIS2_PLACEMENT_3D('',#1639,#1318,#1319);
#1125=AXIS2_PLACEMENT_3D('',#1641,#1320,#1321);
#1126=AXIS2_PLACEMENT_3D('',#1643,#1323,#1324);
#1127=AXIS2_PLACEMENT_3D('',#1645,#1325,#1326);
#1128=AXIS2_PLACEMENT_3D('',#1647,#1328,#1329);
#1129=AXIS2_PLACEMENT_3D('',#1649,#1330,#1331);
#1130=AXIS2_PLACEMENT_3D('',#1651,#1333,#1334);
#1131=AXIS2_PLACEMENT_3D('',#1652,#1335,#1336);
#1132=AXIS2_PLACEMENT_3D('',#1653,#1337,#1338);
#1133=AXIS2_PLACEMENT_3D('',#1660,#1342,#1343);
#1134=AXIS2_PLACEMENT_3D('',#1661,#1344,#1345);
#1135=AXIS2_PLACEMENT_3D('',#1664,#1347,#1348);
#1136=AXIS2_PLACEMENT_3D('',#1665,#1349,#1350);
#1137=AXIS2_PLACEMENT_3D('',#1669,#1353,#1354);
#1138=AXIS2_PLACEMENT_3D('',#1672,#1356,#1357);
#1139=AXIS2_PLACEMENT_3D('',#1673,#1358,#1359);
#1140=AXIS2_PLACEMENT_3D('',#1678,#1362,#1363);
#1141=AXIS2_PLACEMENT_3D('',#1679,#1364,#1365);
#1142=AXIS2_PLACEMENT_3D('',#1682,#1367,#1368);
#1143=AXIS2_PLACEMENT_3D('',#1683,#1369,#1370);
#1144=AXIS2_PLACEMENT_3D('',#1687,#1373,#1374);
#1145=AXIS2_PLACEMENT_3D('',#1704,#1382,#1383);
#1146=AXIS2_PLACEMENT_3D('',#1708,#1385,#1386);
#1147=AXIS2_PLACEMENT_3D('',#1712,#1388,#1389);
#1148=AXIS2_PLACEMENT_3D('',#1715,#1391,#1392);
#1149=AXIS2_PLACEMENT_3D('',#1717,#1393,#1394);
#1150=AXIS2_PLACEMENT_3D('',#1719,#1395,#1396);
#1151=AXIS2_PLACEMENT_3D('',#1720,#1397,#1398);
#1152=AXIS2_PLACEMENT_3D('',#1723,#1401,#1402);
#1153=AXIS2_PLACEMENT_3D('',#1727,#1405,#1406);
#1154=AXIS2_PLACEMENT_3D('',#1729,#1408,#1409);
#1155=AXIS2_PLACEMENT_3D('',#1733,#1412,#1413);
#1156=AXIS2_PLACEMENT_3D('',#1735,#1415,#1416);
#1157=AXIS2_PLACEMENT_3D('',#1739,#1419,#1420);
#1158=AXIS2_PLACEMENT_3D('',#1741,#1422,#1423);
#1159=AXIS2_PLACEMENT_3D('',#1745,#1426,#1427);
#1160=AXIS2_PLACEMENT_3D('',#1747,#1429,#1430);
#1161=AXIS2_PLACEMENT_3D('',#1751,#1433,#1434);
#1162=AXIS2_PLACEMENT_3D('',#1753,#1436,#1437);
#1163=AXIS2_PLACEMENT_3D('',#1757,#1440,#1441);
#1164=AXIS2_PLACEMENT_3D('',#1759,#1443,#1444);
#1165=AXIS2_PLACEMENT_3D('',#1760,#1445,#1446);
#1166=AXIS2_PLACEMENT_3D('',#1761,#1447,#1448);
#1167=AXIS2_PLACEMENT_3D('',#1763,#1449,#1450);
#1168=AXIS2_PLACEMENT_3D('',#1765,#1452,#1453);
#1169=AXIS2_PLACEMENT_3D('',#1767,#1454,#1455);
#1170=AXIS2_PLACEMENT_3D('',#1769,#1457,#1458);
#1171=AXIS2_PLACEMENT_3D('',#1771,#1459,#1460);
#1172=AXIS2_PLACEMENT_3D('',#1773,#1462,#1463);
#1173=AXIS2_PLACEMENT_3D('',#1775,#1464,#1465);
#1174=AXIS2_PLACEMENT_3D('',#1777,#1467,#1468);
#1175=AXIS2_PLACEMENT_3D('',#1779,#1469,#1470);
#1176=AXIS2_PLACEMENT_3D('',#1782,#1472,#1473);
#1177=AXIS2_PLACEMENT_3D('',#1783,#1474,#1475);
#1178=AXIS2_PLACEMENT_3D('',#1786,#1477,#1478);
#1179=AXIS2_PLACEMENT_3D('',#1787,#1479,#1480);
#1180=AXIS2_PLACEMENT_3D('',#1789,#1481,#1482);
#1181=AXIS2_PLACEMENT_3D('',#1792,#1484,#1485);
#1182=AXIS2_PLACEMENT_3D('',#1793,#1486,#1487);
#1183=AXIS2_PLACEMENT_3D('',#1796,#1489,#1490);
#1184=AXIS2_PLACEMENT_3D('',#1797,#1491,#1492);
#1185=AXIS2_PLACEMENT_3D('',#1798,#1493,#1494);
#1186=AXIS2_PLACEMENT_3D('',#1799,#1495,#1496);
#1187=AXIS2_PLACEMENT_3D('',#1800,#1497,#1498);
#1188=AXIS2_PLACEMENT_3D('',#1801,#1499,#1500);
#1189=AXIS2_PLACEMENT_3D('',#1803,#1502,#1503);
#1190=AXIS2_PLACEMENT_3D('',#1805,#1505,#1506);
#1191=AXIS2_PLACEMENT_3D('',#1807,#1508,#1509);
#1192=AXIS2_PLACEMENT_3D('',#1809,#1511,#1512);
#1193=AXIS2_PLACEMENT_3D('',#1811,#1514,#1515);
#1194=AXIS2_PLACEMENT_3D('',#1813,#1517,#1518);
#1195=DIRECTION('axis',(0.,0.,1.));
#1196=DIRECTION('refdir',(1.,0.,0.));
#1197=DIRECTION('center_axis',(-0.707106781186548,2.773188464463E-16,0.707106781186547));
#1198=DIRECTION('ref_axis',(-5.19011361040132E-17,1.,-4.44089209850032E-16));
#1199=DIRECTION('',(-0.577350269189626,0.577350269189626,-0.577350269189626));
#1200=DIRECTION('',(5.19011361040132E-17,-1.,4.44089209850032E-16));
#1201=DIRECTION('',(-0.707106781186548,-3.50718137027167E-16,-0.707106781186548));
#1202=DIRECTION('',(5.19011361040132E-17,-1.,4.44089209850032E-16));
#1203=DIRECTION('center_axis',(-9.7931985247802E-17,0.707106781186548,0.707106781186547));
#1204=DIRECTION('ref_axis',(1.,5.19011361040132E-17,8.65956056235502E-17));
#1205=DIRECTION('',(-0.577350269189626,0.577350269189626,-0.577350269189626));
#1206=DIRECTION('',(-1.,-5.19011361040132E-17,-8.65956056235502E-17));
#1207=DIRECTION('',(-1.,-5.19011361040132E-17,-8.65956056235502E-17));
#1208=DIRECTION('center_axis',(-8.65956056235502E-17,4.44089209850032E-16,
1.));
#1209=DIRECTION('ref_axis',(1.,5.19011361040132E-17,8.65956056235502E-17));
#1210=DIRECTION('center_axis',(8.65956056235502E-17,-4.44089209850032E-16,
-1.));
#1211=DIRECTION('ref_axis',(1.,5.19011361040132E-17,8.65956056235502E-17));
#1212=DIRECTION('',(0.408719981308952,0.577016444200932,-0.707106781186917));
#1213=DIRECTION('center_axis',(8.65956056235502E-17,-4.44089209850032E-16,
-1.));
#1214=DIRECTION('ref_axis',(1.,5.19011361040132E-17,8.65956056235502E-17));
#1215=DIRECTION('center_axis',(0.707106781186548,-2.773188464463E-16,-0.707106781186547));
#1216=DIRECTION('ref_axis',(5.19011361040132E-17,-1.,4.44089209850032E-16));
#1217=DIRECTION('',(-0.577350269189626,-0.577350269189626,-0.577350269189626));
#1218=DIRECTION('',(5.19011361040132E-17,-1.,4.44089209850032E-16));
#1219=DIRECTION('',(5.19011361040132E-17,-1.,4.44089209850032E-16));
#1220=DIRECTION('center_axis',(1.,5.19011361040132E-17,8.65956056235502E-17));
#1221=DIRECTION('ref_axis',(-5.19011361040132E-17,1.,-4.44089209850032E-16));
#1222=DIRECTION('center_axis',(-1.,-5.19011361040132E-17,-8.65956056235502E-17));
#1223=DIRECTION('ref_axis',(-5.19011361040132E-17,1.,-4.44089209850032E-16));
#1224=DIRECTION('',(1.,5.19011361040132E-17,8.65956056235502E-17));
#1225=DIRECTION('center_axis',(-1.,-5.19011361040132E-17,-8.65956056235502E-17));
#1226=DIRECTION('ref_axis',(-5.19011361040132E-17,1.,-4.44089209850032E-16));
#1227=DIRECTION('center_axis',(-0.408719981308952,-0.577016444200933,-0.707106781186917));
#1228=DIRECTION('ref_axis',(-0.816024481101806,0.578017340780125,2.13584865871342E-13));
#1229=DIRECTION('',(-0.81602448110193,0.578017340779951,-3.2735539829125E-16));
#1230=DIRECTION('',(0.408719981308952,0.577016444200932,-0.707106781186917));
#1231=DIRECTION('',(-0.81602448110193,0.578017340779951,-3.2735539829125E-16));
#1232=DIRECTION('center_axis',(1.,5.19011361040132E-17,8.65956056235502E-17));
#1233=DIRECTION('ref_axis',(-5.19011361040132E-17,1.,-4.44089209850032E-16));
#1234=DIRECTION('center_axis',(0.578017340779951,0.81602448110193,-3.12333905345085E-16));
#1235=DIRECTION('ref_axis',(0.81602448110193,-0.578017340779951,3.2735539829125E-16));
#1236=DIRECTION('',(1.,5.19011361040132E-17,8.65956056235502E-17));
#1237=DIRECTION('center_axis',(-1.,-5.19011361040132E-17,-8.65956056235502E-17));
#1238=DIRECTION('ref_axis',(-5.19011361040132E-17,1.,-4.44089209850032E-16));
#1239=DIRECTION('center_axis',(2.45326946669346E-17,0.707106781186547,-0.707106781186548));
#1240=DIRECTION('ref_axis',(1.,5.19011361040132E-17,8.65956056235502E-17));
#1241=DIRECTION('',(-0.577350269189626,-0.577350269189626,-0.577350269189626));
#1242=DIRECTION('',(1.,5.19011361040132E-17,8.65956056235502E-17));
#1243=DIRECTION('',(1.,5.19011361040132E-17,8.65956056235502E-17));
#1244=DIRECTION('center_axis',(-8.65956056235502E-17,4.44089209850032E-16,
1.));
#1245=DIRECTION('ref_axis',(-0.578017340779951,-0.81602448110193,3.12333905345085E-16));
#1246=DIRECTION('center_axis',(8.65956056235502E-17,-4.44089209850032E-16,
-1.));
#1247=DIRECTION('ref_axis',(-0.578017340779951,-0.81602448110193,3.12333905345085E-16));
#1248=DIRECTION('',(0.707106781186548,-7.17318846446018E-16,-0.707106781186548));
#1249=DIRECTION('center_axis',(8.65956056235502E-17,-4.44089209850032E-16,
-1.));
#1250=DIRECTION('ref_axis',(-0.578017340779951,-0.81602448110193,3.12333905345085E-16));
#1251=DIRECTION('center_axis',(0.707106781186548,-2.773188464463E-16,-0.707106781186547));
#1252=DIRECTION('ref_axis',(5.19011361040132E-17,-1.,4.44089209850032E-16));
#1253=DIRECTION('',(-0.577350269189626,0.577350269189626,-0.577350269189626));
#1254=DIRECTION('',(5.19011361040132E-17,-1.,4.44089209850032E-16));
#1255=DIRECTION('',(5.19011361040132E-17,-1.,4.44089209850032E-16));
#1256=DIRECTION('center_axis',(-0.707106781186547,-3.50718137027167E-16,
-0.707106781186548));
#1257=DIRECTION('ref_axis',(-5.19011361040132E-17,1.,-4.44089209850032E-16));
#1258=DIRECTION('',(-5.19011361040132E-17,1.,-4.44089209850032E-16));
#1259=DIRECTION('',(0.707106781186548,-2.773188464463E-16,-0.707106781186548));
#1260=DIRECTION('',(-5.19011361040132E-17,1.,-4.44089209850032E-16));
#1261=DIRECTION('center_axis',(9.7931985247802E-17,-0.707106781186548,-0.707106781186547));
#1262=DIRECTION('ref_axis',(-1.,-5.19011361040132E-17,-8.65956056235502E-17));
#1263=DIRECTION('',(-0.577350269189626,0.577350269189626,-0.577350269189626));
#1264=DIRECTION('',(-1.,-5.19011361040132E-17,-8.65956056235502E-17));
#1265=DIRECTION('',(-1.,-5.19011361040132E-17,-8.65956056235502E-17));
#1266=DIRECTION('center_axis',(-8.65956056235502E-17,4.44089209850032E-16,
1.));
#1267=DIRECTION('ref_axis',(-1.,-5.19011361040132E-17,-8.65956056235502E-17));
#1268=DIRECTION('center_axis',(8.65956056235502E-17,-4.44089209850032E-16,
-1.));
#1269=DIRECTION('ref_axis',(-1.,-5.19011361040132E-17,-8.65956056235502E-17));
#1270=DIRECTION('',(0.374765844497801,-0.599625351196681,-0.707106781186623));
#1271=DIRECTION('center_axis',(8.65956056235502E-17,-4.44089209850032E-16,
-1.));
#1272=DIRECTION('ref_axis',(-1.,-5.19011361040132E-17,-8.65956056235502E-17));
#1273=DIRECTION('center_axis',(0.707106781186548,-2.773188464463E-16,-0.707106781186547));
#1274=DIRECTION('ref_axis',(5.19011361040132E-17,-1.,4.44089209850032E-16));
#1275=DIRECTION('',(-0.707106781186548,-4.10718137027129E-16,-0.707106781186548));
#1276=DIRECTION('',(5.19011361040132E-17,-1.,4.44089209850032E-16));
#1277=DIRECTION('',(5.19011361040132E-17,-1.,4.44089209850032E-16));
#1278=DIRECTION('center_axis',(1.,5.19011361040132E-17,8.65956056235502E-17));
#1279=DIRECTION('ref_axis',(-5.19011361040132E-17,1.,-4.44089209850032E-16));
#1280=DIRECTION('center_axis',(-1.,-5.19011361040132E-17,-8.65956056235502E-17));
#1281=DIRECTION('ref_axis',(-5.19011361040132E-17,1.,-4.44089209850032E-16));
#1282=DIRECTION('',(1.,5.19011361040132E-17,8.65956056235502E-17));
#1283=DIRECTION('center_axis',(-1.,-5.19011361040132E-17,-8.65956056235502E-17));
#1284=DIRECTION('ref_axis',(-5.19011361040132E-17,1.,-4.44089209850032E-16));
#1285=DIRECTION('center_axis',(-0.374765844497801,0.599625351196681,-0.707106781186624));
#1286=DIRECTION('ref_axis',(0.847998304005156,0.529998940003072,2.1792726428182E-14));
#1287=DIRECTION('',(0.847998304005144,0.52999894000309,-1.61933883784258E-16));
#1288=DIRECTION('',(0.374765844497801,-0.599625351196681,-0.707106781186623));
#1289=DIRECTION('',(0.847998304005144,0.52999894000309,-1.61933883784258E-16));
#1290=DIRECTION('center_axis',(1.,5.19011361040132E-17,8.65956056235502E-17));
#1291=DIRECTION('ref_axis',(-5.19011361040132E-17,1.,-4.44089209850032E-16));
#1292=DIRECTION('center_axis',(0.52999894000309,-0.847998304005144,4.22482475969219E-16));
#1293=DIRECTION('ref_axis',(0.847998304005144,0.52999894000309,-1.61933883784258E-16));
#1294=DIRECTION('',(1.,5.19011361040132E-17,8.65956056235502E-17));
#1295=DIRECTION('center_axis',(-1.,-5.19011361040132E-17,-8.65956056235502E-17));
#1296=DIRECTION('ref_axis',(-5.19011361040132E-17,1.,-4.44089209850032E-16));
#1297=DIRECTION('center_axis',(-8.65956056235502E-17,4.44089209850032E-16,
1.));
#1298=DIRECTION('ref_axis',(-0.52999894000309,0.847998304005144,-4.22482475969219E-16));
#1299=DIRECTION('center_axis',(8.65956056235502E-17,-4.44089209850032E-16,
-1.));
#1300=DIRECTION('ref_axis',(-0.52999894000309,0.847998304005144,-4.22482475969219E-16));
#1301=DIRECTION('center_axis',(8.65956056235502E-17,-4.44089209850032E-16,
-1.));
#1302=DIRECTION('ref_axis',(-0.52999894000309,0.847998304005144,-4.22482475969219E-16));
#1303=DIRECTION('center_axis',(8.65956056235502E-17,-4.44089209850032E-16,
-1.));
#1304=DIRECTION('ref_axis',(-1.,-5.19011361040132E-17,-8.65956056235502E-17));
#1305=DIRECTION('center_axis',(-8.65956056235502E-17,4.44089209850032E-16,
1.));
#1306=DIRECTION('ref_axis',(1.,5.19011361040132E-17,8.65956056235502E-17));
#1307=DIRECTION('center_axis',(-8.65956056235502E-17,4.44089209850032E-16,
1.));
#1308=DIRECTION('ref_axis',(1.,5.19011361040132E-17,8.65956056235502E-17));
#1309=DIRECTION('center_axis',(1.,5.19011361040132E-17,8.65956056235502E-17));
#1310=DIRECTION('ref_axis',(5.19011361040132E-17,-1.,4.44089209850032E-16));
#1311=DIRECTION('center_axis',(1.,5.19011361040132E-17,8.65956056235502E-17));
#1312=DIRECTION('ref_axis',(5.19011361040132E-17,-1.,4.44089209850032E-16));
#1313=DIRECTION('center_axis',(8.65956056235502E-17,-4.44089209850032E-16,
-1.));
#1314=DIRECTION('ref_axis',(1.,5.19011361040132E-17,8.65956056235502E-17));
#1315=DIRECTION('center_axis',(-8.65956056235502E-17,4.44089209850032E-16,
1.));
#1316=DIRECTION('ref_axis',(1.,5.19011361040132E-17,8.65956056235502E-17));
#1317=DIRECTION('',(-0.70710678118623,-2.64122531403781E-16,-0.707106781186865));
#1318=DIRECTION('center_axis',(8.65956056235502E-17,-4.44089209850032E-16,
-1.));
#1319=DIRECTION('ref_axis',(1.,5.19011361040132E-17,8.65956056235502E-17));
#1320=DIRECTION('center_axis',(-8.65956056235502E-17,4.44089209850032E-16,
1.));
#1321=DIRECTION('ref_axis',(1.,5.19011361040132E-17,8.65956056235502E-17));
#1322=DIRECTION('',(-0.70710678118623,-2.64122531403781E-16,-0.707106781186865));
#1323=DIRECTION('center_axis',(8.65956056235502E-17,-4.44089209850032E-16,
-1.));
#1324=DIRECTION('ref_axis',(1.,5.19011361040132E-17,8.65956056235502E-17));
#1325=DIRECTION('center_axis',(-8.65956056235502E-17,4.44089209850032E-16,
1.));
#1326=DIRECTION('ref_axis',(1.,5.19011361040132E-17,8.65956056235502E-17));
#1327=DIRECTION('',(8.65956056235502E-17,-4.44089209850032E-16,-1.));
#1328=DIRECTION('center_axis',(8.65956056235502E-17,-4.44089209850032E-16,
-1.));
#1329=DIRECTION('ref_axis',(1.,5.19011361040132E-17,8.65956056235502E-17));
#1330=DIRECTION('center_axis',(-8.65956056235502E-17,4.44089209850032E-16,
1.));
#1331=DIRECTION('ref_axis',(1.,5.19011361040132E-17,8.65956056235502E-17));
#1332=DIRECTION('',(8.65956056235502E-17,-4.44089209850032E-16,-1.));
#1333=DIRECTION('center_axis',(8.65956056235502E-17,-4.44089209850032E-16,
-1.));
#1334=DIRECTION('ref_axis',(-1.,-5.19011361040132E-17,-8.65956056235502E-17));
#1335=DIRECTION('center_axis',(8.65956056235502E-17,-4.44089209850032E-16,
-1.));
#1336=DIRECTION('ref_axis',(-1.,-5.19011361040132E-17,-8.65956056235502E-17));
#1337=DIRECTION('center_axis',(-0.52999894000309,0.847998304005144,-4.22482475969219E-16));
#1338=DIRECTION('ref_axis',(-0.847998304005144,-0.52999894000309,1.61933883784258E-16));
#1339=DIRECTION('',(8.65956056235502E-17,-4.44089209850032E-16,-1.));
#1340=DIRECTION('',(0.847998304005144,0.52999894000309,-1.61933883784258E-16));
#1341=DIRECTION('',(8.65956056235502E-17,-4.44089209850032E-16,-1.));
#1342=DIRECTION('center_axis',(0.52999894000309,-0.847998304005144,4.22482475969219E-16));
#1343=DIRECTION('ref_axis',(0.847998304005144,0.52999894000309,-1.61933883784258E-16));
#1344=DIRECTION('center_axis',(8.65956056235503E-17,-4.44089209850032E-16,
-1.));
#1345=DIRECTION('ref_axis',(-1.,-5.19011361040132E-17,-8.65956056235502E-17));
#1346=DIRECTION('',(8.65956056235502E-17,-4.44089209850032E-16,-1.));
#1347=DIRECTION('center_axis',(8.65956056235503E-17,-4.44089209850032E-16,
-1.));
#1348=DIRECTION('ref_axis',(-1.,-5.19011361040132E-17,-8.65956056235502E-17));
#1349=DIRECTION('center_axis',(-1.,-5.19011361040132E-17,-8.65956056235502E-17));
#1350=DIRECTION('ref_axis',(5.19011361040132E-17,-1.,4.44089209850032E-16));
#1351=DIRECTION('',(8.65956056235502E-17,-4.44089209850032E-16,-1.));
#1352=DIRECTION('',(-5.19011361040132E-17,1.,-4.44089209850032E-16));
#1353=DIRECTION('center_axis',(8.65956056235503E-17,-4.44089209850032E-16,
-1.));
#1354=DIRECTION('ref_axis',(-0.578017340779951,-0.81602448110193,3.12333905345085E-16));
#1355=DIRECTION('',(8.65956056235502E-17,-4.44089209850032E-16,-1.));
#1356=DIRECTION('center_axis',(8.65956056235503E-17,-4.44089209850032E-16,
-1.));
#1357=DIRECTION('ref_axis',(-0.578017340779951,-0.81602448110193,3.12333905345085E-16));
#1358=DIRECTION('center_axis',(-0.578017340779951,-0.81602448110193,3.12333905345085E-16));
#1359=DIRECTION('ref_axis',(0.81602448110193,-0.578017340779951,3.2735539829125E-16));
#1360=DIRECTION('',(-8.65956056235502E-17,4.44089209850032E-16,1.));
#1361=DIRECTION('',(-0.81602448110193,0.578017340779951,-3.2735539829125E-16));
#1362=DIRECTION('center_axis',(0.578017340779951,0.81602448110193,-3.12333905345085E-16));
#1363=DIRECTION('ref_axis',(0.81602448110193,-0.578017340779951,3.2735539829125E-16));
#1364=DIRECTION('center_axis',(-8.65956056235503E-17,4.44089209850032E-16,
1.));
#1365=DIRECTION('ref_axis',(-0.578017340779951,-0.81602448110193,3.12333905345085E-16));
#1366=DIRECTION('',(-8.65956056235502E-17,4.44089209850032E-16,1.));
#1367=DIRECTION('center_axis',(8.65956056235503E-17,-4.44089209850032E-16,
-1.));
#1368=DIRECTION('ref_axis',(1.,5.19011361040132E-17,8.65956056235502E-17));
#1369=DIRECTION('center_axis',(-1.,-5.19011361040132E-17,-8.65956056235502E-17));
#1370=DIRECTION('ref_axis',(5.19011361040132E-17,-1.,4.44089209850032E-16));
#1371=DIRECTION('',(8.65956056235503E-17,-4.44089209850032E-16,-1.));
#1372=DIRECTION('',(5.19011361040132E-17,-1.,4.44089209850032E-16));
#1373=DIRECTION('center_axis',(8.65956056235503E-17,-4.44089209850032E-16,
-1.));
#1374=DIRECTION('ref_axis',(-1.,-5.19011361040132E-17,-8.65956056235502E-17));
#1375=DIRECTION('',(5.19011361040132E-17,-1.,4.44089209850032E-16));
#1376=DIRECTION('',(1.,5.19011361040132E-17,8.65956056235502E-17));
#1377=DIRECTION('',(5.19011361040132E-17,-1.,4.44089209850032E-16));
#1378=DIRECTION('',(1.,5.19011361040132E-17,8.65956056235502E-17));
#1379=DIRECTION('',(5.19011361040132E-17,-1.,4.44089209850032E-16));
#1380=DIRECTION('',(-1.,-5.19011361040132E-17,-8.65956056235502E-17));
#1381=DIRECTION('',(5.19011361040132E-17,-1.,4.44089209850032E-16));
#1382=DIRECTION('center_axis',(8.65956056235503E-17,-4.44089209850032E-16,
-1.));
#1383=DIRECTION('ref_axis',(-0.52999894000309,0.847998304005144,-4.22482475969219E-16));
#1384=DIRECTION('',(0.847998304005144,0.52999894000309,-1.61933883784258E-16));
#1385=DIRECTION('center_axis',(8.65956056235503E-17,-4.44089209850032E-16,
-1.));
#1386=DIRECTION('ref_axis',(-1.,-5.19011361040132E-17,-8.65956056235502E-17));
#1387=DIRECTION('',(-5.19011361040132E-17,1.,-4.44089209850032E-16));
#1388=DIRECTION('center_axis',(8.65956056235503E-17,-4.44089209850032E-16,
-1.));
#1389=DIRECTION('ref_axis',(-0.578017340779951,-0.81602448110193,3.12333905345085E-16));
#1390=DIRECTION('',(-0.81602448110193,0.578017340779951,-3.2735539829125E-16));
#1391=DIRECTION('center_axis',(8.65956056235503E-17,-4.44089209850032E-16,
-1.));
#1392=DIRECTION('ref_axis',(1.,5.19011361040132E-17,8.65956056235502E-17));
#1393=DIRECTION('center_axis',(-8.65956056235503E-17,4.44089209850032E-16,
1.));
#1394=DIRECTION('ref_axis',(1.,5.19011361040132E-17,8.65956056235502E-17));
#1395=DIRECTION('center_axis',(-8.65956056235503E-17,4.44089209850032E-16,
1.));
#1396=DIRECTION('ref_axis',(1.,5.19011361040132E-17,8.65956056235502E-17));
#1397=DIRECTION('center_axis',(0.707106781186547,3.50718137027167E-16,0.707106781186548));
#1398=DIRECTION('ref_axis',(5.19011361040132E-17,-1.,4.44089209850032E-16));
#1399=DIRECTION('',(0.577350269189626,-0.577350269189626,-0.577350269189626));
#1400=DIRECTION('',(0.707106781186548,-2.773188464463E-16,-0.707106781186548));
#1401=DIRECTION('center_axis',(-2.45326946669346E-17,-0.707106781186547,
0.707106781186548));
#1402=DIRECTION('ref_axis',(-1.,-5.19011361040132E-17,-8.65956056235502E-17));
#1403=DIRECTION('',(1.,5.19011361040132E-17,8.65956056235502E-17));
#1404=DIRECTION('',(0.577350269189626,-0.577350269189626,-0.577350269189626));
#1405=DIRECTION('center_axis',(8.65956056235503E-17,-4.44089209850032E-16,
-1.));
#1406=DIRECTION('ref_axis',(1.,5.19011361040132E-17,8.65956056235502E-17));
#1407=DIRECTION('',(-0.408719981308952,-0.577016444200932,-0.707106781186917));
#1408=DIRECTION('center_axis',(-0.707106781186547,-3.50718137027167E-16,
-0.707106781186548));
#1409=DIRECTION('ref_axis',(-5.19011361040132E-17,1.,-4.44089209850032E-16));
#1410=DIRECTION('',(0.577350269189626,0.577350269189626,-0.577350269189626));
#1411=DIRECTION('',(5.19011361040132E-17,-1.,4.44089209850032E-16));
#1412=DIRECTION('center_axis',(0.408719981308952,0.577016444200932,-0.707106781186917));
#1413=DIRECTION('ref_axis',(0.816024481101806,-0.578017340780125,2.14239576667925E-13));
#1414=DIRECTION('',(-0.408719981308952,-0.577016444200932,-0.707106781186917));
#1415=DIRECTION('center_axis',(9.7931985247802E-17,-0.707106781186548,-0.707106781186547));
#1416=DIRECTION('ref_axis',(-1.,-5.19011361040132E-17,-8.65956056235502E-17));
#1417=DIRECTION('',(0.577350269189626,0.577350269189626,-0.577350269189626));
#1418=DIRECTION('',(1.,5.19011361040132E-17,8.65956056235502E-17));
#1419=DIRECTION('center_axis',(8.65956056235503E-17,-4.44089209850032E-16,
-1.));
#1420=DIRECTION('ref_axis',(-0.578017340779951,-0.81602448110193,3.12333905345085E-16));
#1421=DIRECTION('',(-0.707106781186548,8.92818629725515E-17,-0.707106781186548));
#1422=DIRECTION('center_axis',(-0.707106781186547,-3.50718137027167E-16,
-0.707106781186548));
#1423=DIRECTION('ref_axis',(-5.19011361040132E-17,1.,-4.44089209850032E-16));
#1424=DIRECTION('',(0.577350269189626,-0.577350269189626,-0.577350269189626));
#1425=DIRECTION('',(5.19011361040132E-17,-1.,4.44089209850032E-16));
#1426=DIRECTION('center_axis',(0.707106781186548,-2.773188464463E-16,-0.707106781186547));
#1427=DIRECTION('ref_axis',(5.19011361040132E-17,-1.,4.44089209850032E-16));
#1428=DIRECTION('',(-0.707106781186548,-3.50718137027167E-16,-0.707106781186548));
#1429=DIRECTION('center_axis',(2.45326946669346E-17,0.707106781186547,-0.707106781186548));
#1430=DIRECTION('ref_axis',(1.,5.19011361040132E-17,8.65956056235502E-17));
#1431=DIRECTION('',(0.577350269189626,-0.577350269189626,-0.577350269189626));
#1432=DIRECTION('',(-1.,-5.19011361040132E-17,-8.65956056235502E-17));
#1433=DIRECTION('center_axis',(8.65956056235503E-17,-4.44089209850032E-16,
-1.));
#1434=DIRECTION('ref_axis',(-1.,-5.19011361040132E-17,-8.65956056235502E-17));
#1435=DIRECTION('',(-0.3747658444978,0.59962535119668,-0.707106781186624));
#1436=DIRECTION('center_axis',(-0.707106781186547,-3.50718137027167E-16,
-0.707106781186548));
#1437=DIRECTION('ref_axis',(-5.19011361040132E-17,1.,-4.44089209850032E-16));
#1438=DIRECTION('',(0.707106781186548,-2.17318846446338E-16,-0.707106781186548));
#1439=DIRECTION('',(5.19011361040132E-17,-1.,4.44089209850032E-16));
#1440=DIRECTION('center_axis',(0.374765844497801,-0.599625351196681,-0.707106781186623));
#1441=DIRECTION('ref_axis',(-0.847998304005156,-0.529998940003072,2.20888386201348E-14));
#1442=DIRECTION('',(-0.3747658444978,0.59962535119668,-0.707106781186624));
#1443=DIRECTION('center_axis',(8.65956056235503E-17,-4.44089209850032E-16,
-1.));
#1444=DIRECTION('ref_axis',(-0.52999894000309,0.847998304005144,-4.22482475969219E-16));
#1445=DIRECTION('center_axis',(8.65956056235503E-17,-4.44089209850032E-16,
-1.));
#1446=DIRECTION('ref_axis',(-0.52999894000309,0.847998304005144,-4.22482475969219E-16));
#1447=DIRECTION('center_axis',(-8.65956056235503E-17,4.44089209850032E-16,
1.));
#1448=DIRECTION('ref_axis',(1.,5.19011361040132E-17,8.65956056235502E-17));
#1449=DIRECTION('center_axis',(-8.65956056235503E-17,4.44089209850032E-16,
1.));
#1450=DIRECTION('ref_axis',(1.,5.19011361040132E-17,8.65956056235502E-17));
#1451=DIRECTION('',(-0.70710678118623,1.90723240822946E-16,0.707106781186865));
#1452=DIRECTION('center_axis',(-8.65956056235503E-17,4.44089209850032E-16,
1.));
#1453=DIRECTION('ref_axis',(1.,5.19011361040132E-17,8.65956056235502E-17));
#1454=DIRECTION('center_axis',(-8.65956056235503E-17,4.44089209850032E-16,
1.));
#1455=DIRECTION('ref_axis',(1.,5.19011361040132E-17,8.65956056235502E-17));
#1456=DIRECTION('',(-0.70710678118623,1.90723240822946E-16,0.707106781186865));
#1457=DIRECTION('center_axis',(-8.65956056235503E-17,4.44089209850032E-16,
1.));
#1458=DIRECTION('ref_axis',(1.,5.19011361040132E-17,8.65956056235502E-17));
#1459=DIRECTION('center_axis',(-8.65956056235503E-17,4.44089209850032E-16,
1.));
#1460=DIRECTION('ref_axis',(1.,5.19011361040132E-17,8.65956056235502E-17));
#1461=DIRECTION('',(-8.65956056235503E-17,4.44089209850032E-16,1.));
#1462=DIRECTION('center_axis',(-8.65956056235503E-17,4.44089209850032E-16,
1.));
#1463=DIRECTION('ref_axis',(1.,5.19011361040132E-17,8.65956056235502E-17));
#1464=DIRECTION('center_axis',(-8.65956056235503E-17,4.44089209850032E-16,
1.));
#1465=DIRECTION('ref_axis',(1.,5.19011361040132E-17,8.65956056235502E-17));
#1466=DIRECTION('',(-8.65956056235503E-17,4.44089209850032E-16,1.));
#1467=DIRECTION('center_axis',(1.,5.19011361040132E-17,8.65956056235502E-17));
#1468=DIRECTION('ref_axis',(-5.19011361040132E-17,1.,-4.44089209850032E-16));
#1469=DIRECTION('center_axis',(-1.,-5.19011361040132E-17,-8.65956056235502E-17));
#1470=DIRECTION('ref_axis',(-5.19011361040132E-17,1.,-4.44089209850032E-16));
#1471=DIRECTION('',(1.,5.19011361040133E-17,8.65956056235502E-17));
#1472=DIRECTION('center_axis',(-1.,-5.19011361040132E-17,-8.65956056235502E-17));
#1473=DIRECTION('ref_axis',(-5.19011361040132E-17,1.,-4.44089209850032E-16));
#1474=DIRECTION('center_axis',(1.,5.19011361040132E-17,8.65956056235502E-17));
#1475=DIRECTION('ref_axis',(-5.19011361040132E-17,1.,-4.44089209850032E-16));
#1476=DIRECTION('',(1.,5.19011361040132E-17,8.65956056235502E-17));
#1477=DIRECTION('center_axis',(-1.,-5.19011361040132E-17,-8.65956056235502E-17));
#1478=DIRECTION('ref_axis',(-5.19011361040132E-17,1.,-4.44089209850032E-16));
#1479=DIRECTION('center_axis',(1.,5.19011361040132E-17,8.65956056235502E-17));
#1480=DIRECTION('ref_axis',(-5.19011361040132E-17,1.,-4.44089209850032E-16));
#1481=DIRECTION('center_axis',(-1.,-5.19011361040132E-17,-8.65956056235502E-17));
#1482=DIRECTION('ref_axis',(-5.19011361040132E-17,1.,-4.44089209850032E-16));
#1483=DIRECTION('',(1.,5.19011361040133E-17,8.65956056235502E-17));
#1484=DIRECTION('center_axis',(-1.,-5.19011361040132E-17,-8.65956056235502E-17));
#1485=DIRECTION('ref_axis',(-5.19011361040132E-17,1.,-4.44089209850032E-16));
#1486=DIRECTION('center_axis',(1.,5.19011361040132E-17,8.65956056235502E-17));
#1487=DIRECTION('ref_axis',(-5.19011361040132E-17,1.,-4.44089209850032E-16));
#1488=DIRECTION('',(1.,5.19011361040132E-17,8.65956056235502E-17));
#1489=DIRECTION('center_axis',(-1.,-5.19011361040132E-17,-8.65956056235502E-17));
#1490=DIRECTION('ref_axis',(-5.19011361040132E-17,1.,-4.44089209850032E-16));
#1491=DIRECTION('center_axis',(-8.65956056235503E-17,4.44089209850032E-16,
1.));
#1492=DIRECTION('ref_axis',(1.,5.19011361040132E-17,8.65956056235502E-17));
#1493=DIRECTION('center_axis',(-8.65956056235503E-17,4.44089209850032E-16,
1.));
#1494=DIRECTION('ref_axis',(1.,5.19011361040132E-17,8.65956056235502E-17));
#1495=DIRECTION('center_axis',(1.,5.19011361040132E-17,8.65956056235502E-17));
#1496=DIRECTION('ref_axis',(5.19011361040132E-17,-1.,4.44089209850032E-16));
#1497=DIRECTION('center_axis',(1.,5.19011361040132E-17,8.65956056235502E-17));
#1498=DIRECTION('ref_axis',(5.19011361040132E-17,-1.,4.44089209850032E-16));
#1499=DIRECTION('center_axis',(8.65956056235503E-17,-4.44089209850032E-16,
-1.));
#1500=DIRECTION('ref_axis',(1.,5.19011361040132E-17,8.65956056235502E-17));
#1501=DIRECTION('',(8.65956056235502E-17,-4.44089209850032E-16,-1.));
#1502=DIRECTION('center_axis',(1.,5.19011361040132E-17,8.65956056235502E-17));
#1503=DIRECTION('ref_axis',(-5.19011361040132E-17,1.,-4.44089209850032E-16));
#1504=DIRECTION('',(8.65956056235502E-17,-4.44089209850032E-16,-1.));
#1505=DIRECTION('center_axis',(5.19011361040132E-17,-1.,4.44089209850032E-16));
#1506=DIRECTION('ref_axis',(1.,5.19011361040132E-17,8.65956056235502E-17));
#1507=DIRECTION('',(8.65956056235502E-17,-4.44089209850032E-16,-1.));
#1508=DIRECTION('center_axis',(1.,5.19011361040132E-17,8.65956056235502E-17));
#1509=DIRECTION('ref_axis',(-5.19011361040132E-17,1.,-4.44089209850032E-16));
#1510=DIRECTION('',(8.65956056235502E-17,-4.44089209850032E-16,-1.));
#1511=DIRECTION('center_axis',(-5.19011361040132E-17,1.,-4.44089209850032E-16));
#1512=DIRECTION('ref_axis',(-1.,-5.19011361040132E-17,-8.65956056235502E-17));
#1513=DIRECTION('',(8.65956056235502E-17,-4.44089209850032E-16,-1.));
#1514=DIRECTION('center_axis',(1.,5.19011361040132E-17,8.65956056235502E-17));
#1515=DIRECTION('ref_axis',(-5.19011361040132E-17,1.,-4.44089209850032E-16));
#1516=DIRECTION('',(8.65956056235502E-17,-4.44089209850032E-16,-1.));
#1517=DIRECTION('center_axis',(-5.19011361040132E-17,1.,-4.44089209850032E-16));
#1518=DIRECTION('ref_axis',(-1.,-5.19011361040132E-17,-8.65956056235502E-17));
#1519=CARTESIAN_POINT('',(0.,0.,0.));
#1520=CARTESIAN_POINT('Origin',(19.9,-49.4443086839745,0.200000000000031));
#1521=CARTESIAN_POINT('',(20.1,-49.4443086839745,0.400000000000027));
#1522=CARTESIAN_POINT('',(19.7,-49.0443086839745,0.));
#1523=CARTESIAN_POINT('',(20.55,-49.8943086839745,0.850000000000009));
#1524=CARTESIAN_POINT('',(20.1,-51.4982486352245,0.400000000000027));
#1525=CARTESIAN_POINT('',(20.1,-49.4443086839745,0.400000000000027));
#1526=CARTESIAN_POINT('',(19.7,-51.4982486352245,0.));
#1527=CARTESIAN_POINT('',(19.9,-51.4982486352245,0.200000000000031));
#1528=CARTESIAN_POINT('',(19.7,-49.4443086839745,0.));
#1529=CARTESIAN_POINT('Origin',(23.6,-49.2443086839745,0.200000000000031));
#1530=CARTESIAN_POINT('',(23.6,-49.4443086839745,0.400000000000027));
#1531=CARTESIAN_POINT('',(23.2,-49.0443086839745,0.));
#1532=CARTESIAN_POINT('',(21.05,-46.8943086839745,-2.14999999999996));
#1533=CARTESIAN_POINT('',(23.6,-49.4443086839745,0.400000000000027));
#1534=CARTESIAN_POINT('',(23.6,-49.0443086839745,0.));
#1535=CARTESIAN_POINT('Origin',(19.6,-51.4982486352245,0.400000000000027));
#1536=CARTESIAN_POINT('',(19.31099132961,-51.9062608757745,0.400000000000027));
#1537=CARTESIAN_POINT('Origin',(19.6,-51.4982486352245,0.400000000000027));
#1538=CARTESIAN_POINT('',(19.542198265922,-51.5798510833345,0.));
#1539=CARTESIAN_POINT('',(19.31099132961,-51.9062608757745,0.400000000000027));
#1540=CARTESIAN_POINT('Origin',(19.6,-51.4982486352245,0.));
#1541=CARTESIAN_POINT('Origin',(23.4,-34.9443086839745,0.200000000000031));
#1542=CARTESIAN_POINT('',(23.6,-34.9443086839745,0.399999999999991));
#1543=CARTESIAN_POINT('',(23.2,-35.3443086839745,0.));
#1544=CARTESIAN_POINT('',(19.966666666667,-38.5776420173045,-3.23333333333998));
#1545=CARTESIAN_POINT('',(23.6,-34.9443086839745,0.399999999999991));
#1546=CARTESIAN_POINT('',(23.2,-34.9443086839745,0.));
#1547=CARTESIAN_POINT('Origin',(23.6,-44.9443086839745,30.));
#1548=CARTESIAN_POINT('',(18.6,-46.5943086839745,30.));
#1549=CARTESIAN_POINT('Origin',(18.6,-44.9443086839745,30.));
#1550=CARTESIAN_POINT('',(23.6,-46.5943086839745,30.));
#1551=CARTESIAN_POINT('',(23.6,-46.5943086839745,30.));
#1552=CARTESIAN_POINT('Origin',(23.6,-44.9443086839745,30.));
#1553=CARTESIAN_POINT('Origin',(19.426594797766,-51.7430559795545,0.200000000000031));
#1554=CARTESIAN_POINT('',(0.865947977659003,-38.8410218348145,0.399999999999991));
#1555=CARTESIAN_POINT('',(19.31099132961,-51.9062608757745,0.400000000000027));
#1556=CARTESIAN_POINT('',(1.097154913971,-38.5146120423745,0.));
#1557=CARTESIAN_POINT('',(0.981551445815003,-38.6778169385945,0.200000000000031));
#1558=CARTESIAN_POINT('',(19.542198265922,-51.5798510833345,0.));
#1559=CARTESIAN_POINT('Origin',(18.6,-44.9443086839745,30.));
#1560=CARTESIAN_POINT('',(14.0705882352954,-48.1943086839725,30.));
#1561=CARTESIAN_POINT('Origin',(9.482352941176,-44.9443086839745,30.));
#1562=CARTESIAN_POINT('',(18.6,-48.1943086839745,30.));
#1563=CARTESIAN_POINT('',(18.6,-48.1943086839745,30.));
#1564=CARTESIAN_POINT('Origin',(18.6,-44.9443086839745,30.));
#1565=CARTESIAN_POINT('Origin',(2.6,-35.1443086839745,0.200000000000031));
#1566=CARTESIAN_POINT('',(2.6,-34.9443086839745,0.399999999999991));
#1567=CARTESIAN_POINT('',(2.2,-35.3443086839745,0.));
#1568=CARTESIAN_POINT('',(14.133333333333,-23.4109753506345,11.9333333333));
#1569=CARTESIAN_POINT('',(2.6,-34.9443086839745,0.399999999999991));
#1570=CARTESIAN_POINT('',(2.6,-35.3443086839745,0.));
#1571=CARTESIAN_POINT('Origin',(2.6,-36.3929483915045,0.399999999999991));
#1572=CARTESIAN_POINT('',(-0.4,-36.3929483915045,0.399999999999991));
#1573=CARTESIAN_POINT('Origin',(2.6,-36.3929483915045,0.399999999999991));
#1574=CARTESIAN_POINT('',(0.,-36.3929483915045,0.));
#1575=CARTESIAN_POINT('',(-0.4,-36.3929483915045,0.399999999999991));
#1576=CARTESIAN_POINT('Origin',(2.6,-36.3929483915045,0.));
#1577=CARTESIAN_POINT('Origin',(2.4,35.0556913160255,0.199999999999996));
#1578=CARTESIAN_POINT('',(2.6,35.0556913160255,0.399999999999991));
#1579=CARTESIAN_POINT('',(2.2,35.4556913160255,0.));
#1580=CARTESIAN_POINT('',(5.966666666667,31.6890246493585,3.7666666666));
#1581=CARTESIAN_POINT('',(2.6,35.0556913160255,0.399999999999991));
#1582=CARTESIAN_POINT('',(2.2,35.0556913160255,0.));
#1583=CARTESIAN_POINT('Origin',(-0.2,-36.3929483915045,0.200000000000031));
#1584=CARTESIAN_POINT('',(-0.4,36.3929483915045,0.399999999999991));
#1585=CARTESIAN_POINT('',(-0.4,-36.3929483915045,0.399999999999991));
#1586=CARTESIAN_POINT('',(0.,36.3929483915045,0.));
#1587=CARTESIAN_POINT('',(-0.2,36.3929483915045,0.199999999999996));
#1588=CARTESIAN_POINT('',(0.,-36.3929483915045,0.));
#1589=CARTESIAN_POINT('Origin',(23.6,35.2556913160255,0.200000000000031));
#1590=CARTESIAN_POINT('',(23.6,35.0556913160255,0.399999999999991));
#1591=CARTESIAN_POINT('',(23.2,35.4556913160255,0.));
#1592=CARTESIAN_POINT('',(20.767374606918,37.8883167091075,-2.43262539309001));
#1593=CARTESIAN_POINT('',(23.6,35.0556913160255,0.399999999999991));
#1594=CARTESIAN_POINT('',(23.6,35.4556913160255,0.));
#1595=CARTESIAN_POINT('Origin',(2.6,36.3929483915045,0.399999999999991));
#1596=CARTESIAN_POINT('',(1.01000317999,38.9369433035195,0.399999999999991));
#1597=CARTESIAN_POINT('Origin',(2.6,36.3929483915045,0.399999999999991));
#1598=CARTESIAN_POINT('',(1.222002755992,38.5977439819175,0.));
#1599=CARTESIAN_POINT('',(1.01000317999,38.9369433035195,0.399999999999991));
#1600=CARTESIAN_POINT('Origin',(2.6,36.3929483915045,0.));
#1601=CARTESIAN_POINT('Origin',(23.4,51.2514436745185,0.199999999999996));
#1602=CARTESIAN_POINT('',(23.6,51.2514436745185,0.399999999999991));
#1603=CARTESIAN_POINT('',(23.2,51.2514436745185,0.));
#1604=CARTESIAN_POINT('',(23.6,51.2514436745185,0.399999999999991));
#1605=CARTESIAN_POINT('',(23.6,51.2514436745185,0.399999999999991));
#1606=CARTESIAN_POINT('',(23.2,51.2514436745185,0.));
#1607=CARTESIAN_POINT('Origin',(23.6,45.0556913160255,30.));
#1608=CARTESIAN_POINT('',(18.6,43.4056913160255,30.));
#1609=CARTESIAN_POINT('Origin',(18.6,45.0556913160255,30.));
#1610=CARTESIAN_POINT('',(23.6,43.4056913160255,30.));
#1611=CARTESIAN_POINT('',(23.6,43.4056913160255,30.));
#1612=CARTESIAN_POINT('Origin',(23.6,45.0556913160255,30.));
#1613=CARTESIAN_POINT('Origin',(1.116002967991,38.7673436427185,0.199999999999996));
#1614=CARTESIAN_POINT('',(22.070001059997,52.0994419785235,0.399999999999991));
#1615=CARTESIAN_POINT('',(1.01000317999,38.9369433035195,0.399999999999991));
#1616=CARTESIAN_POINT('',(22.282000635998,51.7602426569215,0.));
#1617=CARTESIAN_POINT('',(22.176000847997,51.9298423177225,0.199999999999996));
#1618=CARTESIAN_POINT('',(1.222002755992,38.5977439819175,0.));
#1619=CARTESIAN_POINT('Origin',(18.6,45.0556913160255,30.));
#1620=CARTESIAN_POINT('',(5.59999999999947,41.805691316026,30.));
#1621=CARTESIAN_POINT('Origin',(10.8,45.0556913160255,30.));
#1622=CARTESIAN_POINT('',(18.6,41.8056913160255,30.));
#1623=CARTESIAN_POINT('',(18.6,41.8056913160255,30.));
#1624=CARTESIAN_POINT('Origin',(18.6,45.0556913160255,30.));
#1625=CARTESIAN_POINT('Origin',(22.6,51.2514436745185,0.399999999999991));
#1626=CARTESIAN_POINT('Origin',(22.6,51.2514436745185,0.399999999999991));
#1627=CARTESIAN_POINT('Origin',(22.6,51.2514436745185,0.));
#1628=CARTESIAN_POINT('Origin',(7.994241263691,-0.606483909163469,0.));
#1629=CARTESIAN_POINT('',(12.2000000000002,-40.9443086839745,-1.84158244209698E-13));
#1630=CARTESIAN_POINT('Origin',(14.6,-40.9443086839745,0.));
#1631=CARTESIAN_POINT('',(12.2000000000002,41.0556913160255,-1.84158244209698E-13));
#1632=CARTESIAN_POINT('Origin',(14.6,41.0556913160255,0.));
#1633=CARTESIAN_POINT('Origin',(18.6,0.0556913160255412,97.5));
#1634=CARTESIAN_POINT('Origin',(18.6,0.0556913160255412,97.5));
#1635=CARTESIAN_POINT('Origin',(14.6,-40.9443086839745,0.399999999999991));
#1636=CARTESIAN_POINT('',(12.6,-40.9443086839745,0.399999999999992));
#1637=CARTESIAN_POINT('Origin',(14.6,-40.9443086839745,0.399999999999991));
#1638=CARTESIAN_POINT('',(12.6,-40.9443086839745,0.399999999999991));
#1639=CARTESIAN_POINT('Origin',(14.6,41.0556913160255,0.399999999999991));
#1640=CARTESIAN_POINT('',(12.6,41.0556913160255,0.399999999999992));
#1641=CARTESIAN_POINT('Origin',(14.6,41.0556913160255,0.399999999999991));
#1642=CARTESIAN_POINT('',(12.6,41.0556913160255,0.399999999999991));
#1643=CARTESIAN_POINT('Origin',(14.6,-40.9443086839745,0.));
#1644=CARTESIAN_POINT('',(12.6,-40.9443086839745,6.00000000000001));
#1645=CARTESIAN_POINT('Origin',(14.6,-40.9443086839745,6.00000000000001));
#1646=CARTESIAN_POINT('',(12.6,-40.9443086839745,-1.73191211247101E-16));
#1647=CARTESIAN_POINT('Origin',(14.6,41.0556913160255,0.));
#1648=CARTESIAN_POINT('',(12.6,41.0556913160255,6.00000000000001));
#1649=CARTESIAN_POINT('Origin',(14.6,41.0556913160255,6.00000000000001));
#1650=CARTESIAN_POINT('',(12.6,41.0556913160255,-1.73191211247101E-16));
#1651=CARTESIAN_POINT('Origin',(14.6,0.0556913160255057,6.00000000000001));
#1652=CARTESIAN_POINT('Origin',(14.6,0.0556913160255057,6.00000000000001));
#1653=CARTESIAN_POINT('Origin',(-0.400000000000014,38.0556913160255,181.75));
#1654=CARTESIAN_POINT('',(1.01000317998999,38.9369433035195,181.35));
#1655=CARTESIAN_POINT('',(1.01000317998998,38.9369433035196,195.));
#1656=CARTESIAN_POINT('',(22.070001059997,52.0994419785235,181.35));
#1657=CARTESIAN_POINT('',(1.01000317998999,38.9369433035195,181.35));
#1658=CARTESIAN_POINT('',(22.070001059997,52.0994419785236,195.));
#1659=CARTESIAN_POINT('',(5.59999999999946,41.805691316026,151.75));
#1660=CARTESIAN_POINT('Origin',(10.8,45.0556913160255,151.75));
#1661=CARTESIAN_POINT('Origin',(2.59999999999999,36.3929483915045,181.75));
#1662=CARTESIAN_POINT('',(-0.400000000000014,36.3929483915045,181.35));
#1663=CARTESIAN_POINT('',(-0.400000000000018,36.3929483915046,195.));
#1664=CARTESIAN_POINT('Origin',(2.59999999999999,36.3929483915045,181.35));
#1665=CARTESIAN_POINT('Origin',(-0.400000000000014,-37.9443086839745,181.75));
#1666=CARTESIAN_POINT('',(-0.400000000000014,-36.3929483915045,181.35));
#1667=CARTESIAN_POINT('',(-0.400000000000018,-36.3929483915044,195.));
#1668=CARTESIAN_POINT('',(-0.400000000000014,-36.3929483915045,181.35));
#1669=CARTESIAN_POINT('Origin',(2.59999999999999,-36.3929483915045,181.75));
#1670=CARTESIAN_POINT('',(0.86594797765899,-38.8410218348145,181.35));
#1671=CARTESIAN_POINT('',(0.865947977658985,-38.8410218348144,195.));
#1672=CARTESIAN_POINT('Origin',(2.59999999999999,-36.3929483915045,181.35));
#1673=CARTESIAN_POINT('Origin',(23.6,-54.9443086839745,181.75));
#1674=CARTESIAN_POINT('',(19.31099132961,-51.9062608757745,181.35));
#1675=CARTESIAN_POINT('',(19.31099132961,-51.9062608757745,0.));
#1676=CARTESIAN_POINT('',(19.31099132961,-51.9062608757745,181.35));
#1677=CARTESIAN_POINT('',(14.0705882352954,-48.1943086839725,151.75));
#1678=CARTESIAN_POINT('Origin',(9.48235294117599,-44.9443086839745,151.75));
#1679=CARTESIAN_POINT('Origin',(19.6,-51.4982486352246,-13.25));
#1680=CARTESIAN_POINT('',(20.1,-51.4982486352245,181.35));
#1681=CARTESIAN_POINT('',(20.1,-51.4982486352245,0.));
#1682=CARTESIAN_POINT('Origin',(19.6,-51.4982486352245,181.35));
#1683=CARTESIAN_POINT('Origin',(20.1,-54.9443086839745,181.75));
#1684=CARTESIAN_POINT('',(20.1,-49.4443086839745,181.35));
#1685=CARTESIAN_POINT('',(20.1,-49.4443086839745,181.75));
#1686=CARTESIAN_POINT('',(20.1,-49.4443086839745,181.35));
#1687=CARTESIAN_POINT('Origin',(7.99424126369098,-0.606483909163469,181.75));
#1688=CARTESIAN_POINT('',(19.7,-49.0443086839745,181.75));
#1689=CARTESIAN_POINT('',(19.7,-51.4982486352245,181.75));
#1690=CARTESIAN_POINT('',(19.7,-49.4443086839745,181.75));
#1691=CARTESIAN_POINT('',(23.2,-49.0443086839745,181.75));
#1692=CARTESIAN_POINT('',(20.1,-49.0443086839745,181.75));
#1693=CARTESIAN_POINT('',(23.2,-35.3443086839745,181.75));
#1694=CARTESIAN_POINT('',(23.2,-34.9443086839745,181.75));
#1695=CARTESIAN_POINT('',(2.19999999999999,-35.3443086839745,181.75));
#1696=CARTESIAN_POINT('',(2.59999999999999,-35.3443086839745,181.75));
#1697=CARTESIAN_POINT('',(2.19999999999999,35.4556913160255,181.75));
#1698=CARTESIAN_POINT('',(2.19999999999999,35.0556913160255,181.75));
#1699=CARTESIAN_POINT('',(23.2,35.4556913160255,181.75));
#1700=CARTESIAN_POINT('',(23.6,35.4556913160255,181.75));
#1701=CARTESIAN_POINT('',(23.2,51.2514436745185,181.75));
#1702=CARTESIAN_POINT('',(23.2,51.2514436745185,181.75));
#1703=CARTESIAN_POINT('',(22.282000635998,51.7602426569215,181.75));
#1704=CARTESIAN_POINT('Origin',(22.6,51.2514436745185,181.75));
#1705=CARTESIAN_POINT('',(1.22200275599199,38.5977439819175,181.75));
#1706=CARTESIAN_POINT('',(1.22200275599199,38.5977439819175,181.75));
#1707=CARTESIAN_POINT('',(-1.33226762955019E-14,36.3929483915045,181.75));
#1708=CARTESIAN_POINT('Origin',(2.59999999999999,36.3929483915045,181.75));
#1709=CARTESIAN_POINT('',(-1.33226762955019E-14,-36.3929483915045,181.75));
#1710=CARTESIAN_POINT('',(-1.33226762955019E-14,-36.3929483915045,181.75));
#1711=CARTESIAN_POINT('',(1.09715491397099,-38.5146120423745,181.75));
#1712=CARTESIAN_POINT('Origin',(2.59999999999999,-36.3929483915045,181.75));
#1713=CARTESIAN_POINT('',(19.542198265922,-51.5798510833345,181.75));
#1714=CARTESIAN_POINT('',(19.542198265922,-51.5798510833345,181.75));
#1715=CARTESIAN_POINT('Origin',(19.6,-51.4982486352245,181.75));
#1716=CARTESIAN_POINT('',(12.2000000000002,-40.9443086839745,181.75));
#1717=CARTESIAN_POINT('Origin',(14.6,-40.9443086839745,181.75));
#1718=CARTESIAN_POINT('',(12.2000000000002,41.0556913160256,181.75));
#1719=CARTESIAN_POINT('Origin',(14.6,41.0556913160256,181.75));
#1720=CARTESIAN_POINT('Origin',(19.9,-49.4443086839745,181.55));
#1721=CARTESIAN_POINT('',(19.966666666667,-49.3109753506345,181.4833333333));
#1722=CARTESIAN_POINT('',(19.9,-51.4982486352245,181.55));
#1723=CARTESIAN_POINT('Origin',(20.1,-49.2443086839745,181.55));
#1724=CARTESIAN_POINT('',(23.6,-49.4443086839745,181.35));
#1725=CARTESIAN_POINT('',(20.1,-49.4443086839745,181.35));
#1726=CARTESIAN_POINT('',(20.466666666667,-46.3109753506345,184.4833333333));
#1727=CARTESIAN_POINT('Origin',(19.6,-51.4982486352245,181.35));
#1728=CARTESIAN_POINT('',(19.31099132961,-51.9062608757745,181.35));
#1729=CARTESIAN_POINT('Origin',(23.4,-34.9443086839745,181.55));
#1730=CARTESIAN_POINT('',(23.6,-34.9443086839745,181.35));
#1731=CARTESIAN_POINT('',(19.966666666667,-38.5776420173045,184.9833333333));
#1732=CARTESIAN_POINT('',(23.6,-34.9443086839745,181.35));
#1733=CARTESIAN_POINT('Origin',(19.426594797766,-51.7430559795545,181.55));
#1734=CARTESIAN_POINT('',(0.98155144581499,-38.6778169385945,181.55));
#1735=CARTESIAN_POINT('Origin',(2.59999999999999,-35.1443086839745,181.55));
#1736=CARTESIAN_POINT('',(2.59999999999999,-34.9443086839745,181.35));
#1737=CARTESIAN_POINT('',(14.133333333333,-23.4109753506345,169.8166666666));
#1738=CARTESIAN_POINT('',(2.59999999999999,-34.9443086839745,181.35));
#1739=CARTESIAN_POINT('Origin',(2.59999999999999,-36.3929483915045,181.35));
#1740=CARTESIAN_POINT('',(-0.400000000000014,-36.3929483915045,181.35));
#1741=CARTESIAN_POINT('Origin',(2.39999999999999,35.0556913160255,181.55));
#1742=CARTESIAN_POINT('',(2.59999999999999,35.0556913160255,181.35));
#1743=CARTESIAN_POINT('',(5.96666666666699,31.6890246493585,177.9833333333));
#1744=CARTESIAN_POINT('',(2.59999999999999,35.0556913160255,181.35));
#1745=CARTESIAN_POINT('Origin',(-0.200000000000014,-36.3929483915045,181.55));
#1746=CARTESIAN_POINT('',(-0.200000000000014,36.3929483915045,181.55));
#1747=CARTESIAN_POINT('Origin',(23.6,35.2556913160255,181.55));
#1748=CARTESIAN_POINT('',(23.6,35.0556913160255,181.35));
#1749=CARTESIAN_POINT('',(20.767374606918,37.8883167091075,184.182625393));
#1750=CARTESIAN_POINT('',(23.6,35.0556913160255,181.35));
#1751=CARTESIAN_POINT('Origin',(2.59999999999999,36.3929483915045,181.35));
#1752=CARTESIAN_POINT('',(1.01000317998999,38.9369433035195,181.35));
#1753=CARTESIAN_POINT('Origin',(23.4,51.2514436745185,181.55));
#1754=CARTESIAN_POINT('',(23.6,51.2514436745185,181.35));
#1755=CARTESIAN_POINT('',(23.6,51.2514436745185,181.35));
#1756=CARTESIAN_POINT('',(23.6,51.2514436745185,181.35));
#1757=CARTESIAN_POINT('Origin',(1.11600296799099,38.7673436427185,181.55));
#1758=CARTESIAN_POINT('',(22.176000847997,51.9298423177226,181.55));
#1759=CARTESIAN_POINT('Origin',(22.6,51.2514436745185,181.35));
#1760=CARTESIAN_POINT('Origin',(22.6,51.2514436745185,181.35));
#1761=CARTESIAN_POINT('Origin',(14.6,-40.9443086839745,181.35));
#1762=CARTESIAN_POINT('',(12.6,-40.9443086839745,181.35));
#1763=CARTESIAN_POINT('Origin',(14.6,-40.9443086839745,181.35));
#1764=CARTESIAN_POINT('',(12.6,-40.9443086839745,181.35));
#1765=CARTESIAN_POINT('Origin',(14.6,41.0556913160256,181.35));
#1766=CARTESIAN_POINT('',(12.6,41.0556913160256,181.35));
#1767=CARTESIAN_POINT('Origin',(14.6,41.0556913160256,181.35));
#1768=CARTESIAN_POINT('',(12.6,41.0556913160256,181.35));
#1769=CARTESIAN_POINT('Origin',(14.6,-40.9443086839745,181.75));
#1770=CARTESIAN_POINT('',(12.6,-40.9443086839745,175.75));
#1771=CARTESIAN_POINT('Origin',(14.6,-40.9443086839745,175.75));
#1772=CARTESIAN_POINT('',(12.6,-40.9443086839745,181.75));
#1773=CARTESIAN_POINT('Origin',(14.6,41.0556913160256,181.75));
#1774=CARTESIAN_POINT('',(12.6,41.0556913160256,175.75));
#1775=CARTESIAN_POINT('Origin',(14.6,41.0556913160255,175.75));
#1776=CARTESIAN_POINT('',(12.6,41.0556913160256,181.75));
#1777=CARTESIAN_POINT('Origin',(23.6,-44.9443086839745,151.75));
#1778=CARTESIAN_POINT('',(18.6,-46.5943086839745,151.75));
#1779=CARTESIAN_POINT('Origin',(18.6,-44.9443086839745,151.75));
#1780=CARTESIAN_POINT('',(23.6,-46.5943086839745,151.75));
#1781=CARTESIAN_POINT('',(23.6,-46.5943086839745,151.75));
#1782=CARTESIAN_POINT('Origin',(23.6,-44.9443086839745,151.75));
#1783=CARTESIAN_POINT('Origin',(18.6,-44.9443086839745,151.75));
#1784=CARTESIAN_POINT('',(18.6,-48.1943086839745,151.75));
#1785=CARTESIAN_POINT('',(18.6,-48.1943086839745,151.75));
#1786=CARTESIAN_POINT('Origin',(18.6,-44.9443086839745,151.75));
#1787=CARTESIAN_POINT('Origin',(23.6,45.0556913160255,151.75));
#1788=CARTESIAN_POINT('',(18.6,43.4056913160255,151.75));
#1789=CARTESIAN_POINT('Origin',(18.6,45.0556913160255,151.75));
#1790=CARTESIAN_POINT('',(23.6,43.4056913160255,151.75));
#1791=CARTESIAN_POINT('',(23.6,43.4056913160255,151.75));
#1792=CARTESIAN_POINT('Origin',(23.6,45.0556913160255,151.75));
#1793=CARTESIAN_POINT('Origin',(18.6,45.0556913160255,151.75));
#1794=CARTESIAN_POINT('',(18.6,41.8056913160255,151.75));
#1795=CARTESIAN_POINT('',(18.6,41.8056913160255,151.75));
#1796=CARTESIAN_POINT('Origin',(18.6,45.0556913160255,151.75));
#1797=CARTESIAN_POINT('Origin',(14.6,0.0556913160255057,175.75));
#1798=CARTESIAN_POINT('Origin',(14.6,0.0556913160255057,175.75));
#1799=CARTESIAN_POINT('Origin',(18.6,0.0556913160254702,84.25));
#1800=CARTESIAN_POINT('Origin',(18.6,0.0556913160254702,84.25));
#1801=CARTESIAN_POINT('Origin',(22.6,51.2514436745185,181.75));
#1802=CARTESIAN_POINT('',(23.6,51.2514436745186,195.));
#1803=CARTESIAN_POINT('Origin',(23.6,53.0556913160255,181.75));
#1804=CARTESIAN_POINT('',(23.6,35.0556913160256,195.));
#1805=CARTESIAN_POINT('Origin',(23.6,35.0556913160255,181.75));
#1806=CARTESIAN_POINT('',(2.59999999999998,35.0556913160256,195.));
#1807=CARTESIAN_POINT('Origin',(2.59999999999999,35.0556913160255,181.75));
#1808=CARTESIAN_POINT('',(2.59999999999998,-34.9443086839744,195.));
#1809=CARTESIAN_POINT('Origin',(2.59999999999999,-34.9443086839745,181.75));
#1810=CARTESIAN_POINT('',(23.6,-34.9443086839744,195.));
#1811=CARTESIAN_POINT('Origin',(23.6,-34.9443086839745,181.75));
#1812=CARTESIAN_POINT('',(23.6,-49.4443086839744,195.));
#1813=CARTESIAN_POINT('Origin',(20.1,-49.4443086839745,181.75));
#1814=UNCERTAINTY_MEASURE_WITH_UNIT(LENGTH_MEASURE(0.01),#1818,
'DISTANCE_ACCURACY_VALUE',
'Maximum model space distance between geometric entities at asserted c
onnectivities');
#1815=UNCERTAINTY_MEASURE_WITH_UNIT(LENGTH_MEASURE(0.01),#1818,
'DISTANCE_ACCURACY_VALUE',
'Maximum model space distance between geometric entities at asserted c
onnectivities');
#1816=(
GEOMETRIC_REPRESENTATION_CONTEXT(3)
GLOBAL_UNCERTAINTY_ASSIGNED_CONTEXT((#1814))
GLOBAL_UNIT_ASSIGNED_CONTEXT((#1818,#1820,#1821))
REPRESENTATION_CONTEXT('','3D')
);
#1817=(
GEOMETRIC_REPRESENTATION_CONTEXT(3)
GLOBAL_UNCERTAINTY_ASSIGNED_CONTEXT((#1815))
GLOBAL_UNIT_ASSIGNED_CONTEXT((#1818,#1820,#1821))
REPRESENTATION_CONTEXT('','3D')
);
#1818=(
LENGTH_UNIT()
NAMED_UNIT(*)
SI_UNIT(.MILLI.,.METRE.)
);
#1819=(
LENGTH_UNIT()
NAMED_UNIT(*)
SI_UNIT($,.METRE.)
);
#1820=(
NAMED_UNIT(*)
PLANE_ANGLE_UNIT()
SI_UNIT($,.RADIAN.)
);
#1821=(
NAMED_UNIT(*)
SI_UNIT($,.STERADIAN.)
SOLID_ANGLE_UNIT()
);
#1822=SHAPE_DEFINITION_REPRESENTATION(#1823,#1824);
#1823=PRODUCT_DEFINITION_SHAPE('',$,#1826);
#1824=SHAPE_REPRESENTATION('',(#1082),#1816);
#1825=PRODUCT_DEFINITION_CONTEXT('part definition',#1830,'design');
#1826=PRODUCT_DEFINITION('MAIN','Proosa Mini - panels - export v2',#1827,
#1825);
#1827=PRODUCT_DEFINITION_FORMATION('',$,#1832);
#1828=PRODUCT_RELATED_PRODUCT_CATEGORY(
'Proosa Mini - panels - export v2','Proosa Mini - panels - export v2',(#1832));
#1829=APPLICATION_PROTOCOL_DEFINITION('international standard',
'automotive_design',2009,#1830);
#1830=APPLICATION_CONTEXT(
'Core Data for Automotive Mechanical Design Process');
#1831=PRODUCT_CONTEXT('part definition',#1830,'mechanical');
#1832=PRODUCT('MAIN','Proosa Mini - panels - export v2','FreeCAD Model',
(#1831));
#1833=PRESENTATION_STYLE_ASSIGNMENT((#1835));
#1834=PRESENTATION_STYLE_ASSIGNMENT((#1836));
#1835=SURFACE_STYLE_USAGE(.BOTH.,#1837);
#1836=SURFACE_STYLE_USAGE(.BOTH.,#1838);
#1837=SURFACE_SIDE_STYLE('',(#1839));
#1838=SURFACE_SIDE_STYLE('',(#1840));
#1839=SURFACE_STYLE_FILL_AREA(#1841);
#1840=SURFACE_STYLE_FILL_AREA(#1842);
#1841=FILL_AREA_STYLE('Acero - Satinado',(#1843));
#1842=FILL_AREA_STYLE('Opaque(82,82,82)',(#1844));
#1843=FILL_AREA_STYLE_COLOUR('Acero - Satinado',#1845);
#1844=FILL_AREA_STYLE_COLOUR('Opaque(82,82,82)',#1846);
#1845=COLOUR_RGB('Acero - Satinado',0.627450980392157,0.627450980392157,
0.627450980392157);
#1846=COLOUR_RGB('Opaque(82,82,82)',0.32156862745098,0.32156862745098,0.32156862745098);
ENDSEC;
END-ISO-10303-21;
